M48
; DRILL file {KiCad (5.1.6)-1} date 07/27/21 20:35:08
; FORMAT={2:4/ absolute / inch / suppress leading zeros}
; #@! TF.CreationDate,2021-07-27T20:35:08+01:00
; #@! TF.GenerationSoftware,Kicad,Pcbnew,(5.1.6)-1
; #@! TF.FileFunction,Plated,1,2,PTH
FMAT,2
INCH,TZ
T1C0.0157
T2C0.0300
T3C0.0315
T4C0.0394
T5C0.0433
%
G90
G05
T1
X35000Y-53500
X35300Y-47100
X35400Y-61400
X36000Y-38500
X36500Y-52500
X38000Y-46500
X38000Y-66500
X41000Y-54000
X41000Y-66500
X41231Y-38500
X44300Y-47600
X45000Y-42500
X45000Y-49500
X45000Y-60000
X45400Y-56300
X45500Y-54500
X45500Y-66500
X46500Y-44488
X46500Y-49200
X48000Y-38500
X48000Y-66500
X50000Y-38500
X50500Y-66500
X51500Y-53000
T2
X37800Y-64600
X38850Y-64600
X42517Y-44956
X42517Y-45956
X42517Y-46956
X42517Y-47956
X42517Y-48956
X42517Y-49956
X42517Y-50956
X42517Y-51956
X42517Y-52956
X42517Y-53956
X42517Y-54956
X42517Y-55956
X42517Y-56956
X42517Y-57956
X42517Y-58956
X42517Y-59956
X42517Y-60956
X42517Y-61956
X42517Y-62956
X42517Y-63956
X48517Y-44956
X48517Y-45956
X48517Y-46956
X48517Y-47956
X48517Y-48956
X48517Y-49956
X48517Y-50956
X48517Y-51956
X48517Y-52956
X48517Y-53956
X48517Y-54956
X48517Y-55956
X48517Y-56956
X48517Y-57956
X48517Y-58956
X48517Y-59956
X48517Y-60956
X48517Y-61956
X48517Y-62956
X48517Y-63956
X44467Y-38806
X45517Y-38806
T3
X36567Y-54306
X36567Y-55306
X36567Y-56306
X36567Y-57306
X39567Y-54306
X39567Y-55306
X39567Y-56306
X39567Y-57306
X36567Y-61806
X39567Y-61806
X37583Y-52806
X38567Y-52806
X36567Y-39806
X36567Y-42806
T4
X33800Y-39800
X33800Y-40800
X33800Y-41800
X33800Y-42800
X33800Y-43800
X33800Y-44800
X33800Y-45800
X33800Y-46800
X33800Y-47800
X33800Y-48800
X33800Y-49800
X33800Y-50800
X33800Y-51800
X33800Y-52800
X33800Y-53800
X33800Y-54800
X46067Y-41306
X46067Y-42306
X47067Y-41306
X47067Y-42306
X48067Y-41306
X48067Y-42306
X49067Y-41306
X49067Y-42306
X36567Y-59306
X37567Y-59306
X38567Y-59306
X39567Y-59306
X41598Y-41806
X43567Y-41806
X51400Y-44706
X51400Y-45706
X51400Y-46706
X51400Y-47706
X51400Y-48706
X34000Y-61800
X34000Y-62800
X34000Y-63800
X34000Y-64800
X34000Y-65800
X36567Y-44806
X37567Y-44806
X38567Y-44806
X39567Y-44806
X37098Y-49306
X39067Y-49306
X51400Y-57306
X51400Y-58306
X51400Y-59306
X51400Y-60306
X51400Y-61306
X51400Y-62306
X51400Y-63306
X51400Y-64306
T5
X39067Y-40306
X39067Y-41306
X39067Y-42306
X34200Y-57400
X34200Y-58400
X34200Y-59400
T0
M30
