G04 #@! TF.GenerationSoftware,KiCad,Pcbnew,(5.1.6)-1*
G04 #@! TF.CreationDate,2021-07-27T20:37:59+01:00*
G04 #@! TF.ProjectId,master_controller_v1,6d617374-6572-45f6-936f-6e74726f6c6c,1.0*
G04 #@! TF.SameCoordinates,Original*
G04 #@! TF.FileFunction,Soldermask,Bot*
G04 #@! TF.FilePolarity,Negative*
%FSLAX46Y46*%
G04 Gerber Fmt 4.6, Leading zero omitted, Abs format (unit mm)*
G04 Created by KiCad (PCBNEW (5.1.6)-1) date 2021-07-27 20:37:59*
%MOMM*%
%LPD*%
G01*
G04 APERTURE LIST*
%ADD10O,1.800000X1.800000*%
%ADD11R,1.800000X1.800000*%
%ADD12C,2.600000*%
%ADD13C,1.624000*%
%ADD14R,2.100000X2.100000*%
%ADD15C,2.100000*%
%ADD16O,1.700000X1.700000*%
%ADD17C,1.700000*%
%ADD18O,2.100000X2.005000*%
%ADD19R,2.100000X2.005000*%
%ADD20R,1.700000X1.700000*%
G04 APERTURE END LIST*
D10*
X100500000Y-113806000D03*
X97960000Y-113806000D03*
X95420000Y-113806000D03*
D11*
X92880000Y-113806000D03*
D12*
X109220000Y-168910000D03*
X130810000Y-99568000D03*
D13*
X96012000Y-164084000D03*
X98679000Y-164084000D03*
X112946000Y-98566000D03*
X115613000Y-98566000D03*
X107993000Y-114187000D03*
X107993000Y-116727000D03*
X107993000Y-119267000D03*
X107993000Y-121807000D03*
X107993000Y-124347000D03*
X107993000Y-126887000D03*
X107993000Y-129427000D03*
X107993000Y-131967000D03*
X107993000Y-134507000D03*
X107993000Y-137047000D03*
X107993000Y-139587000D03*
X107993000Y-142127000D03*
X107993000Y-144667000D03*
X107993000Y-147207000D03*
X107993000Y-149747000D03*
X107993000Y-152287000D03*
X107993000Y-154827000D03*
X107993000Y-157367000D03*
X107993000Y-159907000D03*
X107993000Y-162447000D03*
X123233000Y-162447000D03*
X123233000Y-159907000D03*
X123233000Y-157367000D03*
X123233000Y-154827000D03*
X123233000Y-152287000D03*
X123233000Y-149747000D03*
X123233000Y-147207000D03*
X123233000Y-144667000D03*
X123233000Y-142127000D03*
X123233000Y-139587000D03*
X123233000Y-137047000D03*
X123233000Y-134507000D03*
X123233000Y-131967000D03*
X123233000Y-129427000D03*
X123233000Y-126887000D03*
X123233000Y-124347000D03*
X123233000Y-121807000D03*
X123233000Y-119267000D03*
X123233000Y-116727000D03*
X123233000Y-114187000D03*
D14*
X99230000Y-125236000D03*
D15*
X94230000Y-125236000D03*
X105660000Y-106186000D03*
D14*
X110660000Y-106186000D03*
D10*
X85852000Y-139192000D03*
X85852000Y-136652000D03*
X85852000Y-134112000D03*
X85852000Y-131572000D03*
X85852000Y-129032000D03*
X85852000Y-126492000D03*
X85852000Y-123952000D03*
X85852000Y-121412000D03*
X85852000Y-118872000D03*
X85852000Y-116332000D03*
X85852000Y-113792000D03*
X85852000Y-111252000D03*
X85852000Y-108712000D03*
X85852000Y-106172000D03*
X85852000Y-103632000D03*
D11*
X85852000Y-101092000D03*
D10*
X86360000Y-167132000D03*
X86360000Y-164592000D03*
X86360000Y-162052000D03*
X86360000Y-159512000D03*
D11*
X86360000Y-156972000D03*
D10*
X100500000Y-150636000D03*
X97960000Y-150636000D03*
X95420000Y-150636000D03*
D11*
X92880000Y-150636000D03*
X124630000Y-107456000D03*
D10*
X124630000Y-104916000D03*
X122090000Y-107456000D03*
X122090000Y-104916000D03*
X119550000Y-107456000D03*
X119550000Y-104916000D03*
X117010000Y-107456000D03*
X117010000Y-104916000D03*
X130556000Y-163336000D03*
X130556000Y-160796000D03*
X130556000Y-158256000D03*
X130556000Y-155716000D03*
X130556000Y-153176000D03*
X130556000Y-150636000D03*
X130556000Y-148096000D03*
D11*
X130556000Y-145556000D03*
D16*
X92880000Y-101106000D03*
D17*
X92880000Y-108726000D03*
D18*
X99230000Y-102376000D03*
X99230000Y-104916000D03*
D19*
X99230000Y-107456000D03*
X86868000Y-150876000D03*
D18*
X86868000Y-148336000D03*
X86868000Y-145796000D03*
D16*
X100500000Y-137936000D03*
X92880000Y-145556000D03*
X100500000Y-140476000D03*
X92880000Y-143016000D03*
X100500000Y-143016000D03*
X92880000Y-140476000D03*
X100500000Y-145556000D03*
D20*
X92880000Y-137936000D03*
D16*
X92880000Y-156986000D03*
D17*
X100500000Y-156986000D03*
X97960000Y-134126000D03*
X95460000Y-134126000D03*
D11*
X130556000Y-113552000D03*
D10*
X130556000Y-116092000D03*
X130556000Y-118632000D03*
X130556000Y-121172000D03*
X130556000Y-123712000D03*
M02*
