G04 #@! TF.GenerationSoftware,KiCad,Pcbnew,(5.1.6)-1*
G04 #@! TF.CreationDate,2021-07-27T20:37:59+01:00*
G04 #@! TF.ProjectId,master_controller_v1,6d617374-6572-45f6-936f-6e74726f6c6c,1.0*
G04 #@! TF.SameCoordinates,Original*
G04 #@! TF.FileFunction,Legend,Top*
G04 #@! TF.FilePolarity,Positive*
%FSLAX46Y46*%
G04 Gerber Fmt 4.6, Leading zero omitted, Abs format (unit mm)*
G04 Created by KiCad (PCBNEW (5.1.6)-1) date 2021-07-27 20:37:59*
%MOMM*%
%LPD*%
G01*
G04 APERTURE LIST*
%ADD10C,0.150000*%
%ADD11C,0.120000*%
G04 APERTURE END LIST*
D10*
X116459047Y-102687428D02*
X117220952Y-102687428D01*
X124079047Y-109291428D02*
X124840952Y-109291428D01*
X124460000Y-109672380D02*
X124460000Y-108910476D01*
X83439047Y-103703428D02*
X84200952Y-103703428D01*
X83185047Y-100909428D02*
X83946952Y-100909428D01*
X83566000Y-101290380D02*
X83566000Y-100528476D01*
X94869047Y-116149428D02*
X95630952Y-116149428D01*
X92329047Y-116149428D02*
X93090952Y-116149428D01*
X92710000Y-116530380D02*
X92710000Y-115768476D01*
X132461047Y-115895428D02*
X133222952Y-115895428D01*
X132461047Y-113101428D02*
X133222952Y-113101428D01*
X132842000Y-113482380D02*
X132842000Y-112720476D01*
X115189047Y-96591428D02*
X115950952Y-96591428D01*
X112649047Y-96591428D02*
X113410952Y-96591428D01*
X113030000Y-96972380D02*
X113030000Y-96210476D01*
X98679047Y-166441428D02*
X99440952Y-166441428D01*
X94869047Y-166441428D02*
X95630952Y-166441428D01*
X95250000Y-166822380D02*
X95250000Y-166060476D01*
D11*
X91550000Y-113806000D02*
X91550000Y-112476000D01*
X91550000Y-112476000D02*
X92880000Y-112476000D01*
X94150000Y-112476000D02*
X101830000Y-112476000D01*
X101830000Y-115136000D02*
X101830000Y-112476000D01*
X94150000Y-115136000D02*
X101830000Y-115136000D01*
X94150000Y-115136000D02*
X94150000Y-112476000D01*
X94869000Y-165227000D02*
X94869000Y-163068000D01*
X94869000Y-163068000D02*
X100076000Y-163068000D01*
X100076000Y-163068000D02*
X100076000Y-165354000D01*
X100076000Y-165354000D02*
X94869000Y-165354000D01*
X111803000Y-99709000D02*
X111803000Y-97550000D01*
X111803000Y-97550000D02*
X117010000Y-97550000D01*
X117010000Y-97550000D02*
X117010000Y-99836000D01*
X117010000Y-99836000D02*
X111803000Y-99836000D01*
X125773000Y-112917000D02*
X105453000Y-112917000D01*
X105453000Y-112917000D02*
X105453000Y-163717000D01*
X105453000Y-163717000D02*
X125773000Y-163717000D01*
X125773000Y-163717000D02*
X125773000Y-112917000D01*
X101850000Y-125236000D02*
G75*
G03*
X101850000Y-125236000I-5120000J0D01*
G01*
X96730000Y-130316000D02*
X96730000Y-120156000D01*
X96690000Y-130316000D02*
X96690000Y-120156000D01*
X96650000Y-130316000D02*
X96650000Y-120156000D01*
X96610000Y-130315000D02*
X96610000Y-120157000D01*
X96570000Y-130314000D02*
X96570000Y-120158000D01*
X96530000Y-130313000D02*
X96530000Y-120159000D01*
X96490000Y-130311000D02*
X96490000Y-120161000D01*
X96450000Y-130309000D02*
X96450000Y-120163000D01*
X96410000Y-130306000D02*
X96410000Y-120166000D01*
X96370000Y-130304000D02*
X96370000Y-120168000D01*
X96330000Y-130301000D02*
X96330000Y-120171000D01*
X96290000Y-130298000D02*
X96290000Y-120174000D01*
X96250000Y-130294000D02*
X96250000Y-120178000D01*
X96210000Y-130290000D02*
X96210000Y-120182000D01*
X96170000Y-130286000D02*
X96170000Y-120186000D01*
X96130000Y-130281000D02*
X96130000Y-120191000D01*
X96090000Y-130276000D02*
X96090000Y-120196000D01*
X96050000Y-130271000D02*
X96050000Y-120201000D01*
X96009000Y-130266000D02*
X96009000Y-120206000D01*
X95969000Y-130260000D02*
X95969000Y-120212000D01*
X95929000Y-130254000D02*
X95929000Y-120218000D01*
X95889000Y-130247000D02*
X95889000Y-120225000D01*
X95849000Y-130240000D02*
X95849000Y-120232000D01*
X95809000Y-130233000D02*
X95809000Y-120239000D01*
X95769000Y-130226000D02*
X95769000Y-120246000D01*
X95729000Y-130218000D02*
X95729000Y-120254000D01*
X95689000Y-130210000D02*
X95689000Y-120262000D01*
X95649000Y-130201000D02*
X95649000Y-120271000D01*
X95609000Y-130192000D02*
X95609000Y-120280000D01*
X95569000Y-130183000D02*
X95569000Y-120289000D01*
X95529000Y-130174000D02*
X95529000Y-120298000D01*
X95489000Y-130164000D02*
X95489000Y-120308000D01*
X95449000Y-130154000D02*
X95449000Y-126477000D01*
X95449000Y-123995000D02*
X95449000Y-120318000D01*
X95409000Y-130143000D02*
X95409000Y-126477000D01*
X95409000Y-123995000D02*
X95409000Y-120329000D01*
X95369000Y-130133000D02*
X95369000Y-126477000D01*
X95369000Y-123995000D02*
X95369000Y-120339000D01*
X95329000Y-130121000D02*
X95329000Y-126477000D01*
X95329000Y-123995000D02*
X95329000Y-120351000D01*
X95289000Y-130110000D02*
X95289000Y-126477000D01*
X95289000Y-123995000D02*
X95289000Y-120362000D01*
X95249000Y-130098000D02*
X95249000Y-126477000D01*
X95249000Y-123995000D02*
X95249000Y-120374000D01*
X95209000Y-130086000D02*
X95209000Y-126477000D01*
X95209000Y-123995000D02*
X95209000Y-120386000D01*
X95169000Y-130073000D02*
X95169000Y-126477000D01*
X95169000Y-123995000D02*
X95169000Y-120399000D01*
X95129000Y-130060000D02*
X95129000Y-126477000D01*
X95129000Y-123995000D02*
X95129000Y-120412000D01*
X95089000Y-130047000D02*
X95089000Y-126477000D01*
X95089000Y-123995000D02*
X95089000Y-120425000D01*
X95049000Y-130033000D02*
X95049000Y-126477000D01*
X95049000Y-123995000D02*
X95049000Y-120439000D01*
X95009000Y-130019000D02*
X95009000Y-126477000D01*
X95009000Y-123995000D02*
X95009000Y-120453000D01*
X94969000Y-130004000D02*
X94969000Y-126477000D01*
X94969000Y-123995000D02*
X94969000Y-120468000D01*
X94929000Y-129990000D02*
X94929000Y-126477000D01*
X94929000Y-123995000D02*
X94929000Y-120482000D01*
X94889000Y-129974000D02*
X94889000Y-126477000D01*
X94889000Y-123995000D02*
X94889000Y-120498000D01*
X94849000Y-129959000D02*
X94849000Y-126477000D01*
X94849000Y-123995000D02*
X94849000Y-120513000D01*
X94809000Y-129943000D02*
X94809000Y-126477000D01*
X94809000Y-123995000D02*
X94809000Y-120529000D01*
X94769000Y-129926000D02*
X94769000Y-126477000D01*
X94769000Y-123995000D02*
X94769000Y-120546000D01*
X94729000Y-129910000D02*
X94729000Y-126477000D01*
X94729000Y-123995000D02*
X94729000Y-120562000D01*
X94689000Y-129893000D02*
X94689000Y-126477000D01*
X94689000Y-123995000D02*
X94689000Y-120579000D01*
X94649000Y-129875000D02*
X94649000Y-126477000D01*
X94649000Y-123995000D02*
X94649000Y-120597000D01*
X94609000Y-129857000D02*
X94609000Y-126477000D01*
X94609000Y-123995000D02*
X94609000Y-120615000D01*
X94569000Y-129839000D02*
X94569000Y-126477000D01*
X94569000Y-123995000D02*
X94569000Y-120633000D01*
X94529000Y-129820000D02*
X94529000Y-126477000D01*
X94529000Y-123995000D02*
X94529000Y-120652000D01*
X94489000Y-129800000D02*
X94489000Y-126477000D01*
X94489000Y-123995000D02*
X94489000Y-120672000D01*
X94449000Y-129781000D02*
X94449000Y-126477000D01*
X94449000Y-123995000D02*
X94449000Y-120691000D01*
X94409000Y-129761000D02*
X94409000Y-126477000D01*
X94409000Y-123995000D02*
X94409000Y-120711000D01*
X94369000Y-129740000D02*
X94369000Y-126477000D01*
X94369000Y-123995000D02*
X94369000Y-120732000D01*
X94329000Y-129719000D02*
X94329000Y-126477000D01*
X94329000Y-123995000D02*
X94329000Y-120753000D01*
X94289000Y-129698000D02*
X94289000Y-126477000D01*
X94289000Y-123995000D02*
X94289000Y-120774000D01*
X94249000Y-129676000D02*
X94249000Y-126477000D01*
X94249000Y-123995000D02*
X94249000Y-120796000D01*
X94209000Y-129653000D02*
X94209000Y-126477000D01*
X94209000Y-123995000D02*
X94209000Y-120819000D01*
X94169000Y-129631000D02*
X94169000Y-126477000D01*
X94169000Y-123995000D02*
X94169000Y-120841000D01*
X94129000Y-129607000D02*
X94129000Y-126477000D01*
X94129000Y-123995000D02*
X94129000Y-120865000D01*
X94089000Y-129583000D02*
X94089000Y-126477000D01*
X94089000Y-123995000D02*
X94089000Y-120889000D01*
X94049000Y-129559000D02*
X94049000Y-126477000D01*
X94049000Y-123995000D02*
X94049000Y-120913000D01*
X94009000Y-129534000D02*
X94009000Y-126477000D01*
X94009000Y-123995000D02*
X94009000Y-120938000D01*
X93969000Y-129509000D02*
X93969000Y-126477000D01*
X93969000Y-123995000D02*
X93969000Y-120963000D01*
X93929000Y-129483000D02*
X93929000Y-126477000D01*
X93929000Y-123995000D02*
X93929000Y-120989000D01*
X93889000Y-129457000D02*
X93889000Y-126477000D01*
X93889000Y-123995000D02*
X93889000Y-121015000D01*
X93849000Y-129430000D02*
X93849000Y-126477000D01*
X93849000Y-123995000D02*
X93849000Y-121042000D01*
X93809000Y-129402000D02*
X93809000Y-126477000D01*
X93809000Y-123995000D02*
X93809000Y-121070000D01*
X93769000Y-129374000D02*
X93769000Y-126477000D01*
X93769000Y-123995000D02*
X93769000Y-121098000D01*
X93729000Y-129346000D02*
X93729000Y-126477000D01*
X93729000Y-123995000D02*
X93729000Y-121126000D01*
X93689000Y-129316000D02*
X93689000Y-126477000D01*
X93689000Y-123995000D02*
X93689000Y-121156000D01*
X93649000Y-129286000D02*
X93649000Y-126477000D01*
X93649000Y-123995000D02*
X93649000Y-121186000D01*
X93609000Y-129256000D02*
X93609000Y-126477000D01*
X93609000Y-123995000D02*
X93609000Y-121216000D01*
X93569000Y-129225000D02*
X93569000Y-126477000D01*
X93569000Y-123995000D02*
X93569000Y-121247000D01*
X93529000Y-129193000D02*
X93529000Y-126477000D01*
X93529000Y-123995000D02*
X93529000Y-121279000D01*
X93489000Y-129161000D02*
X93489000Y-126477000D01*
X93489000Y-123995000D02*
X93489000Y-121311000D01*
X93449000Y-129128000D02*
X93449000Y-126477000D01*
X93449000Y-123995000D02*
X93449000Y-121344000D01*
X93409000Y-129094000D02*
X93409000Y-126477000D01*
X93409000Y-123995000D02*
X93409000Y-121378000D01*
X93369000Y-129060000D02*
X93369000Y-126477000D01*
X93369000Y-123995000D02*
X93369000Y-121412000D01*
X93329000Y-129025000D02*
X93329000Y-126477000D01*
X93329000Y-123995000D02*
X93329000Y-121447000D01*
X93289000Y-128989000D02*
X93289000Y-126477000D01*
X93289000Y-123995000D02*
X93289000Y-121483000D01*
X93249000Y-128952000D02*
X93249000Y-126477000D01*
X93249000Y-123995000D02*
X93249000Y-121520000D01*
X93209000Y-128915000D02*
X93209000Y-126477000D01*
X93209000Y-123995000D02*
X93209000Y-121557000D01*
X93169000Y-128876000D02*
X93169000Y-126477000D01*
X93169000Y-123995000D02*
X93169000Y-121596000D01*
X93129000Y-128837000D02*
X93129000Y-126477000D01*
X93129000Y-123995000D02*
X93129000Y-121635000D01*
X93089000Y-128797000D02*
X93089000Y-126477000D01*
X93089000Y-123995000D02*
X93089000Y-121675000D01*
X93049000Y-128756000D02*
X93049000Y-126477000D01*
X93049000Y-123995000D02*
X93049000Y-121716000D01*
X93009000Y-128714000D02*
X93009000Y-126477000D01*
X93009000Y-123995000D02*
X93009000Y-121758000D01*
X92969000Y-128672000D02*
X92969000Y-121800000D01*
X92929000Y-128628000D02*
X92929000Y-121844000D01*
X92889000Y-128583000D02*
X92889000Y-121889000D01*
X92849000Y-128537000D02*
X92849000Y-121935000D01*
X92809000Y-128490000D02*
X92809000Y-121982000D01*
X92769000Y-128442000D02*
X92769000Y-122030000D01*
X92729000Y-128392000D02*
X92729000Y-122080000D01*
X92689000Y-128342000D02*
X92689000Y-122130000D01*
X92649000Y-128290000D02*
X92649000Y-122182000D01*
X92609000Y-128236000D02*
X92609000Y-122236000D01*
X92569000Y-128181000D02*
X92569000Y-122291000D01*
X92529000Y-128125000D02*
X92529000Y-122347000D01*
X92489000Y-128066000D02*
X92489000Y-122406000D01*
X92449000Y-128006000D02*
X92449000Y-122466000D01*
X92409000Y-127945000D02*
X92409000Y-122527000D01*
X92369000Y-127881000D02*
X92369000Y-122591000D01*
X92329000Y-127815000D02*
X92329000Y-122657000D01*
X92289000Y-127746000D02*
X92289000Y-122726000D01*
X92249000Y-127675000D02*
X92249000Y-122797000D01*
X92209000Y-127601000D02*
X92209000Y-122871000D01*
X92169000Y-127525000D02*
X92169000Y-122947000D01*
X92129000Y-127445000D02*
X92129000Y-123027000D01*
X92089000Y-127361000D02*
X92089000Y-123111000D01*
X92049000Y-127273000D02*
X92049000Y-123199000D01*
X92009000Y-127180000D02*
X92009000Y-123292000D01*
X91969000Y-127082000D02*
X91969000Y-123390000D01*
X91929000Y-126978000D02*
X91929000Y-123494000D01*
X91889000Y-126866000D02*
X91889000Y-123606000D01*
X91849000Y-126746000D02*
X91849000Y-123726000D01*
X91809000Y-126614000D02*
X91809000Y-123858000D01*
X91769000Y-126466000D02*
X91769000Y-124006000D01*
X91729000Y-126298000D02*
X91729000Y-124174000D01*
X91689000Y-126098000D02*
X91689000Y-124374000D01*
X91649000Y-125835000D02*
X91649000Y-124637000D01*
X102209646Y-128111000D02*
X101209646Y-128111000D01*
X101709646Y-128611000D02*
X101709646Y-127611000D01*
X113139646Y-109561000D02*
X113139646Y-108561000D01*
X113639646Y-109061000D02*
X112639646Y-109061000D01*
X103079000Y-106785000D02*
X103079000Y-105587000D01*
X103119000Y-107048000D02*
X103119000Y-105324000D01*
X103159000Y-107248000D02*
X103159000Y-105124000D01*
X103199000Y-107416000D02*
X103199000Y-104956000D01*
X103239000Y-107564000D02*
X103239000Y-104808000D01*
X103279000Y-107696000D02*
X103279000Y-104676000D01*
X103319000Y-107816000D02*
X103319000Y-104556000D01*
X103359000Y-107928000D02*
X103359000Y-104444000D01*
X103399000Y-108032000D02*
X103399000Y-104340000D01*
X103439000Y-108130000D02*
X103439000Y-104242000D01*
X103479000Y-108223000D02*
X103479000Y-104149000D01*
X103519000Y-108311000D02*
X103519000Y-104061000D01*
X103559000Y-108395000D02*
X103559000Y-103977000D01*
X103599000Y-108475000D02*
X103599000Y-103897000D01*
X103639000Y-108551000D02*
X103639000Y-103821000D01*
X103679000Y-108625000D02*
X103679000Y-103747000D01*
X103719000Y-108696000D02*
X103719000Y-103676000D01*
X103759000Y-108765000D02*
X103759000Y-103607000D01*
X103799000Y-108831000D02*
X103799000Y-103541000D01*
X103839000Y-108895000D02*
X103839000Y-103477000D01*
X103879000Y-108956000D02*
X103879000Y-103416000D01*
X103919000Y-109016000D02*
X103919000Y-103356000D01*
X103959000Y-109075000D02*
X103959000Y-103297000D01*
X103999000Y-109131000D02*
X103999000Y-103241000D01*
X104039000Y-109186000D02*
X104039000Y-103186000D01*
X104079000Y-109240000D02*
X104079000Y-103132000D01*
X104119000Y-109292000D02*
X104119000Y-103080000D01*
X104159000Y-109342000D02*
X104159000Y-103030000D01*
X104199000Y-109392000D02*
X104199000Y-102980000D01*
X104239000Y-109440000D02*
X104239000Y-102932000D01*
X104279000Y-109487000D02*
X104279000Y-102885000D01*
X104319000Y-109533000D02*
X104319000Y-102839000D01*
X104359000Y-109578000D02*
X104359000Y-102794000D01*
X104399000Y-109622000D02*
X104399000Y-102750000D01*
X104439000Y-104945000D02*
X104439000Y-102708000D01*
X104439000Y-109664000D02*
X104439000Y-107427000D01*
X104479000Y-104945000D02*
X104479000Y-102666000D01*
X104479000Y-109706000D02*
X104479000Y-107427000D01*
X104519000Y-104945000D02*
X104519000Y-102625000D01*
X104519000Y-109747000D02*
X104519000Y-107427000D01*
X104559000Y-104945000D02*
X104559000Y-102585000D01*
X104559000Y-109787000D02*
X104559000Y-107427000D01*
X104599000Y-104945000D02*
X104599000Y-102546000D01*
X104599000Y-109826000D02*
X104599000Y-107427000D01*
X104639000Y-104945000D02*
X104639000Y-102507000D01*
X104639000Y-109865000D02*
X104639000Y-107427000D01*
X104679000Y-104945000D02*
X104679000Y-102470000D01*
X104679000Y-109902000D02*
X104679000Y-107427000D01*
X104719000Y-104945000D02*
X104719000Y-102433000D01*
X104719000Y-109939000D02*
X104719000Y-107427000D01*
X104759000Y-104945000D02*
X104759000Y-102397000D01*
X104759000Y-109975000D02*
X104759000Y-107427000D01*
X104799000Y-104945000D02*
X104799000Y-102362000D01*
X104799000Y-110010000D02*
X104799000Y-107427000D01*
X104839000Y-104945000D02*
X104839000Y-102328000D01*
X104839000Y-110044000D02*
X104839000Y-107427000D01*
X104879000Y-104945000D02*
X104879000Y-102294000D01*
X104879000Y-110078000D02*
X104879000Y-107427000D01*
X104919000Y-104945000D02*
X104919000Y-102261000D01*
X104919000Y-110111000D02*
X104919000Y-107427000D01*
X104959000Y-104945000D02*
X104959000Y-102229000D01*
X104959000Y-110143000D02*
X104959000Y-107427000D01*
X104999000Y-104945000D02*
X104999000Y-102197000D01*
X104999000Y-110175000D02*
X104999000Y-107427000D01*
X105039000Y-104945000D02*
X105039000Y-102166000D01*
X105039000Y-110206000D02*
X105039000Y-107427000D01*
X105079000Y-104945000D02*
X105079000Y-102136000D01*
X105079000Y-110236000D02*
X105079000Y-107427000D01*
X105119000Y-104945000D02*
X105119000Y-102106000D01*
X105119000Y-110266000D02*
X105119000Y-107427000D01*
X105159000Y-104945000D02*
X105159000Y-102076000D01*
X105159000Y-110296000D02*
X105159000Y-107427000D01*
X105199000Y-104945000D02*
X105199000Y-102048000D01*
X105199000Y-110324000D02*
X105199000Y-107427000D01*
X105239000Y-104945000D02*
X105239000Y-102020000D01*
X105239000Y-110352000D02*
X105239000Y-107427000D01*
X105279000Y-104945000D02*
X105279000Y-101992000D01*
X105279000Y-110380000D02*
X105279000Y-107427000D01*
X105319000Y-104945000D02*
X105319000Y-101965000D01*
X105319000Y-110407000D02*
X105319000Y-107427000D01*
X105359000Y-104945000D02*
X105359000Y-101939000D01*
X105359000Y-110433000D02*
X105359000Y-107427000D01*
X105399000Y-104945000D02*
X105399000Y-101913000D01*
X105399000Y-110459000D02*
X105399000Y-107427000D01*
X105439000Y-104945000D02*
X105439000Y-101888000D01*
X105439000Y-110484000D02*
X105439000Y-107427000D01*
X105479000Y-104945000D02*
X105479000Y-101863000D01*
X105479000Y-110509000D02*
X105479000Y-107427000D01*
X105519000Y-104945000D02*
X105519000Y-101839000D01*
X105519000Y-110533000D02*
X105519000Y-107427000D01*
X105559000Y-104945000D02*
X105559000Y-101815000D01*
X105559000Y-110557000D02*
X105559000Y-107427000D01*
X105599000Y-104945000D02*
X105599000Y-101791000D01*
X105599000Y-110581000D02*
X105599000Y-107427000D01*
X105639000Y-104945000D02*
X105639000Y-101769000D01*
X105639000Y-110603000D02*
X105639000Y-107427000D01*
X105679000Y-104945000D02*
X105679000Y-101746000D01*
X105679000Y-110626000D02*
X105679000Y-107427000D01*
X105719000Y-104945000D02*
X105719000Y-101724000D01*
X105719000Y-110648000D02*
X105719000Y-107427000D01*
X105759000Y-104945000D02*
X105759000Y-101703000D01*
X105759000Y-110669000D02*
X105759000Y-107427000D01*
X105799000Y-104945000D02*
X105799000Y-101682000D01*
X105799000Y-110690000D02*
X105799000Y-107427000D01*
X105839000Y-104945000D02*
X105839000Y-101661000D01*
X105839000Y-110711000D02*
X105839000Y-107427000D01*
X105879000Y-104945000D02*
X105879000Y-101641000D01*
X105879000Y-110731000D02*
X105879000Y-107427000D01*
X105919000Y-104945000D02*
X105919000Y-101622000D01*
X105919000Y-110750000D02*
X105919000Y-107427000D01*
X105959000Y-104945000D02*
X105959000Y-101602000D01*
X105959000Y-110770000D02*
X105959000Y-107427000D01*
X105999000Y-104945000D02*
X105999000Y-101583000D01*
X105999000Y-110789000D02*
X105999000Y-107427000D01*
X106039000Y-104945000D02*
X106039000Y-101565000D01*
X106039000Y-110807000D02*
X106039000Y-107427000D01*
X106079000Y-104945000D02*
X106079000Y-101547000D01*
X106079000Y-110825000D02*
X106079000Y-107427000D01*
X106119000Y-104945000D02*
X106119000Y-101529000D01*
X106119000Y-110843000D02*
X106119000Y-107427000D01*
X106159000Y-104945000D02*
X106159000Y-101512000D01*
X106159000Y-110860000D02*
X106159000Y-107427000D01*
X106199000Y-104945000D02*
X106199000Y-101496000D01*
X106199000Y-110876000D02*
X106199000Y-107427000D01*
X106239000Y-104945000D02*
X106239000Y-101479000D01*
X106239000Y-110893000D02*
X106239000Y-107427000D01*
X106279000Y-104945000D02*
X106279000Y-101463000D01*
X106279000Y-110909000D02*
X106279000Y-107427000D01*
X106319000Y-104945000D02*
X106319000Y-101448000D01*
X106319000Y-110924000D02*
X106319000Y-107427000D01*
X106359000Y-104945000D02*
X106359000Y-101432000D01*
X106359000Y-110940000D02*
X106359000Y-107427000D01*
X106399000Y-104945000D02*
X106399000Y-101418000D01*
X106399000Y-110954000D02*
X106399000Y-107427000D01*
X106439000Y-104945000D02*
X106439000Y-101403000D01*
X106439000Y-110969000D02*
X106439000Y-107427000D01*
X106479000Y-104945000D02*
X106479000Y-101389000D01*
X106479000Y-110983000D02*
X106479000Y-107427000D01*
X106519000Y-104945000D02*
X106519000Y-101375000D01*
X106519000Y-110997000D02*
X106519000Y-107427000D01*
X106559000Y-104945000D02*
X106559000Y-101362000D01*
X106559000Y-111010000D02*
X106559000Y-107427000D01*
X106599000Y-104945000D02*
X106599000Y-101349000D01*
X106599000Y-111023000D02*
X106599000Y-107427000D01*
X106639000Y-104945000D02*
X106639000Y-101336000D01*
X106639000Y-111036000D02*
X106639000Y-107427000D01*
X106679000Y-104945000D02*
X106679000Y-101324000D01*
X106679000Y-111048000D02*
X106679000Y-107427000D01*
X106719000Y-104945000D02*
X106719000Y-101312000D01*
X106719000Y-111060000D02*
X106719000Y-107427000D01*
X106759000Y-104945000D02*
X106759000Y-101301000D01*
X106759000Y-111071000D02*
X106759000Y-107427000D01*
X106799000Y-104945000D02*
X106799000Y-101289000D01*
X106799000Y-111083000D02*
X106799000Y-107427000D01*
X106839000Y-104945000D02*
X106839000Y-101279000D01*
X106839000Y-111093000D02*
X106839000Y-107427000D01*
X106879000Y-104945000D02*
X106879000Y-101268000D01*
X106879000Y-111104000D02*
X106879000Y-107427000D01*
X106919000Y-111114000D02*
X106919000Y-101258000D01*
X106959000Y-111124000D02*
X106959000Y-101248000D01*
X106999000Y-111133000D02*
X106999000Y-101239000D01*
X107039000Y-111142000D02*
X107039000Y-101230000D01*
X107079000Y-111151000D02*
X107079000Y-101221000D01*
X107119000Y-111160000D02*
X107119000Y-101212000D01*
X107159000Y-111168000D02*
X107159000Y-101204000D01*
X107199000Y-111176000D02*
X107199000Y-101196000D01*
X107239000Y-111183000D02*
X107239000Y-101189000D01*
X107279000Y-111190000D02*
X107279000Y-101182000D01*
X107319000Y-111197000D02*
X107319000Y-101175000D01*
X107359000Y-111204000D02*
X107359000Y-101168000D01*
X107399000Y-111210000D02*
X107399000Y-101162000D01*
X107439000Y-111216000D02*
X107439000Y-101156000D01*
X107480000Y-111221000D02*
X107480000Y-101151000D01*
X107520000Y-111226000D02*
X107520000Y-101146000D01*
X107560000Y-111231000D02*
X107560000Y-101141000D01*
X107600000Y-111236000D02*
X107600000Y-101136000D01*
X107640000Y-111240000D02*
X107640000Y-101132000D01*
X107680000Y-111244000D02*
X107680000Y-101128000D01*
X107720000Y-111248000D02*
X107720000Y-101124000D01*
X107760000Y-111251000D02*
X107760000Y-101121000D01*
X107800000Y-111254000D02*
X107800000Y-101118000D01*
X107840000Y-111256000D02*
X107840000Y-101116000D01*
X107880000Y-111259000D02*
X107880000Y-101113000D01*
X107920000Y-111261000D02*
X107920000Y-101111000D01*
X107960000Y-111263000D02*
X107960000Y-101109000D01*
X108000000Y-111264000D02*
X108000000Y-101108000D01*
X108040000Y-111265000D02*
X108040000Y-101107000D01*
X108080000Y-111266000D02*
X108080000Y-101106000D01*
X108120000Y-111266000D02*
X108120000Y-101106000D01*
X108160000Y-111266000D02*
X108160000Y-101106000D01*
X113280000Y-106186000D02*
G75*
G03*
X113280000Y-106186000I-5120000J0D01*
G01*
X84522000Y-99762000D02*
X85852000Y-99762000D01*
X84522000Y-101092000D02*
X84522000Y-99762000D01*
X84522000Y-102362000D02*
X87182000Y-102362000D01*
X87182000Y-102362000D02*
X87182000Y-140522000D01*
X84522000Y-102362000D02*
X84522000Y-140522000D01*
X84522000Y-140522000D02*
X87182000Y-140522000D01*
X86360000Y-155642000D02*
X87690000Y-155642000D01*
X87690000Y-155642000D02*
X87690000Y-156972000D01*
X87690000Y-158242000D02*
X87690000Y-168462000D01*
X85030000Y-168462000D02*
X87690000Y-168462000D01*
X85030000Y-158242000D02*
X85030000Y-168462000D01*
X85030000Y-158242000D02*
X87690000Y-158242000D01*
X91550000Y-150636000D02*
X91550000Y-149306000D01*
X91550000Y-149306000D02*
X92880000Y-149306000D01*
X94150000Y-149306000D02*
X101830000Y-149306000D01*
X101830000Y-151966000D02*
X101830000Y-149306000D01*
X94150000Y-151966000D02*
X101830000Y-151966000D01*
X94150000Y-151966000D02*
X94150000Y-149306000D01*
X125960000Y-103586000D02*
X125960000Y-106186000D01*
X125960000Y-103586000D02*
X115680000Y-103586000D01*
X115680000Y-103586000D02*
X115680000Y-108786000D01*
X123360000Y-108786000D02*
X115680000Y-108786000D01*
X123360000Y-106186000D02*
X123360000Y-108786000D01*
X125960000Y-106186000D02*
X123360000Y-106186000D01*
X125960000Y-108786000D02*
X124630000Y-108786000D01*
X125960000Y-107456000D02*
X125960000Y-108786000D01*
X129226000Y-144226000D02*
X130556000Y-144226000D01*
X129226000Y-145556000D02*
X129226000Y-144226000D01*
X129226000Y-146826000D02*
X131886000Y-146826000D01*
X131886000Y-146826000D02*
X131886000Y-164666000D01*
X129226000Y-146826000D02*
X129226000Y-164666000D01*
X129226000Y-164666000D02*
X131886000Y-164666000D01*
X94250000Y-101646000D02*
X93920000Y-101646000D01*
X94250000Y-108186000D02*
X94250000Y-101646000D01*
X93920000Y-108186000D02*
X94250000Y-108186000D01*
X91510000Y-101646000D02*
X91840000Y-101646000D01*
X91510000Y-108186000D02*
X91510000Y-101646000D01*
X91840000Y-108186000D02*
X91510000Y-108186000D01*
X95960000Y-103065000D02*
X97470000Y-103065000D01*
X95960000Y-106766000D02*
X97470000Y-106766000D01*
X97470000Y-110036000D02*
X97470000Y-99796000D01*
X95960000Y-99796000D02*
X100601000Y-99796000D01*
X95960000Y-110036000D02*
X100601000Y-110036000D01*
X100601000Y-110036000D02*
X100601000Y-99796000D01*
X95960000Y-110036000D02*
X95960000Y-99796000D01*
X83598000Y-153456000D02*
X83598000Y-143216000D01*
X88239000Y-153456000D02*
X88239000Y-143216000D01*
X83598000Y-153456000D02*
X88239000Y-153456000D01*
X83598000Y-143216000D02*
X88239000Y-143216000D01*
X85108000Y-153456000D02*
X85108000Y-143216000D01*
X83598000Y-150186000D02*
X85108000Y-150186000D01*
X83598000Y-146485000D02*
X85108000Y-146485000D01*
X101830000Y-136546000D02*
X91550000Y-136546000D01*
X101830000Y-146946000D02*
X101830000Y-136546000D01*
X91550000Y-146946000D02*
X101830000Y-146946000D01*
X91550000Y-136546000D02*
X91550000Y-146946000D01*
X99340000Y-136606000D02*
X97690000Y-136606000D01*
X99340000Y-146886000D02*
X99340000Y-136606000D01*
X94040000Y-146886000D02*
X99340000Y-146886000D01*
X94040000Y-136606000D02*
X94040000Y-146886000D01*
X95690000Y-136606000D02*
X94040000Y-136606000D01*
X97690000Y-136606000D02*
G75*
G02*
X95690000Y-136606000I-1000000J0D01*
G01*
X99960000Y-158026000D02*
X99960000Y-158356000D01*
X99960000Y-158356000D02*
X93420000Y-158356000D01*
X93420000Y-158356000D02*
X93420000Y-158026000D01*
X99960000Y-155946000D02*
X99960000Y-155616000D01*
X99960000Y-155616000D02*
X93420000Y-155616000D01*
X93420000Y-155616000D02*
X93420000Y-155946000D01*
X98330000Y-135246000D02*
X95090000Y-135246000D01*
X98330000Y-133006000D02*
X95090000Y-133006000D01*
X98330000Y-135246000D02*
X98330000Y-135181000D01*
X98330000Y-133071000D02*
X98330000Y-133006000D01*
X95090000Y-135246000D02*
X95090000Y-135181000D01*
X95090000Y-133071000D02*
X95090000Y-133006000D01*
X130556000Y-112222000D02*
X131886000Y-112222000D01*
X131886000Y-112222000D02*
X131886000Y-113552000D01*
X131886000Y-114822000D02*
X131886000Y-125042000D01*
X129226000Y-125042000D02*
X131886000Y-125042000D01*
X129226000Y-114822000D02*
X129226000Y-125042000D01*
X129226000Y-114822000D02*
X131886000Y-114822000D01*
D10*
X97202666Y-115784380D02*
X97202666Y-116498666D01*
X97155047Y-116641523D01*
X97059809Y-116736761D01*
X96916952Y-116784380D01*
X96821714Y-116784380D01*
X98155047Y-115784380D02*
X97678857Y-115784380D01*
X97631238Y-116260571D01*
X97678857Y-116212952D01*
X97774095Y-116165333D01*
X98012190Y-116165333D01*
X98107428Y-116212952D01*
X98155047Y-116260571D01*
X98202666Y-116355809D01*
X98202666Y-116593904D01*
X98155047Y-116689142D01*
X98107428Y-116736761D01*
X98012190Y-116784380D01*
X97774095Y-116784380D01*
X97678857Y-116736761D01*
X97631238Y-116689142D01*
X96750285Y-160710571D02*
X96893142Y-160758190D01*
X96940761Y-160805809D01*
X96988380Y-160901047D01*
X96988380Y-161043904D01*
X96940761Y-161139142D01*
X96893142Y-161186761D01*
X96797904Y-161234380D01*
X96416952Y-161234380D01*
X96416952Y-160234380D01*
X96750285Y-160234380D01*
X96845523Y-160282000D01*
X96893142Y-160329619D01*
X96940761Y-160424857D01*
X96940761Y-160520095D01*
X96893142Y-160615333D01*
X96845523Y-160662952D01*
X96750285Y-160710571D01*
X96416952Y-160710571D01*
X97274095Y-160234380D02*
X97845523Y-160234380D01*
X97559809Y-161234380D02*
X97559809Y-160234380D01*
X98702666Y-161234380D02*
X98131238Y-161234380D01*
X98416952Y-161234380D02*
X98416952Y-160234380D01*
X98321714Y-160377238D01*
X98226476Y-160472476D01*
X98131238Y-160520095D01*
X113514285Y-101782571D02*
X113657142Y-101830190D01*
X113704761Y-101877809D01*
X113752380Y-101973047D01*
X113752380Y-102115904D01*
X113704761Y-102211142D01*
X113657142Y-102258761D01*
X113561904Y-102306380D01*
X113180952Y-102306380D01*
X113180952Y-101306380D01*
X113514285Y-101306380D01*
X113609523Y-101354000D01*
X113657142Y-101401619D01*
X113704761Y-101496857D01*
X113704761Y-101592095D01*
X113657142Y-101687333D01*
X113609523Y-101734952D01*
X113514285Y-101782571D01*
X113180952Y-101782571D01*
X114038095Y-101306380D02*
X114609523Y-101306380D01*
X114323809Y-102306380D02*
X114323809Y-101306380D01*
X114895238Y-101401619D02*
X114942857Y-101354000D01*
X115038095Y-101306380D01*
X115276190Y-101306380D01*
X115371428Y-101354000D01*
X115419047Y-101401619D01*
X115466666Y-101496857D01*
X115466666Y-101592095D01*
X115419047Y-101734952D01*
X114847619Y-102306380D01*
X115466666Y-102306380D01*
X115744666Y-165314380D02*
X115744666Y-166028666D01*
X115697047Y-166171523D01*
X115601809Y-166266761D01*
X115458952Y-166314380D01*
X115363714Y-166314380D01*
X116649428Y-165314380D02*
X116458952Y-165314380D01*
X116363714Y-165362000D01*
X116316095Y-165409619D01*
X116220857Y-165552476D01*
X116173238Y-165742952D01*
X116173238Y-166123904D01*
X116220857Y-166219142D01*
X116268476Y-166266761D01*
X116363714Y-166314380D01*
X116554190Y-166314380D01*
X116649428Y-166266761D01*
X116697047Y-166219142D01*
X116744666Y-166123904D01*
X116744666Y-165885809D01*
X116697047Y-165790571D01*
X116649428Y-165742952D01*
X116554190Y-165695333D01*
X116363714Y-165695333D01*
X116268476Y-165742952D01*
X116220857Y-165790571D01*
X116173238Y-165885809D01*
X114351095Y-114147380D02*
X114351095Y-114956904D01*
X114398714Y-115052142D01*
X114446333Y-115099761D01*
X114541571Y-115147380D01*
X114732047Y-115147380D01*
X114827285Y-115099761D01*
X114874904Y-115052142D01*
X114922523Y-114956904D01*
X114922523Y-114147380D01*
X115351095Y-115099761D02*
X115493952Y-115147380D01*
X115732047Y-115147380D01*
X115827285Y-115099761D01*
X115874904Y-115052142D01*
X115922523Y-114956904D01*
X115922523Y-114861666D01*
X115874904Y-114766428D01*
X115827285Y-114718809D01*
X115732047Y-114671190D01*
X115541571Y-114623571D01*
X115446333Y-114575952D01*
X115398714Y-114528333D01*
X115351095Y-114433095D01*
X115351095Y-114337857D01*
X115398714Y-114242619D01*
X115446333Y-114195000D01*
X115541571Y-114147380D01*
X115779666Y-114147380D01*
X115922523Y-114195000D01*
X116684428Y-114623571D02*
X116827285Y-114671190D01*
X116874904Y-114718809D01*
X116922523Y-114814047D01*
X116922523Y-114956904D01*
X116874904Y-115052142D01*
X116827285Y-115099761D01*
X116732047Y-115147380D01*
X116351095Y-115147380D01*
X116351095Y-114147380D01*
X116684428Y-114147380D01*
X116779666Y-114195000D01*
X116827285Y-114242619D01*
X116874904Y-114337857D01*
X116874904Y-114433095D01*
X116827285Y-114528333D01*
X116779666Y-114575952D01*
X116684428Y-114623571D01*
X116351095Y-114623571D01*
X96563333Y-119737142D02*
X96515714Y-119784761D01*
X96372857Y-119832380D01*
X96277619Y-119832380D01*
X96134761Y-119784761D01*
X96039523Y-119689523D01*
X95991904Y-119594285D01*
X95944285Y-119403809D01*
X95944285Y-119260952D01*
X95991904Y-119070476D01*
X96039523Y-118975238D01*
X96134761Y-118880000D01*
X96277619Y-118832380D01*
X96372857Y-118832380D01*
X96515714Y-118880000D01*
X96563333Y-118927619D01*
X97515714Y-119832380D02*
X96944285Y-119832380D01*
X97230000Y-119832380D02*
X97230000Y-118832380D01*
X97134761Y-118975238D01*
X97039523Y-119070476D01*
X96944285Y-119118095D01*
X104481333Y-101449142D02*
X104433714Y-101496761D01*
X104290857Y-101544380D01*
X104195619Y-101544380D01*
X104052761Y-101496761D01*
X103957523Y-101401523D01*
X103909904Y-101306285D01*
X103862285Y-101115809D01*
X103862285Y-100972952D01*
X103909904Y-100782476D01*
X103957523Y-100687238D01*
X104052761Y-100592000D01*
X104195619Y-100544380D01*
X104290857Y-100544380D01*
X104433714Y-100592000D01*
X104481333Y-100639619D01*
X104862285Y-100639619D02*
X104909904Y-100592000D01*
X105005142Y-100544380D01*
X105243238Y-100544380D01*
X105338476Y-100592000D01*
X105386095Y-100639619D01*
X105433714Y-100734857D01*
X105433714Y-100830095D01*
X105386095Y-100972952D01*
X104814666Y-101544380D01*
X105433714Y-101544380D01*
X84637714Y-99214380D02*
X84637714Y-98214380D01*
X84875809Y-98214380D01*
X85018666Y-98262000D01*
X85113904Y-98357238D01*
X85161523Y-98452476D01*
X85209142Y-98642952D01*
X85209142Y-98785809D01*
X85161523Y-98976285D01*
X85113904Y-99071523D01*
X85018666Y-99166761D01*
X84875809Y-99214380D01*
X84637714Y-99214380D01*
X85590095Y-99166761D02*
X85732952Y-99214380D01*
X85971047Y-99214380D01*
X86066285Y-99166761D01*
X86113904Y-99119142D01*
X86161523Y-99023904D01*
X86161523Y-98928666D01*
X86113904Y-98833428D01*
X86066285Y-98785809D01*
X85971047Y-98738190D01*
X85780571Y-98690571D01*
X85685333Y-98642952D01*
X85637714Y-98595333D01*
X85590095Y-98500095D01*
X85590095Y-98404857D01*
X85637714Y-98309619D01*
X85685333Y-98262000D01*
X85780571Y-98214380D01*
X86018666Y-98214380D01*
X86161523Y-98262000D01*
X87113904Y-99214380D02*
X86542476Y-99214380D01*
X86828190Y-99214380D02*
X86828190Y-98214380D01*
X86732952Y-98357238D01*
X86637714Y-98452476D01*
X86542476Y-98500095D01*
X83272380Y-162385333D02*
X83986666Y-162385333D01*
X84129523Y-162432952D01*
X84224761Y-162528190D01*
X84272380Y-162671047D01*
X84272380Y-162766285D01*
X84272380Y-161385333D02*
X84272380Y-161956761D01*
X84272380Y-161671047D02*
X83272380Y-161671047D01*
X83415238Y-161766285D01*
X83510476Y-161861523D01*
X83558095Y-161956761D01*
X96694666Y-147788380D02*
X96694666Y-148502666D01*
X96647047Y-148645523D01*
X96551809Y-148740761D01*
X96408952Y-148788380D01*
X96313714Y-148788380D01*
X97123238Y-147883619D02*
X97170857Y-147836000D01*
X97266095Y-147788380D01*
X97504190Y-147788380D01*
X97599428Y-147836000D01*
X97647047Y-147883619D01*
X97694666Y-147978857D01*
X97694666Y-148074095D01*
X97647047Y-148216952D01*
X97075619Y-148788380D01*
X97694666Y-148788380D01*
X120570666Y-101814380D02*
X120570666Y-102528666D01*
X120523047Y-102671523D01*
X120427809Y-102766761D01*
X120284952Y-102814380D01*
X120189714Y-102814380D01*
X120951619Y-101814380D02*
X121570666Y-101814380D01*
X121237333Y-102195333D01*
X121380190Y-102195333D01*
X121475428Y-102242952D01*
X121523047Y-102290571D01*
X121570666Y-102385809D01*
X121570666Y-102623904D01*
X121523047Y-102719142D01*
X121475428Y-102766761D01*
X121380190Y-102814380D01*
X121094476Y-102814380D01*
X120999238Y-102766761D01*
X120951619Y-102719142D01*
X130222666Y-142678380D02*
X130222666Y-143392666D01*
X130175047Y-143535523D01*
X130079809Y-143630761D01*
X129936952Y-143678380D01*
X129841714Y-143678380D01*
X130603619Y-142678380D02*
X131270285Y-142678380D01*
X130841714Y-143678380D01*
X91130380Y-105082666D02*
X90654190Y-105416000D01*
X91130380Y-105654095D02*
X90130380Y-105654095D01*
X90130380Y-105273142D01*
X90178000Y-105177904D01*
X90225619Y-105130285D01*
X90320857Y-105082666D01*
X90463714Y-105082666D01*
X90558952Y-105130285D01*
X90606571Y-105177904D01*
X90654190Y-105273142D01*
X90654190Y-105654095D01*
X91130380Y-104130285D02*
X91130380Y-104701714D01*
X91130380Y-104416000D02*
X90130380Y-104416000D01*
X90273238Y-104511238D01*
X90368476Y-104606476D01*
X90416095Y-104701714D01*
X97790095Y-98258380D02*
X97790095Y-99067904D01*
X97837714Y-99163142D01*
X97885333Y-99210761D01*
X97980571Y-99258380D01*
X98171047Y-99258380D01*
X98266285Y-99210761D01*
X98313904Y-99163142D01*
X98361523Y-99067904D01*
X98361523Y-98258380D01*
X99361523Y-99258380D02*
X98790095Y-99258380D01*
X99075809Y-99258380D02*
X99075809Y-98258380D01*
X98980571Y-98401238D01*
X98885333Y-98496476D01*
X98790095Y-98544095D01*
X82050380Y-149097904D02*
X82859904Y-149097904D01*
X82955142Y-149050285D01*
X83002761Y-149002666D01*
X83050380Y-148907428D01*
X83050380Y-148716952D01*
X83002761Y-148621714D01*
X82955142Y-148574095D01*
X82859904Y-148526476D01*
X82050380Y-148526476D01*
X82145619Y-148097904D02*
X82098000Y-148050285D01*
X82050380Y-147955047D01*
X82050380Y-147716952D01*
X82098000Y-147621714D01*
X82145619Y-147574095D01*
X82240857Y-147526476D01*
X82336095Y-147526476D01*
X82478952Y-147574095D01*
X83050380Y-148145523D01*
X83050380Y-147526476D01*
X91948095Y-135088380D02*
X91948095Y-135897904D01*
X91995714Y-135993142D01*
X92043333Y-136040761D01*
X92138571Y-136088380D01*
X92329047Y-136088380D01*
X92424285Y-136040761D01*
X92471904Y-135993142D01*
X92519523Y-135897904D01*
X92519523Y-135088380D01*
X92900476Y-135088380D02*
X93519523Y-135088380D01*
X93186190Y-135469333D01*
X93329047Y-135469333D01*
X93424285Y-135516952D01*
X93471904Y-135564571D01*
X93519523Y-135659809D01*
X93519523Y-135897904D01*
X93471904Y-135993142D01*
X93424285Y-136040761D01*
X93329047Y-136088380D01*
X93043333Y-136088380D01*
X92948095Y-136040761D01*
X92900476Y-135993142D01*
X96353333Y-155392380D02*
X96020000Y-154916190D01*
X95781904Y-155392380D02*
X95781904Y-154392380D01*
X96162857Y-154392380D01*
X96258095Y-154440000D01*
X96305714Y-154487619D01*
X96353333Y-154582857D01*
X96353333Y-154725714D01*
X96305714Y-154820952D01*
X96258095Y-154868571D01*
X96162857Y-154916190D01*
X95781904Y-154916190D01*
X96734285Y-154487619D02*
X96781904Y-154440000D01*
X96877142Y-154392380D01*
X97115238Y-154392380D01*
X97210476Y-154440000D01*
X97258095Y-154487619D01*
X97305714Y-154582857D01*
X97305714Y-154678095D01*
X97258095Y-154820952D01*
X96686666Y-155392380D01*
X97305714Y-155392380D01*
X96543333Y-132437142D02*
X96495714Y-132484761D01*
X96352857Y-132532380D01*
X96257619Y-132532380D01*
X96114761Y-132484761D01*
X96019523Y-132389523D01*
X95971904Y-132294285D01*
X95924285Y-132103809D01*
X95924285Y-131960952D01*
X95971904Y-131770476D01*
X96019523Y-131675238D01*
X96114761Y-131580000D01*
X96257619Y-131532380D01*
X96352857Y-131532380D01*
X96495714Y-131580000D01*
X96543333Y-131627619D01*
X96876666Y-131532380D02*
X97495714Y-131532380D01*
X97162380Y-131913333D01*
X97305238Y-131913333D01*
X97400476Y-131960952D01*
X97448095Y-132008571D01*
X97495714Y-132103809D01*
X97495714Y-132341904D01*
X97448095Y-132437142D01*
X97400476Y-132484761D01*
X97305238Y-132532380D01*
X97019523Y-132532380D01*
X96924285Y-132484761D01*
X96876666Y-132437142D01*
X130222666Y-110234380D02*
X130222666Y-110948666D01*
X130175047Y-111091523D01*
X130079809Y-111186761D01*
X129936952Y-111234380D01*
X129841714Y-111234380D01*
X131127428Y-110567714D02*
X131127428Y-111234380D01*
X130889333Y-110186761D02*
X130651238Y-110901047D01*
X131270285Y-110901047D01*
M02*
