G04 #@! TF.GenerationSoftware,KiCad,Pcbnew,(5.1.6)-1*
G04 #@! TF.CreationDate,2021-07-27T20:37:59+01:00*
G04 #@! TF.ProjectId,master_controller_v1,6d617374-6572-45f6-936f-6e74726f6c6c,1.0*
G04 #@! TF.SameCoordinates,Original*
G04 #@! TF.FileFunction,Copper,L1,Top*
G04 #@! TF.FilePolarity,Positive*
%FSLAX46Y46*%
G04 Gerber Fmt 4.6, Leading zero omitted, Abs format (unit mm)*
G04 Created by KiCad (PCBNEW (5.1.6)-1) date 2021-07-27 20:37:59*
%MOMM*%
%LPD*%
G01*
G04 APERTURE LIST*
G04 #@! TA.AperFunction,ComponentPad*
%ADD10O,1.700000X1.700000*%
G04 #@! TD*
G04 #@! TA.AperFunction,ComponentPad*
%ADD11R,1.700000X1.700000*%
G04 #@! TD*
G04 #@! TA.AperFunction,ComponentPad*
%ADD12C,1.524000*%
G04 #@! TD*
G04 #@! TA.AperFunction,ComponentPad*
%ADD13R,2.000000X2.000000*%
G04 #@! TD*
G04 #@! TA.AperFunction,ComponentPad*
%ADD14C,2.000000*%
G04 #@! TD*
G04 #@! TA.AperFunction,ComponentPad*
%ADD15O,1.600000X1.600000*%
G04 #@! TD*
G04 #@! TA.AperFunction,ComponentPad*
%ADD16C,1.600000*%
G04 #@! TD*
G04 #@! TA.AperFunction,ComponentPad*
%ADD17O,2.000000X1.905000*%
G04 #@! TD*
G04 #@! TA.AperFunction,ComponentPad*
%ADD18R,2.000000X1.905000*%
G04 #@! TD*
G04 #@! TA.AperFunction,ComponentPad*
%ADD19R,1.600000X1.600000*%
G04 #@! TD*
G04 #@! TA.AperFunction,ViaPad*
%ADD20C,0.800000*%
G04 #@! TD*
G04 #@! TA.AperFunction,Conductor*
%ADD21C,0.800000*%
G04 #@! TD*
G04 #@! TA.AperFunction,Conductor*
%ADD22C,0.300000*%
G04 #@! TD*
G04 #@! TA.AperFunction,Conductor*
%ADD23C,0.254000*%
G04 #@! TD*
G04 APERTURE END LIST*
D10*
X100500000Y-113806000D03*
X97960000Y-113806000D03*
X95420000Y-113806000D03*
D11*
X92880000Y-113806000D03*
D12*
X96012000Y-164084000D03*
X98679000Y-164084000D03*
X112946000Y-98566000D03*
X115613000Y-98566000D03*
X107993000Y-114187000D03*
X107993000Y-116727000D03*
X107993000Y-119267000D03*
X107993000Y-121807000D03*
X107993000Y-124347000D03*
X107993000Y-126887000D03*
X107993000Y-129427000D03*
X107993000Y-131967000D03*
X107993000Y-134507000D03*
X107993000Y-137047000D03*
X107993000Y-139587000D03*
X107993000Y-142127000D03*
X107993000Y-144667000D03*
X107993000Y-147207000D03*
X107993000Y-149747000D03*
X107993000Y-152287000D03*
X107993000Y-154827000D03*
X107993000Y-157367000D03*
X107993000Y-159907000D03*
X107993000Y-162447000D03*
X123233000Y-162447000D03*
X123233000Y-159907000D03*
X123233000Y-157367000D03*
X123233000Y-154827000D03*
X123233000Y-152287000D03*
X123233000Y-149747000D03*
X123233000Y-147207000D03*
X123233000Y-144667000D03*
X123233000Y-142127000D03*
X123233000Y-139587000D03*
X123233000Y-137047000D03*
X123233000Y-134507000D03*
X123233000Y-131967000D03*
X123233000Y-129427000D03*
X123233000Y-126887000D03*
X123233000Y-124347000D03*
X123233000Y-121807000D03*
X123233000Y-119267000D03*
X123233000Y-116727000D03*
X123233000Y-114187000D03*
D13*
X99230000Y-125236000D03*
D14*
X94230000Y-125236000D03*
X105660000Y-106186000D03*
D13*
X110660000Y-106186000D03*
D10*
X85852000Y-139192000D03*
X85852000Y-136652000D03*
X85852000Y-134112000D03*
X85852000Y-131572000D03*
X85852000Y-129032000D03*
X85852000Y-126492000D03*
X85852000Y-123952000D03*
X85852000Y-121412000D03*
X85852000Y-118872000D03*
X85852000Y-116332000D03*
X85852000Y-113792000D03*
X85852000Y-111252000D03*
X85852000Y-108712000D03*
X85852000Y-106172000D03*
X85852000Y-103632000D03*
D11*
X85852000Y-101092000D03*
D10*
X86360000Y-167132000D03*
X86360000Y-164592000D03*
X86360000Y-162052000D03*
X86360000Y-159512000D03*
D11*
X86360000Y-156972000D03*
D10*
X100500000Y-150636000D03*
X97960000Y-150636000D03*
X95420000Y-150636000D03*
D11*
X92880000Y-150636000D03*
X124630000Y-107456000D03*
D10*
X124630000Y-104916000D03*
X122090000Y-107456000D03*
X122090000Y-104916000D03*
X119550000Y-107456000D03*
X119550000Y-104916000D03*
X117010000Y-107456000D03*
X117010000Y-104916000D03*
X130556000Y-163336000D03*
X130556000Y-160796000D03*
X130556000Y-158256000D03*
X130556000Y-155716000D03*
X130556000Y-153176000D03*
X130556000Y-150636000D03*
X130556000Y-148096000D03*
D11*
X130556000Y-145556000D03*
D15*
X92880000Y-101106000D03*
D16*
X92880000Y-108726000D03*
D17*
X99230000Y-102376000D03*
X99230000Y-104916000D03*
D18*
X99230000Y-107456000D03*
X86868000Y-150876000D03*
D17*
X86868000Y-148336000D03*
X86868000Y-145796000D03*
D15*
X100500000Y-137936000D03*
X92880000Y-145556000D03*
X100500000Y-140476000D03*
X92880000Y-143016000D03*
X100500000Y-143016000D03*
X92880000Y-140476000D03*
X100500000Y-145556000D03*
D19*
X92880000Y-137936000D03*
D15*
X92880000Y-156986000D03*
D16*
X100500000Y-156986000D03*
X97960000Y-134126000D03*
X95460000Y-134126000D03*
D11*
X130556000Y-113552000D03*
D10*
X130556000Y-116092000D03*
X130556000Y-118632000D03*
X130556000Y-121172000D03*
X130556000Y-123712000D03*
D20*
X96520000Y-168910000D03*
X104140000Y-168910000D03*
X115570000Y-168910000D03*
X121920000Y-168910000D03*
X91440000Y-97790000D03*
X127000000Y-97790000D03*
X118110000Y-113000000D03*
X104140000Y-137160000D03*
X104726001Y-97790000D03*
X121920000Y-97790000D03*
X114300000Y-152400000D03*
X128270000Y-168910000D03*
X112522000Y-120904000D03*
X118110000Y-124968000D03*
X115316000Y-143002000D03*
X89662000Y-119634000D03*
X89916000Y-155956000D03*
X96520000Y-118110000D03*
X92710000Y-133350000D03*
X88900000Y-135890000D03*
X130810000Y-134620000D03*
X114300000Y-107950000D03*
X114300000Y-125730000D03*
X115570000Y-138430000D03*
D21*
X85344000Y-150876000D02*
X86868000Y-150876000D01*
X91186000Y-168910000D02*
X85090000Y-168910000D01*
X85090000Y-168910000D02*
X83820000Y-167640000D01*
X83820000Y-167640000D02*
X83820000Y-152400000D01*
X96012000Y-164084000D02*
X91186000Y-168910000D01*
X83820000Y-152400000D02*
X85344000Y-150876000D01*
X117010000Y-99963000D02*
X115613000Y-98566000D01*
X117010000Y-104916000D02*
X117010000Y-99963000D01*
X115559999Y-106366001D02*
X115559999Y-110479999D01*
X117010000Y-104916000D02*
X115559999Y-106366001D01*
X119267000Y-114187000D02*
X123233000Y-114187000D01*
X115559999Y-110479999D02*
X119267000Y-114187000D01*
X125138000Y-116092000D02*
X123233000Y-114187000D01*
X130556000Y-116092000D02*
X125138000Y-116092000D01*
X123233000Y-116727000D02*
X123233000Y-114187000D01*
X84649919Y-103632000D02*
X83820000Y-102802081D01*
X85852000Y-103632000D02*
X84649919Y-103632000D01*
X83820000Y-100343998D02*
X85103998Y-99060000D01*
X90834000Y-99060000D02*
X92880000Y-101106000D01*
X85103998Y-99060000D02*
X90834000Y-99060000D01*
X85852000Y-111252000D02*
X83820000Y-109220000D01*
X83820000Y-109220000D02*
X83820000Y-101600000D01*
X83820000Y-102802081D02*
X83820000Y-101600000D01*
X83820000Y-101600000D02*
X83820000Y-100343998D01*
X92880000Y-101106000D02*
X92880000Y-104310000D01*
X96026000Y-107456000D02*
X99230000Y-107456000D01*
X104390000Y-107456000D02*
X105660000Y-106186000D01*
X99230000Y-107456000D02*
X104390000Y-107456000D01*
X96782001Y-97203999D02*
X92880000Y-101106000D01*
X114250999Y-97203999D02*
X104726001Y-97203999D01*
X115613000Y-98566000D02*
X114250999Y-97203999D01*
X103816000Y-164084000D02*
X107993000Y-159907000D01*
X98679000Y-164084000D02*
X103816000Y-164084000D01*
X87360502Y-148336000D02*
X86868000Y-148336000D01*
X88468001Y-154863999D02*
X88468001Y-149443499D01*
X88468001Y-149443499D02*
X87360502Y-148336000D01*
X86360000Y-156972000D02*
X88468001Y-154863999D01*
X94230000Y-114996000D02*
X95420000Y-113806000D01*
X94230000Y-125236000D02*
X94230000Y-114996000D01*
X95420000Y-106850000D02*
X95250000Y-106680000D01*
X95420000Y-113806000D02*
X95420000Y-106850000D01*
X92880000Y-104310000D02*
X95250000Y-106680000D01*
X95250000Y-106680000D02*
X96026000Y-107456000D01*
X94230000Y-132896000D02*
X95460000Y-134126000D01*
X94230000Y-125236000D02*
X94230000Y-132896000D01*
X98679000Y-165227000D02*
X98679000Y-164084000D01*
X93472000Y-170434000D02*
X98679000Y-165227000D01*
X85344000Y-148336000D02*
X82550000Y-151130000D01*
X86868000Y-148336000D02*
X85344000Y-148336000D01*
X82550000Y-151130000D02*
X82550000Y-168148000D01*
X82550000Y-168148000D02*
X84836000Y-170434000D01*
X84836000Y-170434000D02*
X93472000Y-170434000D01*
X91292499Y-149443499D02*
X88468001Y-149443499D01*
X92880000Y-147855998D02*
X91292499Y-149443499D01*
X92880000Y-145556000D02*
X92880000Y-147855998D01*
X85852000Y-139192000D02*
X87934000Y-139192000D01*
X87934000Y-140610000D02*
X87934000Y-139192000D01*
X92880000Y-145556000D02*
X87934000Y-140610000D01*
X92880000Y-145556000D02*
X96520000Y-141916000D01*
X96520000Y-141916000D02*
X96520000Y-139700000D01*
X95460000Y-138640000D02*
X95460000Y-134126000D01*
X96520000Y-139700000D02*
X95460000Y-138640000D01*
X104726001Y-97203999D02*
X96782001Y-97203999D01*
X109136000Y-102376000D02*
X112946000Y-98566000D01*
X99230000Y-102376000D02*
X109136000Y-102376000D01*
X86868000Y-145796000D02*
X86868000Y-144018000D01*
X86868000Y-144018000D02*
X85090000Y-142240000D01*
X85090000Y-142240000D02*
X83820000Y-142240000D01*
X83820000Y-142240000D02*
X82550000Y-140970000D01*
X82550000Y-140970000D02*
X82550000Y-138430000D01*
X84328000Y-136652000D02*
X85852000Y-136652000D01*
X82550000Y-138430000D02*
X84328000Y-136652000D01*
X99230000Y-125236000D02*
X99230000Y-119550000D01*
X99230000Y-119550000D02*
X97790000Y-118110000D01*
X97790000Y-118110000D02*
X96520000Y-118110000D01*
X124630000Y-107456000D02*
X124630000Y-107626000D01*
X99230000Y-104916000D02*
X103364000Y-104916000D01*
X103364000Y-104916000D02*
X104140000Y-104140000D01*
X108614000Y-104140000D02*
X110660000Y-106186000D01*
X104140000Y-104140000D02*
X108614000Y-104140000D01*
X125910001Y-108906001D02*
X125977000Y-108973000D01*
X119550000Y-107456000D02*
X121000001Y-108906001D01*
X121000001Y-108906001D02*
X125910001Y-108906001D01*
X124630000Y-107626000D02*
X125977000Y-108973000D01*
X125977000Y-108973000D02*
X130556000Y-113552000D01*
X110660000Y-107780000D02*
X110660000Y-106186000D01*
X105410000Y-113030000D02*
X110660000Y-107780000D01*
X97960000Y-134126000D02*
X105410000Y-126676000D01*
X105410000Y-126676000D02*
X105410000Y-113030000D01*
X97960000Y-134126000D02*
X97960000Y-136990000D01*
X98906000Y-137936000D02*
X100500000Y-137936000D01*
X97960000Y-136990000D02*
X98906000Y-137936000D01*
X92880000Y-150636000D02*
X96520000Y-146996000D01*
X92880000Y-156986000D02*
X92880000Y-150636000D01*
X90354000Y-159512000D02*
X92880000Y-156986000D01*
X86360000Y-159512000D02*
X90354000Y-159512000D01*
X96520000Y-146996000D02*
X96520000Y-144780000D01*
X98906000Y-142394000D02*
X98906000Y-137936000D01*
X96520000Y-144780000D02*
X98906000Y-142394000D01*
D22*
X85852000Y-106172000D02*
X92202000Y-106172000D01*
X92880000Y-106850000D02*
X92880000Y-108726000D01*
X92202000Y-106172000D02*
X92880000Y-106850000D01*
X85852000Y-108712000D02*
X91440000Y-114300000D01*
X91440000Y-114300000D02*
X91440000Y-132080000D01*
X91440000Y-132080000D02*
X92710000Y-133350000D01*
X85852000Y-113792000D02*
X87630000Y-115570000D01*
X87630000Y-115570000D02*
X87630000Y-134620000D01*
X87630000Y-134620000D02*
X88900000Y-135890000D01*
X85783999Y-165792001D02*
X88207999Y-165792001D01*
X85159999Y-165168001D02*
X85783999Y-165792001D01*
X86360000Y-162052000D02*
X85159999Y-163252001D01*
X85159999Y-163252001D02*
X85159999Y-165168001D01*
X100500000Y-153500000D02*
X100500000Y-150636000D01*
X88207999Y-165792001D02*
X100500000Y-153500000D01*
X100500000Y-150636000D02*
X100500000Y-145556000D01*
X107993000Y-149747000D02*
X106567000Y-149747000D01*
X106567000Y-149747000D02*
X104140000Y-147320000D01*
X104140000Y-147320000D02*
X104140000Y-146050000D01*
X103646000Y-145556000D02*
X100500000Y-145556000D01*
X104140000Y-146050000D02*
X103646000Y-145556000D01*
X87562081Y-164592000D02*
X97790000Y-154364081D01*
X86360000Y-164592000D02*
X87562081Y-164592000D01*
X97790000Y-150806000D02*
X97960000Y-150636000D01*
X97790000Y-154364081D02*
X97790000Y-150806000D01*
X97960000Y-145556000D02*
X100500000Y-143016000D01*
X97960000Y-150636000D02*
X97960000Y-145556000D01*
X100500000Y-143016000D02*
X104916000Y-143016000D01*
X104916000Y-143016000D02*
X105410000Y-143510000D01*
X105410000Y-143510000D02*
X105410000Y-146050000D01*
X106567000Y-147207000D02*
X107993000Y-147207000D01*
X105410000Y-146050000D02*
X106567000Y-147207000D01*
X90354000Y-167132000D02*
X100500000Y-156986000D01*
X86360000Y-167132000D02*
X90354000Y-167132000D01*
X100500000Y-156986000D02*
X101546999Y-155939001D01*
X101546999Y-155939001D02*
X101870999Y-155939001D01*
X101870999Y-155939001D02*
X106680000Y-151130000D01*
X106680000Y-151130000D02*
X116840000Y-151130000D01*
X117997000Y-152287000D02*
X123233000Y-152287000D01*
X116840000Y-151130000D02*
X117997000Y-152287000D01*
X132856000Y-104916000D02*
X127522000Y-104916000D01*
X127522000Y-104916000D02*
X127776000Y-104916000D01*
X124630000Y-104916000D02*
X127522000Y-104916000D01*
X133350000Y-132080000D02*
X133350000Y-105410000D01*
X130810000Y-134620000D02*
X133350000Y-132080000D01*
X133350000Y-105410000D02*
X132856000Y-104916000D01*
X114300000Y-107950000D02*
X114300000Y-125730000D01*
X121807000Y-144667000D02*
X123233000Y-144667000D01*
X115570000Y-138430000D02*
X121807000Y-144667000D01*
X129272000Y-121172000D02*
X130556000Y-121172000D01*
X109105001Y-130539001D02*
X126254999Y-130539001D01*
X107993000Y-129427000D02*
X109105001Y-130539001D01*
X126254999Y-130539001D02*
X129032000Y-127762000D01*
X129032000Y-127762000D02*
X129032000Y-121412000D01*
X129032000Y-121412000D02*
X129272000Y-121172000D01*
X130288000Y-118632000D02*
X130556000Y-118632000D01*
X130556000Y-118632000D02*
X128256000Y-118632000D01*
X128256000Y-118632000D02*
X126238000Y-120650000D01*
X126238000Y-120650000D02*
X126238000Y-126746000D01*
X126238000Y-126746000D02*
X124714000Y-128270000D01*
X109376000Y-128270000D02*
X107993000Y-126887000D01*
X124714000Y-128270000D02*
X109376000Y-128270000D01*
X123721762Y-151130000D02*
X128270000Y-155678238D01*
X128270000Y-155678238D02*
X128270000Y-157480000D01*
X129046000Y-158256000D02*
X130556000Y-158256000D01*
X128270000Y-157480000D02*
X129046000Y-158256000D01*
X107993000Y-144667000D02*
X108853000Y-144667000D01*
X108853000Y-144667000D02*
X109728000Y-145542000D01*
X109728000Y-145542000D02*
X109728000Y-149098000D01*
X109728000Y-149098000D02*
X110744000Y-150114000D01*
X110744000Y-150114000D02*
X117602000Y-150114000D01*
X118618000Y-151130000D02*
X119634000Y-151130000D01*
X117602000Y-150114000D02*
X118618000Y-151130000D01*
X119380000Y-151130000D02*
X119634000Y-151130000D01*
X119634000Y-151130000D02*
X123721762Y-151130000D01*
X107993000Y-152287000D02*
X110377000Y-152287000D01*
X130332999Y-161019001D02*
X130556000Y-160796000D01*
X119109001Y-161019001D02*
X130332999Y-161019001D01*
X110377000Y-152287000D02*
X119109001Y-161019001D01*
X107993000Y-154827000D02*
X110377000Y-154827000D01*
X129706001Y-164185999D02*
X130556000Y-163336000D01*
X119735999Y-164185999D02*
X129706001Y-164185999D01*
X110377000Y-154827000D02*
X119735999Y-164185999D01*
X123233000Y-149747000D02*
X124573000Y-149747000D01*
X128764000Y-145556000D02*
X130556000Y-145556000D01*
X124573000Y-149747000D02*
X128764000Y-145556000D01*
X130556000Y-148096000D02*
X132080000Y-146572000D01*
X132080000Y-146572000D02*
X132080000Y-143510000D01*
X130697000Y-142127000D02*
X123233000Y-142127000D01*
X132080000Y-143510000D02*
X130697000Y-142127000D01*
X123233000Y-131967000D02*
X128637000Y-131967000D01*
X130556000Y-130048000D02*
X130556000Y-123712000D01*
X128637000Y-131967000D02*
X130556000Y-130048000D01*
D23*
G36*
X134340001Y-171323000D02*
G01*
X80660000Y-171323000D01*
X80660000Y-152400000D01*
X82779994Y-152400000D01*
X82785001Y-152450838D01*
X82785000Y-167589172D01*
X82779994Y-167640000D01*
X82785000Y-167690828D01*
X82785000Y-167690837D01*
X82799976Y-167842894D01*
X82859159Y-168037992D01*
X82955266Y-168217797D01*
X83084604Y-168375396D01*
X83124097Y-168407807D01*
X84322197Y-169605908D01*
X84354604Y-169645396D01*
X84394092Y-169677803D01*
X84512202Y-169774734D01*
X84564864Y-169802882D01*
X84692007Y-169870841D01*
X84887105Y-169930024D01*
X85039162Y-169945000D01*
X85039171Y-169945000D01*
X85089999Y-169950006D01*
X85140827Y-169945000D01*
X91135172Y-169945000D01*
X91186000Y-169950006D01*
X91236828Y-169945000D01*
X91236838Y-169945000D01*
X91388895Y-169930024D01*
X91583993Y-169870841D01*
X91763797Y-169774734D01*
X91921396Y-169645396D01*
X91953807Y-169605903D01*
X92835366Y-168724344D01*
X107335000Y-168724344D01*
X107335000Y-169095656D01*
X107407439Y-169459834D01*
X107549534Y-169802882D01*
X107755825Y-170111618D01*
X108018382Y-170374175D01*
X108327118Y-170580466D01*
X108670166Y-170722561D01*
X109034344Y-170795000D01*
X109405656Y-170795000D01*
X109769834Y-170722561D01*
X110112882Y-170580466D01*
X110421618Y-170374175D01*
X110684175Y-170111618D01*
X110890466Y-169802882D01*
X111032561Y-169459834D01*
X111105000Y-169095656D01*
X111105000Y-168724344D01*
X111032561Y-168360166D01*
X110890466Y-168017118D01*
X110684175Y-167708382D01*
X110421618Y-167445825D01*
X110112882Y-167239534D01*
X109769834Y-167097439D01*
X109405656Y-167025000D01*
X109034344Y-167025000D01*
X108670166Y-167097439D01*
X108327118Y-167239534D01*
X108018382Y-167445825D01*
X107755825Y-167708382D01*
X107549534Y-168017118D01*
X107407439Y-168360166D01*
X107335000Y-168724344D01*
X92835366Y-168724344D01*
X96078711Y-165481000D01*
X96149592Y-165481000D01*
X96419490Y-165427314D01*
X96673727Y-165322005D01*
X96902535Y-165169120D01*
X97022090Y-165049565D01*
X97893040Y-165049565D01*
X97960020Y-165289656D01*
X98209048Y-165406756D01*
X98476135Y-165473023D01*
X98751017Y-165485910D01*
X99023133Y-165444922D01*
X99282023Y-165351636D01*
X99397980Y-165289656D01*
X99464960Y-165049565D01*
X98679000Y-164263605D01*
X97893040Y-165049565D01*
X97022090Y-165049565D01*
X97097120Y-164974535D01*
X97250005Y-164745727D01*
X97347610Y-164510090D01*
X97411364Y-164687023D01*
X97473344Y-164802980D01*
X97713435Y-164869960D01*
X98499395Y-164084000D01*
X98858605Y-164084000D01*
X99644565Y-164869960D01*
X99884656Y-164802980D01*
X100001756Y-164553952D01*
X100068023Y-164286865D01*
X100080910Y-164011983D01*
X100039922Y-163739867D01*
X99946636Y-163480977D01*
X99884656Y-163365020D01*
X99644565Y-163298040D01*
X98858605Y-164084000D01*
X98499395Y-164084000D01*
X97713435Y-163298040D01*
X97473344Y-163365020D01*
X97356244Y-163614048D01*
X97346204Y-163654516D01*
X97250005Y-163422273D01*
X97097120Y-163193465D01*
X97022090Y-163118435D01*
X97893040Y-163118435D01*
X98679000Y-163904395D01*
X99464960Y-163118435D01*
X99397980Y-162878344D01*
X99148952Y-162761244D01*
X98881865Y-162694977D01*
X98606983Y-162682090D01*
X98334867Y-162723078D01*
X98075977Y-162816364D01*
X97960020Y-162878344D01*
X97893040Y-163118435D01*
X97022090Y-163118435D01*
X96902535Y-162998880D01*
X96673727Y-162845995D01*
X96419490Y-162740686D01*
X96149592Y-162687000D01*
X95909157Y-162687000D01*
X96286749Y-162309408D01*
X106596000Y-162309408D01*
X106596000Y-162584592D01*
X106649686Y-162854490D01*
X106754995Y-163108727D01*
X106907880Y-163337535D01*
X107102465Y-163532120D01*
X107331273Y-163685005D01*
X107585510Y-163790314D01*
X107855408Y-163844000D01*
X108130592Y-163844000D01*
X108400490Y-163790314D01*
X108654727Y-163685005D01*
X108883535Y-163532120D01*
X109078120Y-163337535D01*
X109231005Y-163108727D01*
X109336314Y-162854490D01*
X109390000Y-162584592D01*
X109390000Y-162309408D01*
X109336314Y-162039510D01*
X109231005Y-161785273D01*
X109078120Y-161556465D01*
X108883535Y-161361880D01*
X108654727Y-161208995D01*
X108583057Y-161179308D01*
X108596023Y-161174636D01*
X108711980Y-161112656D01*
X108778960Y-160872565D01*
X107993000Y-160086605D01*
X107207040Y-160872565D01*
X107274020Y-161112656D01*
X107409760Y-161176485D01*
X107331273Y-161208995D01*
X107102465Y-161361880D01*
X106907880Y-161556465D01*
X106754995Y-161785273D01*
X106649686Y-162039510D01*
X106596000Y-162309408D01*
X96286749Y-162309408D01*
X98617140Y-159979017D01*
X106591090Y-159979017D01*
X106632078Y-160251133D01*
X106725364Y-160510023D01*
X106787344Y-160625980D01*
X107027435Y-160692960D01*
X107813395Y-159907000D01*
X108172605Y-159907000D01*
X108958565Y-160692960D01*
X109198656Y-160625980D01*
X109315756Y-160376952D01*
X109382023Y-160109865D01*
X109394910Y-159834983D01*
X109353922Y-159562867D01*
X109260636Y-159303977D01*
X109198656Y-159188020D01*
X108958565Y-159121040D01*
X108172605Y-159907000D01*
X107813395Y-159907000D01*
X107027435Y-159121040D01*
X106787344Y-159188020D01*
X106670244Y-159437048D01*
X106603977Y-159704135D01*
X106591090Y-159979017D01*
X98617140Y-159979017D01*
X100205603Y-158390554D01*
X100358665Y-158421000D01*
X100641335Y-158421000D01*
X100918574Y-158365853D01*
X101179727Y-158257680D01*
X101414759Y-158100637D01*
X101614637Y-157900759D01*
X101771680Y-157665727D01*
X101879853Y-157404574D01*
X101935000Y-157127335D01*
X101935000Y-156844665D01*
X101910970Y-156723862D01*
X102024886Y-156712642D01*
X102172859Y-156667755D01*
X102309232Y-156594863D01*
X102428763Y-156496765D01*
X102453346Y-156466811D01*
X106596000Y-152324158D01*
X106596000Y-152424592D01*
X106649686Y-152694490D01*
X106754995Y-152948727D01*
X106907880Y-153177535D01*
X107102465Y-153372120D01*
X107331273Y-153525005D01*
X107408515Y-153557000D01*
X107331273Y-153588995D01*
X107102465Y-153741880D01*
X106907880Y-153936465D01*
X106754995Y-154165273D01*
X106649686Y-154419510D01*
X106596000Y-154689408D01*
X106596000Y-154964592D01*
X106649686Y-155234490D01*
X106754995Y-155488727D01*
X106907880Y-155717535D01*
X107102465Y-155912120D01*
X107331273Y-156065005D01*
X107408515Y-156097000D01*
X107331273Y-156128995D01*
X107102465Y-156281880D01*
X106907880Y-156476465D01*
X106754995Y-156705273D01*
X106649686Y-156959510D01*
X106596000Y-157229408D01*
X106596000Y-157504592D01*
X106649686Y-157774490D01*
X106754995Y-158028727D01*
X106907880Y-158257535D01*
X107102465Y-158452120D01*
X107331273Y-158605005D01*
X107402943Y-158634692D01*
X107389977Y-158639364D01*
X107274020Y-158701344D01*
X107207040Y-158941435D01*
X107993000Y-159727395D01*
X108778960Y-158941435D01*
X108711980Y-158701344D01*
X108576240Y-158637515D01*
X108654727Y-158605005D01*
X108883535Y-158452120D01*
X109078120Y-158257535D01*
X109231005Y-158028727D01*
X109336314Y-157774490D01*
X109390000Y-157504592D01*
X109390000Y-157229408D01*
X109336314Y-156959510D01*
X109231005Y-156705273D01*
X109078120Y-156476465D01*
X108883535Y-156281880D01*
X108654727Y-156128995D01*
X108577485Y-156097000D01*
X108654727Y-156065005D01*
X108883535Y-155912120D01*
X109078120Y-155717535D01*
X109148636Y-155612000D01*
X110051843Y-155612000D01*
X119153657Y-164713815D01*
X119178235Y-164743763D01*
X119208183Y-164768341D01*
X119208186Y-164768344D01*
X119222277Y-164779908D01*
X119297766Y-164841861D01*
X119434139Y-164914753D01*
X119547671Y-164949193D01*
X119582111Y-164959640D01*
X119596489Y-164961056D01*
X119697438Y-164970999D01*
X119697445Y-164970999D01*
X119735998Y-164974796D01*
X119774551Y-164970999D01*
X129667448Y-164970999D01*
X129706001Y-164974796D01*
X129744554Y-164970999D01*
X129744562Y-164970999D01*
X129859888Y-164959640D01*
X130007861Y-164914753D01*
X130144234Y-164841861D01*
X130216491Y-164782560D01*
X130409740Y-164821000D01*
X130702260Y-164821000D01*
X130989158Y-164763932D01*
X131259411Y-164651990D01*
X131502632Y-164489475D01*
X131709475Y-164282632D01*
X131871990Y-164039411D01*
X131983932Y-163769158D01*
X132041000Y-163482260D01*
X132041000Y-163189740D01*
X131983932Y-162902842D01*
X131871990Y-162632589D01*
X131709475Y-162389368D01*
X131502632Y-162182525D01*
X131328240Y-162066000D01*
X131502632Y-161949475D01*
X131709475Y-161742632D01*
X131871990Y-161499411D01*
X131983932Y-161229158D01*
X132041000Y-160942260D01*
X132041000Y-160649740D01*
X131983932Y-160362842D01*
X131871990Y-160092589D01*
X131709475Y-159849368D01*
X131502632Y-159642525D01*
X131328240Y-159526000D01*
X131502632Y-159409475D01*
X131709475Y-159202632D01*
X131871990Y-158959411D01*
X131983932Y-158689158D01*
X132041000Y-158402260D01*
X132041000Y-158109740D01*
X131983932Y-157822842D01*
X131871990Y-157552589D01*
X131709475Y-157309368D01*
X131502632Y-157102525D01*
X131328240Y-156986000D01*
X131502632Y-156869475D01*
X131709475Y-156662632D01*
X131871990Y-156419411D01*
X131983932Y-156149158D01*
X132041000Y-155862260D01*
X132041000Y-155569740D01*
X131983932Y-155282842D01*
X131871990Y-155012589D01*
X131709475Y-154769368D01*
X131502632Y-154562525D01*
X131328240Y-154446000D01*
X131502632Y-154329475D01*
X131709475Y-154122632D01*
X131871990Y-153879411D01*
X131983932Y-153609158D01*
X132041000Y-153322260D01*
X132041000Y-153029740D01*
X131983932Y-152742842D01*
X131871990Y-152472589D01*
X131709475Y-152229368D01*
X131502632Y-152022525D01*
X131328240Y-151906000D01*
X131502632Y-151789475D01*
X131709475Y-151582632D01*
X131871990Y-151339411D01*
X131983932Y-151069158D01*
X132041000Y-150782260D01*
X132041000Y-150489740D01*
X131983932Y-150202842D01*
X131871990Y-149932589D01*
X131709475Y-149689368D01*
X131502632Y-149482525D01*
X131328240Y-149366000D01*
X131502632Y-149249475D01*
X131709475Y-149042632D01*
X131871990Y-148799411D01*
X131983932Y-148529158D01*
X132041000Y-148242260D01*
X132041000Y-147949740D01*
X132003075Y-147759082D01*
X132607817Y-147154341D01*
X132637764Y-147129764D01*
X132735862Y-147010233D01*
X132808754Y-146873860D01*
X132853641Y-146725887D01*
X132865000Y-146610561D01*
X132865000Y-146610554D01*
X132868797Y-146572001D01*
X132865000Y-146533448D01*
X132865000Y-143548552D01*
X132868797Y-143509999D01*
X132865000Y-143471446D01*
X132865000Y-143471439D01*
X132853641Y-143356113D01*
X132808754Y-143208140D01*
X132735862Y-143071767D01*
X132683367Y-143007803D01*
X132662345Y-142982187D01*
X132662342Y-142982184D01*
X132637764Y-142952236D01*
X132607816Y-142927658D01*
X131279347Y-141599190D01*
X131254764Y-141569236D01*
X131135233Y-141471138D01*
X130998860Y-141398246D01*
X130850887Y-141353359D01*
X130735561Y-141342000D01*
X130735553Y-141342000D01*
X130697000Y-141338203D01*
X130658447Y-141342000D01*
X124388636Y-141342000D01*
X124318120Y-141236465D01*
X124123535Y-141041880D01*
X123894727Y-140888995D01*
X123817485Y-140857000D01*
X123894727Y-140825005D01*
X124123535Y-140672120D01*
X124318120Y-140477535D01*
X124471005Y-140248727D01*
X124576314Y-139994490D01*
X124630000Y-139724592D01*
X124630000Y-139449408D01*
X124576314Y-139179510D01*
X124471005Y-138925273D01*
X124318120Y-138696465D01*
X124123535Y-138501880D01*
X123894727Y-138348995D01*
X123817485Y-138317000D01*
X123894727Y-138285005D01*
X124123535Y-138132120D01*
X124318120Y-137937535D01*
X124471005Y-137708727D01*
X124576314Y-137454490D01*
X124630000Y-137184592D01*
X124630000Y-136909408D01*
X124576314Y-136639510D01*
X124471005Y-136385273D01*
X124318120Y-136156465D01*
X124123535Y-135961880D01*
X123894727Y-135808995D01*
X123817485Y-135777000D01*
X123894727Y-135745005D01*
X124123535Y-135592120D01*
X124318120Y-135397535D01*
X124471005Y-135168727D01*
X124576314Y-134914490D01*
X124630000Y-134644592D01*
X124630000Y-134369408D01*
X124576314Y-134099510D01*
X124471005Y-133845273D01*
X124318120Y-133616465D01*
X124123535Y-133421880D01*
X123894727Y-133268995D01*
X123817485Y-133237000D01*
X123894727Y-133205005D01*
X124123535Y-133052120D01*
X124318120Y-132857535D01*
X124388636Y-132752000D01*
X128598447Y-132752000D01*
X128637000Y-132755797D01*
X128675553Y-132752000D01*
X128675561Y-132752000D01*
X128790887Y-132740641D01*
X128938860Y-132695754D01*
X129075233Y-132622862D01*
X129194764Y-132524764D01*
X129219347Y-132494810D01*
X131083811Y-130630346D01*
X131113764Y-130605764D01*
X131211862Y-130486233D01*
X131284754Y-130349860D01*
X131294560Y-130317535D01*
X131329642Y-130201887D01*
X131337020Y-130126974D01*
X131341000Y-130086561D01*
X131341000Y-130086556D01*
X131344797Y-130048000D01*
X131341000Y-130009444D01*
X131341000Y-124973474D01*
X131502632Y-124865475D01*
X131709475Y-124658632D01*
X131871990Y-124415411D01*
X131983932Y-124145158D01*
X132041000Y-123858260D01*
X132041000Y-123565740D01*
X131983932Y-123278842D01*
X131871990Y-123008589D01*
X131709475Y-122765368D01*
X131502632Y-122558525D01*
X131328240Y-122442000D01*
X131502632Y-122325475D01*
X131709475Y-122118632D01*
X131871990Y-121875411D01*
X131983932Y-121605158D01*
X132041000Y-121318260D01*
X132041000Y-121025740D01*
X131983932Y-120738842D01*
X131871990Y-120468589D01*
X131709475Y-120225368D01*
X131502632Y-120018525D01*
X131328240Y-119902000D01*
X131502632Y-119785475D01*
X131709475Y-119578632D01*
X131871990Y-119335411D01*
X131983932Y-119065158D01*
X132041000Y-118778260D01*
X132041000Y-118485740D01*
X131983932Y-118198842D01*
X131871990Y-117928589D01*
X131709475Y-117685368D01*
X131502632Y-117478525D01*
X131320466Y-117356805D01*
X131437355Y-117287178D01*
X131653588Y-117092269D01*
X131827641Y-116858920D01*
X131952825Y-116596099D01*
X131997476Y-116448890D01*
X131876155Y-116219000D01*
X130683000Y-116219000D01*
X130683000Y-116239000D01*
X130429000Y-116239000D01*
X130429000Y-116219000D01*
X129235845Y-116219000D01*
X129114524Y-116448890D01*
X129159175Y-116596099D01*
X129284359Y-116858920D01*
X129458412Y-117092269D01*
X129674645Y-117287178D01*
X129791534Y-117356805D01*
X129609368Y-117478525D01*
X129402525Y-117685368D01*
X129294526Y-117847000D01*
X128294555Y-117847000D01*
X128256000Y-117843203D01*
X128217444Y-117847000D01*
X128217439Y-117847000D01*
X128177026Y-117850980D01*
X128102113Y-117858358D01*
X127954140Y-117903246D01*
X127817767Y-117976138D01*
X127757559Y-118025550D01*
X127728187Y-118049655D01*
X127728184Y-118049658D01*
X127698236Y-118074236D01*
X127673658Y-118104184D01*
X125710190Y-120067653D01*
X125680236Y-120092236D01*
X125582138Y-120211768D01*
X125509246Y-120348141D01*
X125464359Y-120496114D01*
X125453000Y-120611440D01*
X125453000Y-120611447D01*
X125449203Y-120650000D01*
X125453000Y-120688553D01*
X125453001Y-126420841D01*
X124574165Y-127299677D01*
X124576314Y-127294490D01*
X124630000Y-127024592D01*
X124630000Y-126749408D01*
X124576314Y-126479510D01*
X124471005Y-126225273D01*
X124318120Y-125996465D01*
X124123535Y-125801880D01*
X123894727Y-125648995D01*
X123817485Y-125617000D01*
X123894727Y-125585005D01*
X124123535Y-125432120D01*
X124318120Y-125237535D01*
X124471005Y-125008727D01*
X124576314Y-124754490D01*
X124630000Y-124484592D01*
X124630000Y-124209408D01*
X124576314Y-123939510D01*
X124471005Y-123685273D01*
X124318120Y-123456465D01*
X124123535Y-123261880D01*
X123894727Y-123108995D01*
X123817485Y-123077000D01*
X123894727Y-123045005D01*
X124123535Y-122892120D01*
X124318120Y-122697535D01*
X124471005Y-122468727D01*
X124576314Y-122214490D01*
X124630000Y-121944592D01*
X124630000Y-121669408D01*
X124576314Y-121399510D01*
X124471005Y-121145273D01*
X124318120Y-120916465D01*
X124123535Y-120721880D01*
X123894727Y-120568995D01*
X123817485Y-120537000D01*
X123894727Y-120505005D01*
X124123535Y-120352120D01*
X124318120Y-120157535D01*
X124471005Y-119928727D01*
X124576314Y-119674490D01*
X124630000Y-119404592D01*
X124630000Y-119129408D01*
X124576314Y-118859510D01*
X124471005Y-118605273D01*
X124318120Y-118376465D01*
X124123535Y-118181880D01*
X123894727Y-118028995D01*
X123823057Y-117999308D01*
X123836023Y-117994636D01*
X123951980Y-117932656D01*
X124018960Y-117692565D01*
X123233000Y-116906605D01*
X122447040Y-117692565D01*
X122514020Y-117932656D01*
X122649760Y-117996485D01*
X122571273Y-118028995D01*
X122342465Y-118181880D01*
X122147880Y-118376465D01*
X121994995Y-118605273D01*
X121889686Y-118859510D01*
X121836000Y-119129408D01*
X121836000Y-119404592D01*
X121889686Y-119674490D01*
X121994995Y-119928727D01*
X122147880Y-120157535D01*
X122342465Y-120352120D01*
X122571273Y-120505005D01*
X122648515Y-120537000D01*
X122571273Y-120568995D01*
X122342465Y-120721880D01*
X122147880Y-120916465D01*
X121994995Y-121145273D01*
X121889686Y-121399510D01*
X121836000Y-121669408D01*
X121836000Y-121944592D01*
X121889686Y-122214490D01*
X121994995Y-122468727D01*
X122147880Y-122697535D01*
X122342465Y-122892120D01*
X122571273Y-123045005D01*
X122648515Y-123077000D01*
X122571273Y-123108995D01*
X122342465Y-123261880D01*
X122147880Y-123456465D01*
X121994995Y-123685273D01*
X121889686Y-123939510D01*
X121836000Y-124209408D01*
X121836000Y-124484592D01*
X121889686Y-124754490D01*
X121994995Y-125008727D01*
X122147880Y-125237535D01*
X122342465Y-125432120D01*
X122571273Y-125585005D01*
X122648515Y-125617000D01*
X122571273Y-125648995D01*
X122342465Y-125801880D01*
X122147880Y-125996465D01*
X121994995Y-126225273D01*
X121889686Y-126479510D01*
X121836000Y-126749408D01*
X121836000Y-127024592D01*
X121889686Y-127294490D01*
X121968598Y-127485000D01*
X109701158Y-127485000D01*
X109365238Y-127149080D01*
X109390000Y-127024592D01*
X109390000Y-126749408D01*
X109336314Y-126479510D01*
X109231005Y-126225273D01*
X109078120Y-125996465D01*
X108883535Y-125801880D01*
X108654727Y-125648995D01*
X108577485Y-125617000D01*
X108654727Y-125585005D01*
X108883535Y-125432120D01*
X109078120Y-125237535D01*
X109231005Y-125008727D01*
X109336314Y-124754490D01*
X109390000Y-124484592D01*
X109390000Y-124209408D01*
X109336314Y-123939510D01*
X109231005Y-123685273D01*
X109078120Y-123456465D01*
X108883535Y-123261880D01*
X108654727Y-123108995D01*
X108577485Y-123077000D01*
X108654727Y-123045005D01*
X108883535Y-122892120D01*
X109078120Y-122697535D01*
X109231005Y-122468727D01*
X109336314Y-122214490D01*
X109390000Y-121944592D01*
X109390000Y-121669408D01*
X109336314Y-121399510D01*
X109231005Y-121145273D01*
X109078120Y-120916465D01*
X108883535Y-120721880D01*
X108654727Y-120568995D01*
X108577485Y-120537000D01*
X108654727Y-120505005D01*
X108883535Y-120352120D01*
X109078120Y-120157535D01*
X109231005Y-119928727D01*
X109336314Y-119674490D01*
X109390000Y-119404592D01*
X109390000Y-119129408D01*
X109336314Y-118859510D01*
X109231005Y-118605273D01*
X109078120Y-118376465D01*
X108883535Y-118181880D01*
X108654727Y-118028995D01*
X108577485Y-117997000D01*
X108654727Y-117965005D01*
X108883535Y-117812120D01*
X109078120Y-117617535D01*
X109231005Y-117388727D01*
X109336314Y-117134490D01*
X109390000Y-116864592D01*
X109390000Y-116589408D01*
X109336314Y-116319510D01*
X109231005Y-116065273D01*
X109078120Y-115836465D01*
X108883535Y-115641880D01*
X108654727Y-115488995D01*
X108577485Y-115457000D01*
X108654727Y-115425005D01*
X108883535Y-115272120D01*
X109078120Y-115077535D01*
X109231005Y-114848727D01*
X109336314Y-114594490D01*
X109390000Y-114324592D01*
X109390000Y-114049408D01*
X109336314Y-113779510D01*
X109231005Y-113525273D01*
X109078120Y-113296465D01*
X108883535Y-113101880D01*
X108654727Y-112948995D01*
X108400490Y-112843686D01*
X108130592Y-112790000D01*
X107855408Y-112790000D01*
X107585510Y-112843686D01*
X107331273Y-112948995D01*
X107102465Y-113101880D01*
X106907880Y-113296465D01*
X106754995Y-113525273D01*
X106649686Y-113779510D01*
X106596000Y-114049408D01*
X106596000Y-114324592D01*
X106649686Y-114594490D01*
X106754995Y-114848727D01*
X106907880Y-115077535D01*
X107102465Y-115272120D01*
X107331273Y-115425005D01*
X107408515Y-115457000D01*
X107331273Y-115488995D01*
X107102465Y-115641880D01*
X106907880Y-115836465D01*
X106754995Y-116065273D01*
X106649686Y-116319510D01*
X106596000Y-116589408D01*
X106596000Y-116864592D01*
X106649686Y-117134490D01*
X106754995Y-117388727D01*
X106907880Y-117617535D01*
X107102465Y-117812120D01*
X107331273Y-117965005D01*
X107408515Y-117997000D01*
X107331273Y-118028995D01*
X107102465Y-118181880D01*
X106907880Y-118376465D01*
X106754995Y-118605273D01*
X106649686Y-118859510D01*
X106596000Y-119129408D01*
X106596000Y-119404592D01*
X106649686Y-119674490D01*
X106754995Y-119928727D01*
X106907880Y-120157535D01*
X107102465Y-120352120D01*
X107331273Y-120505005D01*
X107408515Y-120537000D01*
X107331273Y-120568995D01*
X107102465Y-120721880D01*
X106907880Y-120916465D01*
X106754995Y-121145273D01*
X106649686Y-121399510D01*
X106596000Y-121669408D01*
X106596000Y-121944592D01*
X106649686Y-122214490D01*
X106754995Y-122468727D01*
X106907880Y-122697535D01*
X107102465Y-122892120D01*
X107331273Y-123045005D01*
X107408515Y-123077000D01*
X107331273Y-123108995D01*
X107102465Y-123261880D01*
X106907880Y-123456465D01*
X106754995Y-123685273D01*
X106649686Y-123939510D01*
X106596000Y-124209408D01*
X106596000Y-124484592D01*
X106649686Y-124754490D01*
X106754995Y-125008727D01*
X106907880Y-125237535D01*
X107102465Y-125432120D01*
X107331273Y-125585005D01*
X107408515Y-125617000D01*
X107331273Y-125648995D01*
X107102465Y-125801880D01*
X106907880Y-125996465D01*
X106754995Y-126225273D01*
X106649686Y-126479510D01*
X106596000Y-126749408D01*
X106596000Y-127024592D01*
X106649686Y-127294490D01*
X106754995Y-127548727D01*
X106907880Y-127777535D01*
X107102465Y-127972120D01*
X107331273Y-128125005D01*
X107408515Y-128157000D01*
X107331273Y-128188995D01*
X107102465Y-128341880D01*
X106907880Y-128536465D01*
X106754995Y-128765273D01*
X106649686Y-129019510D01*
X106596000Y-129289408D01*
X106596000Y-129564592D01*
X106649686Y-129834490D01*
X106754995Y-130088727D01*
X106907880Y-130317535D01*
X107102465Y-130512120D01*
X107331273Y-130665005D01*
X107408515Y-130697000D01*
X107331273Y-130728995D01*
X107102465Y-130881880D01*
X106907880Y-131076465D01*
X106754995Y-131305273D01*
X106649686Y-131559510D01*
X106596000Y-131829408D01*
X106596000Y-132104592D01*
X106649686Y-132374490D01*
X106754995Y-132628727D01*
X106907880Y-132857535D01*
X107102465Y-133052120D01*
X107331273Y-133205005D01*
X107408515Y-133237000D01*
X107331273Y-133268995D01*
X107102465Y-133421880D01*
X106907880Y-133616465D01*
X106754995Y-133845273D01*
X106649686Y-134099510D01*
X106596000Y-134369408D01*
X106596000Y-134644592D01*
X106649686Y-134914490D01*
X106754995Y-135168727D01*
X106907880Y-135397535D01*
X107102465Y-135592120D01*
X107331273Y-135745005D01*
X107408515Y-135777000D01*
X107331273Y-135808995D01*
X107102465Y-135961880D01*
X106907880Y-136156465D01*
X106754995Y-136385273D01*
X106649686Y-136639510D01*
X106596000Y-136909408D01*
X106596000Y-137184592D01*
X106649686Y-137454490D01*
X106754995Y-137708727D01*
X106907880Y-137937535D01*
X107102465Y-138132120D01*
X107331273Y-138285005D01*
X107408515Y-138317000D01*
X107331273Y-138348995D01*
X107102465Y-138501880D01*
X106907880Y-138696465D01*
X106754995Y-138925273D01*
X106649686Y-139179510D01*
X106596000Y-139449408D01*
X106596000Y-139724592D01*
X106649686Y-139994490D01*
X106754995Y-140248727D01*
X106907880Y-140477535D01*
X107102465Y-140672120D01*
X107331273Y-140825005D01*
X107408515Y-140857000D01*
X107331273Y-140888995D01*
X107102465Y-141041880D01*
X106907880Y-141236465D01*
X106754995Y-141465273D01*
X106649686Y-141719510D01*
X106596000Y-141989408D01*
X106596000Y-142264592D01*
X106649686Y-142534490D01*
X106754995Y-142788727D01*
X106907880Y-143017535D01*
X107102465Y-143212120D01*
X107331273Y-143365005D01*
X107408515Y-143397000D01*
X107331273Y-143428995D01*
X107102465Y-143581880D01*
X106907880Y-143776465D01*
X106754995Y-144005273D01*
X106649686Y-144259510D01*
X106596000Y-144529408D01*
X106596000Y-144804592D01*
X106649686Y-145074490D01*
X106754995Y-145328727D01*
X106907880Y-145557535D01*
X107102465Y-145752120D01*
X107331273Y-145905005D01*
X107408515Y-145937000D01*
X107331273Y-145968995D01*
X107102465Y-146121880D01*
X106907880Y-146316465D01*
X106859311Y-146389153D01*
X106195000Y-145724843D01*
X106195000Y-143548552D01*
X106198797Y-143509999D01*
X106195000Y-143471446D01*
X106195000Y-143471439D01*
X106183641Y-143356113D01*
X106138754Y-143208140D01*
X106065862Y-143071767D01*
X105967764Y-142952236D01*
X105937811Y-142927654D01*
X105498347Y-142488190D01*
X105473764Y-142458236D01*
X105354233Y-142360138D01*
X105217860Y-142287246D01*
X105069887Y-142242359D01*
X104954561Y-142231000D01*
X104954553Y-142231000D01*
X104916000Y-142227203D01*
X104877447Y-142231000D01*
X101701339Y-142231000D01*
X101614637Y-142101241D01*
X101414759Y-141901363D01*
X101182241Y-141746000D01*
X101414759Y-141590637D01*
X101614637Y-141390759D01*
X101771680Y-141155727D01*
X101879853Y-140894574D01*
X101935000Y-140617335D01*
X101935000Y-140334665D01*
X101879853Y-140057426D01*
X101771680Y-139796273D01*
X101614637Y-139561241D01*
X101414759Y-139361363D01*
X101182241Y-139206000D01*
X101414759Y-139050637D01*
X101614637Y-138850759D01*
X101771680Y-138615727D01*
X101879853Y-138354574D01*
X101935000Y-138077335D01*
X101935000Y-137794665D01*
X101879853Y-137517426D01*
X101771680Y-137256273D01*
X101614637Y-137021241D01*
X101414759Y-136821363D01*
X101179727Y-136664320D01*
X100918574Y-136556147D01*
X100641335Y-136501000D01*
X100358665Y-136501000D01*
X100081426Y-136556147D01*
X99820273Y-136664320D01*
X99585241Y-136821363D01*
X99505604Y-136901000D01*
X99334711Y-136901000D01*
X98995000Y-136561290D01*
X98995000Y-135120396D01*
X99074637Y-135040759D01*
X99231680Y-134805727D01*
X99339853Y-134544574D01*
X99395000Y-134267335D01*
X99395000Y-134154710D01*
X106105908Y-127443803D01*
X106145396Y-127411396D01*
X106217310Y-127323769D01*
X106274734Y-127253798D01*
X106326104Y-127157691D01*
X106370841Y-127073993D01*
X106430024Y-126878895D01*
X106445000Y-126726838D01*
X106445000Y-126726829D01*
X106450006Y-126676001D01*
X106445000Y-126625173D01*
X106445000Y-113458710D01*
X111355908Y-108547803D01*
X111395396Y-108515396D01*
X111465083Y-108430482D01*
X111524734Y-108357798D01*
X111606300Y-108205197D01*
X111620841Y-108177993D01*
X111680024Y-107982895D01*
X111693303Y-107848061D01*
X113265000Y-107848061D01*
X113265000Y-108051939D01*
X113304774Y-108251898D01*
X113382795Y-108440256D01*
X113496063Y-108609774D01*
X113515000Y-108628711D01*
X113515001Y-125051288D01*
X113496063Y-125070226D01*
X113382795Y-125239744D01*
X113304774Y-125428102D01*
X113265000Y-125628061D01*
X113265000Y-125831939D01*
X113304774Y-126031898D01*
X113382795Y-126220256D01*
X113496063Y-126389774D01*
X113640226Y-126533937D01*
X113809744Y-126647205D01*
X113998102Y-126725226D01*
X114198061Y-126765000D01*
X114401939Y-126765000D01*
X114601898Y-126725226D01*
X114790256Y-126647205D01*
X114959774Y-126533937D01*
X115103937Y-126389774D01*
X115217205Y-126220256D01*
X115295226Y-126031898D01*
X115335000Y-125831939D01*
X115335000Y-125628061D01*
X115295226Y-125428102D01*
X115217205Y-125239744D01*
X115103937Y-125070226D01*
X115085000Y-125051289D01*
X115085000Y-116799017D01*
X121831090Y-116799017D01*
X121872078Y-117071133D01*
X121965364Y-117330023D01*
X122027344Y-117445980D01*
X122267435Y-117512960D01*
X123053395Y-116727000D01*
X123412605Y-116727000D01*
X124198565Y-117512960D01*
X124438656Y-117445980D01*
X124555756Y-117196952D01*
X124622023Y-116929865D01*
X124634910Y-116654983D01*
X124593922Y-116382867D01*
X124500636Y-116123977D01*
X124438656Y-116008020D01*
X124198565Y-115941040D01*
X123412605Y-116727000D01*
X123053395Y-116727000D01*
X122267435Y-115941040D01*
X122027344Y-116008020D01*
X121910244Y-116257048D01*
X121843977Y-116524135D01*
X121831090Y-116799017D01*
X115085000Y-116799017D01*
X115085000Y-115152565D01*
X122447040Y-115152565D01*
X122514020Y-115392656D01*
X122644644Y-115454079D01*
X122629977Y-115459364D01*
X122514020Y-115521344D01*
X122447040Y-115761435D01*
X123233000Y-116547395D01*
X124018960Y-115761435D01*
X123951980Y-115521344D01*
X123821356Y-115459921D01*
X123836023Y-115454636D01*
X123951980Y-115392656D01*
X124018960Y-115152565D01*
X123233000Y-114366605D01*
X122447040Y-115152565D01*
X115085000Y-115152565D01*
X115085000Y-114259017D01*
X121831090Y-114259017D01*
X121872078Y-114531133D01*
X121965364Y-114790023D01*
X122027344Y-114905980D01*
X122267435Y-114972960D01*
X123053395Y-114187000D01*
X123412605Y-114187000D01*
X124198565Y-114972960D01*
X124438656Y-114905980D01*
X124555756Y-114656952D01*
X124622023Y-114389865D01*
X124634910Y-114114983D01*
X124593922Y-113842867D01*
X124500636Y-113583977D01*
X124438656Y-113468020D01*
X124198565Y-113401040D01*
X123412605Y-114187000D01*
X123053395Y-114187000D01*
X122267435Y-113401040D01*
X122027344Y-113468020D01*
X121910244Y-113717048D01*
X121843977Y-113984135D01*
X121831090Y-114259017D01*
X115085000Y-114259017D01*
X115085000Y-113221435D01*
X122447040Y-113221435D01*
X123233000Y-114007395D01*
X124018960Y-113221435D01*
X123951980Y-112981344D01*
X123702952Y-112864244D01*
X123435865Y-112797977D01*
X123160983Y-112785090D01*
X122888867Y-112826078D01*
X122629977Y-112919364D01*
X122514020Y-112981344D01*
X122447040Y-113221435D01*
X115085000Y-113221435D01*
X115085000Y-108628711D01*
X115103937Y-108609774D01*
X115217205Y-108440256D01*
X115295226Y-108251898D01*
X115335000Y-108051939D01*
X115335000Y-107848061D01*
X115295226Y-107648102D01*
X115217205Y-107459744D01*
X115116976Y-107309740D01*
X115525000Y-107309740D01*
X115525000Y-107602260D01*
X115582068Y-107889158D01*
X115694010Y-108159411D01*
X115856525Y-108402632D01*
X116063368Y-108609475D01*
X116306589Y-108771990D01*
X116576842Y-108883932D01*
X116863740Y-108941000D01*
X117156260Y-108941000D01*
X117443158Y-108883932D01*
X117713411Y-108771990D01*
X117956632Y-108609475D01*
X118163475Y-108402632D01*
X118280000Y-108228240D01*
X118396525Y-108402632D01*
X118603368Y-108609475D01*
X118846589Y-108771990D01*
X119116842Y-108883932D01*
X119403740Y-108941000D01*
X119571289Y-108941000D01*
X120232197Y-109601908D01*
X120264605Y-109641397D01*
X120304093Y-109673804D01*
X120422203Y-109770735D01*
X120496635Y-109810519D01*
X120602008Y-109866842D01*
X120797106Y-109926025D01*
X120949163Y-109941001D01*
X120949172Y-109941001D01*
X121000000Y-109946007D01*
X121050828Y-109941001D01*
X125481291Y-109941001D01*
X129067928Y-113527639D01*
X129067928Y-114402000D01*
X129080188Y-114526482D01*
X129116498Y-114646180D01*
X129175463Y-114756494D01*
X129254815Y-114853185D01*
X129351506Y-114932537D01*
X129461820Y-114991502D01*
X129542466Y-115015966D01*
X129458412Y-115091731D01*
X129284359Y-115325080D01*
X129159175Y-115587901D01*
X129114524Y-115735110D01*
X129235845Y-115965000D01*
X130429000Y-115965000D01*
X130429000Y-115945000D01*
X130683000Y-115945000D01*
X130683000Y-115965000D01*
X131876155Y-115965000D01*
X131997476Y-115735110D01*
X131952825Y-115587901D01*
X131827641Y-115325080D01*
X131653588Y-115091731D01*
X131569534Y-115015966D01*
X131650180Y-114991502D01*
X131760494Y-114932537D01*
X131857185Y-114853185D01*
X131936537Y-114756494D01*
X131995502Y-114646180D01*
X132031812Y-114526482D01*
X132044072Y-114402000D01*
X132044072Y-112702000D01*
X132031812Y-112577518D01*
X131995502Y-112457820D01*
X131936537Y-112347506D01*
X131857185Y-112250815D01*
X131760494Y-112171463D01*
X131650180Y-112112498D01*
X131530482Y-112076188D01*
X131406000Y-112063928D01*
X130531639Y-112063928D01*
X126677804Y-108210093D01*
X126645397Y-108170605D01*
X126605909Y-108138198D01*
X126118072Y-107650361D01*
X126118072Y-106606000D01*
X126105812Y-106481518D01*
X126069502Y-106361820D01*
X126010537Y-106251506D01*
X125931185Y-106154815D01*
X125834494Y-106075463D01*
X125724180Y-106016498D01*
X125651620Y-105994487D01*
X125783475Y-105862632D01*
X125891474Y-105701000D01*
X132530843Y-105701000D01*
X132565001Y-105735158D01*
X132565000Y-131754842D01*
X130734843Y-133585000D01*
X130708061Y-133585000D01*
X130508102Y-133624774D01*
X130319744Y-133702795D01*
X130150226Y-133816063D01*
X130006063Y-133960226D01*
X129892795Y-134129744D01*
X129814774Y-134318102D01*
X129775000Y-134518061D01*
X129775000Y-134721939D01*
X129814774Y-134921898D01*
X129892795Y-135110256D01*
X130006063Y-135279774D01*
X130150226Y-135423937D01*
X130319744Y-135537205D01*
X130508102Y-135615226D01*
X130708061Y-135655000D01*
X130911939Y-135655000D01*
X131111898Y-135615226D01*
X131300256Y-135537205D01*
X131469774Y-135423937D01*
X131613937Y-135279774D01*
X131727205Y-135110256D01*
X131805226Y-134921898D01*
X131845000Y-134721939D01*
X131845000Y-134695157D01*
X133877817Y-132662341D01*
X133907764Y-132637764D01*
X133932346Y-132607812D01*
X133956450Y-132578441D01*
X134005862Y-132518233D01*
X134078754Y-132381860D01*
X134123641Y-132233887D01*
X134135000Y-132118561D01*
X134135000Y-132118554D01*
X134138797Y-132080001D01*
X134135000Y-132041448D01*
X134135000Y-105448552D01*
X134138797Y-105409999D01*
X134135000Y-105371446D01*
X134135000Y-105371439D01*
X134123641Y-105256113D01*
X134078754Y-105108140D01*
X134005862Y-104971767D01*
X133907764Y-104852236D01*
X133877810Y-104827653D01*
X133438347Y-104388190D01*
X133413764Y-104358236D01*
X133294233Y-104260138D01*
X133157860Y-104187246D01*
X133009887Y-104142359D01*
X132894561Y-104131000D01*
X132894553Y-104131000D01*
X132856000Y-104127203D01*
X132817447Y-104131000D01*
X125891474Y-104131000D01*
X125783475Y-103969368D01*
X125576632Y-103762525D01*
X125333411Y-103600010D01*
X125063158Y-103488068D01*
X124776260Y-103431000D01*
X124483740Y-103431000D01*
X124196842Y-103488068D01*
X123926589Y-103600010D01*
X123683368Y-103762525D01*
X123476525Y-103969368D01*
X123360000Y-104143760D01*
X123243475Y-103969368D01*
X123036632Y-103762525D01*
X122793411Y-103600010D01*
X122523158Y-103488068D01*
X122236260Y-103431000D01*
X121943740Y-103431000D01*
X121656842Y-103488068D01*
X121386589Y-103600010D01*
X121143368Y-103762525D01*
X120936525Y-103969368D01*
X120820000Y-104143760D01*
X120703475Y-103969368D01*
X120496632Y-103762525D01*
X120253411Y-103600010D01*
X119983158Y-103488068D01*
X119696260Y-103431000D01*
X119403740Y-103431000D01*
X119116842Y-103488068D01*
X118846589Y-103600010D01*
X118603368Y-103762525D01*
X118396525Y-103969368D01*
X118274805Y-104151534D01*
X118205178Y-104034645D01*
X118010269Y-103818412D01*
X117776920Y-103644359D01*
X117514099Y-103519175D01*
X117366890Y-103474524D01*
X117137000Y-103595845D01*
X117137000Y-104789000D01*
X117157000Y-104789000D01*
X117157000Y-105043000D01*
X117137000Y-105043000D01*
X117137000Y-105063000D01*
X116883000Y-105063000D01*
X116883000Y-105043000D01*
X115689186Y-105043000D01*
X115568519Y-105272891D01*
X115665843Y-105547252D01*
X115814822Y-105797355D01*
X116009731Y-106013588D01*
X116239406Y-106184900D01*
X116063368Y-106302525D01*
X115856525Y-106509368D01*
X115694010Y-106752589D01*
X115582068Y-107022842D01*
X115525000Y-107309740D01*
X115116976Y-107309740D01*
X115103937Y-107290226D01*
X114959774Y-107146063D01*
X114790256Y-107032795D01*
X114601898Y-106954774D01*
X114401939Y-106915000D01*
X114198061Y-106915000D01*
X113998102Y-106954774D01*
X113809744Y-107032795D01*
X113640226Y-107146063D01*
X113496063Y-107290226D01*
X113382795Y-107459744D01*
X113304774Y-107648102D01*
X113265000Y-107848061D01*
X111693303Y-107848061D01*
X111695000Y-107830838D01*
X111695000Y-107830829D01*
X111696015Y-107820525D01*
X111784482Y-107811812D01*
X111904180Y-107775502D01*
X112014494Y-107716537D01*
X112111185Y-107637185D01*
X112190537Y-107540494D01*
X112249502Y-107430180D01*
X112285812Y-107310482D01*
X112298072Y-107186000D01*
X112298072Y-105186000D01*
X112285812Y-105061518D01*
X112249502Y-104941820D01*
X112190537Y-104831506D01*
X112111185Y-104734815D01*
X112014494Y-104655463D01*
X111904180Y-104596498D01*
X111784482Y-104560188D01*
X111773527Y-104559109D01*
X115568519Y-104559109D01*
X115689186Y-104789000D01*
X116883000Y-104789000D01*
X116883000Y-103595845D01*
X116653110Y-103474524D01*
X116505901Y-103519175D01*
X116243080Y-103644359D01*
X116009731Y-103818412D01*
X115814822Y-104034645D01*
X115665843Y-104284748D01*
X115568519Y-104559109D01*
X111773527Y-104559109D01*
X111660000Y-104547928D01*
X110485639Y-104547928D01*
X109381807Y-103444097D01*
X109349396Y-103404604D01*
X109338929Y-103396014D01*
X109533993Y-103336841D01*
X109713797Y-103240734D01*
X109871396Y-103111396D01*
X109903807Y-103071903D01*
X113012711Y-99963000D01*
X113083592Y-99963000D01*
X113353490Y-99909314D01*
X113607727Y-99804005D01*
X113836535Y-99651120D01*
X113956090Y-99531565D01*
X114827040Y-99531565D01*
X114894020Y-99771656D01*
X115143048Y-99888756D01*
X115410135Y-99955023D01*
X115685017Y-99967910D01*
X115957133Y-99926922D01*
X116216023Y-99833636D01*
X116331980Y-99771656D01*
X116398960Y-99531565D01*
X116249739Y-99382344D01*
X128925000Y-99382344D01*
X128925000Y-99753656D01*
X128997439Y-100117834D01*
X129139534Y-100460882D01*
X129345825Y-100769618D01*
X129608382Y-101032175D01*
X129917118Y-101238466D01*
X130260166Y-101380561D01*
X130624344Y-101453000D01*
X130995656Y-101453000D01*
X131359834Y-101380561D01*
X131702882Y-101238466D01*
X132011618Y-101032175D01*
X132274175Y-100769618D01*
X132480466Y-100460882D01*
X132622561Y-100117834D01*
X132695000Y-99753656D01*
X132695000Y-99382344D01*
X132622561Y-99018166D01*
X132480466Y-98675118D01*
X132274175Y-98366382D01*
X132011618Y-98103825D01*
X131702882Y-97897534D01*
X131359834Y-97755439D01*
X130995656Y-97683000D01*
X130624344Y-97683000D01*
X130260166Y-97755439D01*
X129917118Y-97897534D01*
X129608382Y-98103825D01*
X129345825Y-98366382D01*
X129139534Y-98675118D01*
X128997439Y-99018166D01*
X128925000Y-99382344D01*
X116249739Y-99382344D01*
X115613000Y-98745605D01*
X114827040Y-99531565D01*
X113956090Y-99531565D01*
X114031120Y-99456535D01*
X114184005Y-99227727D01*
X114281610Y-98992090D01*
X114345364Y-99169023D01*
X114407344Y-99284980D01*
X114647435Y-99351960D01*
X115433395Y-98566000D01*
X115792605Y-98566000D01*
X116578565Y-99351960D01*
X116818656Y-99284980D01*
X116935756Y-99035952D01*
X117002023Y-98768865D01*
X117014910Y-98493983D01*
X116973922Y-98221867D01*
X116880636Y-97962977D01*
X116818656Y-97847020D01*
X116578565Y-97780040D01*
X115792605Y-98566000D01*
X115433395Y-98566000D01*
X114647435Y-97780040D01*
X114407344Y-97847020D01*
X114290244Y-98096048D01*
X114280204Y-98136516D01*
X114184005Y-97904273D01*
X114031120Y-97675465D01*
X113956090Y-97600435D01*
X114827040Y-97600435D01*
X115613000Y-98386395D01*
X116398960Y-97600435D01*
X116331980Y-97360344D01*
X116082952Y-97243244D01*
X115815865Y-97176977D01*
X115540983Y-97164090D01*
X115268867Y-97205078D01*
X115009977Y-97298364D01*
X114894020Y-97360344D01*
X114827040Y-97600435D01*
X113956090Y-97600435D01*
X113836535Y-97480880D01*
X113607727Y-97327995D01*
X113353490Y-97222686D01*
X113083592Y-97169000D01*
X112808408Y-97169000D01*
X112538510Y-97222686D01*
X112284273Y-97327995D01*
X112055465Y-97480880D01*
X111860880Y-97675465D01*
X111707995Y-97904273D01*
X111602686Y-98158510D01*
X111549000Y-98428408D01*
X111549000Y-98499289D01*
X108707290Y-101341000D01*
X100481756Y-101341000D01*
X100405463Y-101248037D01*
X100163735Y-101049655D01*
X99887949Y-100902245D01*
X99588704Y-100811470D01*
X99355486Y-100788500D01*
X99104514Y-100788500D01*
X98871296Y-100811470D01*
X98572051Y-100902245D01*
X98296265Y-101049655D01*
X98054537Y-101248037D01*
X97856155Y-101489765D01*
X97708745Y-101765551D01*
X97617970Y-102064796D01*
X97587319Y-102376000D01*
X97617970Y-102687204D01*
X97708745Y-102986449D01*
X97856155Y-103262235D01*
X98054537Y-103503963D01*
X98227609Y-103646000D01*
X98054537Y-103788037D01*
X97856155Y-104029765D01*
X97708745Y-104305551D01*
X97617970Y-104604796D01*
X97587319Y-104916000D01*
X97617970Y-105227204D01*
X97708745Y-105526449D01*
X97856155Y-105802235D01*
X97959446Y-105928095D01*
X97875506Y-105972963D01*
X97778815Y-106052315D01*
X97699463Y-106149006D01*
X97640498Y-106259320D01*
X97604188Y-106379018D01*
X97591928Y-106503500D01*
X97595000Y-107170250D01*
X97753750Y-107329000D01*
X99103000Y-107329000D01*
X99103000Y-107309000D01*
X99357000Y-107309000D01*
X99357000Y-107329000D01*
X100706250Y-107329000D01*
X100713837Y-107321413D01*
X104704192Y-107321413D01*
X104799956Y-107585814D01*
X105089571Y-107726704D01*
X105401108Y-107808384D01*
X105722595Y-107827718D01*
X106041675Y-107783961D01*
X106346088Y-107678795D01*
X106520044Y-107585814D01*
X106615808Y-107321413D01*
X105660000Y-106365605D01*
X104704192Y-107321413D01*
X100713837Y-107321413D01*
X100865000Y-107170250D01*
X100868072Y-106503500D01*
X100855812Y-106379018D01*
X100819502Y-106259320D01*
X100760537Y-106149006D01*
X100681185Y-106052315D01*
X100584494Y-105972963D01*
X100543405Y-105951000D01*
X103313172Y-105951000D01*
X103364000Y-105956006D01*
X103414828Y-105951000D01*
X103414838Y-105951000D01*
X103566895Y-105936024D01*
X103761993Y-105876841D01*
X103941797Y-105780734D01*
X104099396Y-105651396D01*
X104114836Y-105632582D01*
X104037616Y-105927108D01*
X104018282Y-106248595D01*
X104062039Y-106567675D01*
X104167205Y-106872088D01*
X104260186Y-107046044D01*
X104524587Y-107141808D01*
X105480395Y-106186000D01*
X105466253Y-106171858D01*
X105645858Y-105992253D01*
X105660000Y-106006395D01*
X105674143Y-105992253D01*
X105853748Y-106171858D01*
X105839605Y-106186000D01*
X106795413Y-107141808D01*
X107059814Y-107046044D01*
X107200704Y-106756429D01*
X107282384Y-106444892D01*
X107301718Y-106123405D01*
X107257961Y-105804325D01*
X107152795Y-105499912D01*
X107059814Y-105325956D01*
X106795415Y-105230193D01*
X106850608Y-105175000D01*
X108185290Y-105175000D01*
X109021928Y-106011639D01*
X109021928Y-107186000D01*
X109034188Y-107310482D01*
X109070498Y-107430180D01*
X109129463Y-107540494D01*
X109208815Y-107637185D01*
X109280376Y-107695913D01*
X104714093Y-112262197D01*
X104674605Y-112294604D01*
X104642198Y-112334092D01*
X104642197Y-112334093D01*
X104545266Y-112452203D01*
X104449160Y-112632007D01*
X104389977Y-112827105D01*
X104369994Y-113030000D01*
X104375001Y-113080838D01*
X104375000Y-126247289D01*
X97931290Y-132691000D01*
X97818665Y-132691000D01*
X97541426Y-132746147D01*
X97280273Y-132854320D01*
X97045241Y-133011363D01*
X96845363Y-133211241D01*
X96711308Y-133411869D01*
X96696671Y-133384486D01*
X96452702Y-133312903D01*
X95639605Y-134126000D01*
X96452702Y-134939097D01*
X96696671Y-134867514D01*
X96710324Y-134838659D01*
X96845363Y-135040759D01*
X96925000Y-135120396D01*
X96925001Y-136939162D01*
X96919994Y-136990000D01*
X96939977Y-137192895D01*
X96999160Y-137387993D01*
X97095266Y-137567797D01*
X97192197Y-137685907D01*
X97224605Y-137725396D01*
X97264092Y-137757802D01*
X97871001Y-138364712D01*
X97871000Y-141965289D01*
X95824092Y-144012198D01*
X95784605Y-144044604D01*
X95752198Y-144084092D01*
X95752197Y-144084093D01*
X95655266Y-144202203D01*
X95559160Y-144382007D01*
X95499977Y-144577105D01*
X95479994Y-144780000D01*
X95485001Y-144830838D01*
X95485000Y-146567289D01*
X92904362Y-149147928D01*
X92030000Y-149147928D01*
X91905518Y-149160188D01*
X91785820Y-149196498D01*
X91675506Y-149255463D01*
X91578815Y-149334815D01*
X91499463Y-149431506D01*
X91440498Y-149541820D01*
X91404188Y-149661518D01*
X91391928Y-149786000D01*
X91391928Y-151486000D01*
X91404188Y-151610482D01*
X91440498Y-151730180D01*
X91499463Y-151840494D01*
X91578815Y-151937185D01*
X91675506Y-152016537D01*
X91785820Y-152075502D01*
X91845001Y-152093454D01*
X91845000Y-155991604D01*
X91765363Y-156071241D01*
X91608320Y-156306273D01*
X91500147Y-156567426D01*
X91445000Y-156844665D01*
X91445000Y-156957289D01*
X89925290Y-158477000D01*
X87425107Y-158477000D01*
X87381620Y-158433513D01*
X87454180Y-158411502D01*
X87564494Y-158352537D01*
X87661185Y-158273185D01*
X87740537Y-158176494D01*
X87799502Y-158066180D01*
X87835812Y-157946482D01*
X87848072Y-157822000D01*
X87845000Y-157257750D01*
X87686250Y-157099000D01*
X86487000Y-157099000D01*
X86487000Y-157119000D01*
X86233000Y-157119000D01*
X86233000Y-157099000D01*
X85033750Y-157099000D01*
X84875000Y-157257750D01*
X84871928Y-157822000D01*
X84884188Y-157946482D01*
X84920498Y-158066180D01*
X84979463Y-158176494D01*
X85058815Y-158273185D01*
X85155506Y-158352537D01*
X85265820Y-158411502D01*
X85338380Y-158433513D01*
X85206525Y-158565368D01*
X85044010Y-158808589D01*
X84932068Y-159078842D01*
X84875000Y-159365740D01*
X84875000Y-159658260D01*
X84932068Y-159945158D01*
X85044010Y-160215411D01*
X85206525Y-160458632D01*
X85413368Y-160665475D01*
X85587760Y-160782000D01*
X85413368Y-160898525D01*
X85206525Y-161105368D01*
X85044010Y-161348589D01*
X84932068Y-161618842D01*
X84875000Y-161905740D01*
X84875000Y-162198260D01*
X84912925Y-162388918D01*
X84855000Y-162446843D01*
X84855000Y-156122000D01*
X84871928Y-156122000D01*
X84875000Y-156686250D01*
X85033750Y-156845000D01*
X86233000Y-156845000D01*
X86233000Y-155645750D01*
X86487000Y-155645750D01*
X86487000Y-156845000D01*
X87686250Y-156845000D01*
X87845000Y-156686250D01*
X87848072Y-156122000D01*
X87835812Y-155997518D01*
X87799502Y-155877820D01*
X87740537Y-155767506D01*
X87661185Y-155670815D01*
X87564494Y-155591463D01*
X87454180Y-155532498D01*
X87334482Y-155496188D01*
X87210000Y-155483928D01*
X86645750Y-155487000D01*
X86487000Y-155645750D01*
X86233000Y-155645750D01*
X86074250Y-155487000D01*
X85510000Y-155483928D01*
X85385518Y-155496188D01*
X85265820Y-155532498D01*
X85155506Y-155591463D01*
X85058815Y-155670815D01*
X84979463Y-155767506D01*
X84920498Y-155877820D01*
X84884188Y-155997518D01*
X84871928Y-156122000D01*
X84855000Y-156122000D01*
X84855000Y-152828710D01*
X85411050Y-152272660D01*
X85416815Y-152279685D01*
X85513506Y-152359037D01*
X85623820Y-152418002D01*
X85743518Y-152454312D01*
X85868000Y-152466572D01*
X87868000Y-152466572D01*
X87992482Y-152454312D01*
X88112180Y-152418002D01*
X88222494Y-152359037D01*
X88319185Y-152279685D01*
X88398537Y-152182994D01*
X88457502Y-152072680D01*
X88493812Y-151952982D01*
X88506072Y-151828500D01*
X88506072Y-149923500D01*
X88493812Y-149799018D01*
X88457502Y-149679320D01*
X88398537Y-149569006D01*
X88319185Y-149472315D01*
X88222494Y-149392963D01*
X88130781Y-149343941D01*
X88243969Y-149202923D01*
X88387571Y-148927094D01*
X88458563Y-148708980D01*
X88338594Y-148463000D01*
X86995000Y-148463000D01*
X86995000Y-148483000D01*
X86741000Y-148483000D01*
X86741000Y-148463000D01*
X85397406Y-148463000D01*
X85277437Y-148708980D01*
X85348429Y-148927094D01*
X85492031Y-149202923D01*
X85605219Y-149343941D01*
X85513506Y-149392963D01*
X85416815Y-149472315D01*
X85337463Y-149569006D01*
X85278498Y-149679320D01*
X85242188Y-149799018D01*
X85237513Y-149846481D01*
X85141105Y-149855976D01*
X84946007Y-149915159D01*
X84766203Y-150011266D01*
X84608604Y-150140604D01*
X84576197Y-150180092D01*
X83124092Y-151632198D01*
X83084605Y-151664604D01*
X83052198Y-151704092D01*
X83052197Y-151704093D01*
X82955266Y-151822203D01*
X82859160Y-152002007D01*
X82799977Y-152197105D01*
X82779994Y-152400000D01*
X80660000Y-152400000D01*
X80660000Y-138430000D01*
X81509994Y-138430000D01*
X81515001Y-138480838D01*
X81515000Y-140919172D01*
X81509994Y-140970000D01*
X81515000Y-141020828D01*
X81515000Y-141020837D01*
X81529976Y-141172894D01*
X81589159Y-141367992D01*
X81685266Y-141547797D01*
X81814604Y-141705396D01*
X81854097Y-141737807D01*
X83052196Y-142935907D01*
X83084604Y-142975396D01*
X83124092Y-143007803D01*
X83242202Y-143104734D01*
X83288342Y-143129396D01*
X83422007Y-143200841D01*
X83617105Y-143260024D01*
X83769162Y-143275000D01*
X83769171Y-143275000D01*
X83819999Y-143280006D01*
X83870827Y-143275000D01*
X84661290Y-143275000D01*
X85833001Y-144446712D01*
X85833001Y-144552761D01*
X85692537Y-144668037D01*
X85494155Y-144909765D01*
X85346745Y-145185551D01*
X85255970Y-145484796D01*
X85225319Y-145796000D01*
X85255970Y-146107204D01*
X85346745Y-146406449D01*
X85494155Y-146682235D01*
X85692537Y-146923963D01*
X85871899Y-147071163D01*
X85686685Y-147226563D01*
X85492031Y-147469077D01*
X85348429Y-147744906D01*
X85277437Y-147963020D01*
X85397406Y-148209000D01*
X86741000Y-148209000D01*
X86741000Y-148189000D01*
X86995000Y-148189000D01*
X86995000Y-148209000D01*
X88338594Y-148209000D01*
X88458563Y-147963020D01*
X88387571Y-147744906D01*
X88243969Y-147469077D01*
X88049315Y-147226563D01*
X87864101Y-147071163D01*
X88043463Y-146923963D01*
X88241845Y-146682235D01*
X88389255Y-146406449D01*
X88480030Y-146107204D01*
X88499941Y-145905039D01*
X91488096Y-145905039D01*
X91528754Y-146039087D01*
X91648963Y-146293420D01*
X91816481Y-146519414D01*
X92024869Y-146708385D01*
X92266119Y-146853070D01*
X92530960Y-146947909D01*
X92753000Y-146826624D01*
X92753000Y-145683000D01*
X93007000Y-145683000D01*
X93007000Y-146826624D01*
X93229040Y-146947909D01*
X93493881Y-146853070D01*
X93735131Y-146708385D01*
X93943519Y-146519414D01*
X94111037Y-146293420D01*
X94231246Y-146039087D01*
X94271904Y-145905039D01*
X94149915Y-145683000D01*
X93007000Y-145683000D01*
X92753000Y-145683000D01*
X91610085Y-145683000D01*
X91488096Y-145905039D01*
X88499941Y-145905039D01*
X88510681Y-145796000D01*
X88480030Y-145484796D01*
X88389255Y-145185551D01*
X88241845Y-144909765D01*
X88043463Y-144668037D01*
X87903000Y-144552761D01*
X87903000Y-144068835D01*
X87908007Y-144018000D01*
X87903000Y-143967162D01*
X87888024Y-143815105D01*
X87828841Y-143620007D01*
X87770041Y-143509999D01*
X87732734Y-143440202D01*
X87635803Y-143322092D01*
X87603396Y-143282604D01*
X87563908Y-143250197D01*
X85857807Y-141544097D01*
X85825396Y-141504604D01*
X85667797Y-141375266D01*
X85487993Y-141279159D01*
X85292895Y-141219976D01*
X85140838Y-141205000D01*
X85140828Y-141205000D01*
X85090000Y-141199994D01*
X85039172Y-141205000D01*
X84248711Y-141205000D01*
X83585000Y-140541290D01*
X83585000Y-139548890D01*
X84410524Y-139548890D01*
X84455175Y-139696099D01*
X84580359Y-139958920D01*
X84754412Y-140192269D01*
X84970645Y-140387178D01*
X85220748Y-140536157D01*
X85495109Y-140633481D01*
X85725000Y-140512814D01*
X85725000Y-139319000D01*
X85979000Y-139319000D01*
X85979000Y-140512814D01*
X86208891Y-140633481D01*
X86483252Y-140536157D01*
X86733355Y-140387178D01*
X86949588Y-140192269D01*
X87123641Y-139958920D01*
X87248825Y-139696099D01*
X87293476Y-139548890D01*
X87172155Y-139319000D01*
X85979000Y-139319000D01*
X85725000Y-139319000D01*
X84531845Y-139319000D01*
X84410524Y-139548890D01*
X83585000Y-139548890D01*
X83585000Y-138858710D01*
X84756711Y-137687000D01*
X84786893Y-137687000D01*
X84905368Y-137805475D01*
X85087534Y-137927195D01*
X84970645Y-137996822D01*
X84754412Y-138191731D01*
X84580359Y-138425080D01*
X84455175Y-138687901D01*
X84410524Y-138835110D01*
X84531845Y-139065000D01*
X85725000Y-139065000D01*
X85725000Y-139045000D01*
X85979000Y-139045000D01*
X85979000Y-139065000D01*
X87172155Y-139065000D01*
X87293476Y-138835110D01*
X87248825Y-138687901D01*
X87123641Y-138425080D01*
X86949588Y-138191731D01*
X86733355Y-137996822D01*
X86616466Y-137927195D01*
X86798632Y-137805475D01*
X87005475Y-137598632D01*
X87167990Y-137355411D01*
X87258872Y-137136000D01*
X91441928Y-137136000D01*
X91441928Y-138736000D01*
X91454188Y-138860482D01*
X91490498Y-138980180D01*
X91549463Y-139090494D01*
X91628815Y-139187185D01*
X91725506Y-139266537D01*
X91835820Y-139325502D01*
X91955518Y-139361812D01*
X91963961Y-139362643D01*
X91765363Y-139561241D01*
X91608320Y-139796273D01*
X91500147Y-140057426D01*
X91445000Y-140334665D01*
X91445000Y-140617335D01*
X91500147Y-140894574D01*
X91608320Y-141155727D01*
X91765363Y-141390759D01*
X91965241Y-141590637D01*
X92197759Y-141746000D01*
X91965241Y-141901363D01*
X91765363Y-142101241D01*
X91608320Y-142336273D01*
X91500147Y-142597426D01*
X91445000Y-142874665D01*
X91445000Y-143157335D01*
X91500147Y-143434574D01*
X91608320Y-143695727D01*
X91765363Y-143930759D01*
X91965241Y-144130637D01*
X92200273Y-144287680D01*
X92210865Y-144292067D01*
X92024869Y-144403615D01*
X91816481Y-144592586D01*
X91648963Y-144818580D01*
X91528754Y-145072913D01*
X91488096Y-145206961D01*
X91610085Y-145429000D01*
X92753000Y-145429000D01*
X92753000Y-145409000D01*
X93007000Y-145409000D01*
X93007000Y-145429000D01*
X94149915Y-145429000D01*
X94271904Y-145206961D01*
X94231246Y-145072913D01*
X94111037Y-144818580D01*
X93943519Y-144592586D01*
X93735131Y-144403615D01*
X93549135Y-144292067D01*
X93559727Y-144287680D01*
X93794759Y-144130637D01*
X93994637Y-143930759D01*
X94151680Y-143695727D01*
X94259853Y-143434574D01*
X94315000Y-143157335D01*
X94315000Y-142874665D01*
X94259853Y-142597426D01*
X94151680Y-142336273D01*
X93994637Y-142101241D01*
X93794759Y-141901363D01*
X93562241Y-141746000D01*
X93794759Y-141590637D01*
X93994637Y-141390759D01*
X94151680Y-141155727D01*
X94259853Y-140894574D01*
X94315000Y-140617335D01*
X94315000Y-140334665D01*
X94259853Y-140057426D01*
X94151680Y-139796273D01*
X93994637Y-139561241D01*
X93796039Y-139362643D01*
X93804482Y-139361812D01*
X93924180Y-139325502D01*
X94034494Y-139266537D01*
X94131185Y-139187185D01*
X94210537Y-139090494D01*
X94269502Y-138980180D01*
X94305812Y-138860482D01*
X94318072Y-138736000D01*
X94318072Y-137136000D01*
X94305812Y-137011518D01*
X94269502Y-136891820D01*
X94210537Y-136781506D01*
X94131185Y-136684815D01*
X94034494Y-136605463D01*
X93924180Y-136546498D01*
X93804482Y-136510188D01*
X93680000Y-136497928D01*
X92080000Y-136497928D01*
X91955518Y-136510188D01*
X91835820Y-136546498D01*
X91725506Y-136605463D01*
X91628815Y-136684815D01*
X91549463Y-136781506D01*
X91490498Y-136891820D01*
X91454188Y-137011518D01*
X91441928Y-137136000D01*
X87258872Y-137136000D01*
X87279932Y-137085158D01*
X87337000Y-136798260D01*
X87337000Y-136505740D01*
X87279932Y-136218842D01*
X87167990Y-135948589D01*
X87005475Y-135705368D01*
X86798632Y-135498525D01*
X86624240Y-135382000D01*
X86798632Y-135265475D01*
X86988444Y-135075663D01*
X86996979Y-135086063D01*
X87047655Y-135147812D01*
X87047659Y-135147816D01*
X87072237Y-135177764D01*
X87102185Y-135202342D01*
X87865000Y-135965158D01*
X87865000Y-135991939D01*
X87904774Y-136191898D01*
X87982795Y-136380256D01*
X88096063Y-136549774D01*
X88240226Y-136693937D01*
X88409744Y-136807205D01*
X88598102Y-136885226D01*
X88798061Y-136925000D01*
X89001939Y-136925000D01*
X89201898Y-136885226D01*
X89390256Y-136807205D01*
X89559774Y-136693937D01*
X89703937Y-136549774D01*
X89817205Y-136380256D01*
X89895226Y-136191898D01*
X89935000Y-135991939D01*
X89935000Y-135788061D01*
X89895226Y-135588102D01*
X89817205Y-135399744D01*
X89703937Y-135230226D01*
X89592413Y-135118702D01*
X94646903Y-135118702D01*
X94718486Y-135362671D01*
X94973996Y-135483571D01*
X95248184Y-135552300D01*
X95530512Y-135566217D01*
X95810130Y-135524787D01*
X96076292Y-135429603D01*
X96201514Y-135362671D01*
X96273097Y-135118702D01*
X95460000Y-134305605D01*
X94646903Y-135118702D01*
X89592413Y-135118702D01*
X89559774Y-135086063D01*
X89390256Y-134972795D01*
X89201898Y-134894774D01*
X89001939Y-134855000D01*
X88975158Y-134855000D01*
X88415000Y-134294843D01*
X88415000Y-115608556D01*
X88418797Y-115570000D01*
X88415000Y-115531440D01*
X88415000Y-115531439D01*
X88411020Y-115491026D01*
X88403642Y-115416113D01*
X88358754Y-115268140D01*
X88346654Y-115245502D01*
X88285862Y-115131767D01*
X88187764Y-115012236D01*
X88157811Y-114987654D01*
X87299075Y-114128918D01*
X87337000Y-113938260D01*
X87337000Y-113645740D01*
X87279932Y-113358842D01*
X87167990Y-113088589D01*
X87005475Y-112845368D01*
X86798632Y-112638525D01*
X86616466Y-112516805D01*
X86733355Y-112447178D01*
X86949588Y-112252269D01*
X87123641Y-112018920D01*
X87248825Y-111756099D01*
X87293476Y-111608890D01*
X87172156Y-111379002D01*
X87337000Y-111379002D01*
X87337000Y-111307157D01*
X90655000Y-114625158D01*
X90655001Y-132041437D01*
X90651203Y-132080000D01*
X90666359Y-132233886D01*
X90711246Y-132381859D01*
X90711247Y-132381860D01*
X90784139Y-132518233D01*
X90824690Y-132567644D01*
X90857655Y-132607812D01*
X90857656Y-132607813D01*
X90882237Y-132637764D01*
X90912185Y-132662342D01*
X91675000Y-133425158D01*
X91675000Y-133451939D01*
X91714774Y-133651898D01*
X91792795Y-133840256D01*
X91906063Y-134009774D01*
X92050226Y-134153937D01*
X92219744Y-134267205D01*
X92408102Y-134345226D01*
X92608061Y-134385000D01*
X92811939Y-134385000D01*
X93011898Y-134345226D01*
X93200256Y-134267205D01*
X93306055Y-134196512D01*
X94019783Y-134196512D01*
X94061213Y-134476130D01*
X94156397Y-134742292D01*
X94223329Y-134867514D01*
X94467298Y-134939097D01*
X95280395Y-134126000D01*
X94467298Y-133312903D01*
X94223329Y-133384486D01*
X94102429Y-133639996D01*
X94033700Y-133914184D01*
X94019783Y-134196512D01*
X93306055Y-134196512D01*
X93369774Y-134153937D01*
X93513937Y-134009774D01*
X93627205Y-133840256D01*
X93705226Y-133651898D01*
X93745000Y-133451939D01*
X93745000Y-133248061D01*
X93722173Y-133133298D01*
X94646903Y-133133298D01*
X95460000Y-133946395D01*
X96273097Y-133133298D01*
X96201514Y-132889329D01*
X95946004Y-132768429D01*
X95671816Y-132699700D01*
X95389488Y-132685783D01*
X95109870Y-132727213D01*
X94843708Y-132822397D01*
X94718486Y-132889329D01*
X94646903Y-133133298D01*
X93722173Y-133133298D01*
X93705226Y-133048102D01*
X93627205Y-132859744D01*
X93513937Y-132690226D01*
X93369774Y-132546063D01*
X93200256Y-132432795D01*
X93011898Y-132354774D01*
X92811939Y-132315000D01*
X92785158Y-132315000D01*
X92225000Y-131754843D01*
X92225000Y-126371413D01*
X93274192Y-126371413D01*
X93369956Y-126635814D01*
X93659571Y-126776704D01*
X93971108Y-126858384D01*
X94292595Y-126877718D01*
X94611675Y-126833961D01*
X94916088Y-126728795D01*
X95090044Y-126635814D01*
X95185808Y-126371413D01*
X94230000Y-125415605D01*
X93274192Y-126371413D01*
X92225000Y-126371413D01*
X92225000Y-125298595D01*
X92588282Y-125298595D01*
X92632039Y-125617675D01*
X92737205Y-125922088D01*
X92830186Y-126096044D01*
X93094587Y-126191808D01*
X94050395Y-125236000D01*
X94409605Y-125236000D01*
X95365413Y-126191808D01*
X95629814Y-126096044D01*
X95770704Y-125806429D01*
X95852384Y-125494892D01*
X95871718Y-125173405D01*
X95827961Y-124854325D01*
X95722795Y-124549912D01*
X95629814Y-124375956D01*
X95365413Y-124280192D01*
X94409605Y-125236000D01*
X94050395Y-125236000D01*
X93094587Y-124280192D01*
X92830186Y-124375956D01*
X92689296Y-124665571D01*
X92607616Y-124977108D01*
X92588282Y-125298595D01*
X92225000Y-125298595D01*
X92225000Y-124100587D01*
X93274192Y-124100587D01*
X94230000Y-125056395D01*
X95185808Y-124100587D01*
X95090044Y-123836186D01*
X94800429Y-123695296D01*
X94488892Y-123613616D01*
X94167405Y-123594282D01*
X93848325Y-123638039D01*
X93543912Y-123743205D01*
X93369956Y-123836186D01*
X93274192Y-124100587D01*
X92225000Y-124100587D01*
X92225000Y-118110000D01*
X95479993Y-118110000D01*
X95485000Y-118160838D01*
X95485000Y-118211939D01*
X95494969Y-118262057D01*
X95499976Y-118312895D01*
X95514804Y-118361777D01*
X95524774Y-118411898D01*
X95544331Y-118459113D01*
X95559159Y-118507993D01*
X95583238Y-118553042D01*
X95602795Y-118600256D01*
X95631186Y-118642746D01*
X95655266Y-118687797D01*
X95687672Y-118727284D01*
X95716063Y-118769774D01*
X95752196Y-118805907D01*
X95784604Y-118845396D01*
X95824092Y-118877803D01*
X95860226Y-118913937D01*
X95902716Y-118942328D01*
X95942203Y-118974734D01*
X95987254Y-118998814D01*
X96029744Y-119027205D01*
X96076958Y-119046762D01*
X96122007Y-119070841D01*
X96170887Y-119085669D01*
X96218102Y-119105226D01*
X96268223Y-119115196D01*
X96317105Y-119130024D01*
X96367943Y-119135031D01*
X96418061Y-119145000D01*
X97361290Y-119145000D01*
X98195001Y-119978712D01*
X98195000Y-123601375D01*
X98105518Y-123610188D01*
X97985820Y-123646498D01*
X97875506Y-123705463D01*
X97778815Y-123784815D01*
X97699463Y-123881506D01*
X97640498Y-123991820D01*
X97604188Y-124111518D01*
X97591928Y-124236000D01*
X97591928Y-126236000D01*
X97604188Y-126360482D01*
X97640498Y-126480180D01*
X97699463Y-126590494D01*
X97778815Y-126687185D01*
X97875506Y-126766537D01*
X97985820Y-126825502D01*
X98105518Y-126861812D01*
X98230000Y-126874072D01*
X100230000Y-126874072D01*
X100354482Y-126861812D01*
X100474180Y-126825502D01*
X100584494Y-126766537D01*
X100681185Y-126687185D01*
X100760537Y-126590494D01*
X100819502Y-126480180D01*
X100855812Y-126360482D01*
X100868072Y-126236000D01*
X100868072Y-124236000D01*
X100855812Y-124111518D01*
X100819502Y-123991820D01*
X100760537Y-123881506D01*
X100681185Y-123784815D01*
X100584494Y-123705463D01*
X100474180Y-123646498D01*
X100354482Y-123610188D01*
X100265000Y-123601375D01*
X100265000Y-119600835D01*
X100270007Y-119550000D01*
X100265000Y-119499162D01*
X100250024Y-119347105D01*
X100190841Y-119152007D01*
X100190841Y-119152006D01*
X100094734Y-118972202D01*
X99997803Y-118854092D01*
X99965396Y-118814604D01*
X99925908Y-118782197D01*
X98557807Y-117414097D01*
X98525396Y-117374604D01*
X98367797Y-117245266D01*
X98187993Y-117149159D01*
X97992895Y-117089976D01*
X97840838Y-117075000D01*
X97840828Y-117075000D01*
X97790000Y-117069994D01*
X97739172Y-117075000D01*
X96418061Y-117075000D01*
X96367943Y-117084969D01*
X96317105Y-117089976D01*
X96268223Y-117104804D01*
X96218102Y-117114774D01*
X96170887Y-117134331D01*
X96122007Y-117149159D01*
X96076958Y-117173238D01*
X96029744Y-117192795D01*
X95987254Y-117221186D01*
X95942203Y-117245266D01*
X95902716Y-117277672D01*
X95860226Y-117306063D01*
X95824092Y-117342197D01*
X95784604Y-117374604D01*
X95752197Y-117414092D01*
X95716063Y-117450226D01*
X95687672Y-117492716D01*
X95655266Y-117532203D01*
X95631186Y-117577254D01*
X95602795Y-117619744D01*
X95583238Y-117666958D01*
X95559159Y-117712007D01*
X95544331Y-117760887D01*
X95524774Y-117808102D01*
X95514804Y-117858223D01*
X95499976Y-117907105D01*
X95494969Y-117957943D01*
X95485000Y-118008061D01*
X95485000Y-118059162D01*
X95479993Y-118110000D01*
X92225000Y-118110000D01*
X92225000Y-115294072D01*
X93730000Y-115294072D01*
X93854482Y-115281812D01*
X93974180Y-115245502D01*
X94084494Y-115186537D01*
X94181185Y-115107185D01*
X94260537Y-115010494D01*
X94319502Y-114900180D01*
X94343966Y-114819534D01*
X94419731Y-114903588D01*
X94653080Y-115077641D01*
X94915901Y-115202825D01*
X95063110Y-115247476D01*
X95293000Y-115126155D01*
X95293000Y-113933000D01*
X95273000Y-113933000D01*
X95273000Y-113679000D01*
X95293000Y-113679000D01*
X95293000Y-112485845D01*
X95547000Y-112485845D01*
X95547000Y-113679000D01*
X95567000Y-113679000D01*
X95567000Y-113933000D01*
X95547000Y-113933000D01*
X95547000Y-115126155D01*
X95776890Y-115247476D01*
X95924099Y-115202825D01*
X96186920Y-115077641D01*
X96420269Y-114903588D01*
X96615178Y-114687355D01*
X96684805Y-114570466D01*
X96806525Y-114752632D01*
X97013368Y-114959475D01*
X97256589Y-115121990D01*
X97526842Y-115233932D01*
X97813740Y-115291000D01*
X98106260Y-115291000D01*
X98393158Y-115233932D01*
X98663411Y-115121990D01*
X98906632Y-114959475D01*
X99113475Y-114752632D01*
X99230000Y-114578240D01*
X99346525Y-114752632D01*
X99553368Y-114959475D01*
X99796589Y-115121990D01*
X100066842Y-115233932D01*
X100353740Y-115291000D01*
X100646260Y-115291000D01*
X100933158Y-115233932D01*
X101203411Y-115121990D01*
X101446632Y-114959475D01*
X101653475Y-114752632D01*
X101815990Y-114509411D01*
X101927932Y-114239158D01*
X101985000Y-113952260D01*
X101985000Y-113659740D01*
X101927932Y-113372842D01*
X101815990Y-113102589D01*
X101653475Y-112859368D01*
X101446632Y-112652525D01*
X101203411Y-112490010D01*
X100933158Y-112378068D01*
X100646260Y-112321000D01*
X100353740Y-112321000D01*
X100066842Y-112378068D01*
X99796589Y-112490010D01*
X99553368Y-112652525D01*
X99346525Y-112859368D01*
X99230000Y-113033760D01*
X99113475Y-112859368D01*
X98906632Y-112652525D01*
X98663411Y-112490010D01*
X98393158Y-112378068D01*
X98106260Y-112321000D01*
X97813740Y-112321000D01*
X97526842Y-112378068D01*
X97256589Y-112490010D01*
X97013368Y-112652525D01*
X96806525Y-112859368D01*
X96684805Y-113041534D01*
X96615178Y-112924645D01*
X96420269Y-112708412D01*
X96186920Y-112534359D01*
X95924099Y-112409175D01*
X95776890Y-112364524D01*
X95547000Y-112485845D01*
X95293000Y-112485845D01*
X95063110Y-112364524D01*
X94915901Y-112409175D01*
X94653080Y-112534359D01*
X94419731Y-112708412D01*
X94343966Y-112792466D01*
X94319502Y-112711820D01*
X94260537Y-112601506D01*
X94181185Y-112504815D01*
X94084494Y-112425463D01*
X93974180Y-112366498D01*
X93854482Y-112330188D01*
X93730000Y-112317928D01*
X92030000Y-112317928D01*
X91905518Y-112330188D01*
X91785820Y-112366498D01*
X91675506Y-112425463D01*
X91578815Y-112504815D01*
X91499463Y-112601506D01*
X91440498Y-112711820D01*
X91404188Y-112831518D01*
X91391928Y-112956000D01*
X91391928Y-113141770D01*
X87299075Y-109048918D01*
X87337000Y-108858260D01*
X87337000Y-108565740D01*
X87279932Y-108278842D01*
X87167990Y-108008589D01*
X87005475Y-107765368D01*
X86798632Y-107558525D01*
X86624240Y-107442000D01*
X86798632Y-107325475D01*
X87005475Y-107118632D01*
X87113474Y-106957000D01*
X91876843Y-106957000D01*
X92095000Y-107175157D01*
X92095000Y-107524661D01*
X91965241Y-107611363D01*
X91765363Y-107811241D01*
X91608320Y-108046273D01*
X91500147Y-108307426D01*
X91445000Y-108584665D01*
X91445000Y-108867335D01*
X91500147Y-109144574D01*
X91608320Y-109405727D01*
X91765363Y-109640759D01*
X91965241Y-109840637D01*
X92200273Y-109997680D01*
X92461426Y-110105853D01*
X92738665Y-110161000D01*
X93021335Y-110161000D01*
X93298574Y-110105853D01*
X93559727Y-109997680D01*
X93794759Y-109840637D01*
X93994637Y-109640759D01*
X94151680Y-109405727D01*
X94259853Y-109144574D01*
X94315000Y-108867335D01*
X94315000Y-108584665D01*
X94279959Y-108408500D01*
X97591928Y-108408500D01*
X97604188Y-108532982D01*
X97640498Y-108652680D01*
X97699463Y-108762994D01*
X97778815Y-108859685D01*
X97875506Y-108939037D01*
X97985820Y-108998002D01*
X98105518Y-109034312D01*
X98230000Y-109046572D01*
X98944250Y-109043500D01*
X99103000Y-108884750D01*
X99103000Y-107583000D01*
X99357000Y-107583000D01*
X99357000Y-108884750D01*
X99515750Y-109043500D01*
X100230000Y-109046572D01*
X100354482Y-109034312D01*
X100474180Y-108998002D01*
X100584494Y-108939037D01*
X100681185Y-108859685D01*
X100760537Y-108762994D01*
X100819502Y-108652680D01*
X100855812Y-108532982D01*
X100868072Y-108408500D01*
X100865000Y-107741750D01*
X100706250Y-107583000D01*
X99357000Y-107583000D01*
X99103000Y-107583000D01*
X97753750Y-107583000D01*
X97595000Y-107741750D01*
X97591928Y-108408500D01*
X94279959Y-108408500D01*
X94259853Y-108307426D01*
X94151680Y-108046273D01*
X93994637Y-107811241D01*
X93794759Y-107611363D01*
X93665000Y-107524661D01*
X93665000Y-106888556D01*
X93668797Y-106850000D01*
X93665000Y-106811440D01*
X93665000Y-106811439D01*
X93657963Y-106739994D01*
X93653642Y-106696113D01*
X93608754Y-106548140D01*
X93588030Y-106509368D01*
X93535862Y-106411767D01*
X93437764Y-106292236D01*
X93407811Y-106267654D01*
X92784347Y-105644190D01*
X92759764Y-105614236D01*
X92640233Y-105516138D01*
X92503860Y-105443246D01*
X92355887Y-105398359D01*
X92240561Y-105387000D01*
X92240553Y-105387000D01*
X92202000Y-105383203D01*
X92163447Y-105387000D01*
X87113474Y-105387000D01*
X87005475Y-105225368D01*
X86798632Y-105018525D01*
X86616466Y-104896805D01*
X86733355Y-104827178D01*
X86949588Y-104632269D01*
X87123641Y-104398920D01*
X87248825Y-104136099D01*
X87293476Y-103988890D01*
X87172155Y-103759000D01*
X85979000Y-103759000D01*
X85979000Y-103779000D01*
X85725000Y-103779000D01*
X85725000Y-103759000D01*
X84531845Y-103759000D01*
X84410524Y-103988890D01*
X84455175Y-104136099D01*
X84580359Y-104398920D01*
X84754412Y-104632269D01*
X84970645Y-104827178D01*
X85087534Y-104896805D01*
X84905368Y-105018525D01*
X84698525Y-105225368D01*
X84536010Y-105468589D01*
X84424068Y-105738842D01*
X84367000Y-106025740D01*
X84367000Y-106318260D01*
X84424068Y-106605158D01*
X84536010Y-106875411D01*
X84698525Y-107118632D01*
X84905368Y-107325475D01*
X85079760Y-107442000D01*
X84905368Y-107558525D01*
X84698525Y-107765368D01*
X84536010Y-108008589D01*
X84424068Y-108278842D01*
X84367000Y-108565740D01*
X84367000Y-108858260D01*
X84424068Y-109145158D01*
X84536010Y-109415411D01*
X84698525Y-109658632D01*
X84905368Y-109865475D01*
X85087534Y-109987195D01*
X84970645Y-110056822D01*
X84754412Y-110251731D01*
X84580359Y-110485080D01*
X84455175Y-110747901D01*
X84410524Y-110895110D01*
X84531845Y-111125000D01*
X85725000Y-111125000D01*
X85725000Y-111105000D01*
X85979000Y-111105000D01*
X85979000Y-111125000D01*
X85999000Y-111125000D01*
X85999000Y-111379000D01*
X85979000Y-111379000D01*
X85979000Y-111399000D01*
X85725000Y-111399000D01*
X85725000Y-111379000D01*
X84531845Y-111379000D01*
X84410524Y-111608890D01*
X84455175Y-111756099D01*
X84580359Y-112018920D01*
X84754412Y-112252269D01*
X84970645Y-112447178D01*
X85087534Y-112516805D01*
X84905368Y-112638525D01*
X84698525Y-112845368D01*
X84536010Y-113088589D01*
X84424068Y-113358842D01*
X84367000Y-113645740D01*
X84367000Y-113938260D01*
X84424068Y-114225158D01*
X84536010Y-114495411D01*
X84698525Y-114738632D01*
X84905368Y-114945475D01*
X85079760Y-115062000D01*
X84905368Y-115178525D01*
X84698525Y-115385368D01*
X84536010Y-115628589D01*
X84424068Y-115898842D01*
X84367000Y-116185740D01*
X84367000Y-116478260D01*
X84424068Y-116765158D01*
X84536010Y-117035411D01*
X84698525Y-117278632D01*
X84905368Y-117485475D01*
X85079760Y-117602000D01*
X84905368Y-117718525D01*
X84698525Y-117925368D01*
X84536010Y-118168589D01*
X84424068Y-118438842D01*
X84367000Y-118725740D01*
X84367000Y-119018260D01*
X84424068Y-119305158D01*
X84536010Y-119575411D01*
X84698525Y-119818632D01*
X84905368Y-120025475D01*
X85079760Y-120142000D01*
X84905368Y-120258525D01*
X84698525Y-120465368D01*
X84536010Y-120708589D01*
X84424068Y-120978842D01*
X84367000Y-121265740D01*
X84367000Y-121558260D01*
X84424068Y-121845158D01*
X84536010Y-122115411D01*
X84698525Y-122358632D01*
X84905368Y-122565475D01*
X85079760Y-122682000D01*
X84905368Y-122798525D01*
X84698525Y-123005368D01*
X84536010Y-123248589D01*
X84424068Y-123518842D01*
X84367000Y-123805740D01*
X84367000Y-124098260D01*
X84424068Y-124385158D01*
X84536010Y-124655411D01*
X84698525Y-124898632D01*
X84905368Y-125105475D01*
X85079760Y-125222000D01*
X84905368Y-125338525D01*
X84698525Y-125545368D01*
X84536010Y-125788589D01*
X84424068Y-126058842D01*
X84367000Y-126345740D01*
X84367000Y-126638260D01*
X84424068Y-126925158D01*
X84536010Y-127195411D01*
X84698525Y-127438632D01*
X84905368Y-127645475D01*
X85079760Y-127762000D01*
X84905368Y-127878525D01*
X84698525Y-128085368D01*
X84536010Y-128328589D01*
X84424068Y-128598842D01*
X84367000Y-128885740D01*
X84367000Y-129178260D01*
X84424068Y-129465158D01*
X84536010Y-129735411D01*
X84698525Y-129978632D01*
X84905368Y-130185475D01*
X85079760Y-130302000D01*
X84905368Y-130418525D01*
X84698525Y-130625368D01*
X84536010Y-130868589D01*
X84424068Y-131138842D01*
X84367000Y-131425740D01*
X84367000Y-131718260D01*
X84424068Y-132005158D01*
X84536010Y-132275411D01*
X84698525Y-132518632D01*
X84905368Y-132725475D01*
X85079760Y-132842000D01*
X84905368Y-132958525D01*
X84698525Y-133165368D01*
X84536010Y-133408589D01*
X84424068Y-133678842D01*
X84367000Y-133965740D01*
X84367000Y-134258260D01*
X84424068Y-134545158D01*
X84536010Y-134815411D01*
X84698525Y-135058632D01*
X84905368Y-135265475D01*
X85079760Y-135382000D01*
X84905368Y-135498525D01*
X84786893Y-135617000D01*
X84378835Y-135617000D01*
X84328000Y-135611993D01*
X84277165Y-135617000D01*
X84277162Y-135617000D01*
X84125105Y-135631976D01*
X83930007Y-135691159D01*
X83906571Y-135703686D01*
X83750202Y-135787266D01*
X83632092Y-135884197D01*
X83592604Y-135916604D01*
X83560197Y-135956092D01*
X81854092Y-137662198D01*
X81814605Y-137694604D01*
X81782198Y-137734092D01*
X81782197Y-137734093D01*
X81685266Y-137852203D01*
X81589160Y-138032007D01*
X81529977Y-138227105D01*
X81509994Y-138430000D01*
X80660000Y-138430000D01*
X80660000Y-100242000D01*
X84363928Y-100242000D01*
X84363928Y-101942000D01*
X84376188Y-102066482D01*
X84412498Y-102186180D01*
X84471463Y-102296494D01*
X84550815Y-102393185D01*
X84647506Y-102472537D01*
X84757820Y-102531502D01*
X84838466Y-102555966D01*
X84754412Y-102631731D01*
X84580359Y-102865080D01*
X84455175Y-103127901D01*
X84410524Y-103275110D01*
X84531845Y-103505000D01*
X85725000Y-103505000D01*
X85725000Y-103485000D01*
X85979000Y-103485000D01*
X85979000Y-103505000D01*
X87172155Y-103505000D01*
X87293476Y-103275110D01*
X87248825Y-103127901D01*
X87123641Y-102865080D01*
X86949588Y-102631731D01*
X86865534Y-102555966D01*
X86946180Y-102531502D01*
X87056494Y-102472537D01*
X87153185Y-102393185D01*
X87232537Y-102296494D01*
X87291502Y-102186180D01*
X87327812Y-102066482D01*
X87340072Y-101942000D01*
X87340072Y-101455040D01*
X91488091Y-101455040D01*
X91582930Y-101719881D01*
X91727615Y-101961131D01*
X91916586Y-102169519D01*
X92142580Y-102337037D01*
X92396913Y-102457246D01*
X92530961Y-102497904D01*
X92753000Y-102375915D01*
X92753000Y-101233000D01*
X93007000Y-101233000D01*
X93007000Y-102375915D01*
X93229039Y-102497904D01*
X93363087Y-102457246D01*
X93617420Y-102337037D01*
X93843414Y-102169519D01*
X94032385Y-101961131D01*
X94177070Y-101719881D01*
X94271909Y-101455040D01*
X94150624Y-101233000D01*
X93007000Y-101233000D01*
X92753000Y-101233000D01*
X91609376Y-101233000D01*
X91488091Y-101455040D01*
X87340072Y-101455040D01*
X87340072Y-100756960D01*
X91488091Y-100756960D01*
X91609376Y-100979000D01*
X92753000Y-100979000D01*
X92753000Y-99836085D01*
X93007000Y-99836085D01*
X93007000Y-100979000D01*
X94150624Y-100979000D01*
X94271909Y-100756960D01*
X94177070Y-100492119D01*
X94032385Y-100250869D01*
X93843414Y-100042481D01*
X93617420Y-99874963D01*
X93363087Y-99754754D01*
X93229039Y-99714096D01*
X93007000Y-99836085D01*
X92753000Y-99836085D01*
X92530961Y-99714096D01*
X92396913Y-99754754D01*
X92142580Y-99874963D01*
X91916586Y-100042481D01*
X91727615Y-100250869D01*
X91582930Y-100492119D01*
X91488091Y-100756960D01*
X87340072Y-100756960D01*
X87340072Y-100242000D01*
X87327812Y-100117518D01*
X87291502Y-99997820D01*
X87232537Y-99887506D01*
X87153185Y-99790815D01*
X87056494Y-99711463D01*
X86946180Y-99652498D01*
X86826482Y-99616188D01*
X86702000Y-99603928D01*
X85002000Y-99603928D01*
X84877518Y-99616188D01*
X84757820Y-99652498D01*
X84647506Y-99711463D01*
X84550815Y-99790815D01*
X84471463Y-99887506D01*
X84412498Y-99997820D01*
X84376188Y-100117518D01*
X84363928Y-100242000D01*
X80660000Y-100242000D01*
X80660000Y-95660000D01*
X134340000Y-95660000D01*
X134340001Y-171323000D01*
G37*
X134340001Y-171323000D02*
X80660000Y-171323000D01*
X80660000Y-152400000D01*
X82779994Y-152400000D01*
X82785001Y-152450838D01*
X82785000Y-167589172D01*
X82779994Y-167640000D01*
X82785000Y-167690828D01*
X82785000Y-167690837D01*
X82799976Y-167842894D01*
X82859159Y-168037992D01*
X82955266Y-168217797D01*
X83084604Y-168375396D01*
X83124097Y-168407807D01*
X84322197Y-169605908D01*
X84354604Y-169645396D01*
X84394092Y-169677803D01*
X84512202Y-169774734D01*
X84564864Y-169802882D01*
X84692007Y-169870841D01*
X84887105Y-169930024D01*
X85039162Y-169945000D01*
X85039171Y-169945000D01*
X85089999Y-169950006D01*
X85140827Y-169945000D01*
X91135172Y-169945000D01*
X91186000Y-169950006D01*
X91236828Y-169945000D01*
X91236838Y-169945000D01*
X91388895Y-169930024D01*
X91583993Y-169870841D01*
X91763797Y-169774734D01*
X91921396Y-169645396D01*
X91953807Y-169605903D01*
X92835366Y-168724344D01*
X107335000Y-168724344D01*
X107335000Y-169095656D01*
X107407439Y-169459834D01*
X107549534Y-169802882D01*
X107755825Y-170111618D01*
X108018382Y-170374175D01*
X108327118Y-170580466D01*
X108670166Y-170722561D01*
X109034344Y-170795000D01*
X109405656Y-170795000D01*
X109769834Y-170722561D01*
X110112882Y-170580466D01*
X110421618Y-170374175D01*
X110684175Y-170111618D01*
X110890466Y-169802882D01*
X111032561Y-169459834D01*
X111105000Y-169095656D01*
X111105000Y-168724344D01*
X111032561Y-168360166D01*
X110890466Y-168017118D01*
X110684175Y-167708382D01*
X110421618Y-167445825D01*
X110112882Y-167239534D01*
X109769834Y-167097439D01*
X109405656Y-167025000D01*
X109034344Y-167025000D01*
X108670166Y-167097439D01*
X108327118Y-167239534D01*
X108018382Y-167445825D01*
X107755825Y-167708382D01*
X107549534Y-168017118D01*
X107407439Y-168360166D01*
X107335000Y-168724344D01*
X92835366Y-168724344D01*
X96078711Y-165481000D01*
X96149592Y-165481000D01*
X96419490Y-165427314D01*
X96673727Y-165322005D01*
X96902535Y-165169120D01*
X97022090Y-165049565D01*
X97893040Y-165049565D01*
X97960020Y-165289656D01*
X98209048Y-165406756D01*
X98476135Y-165473023D01*
X98751017Y-165485910D01*
X99023133Y-165444922D01*
X99282023Y-165351636D01*
X99397980Y-165289656D01*
X99464960Y-165049565D01*
X98679000Y-164263605D01*
X97893040Y-165049565D01*
X97022090Y-165049565D01*
X97097120Y-164974535D01*
X97250005Y-164745727D01*
X97347610Y-164510090D01*
X97411364Y-164687023D01*
X97473344Y-164802980D01*
X97713435Y-164869960D01*
X98499395Y-164084000D01*
X98858605Y-164084000D01*
X99644565Y-164869960D01*
X99884656Y-164802980D01*
X100001756Y-164553952D01*
X100068023Y-164286865D01*
X100080910Y-164011983D01*
X100039922Y-163739867D01*
X99946636Y-163480977D01*
X99884656Y-163365020D01*
X99644565Y-163298040D01*
X98858605Y-164084000D01*
X98499395Y-164084000D01*
X97713435Y-163298040D01*
X97473344Y-163365020D01*
X97356244Y-163614048D01*
X97346204Y-163654516D01*
X97250005Y-163422273D01*
X97097120Y-163193465D01*
X97022090Y-163118435D01*
X97893040Y-163118435D01*
X98679000Y-163904395D01*
X99464960Y-163118435D01*
X99397980Y-162878344D01*
X99148952Y-162761244D01*
X98881865Y-162694977D01*
X98606983Y-162682090D01*
X98334867Y-162723078D01*
X98075977Y-162816364D01*
X97960020Y-162878344D01*
X97893040Y-163118435D01*
X97022090Y-163118435D01*
X96902535Y-162998880D01*
X96673727Y-162845995D01*
X96419490Y-162740686D01*
X96149592Y-162687000D01*
X95909157Y-162687000D01*
X96286749Y-162309408D01*
X106596000Y-162309408D01*
X106596000Y-162584592D01*
X106649686Y-162854490D01*
X106754995Y-163108727D01*
X106907880Y-163337535D01*
X107102465Y-163532120D01*
X107331273Y-163685005D01*
X107585510Y-163790314D01*
X107855408Y-163844000D01*
X108130592Y-163844000D01*
X108400490Y-163790314D01*
X108654727Y-163685005D01*
X108883535Y-163532120D01*
X109078120Y-163337535D01*
X109231005Y-163108727D01*
X109336314Y-162854490D01*
X109390000Y-162584592D01*
X109390000Y-162309408D01*
X109336314Y-162039510D01*
X109231005Y-161785273D01*
X109078120Y-161556465D01*
X108883535Y-161361880D01*
X108654727Y-161208995D01*
X108583057Y-161179308D01*
X108596023Y-161174636D01*
X108711980Y-161112656D01*
X108778960Y-160872565D01*
X107993000Y-160086605D01*
X107207040Y-160872565D01*
X107274020Y-161112656D01*
X107409760Y-161176485D01*
X107331273Y-161208995D01*
X107102465Y-161361880D01*
X106907880Y-161556465D01*
X106754995Y-161785273D01*
X106649686Y-162039510D01*
X106596000Y-162309408D01*
X96286749Y-162309408D01*
X98617140Y-159979017D01*
X106591090Y-159979017D01*
X106632078Y-160251133D01*
X106725364Y-160510023D01*
X106787344Y-160625980D01*
X107027435Y-160692960D01*
X107813395Y-159907000D01*
X108172605Y-159907000D01*
X108958565Y-160692960D01*
X109198656Y-160625980D01*
X109315756Y-160376952D01*
X109382023Y-160109865D01*
X109394910Y-159834983D01*
X109353922Y-159562867D01*
X109260636Y-159303977D01*
X109198656Y-159188020D01*
X108958565Y-159121040D01*
X108172605Y-159907000D01*
X107813395Y-159907000D01*
X107027435Y-159121040D01*
X106787344Y-159188020D01*
X106670244Y-159437048D01*
X106603977Y-159704135D01*
X106591090Y-159979017D01*
X98617140Y-159979017D01*
X100205603Y-158390554D01*
X100358665Y-158421000D01*
X100641335Y-158421000D01*
X100918574Y-158365853D01*
X101179727Y-158257680D01*
X101414759Y-158100637D01*
X101614637Y-157900759D01*
X101771680Y-157665727D01*
X101879853Y-157404574D01*
X101935000Y-157127335D01*
X101935000Y-156844665D01*
X101910970Y-156723862D01*
X102024886Y-156712642D01*
X102172859Y-156667755D01*
X102309232Y-156594863D01*
X102428763Y-156496765D01*
X102453346Y-156466811D01*
X106596000Y-152324158D01*
X106596000Y-152424592D01*
X106649686Y-152694490D01*
X106754995Y-152948727D01*
X106907880Y-153177535D01*
X107102465Y-153372120D01*
X107331273Y-153525005D01*
X107408515Y-153557000D01*
X107331273Y-153588995D01*
X107102465Y-153741880D01*
X106907880Y-153936465D01*
X106754995Y-154165273D01*
X106649686Y-154419510D01*
X106596000Y-154689408D01*
X106596000Y-154964592D01*
X106649686Y-155234490D01*
X106754995Y-155488727D01*
X106907880Y-155717535D01*
X107102465Y-155912120D01*
X107331273Y-156065005D01*
X107408515Y-156097000D01*
X107331273Y-156128995D01*
X107102465Y-156281880D01*
X106907880Y-156476465D01*
X106754995Y-156705273D01*
X106649686Y-156959510D01*
X106596000Y-157229408D01*
X106596000Y-157504592D01*
X106649686Y-157774490D01*
X106754995Y-158028727D01*
X106907880Y-158257535D01*
X107102465Y-158452120D01*
X107331273Y-158605005D01*
X107402943Y-158634692D01*
X107389977Y-158639364D01*
X107274020Y-158701344D01*
X107207040Y-158941435D01*
X107993000Y-159727395D01*
X108778960Y-158941435D01*
X108711980Y-158701344D01*
X108576240Y-158637515D01*
X108654727Y-158605005D01*
X108883535Y-158452120D01*
X109078120Y-158257535D01*
X109231005Y-158028727D01*
X109336314Y-157774490D01*
X109390000Y-157504592D01*
X109390000Y-157229408D01*
X109336314Y-156959510D01*
X109231005Y-156705273D01*
X109078120Y-156476465D01*
X108883535Y-156281880D01*
X108654727Y-156128995D01*
X108577485Y-156097000D01*
X108654727Y-156065005D01*
X108883535Y-155912120D01*
X109078120Y-155717535D01*
X109148636Y-155612000D01*
X110051843Y-155612000D01*
X119153657Y-164713815D01*
X119178235Y-164743763D01*
X119208183Y-164768341D01*
X119208186Y-164768344D01*
X119222277Y-164779908D01*
X119297766Y-164841861D01*
X119434139Y-164914753D01*
X119547671Y-164949193D01*
X119582111Y-164959640D01*
X119596489Y-164961056D01*
X119697438Y-164970999D01*
X119697445Y-164970999D01*
X119735998Y-164974796D01*
X119774551Y-164970999D01*
X129667448Y-164970999D01*
X129706001Y-164974796D01*
X129744554Y-164970999D01*
X129744562Y-164970999D01*
X129859888Y-164959640D01*
X130007861Y-164914753D01*
X130144234Y-164841861D01*
X130216491Y-164782560D01*
X130409740Y-164821000D01*
X130702260Y-164821000D01*
X130989158Y-164763932D01*
X131259411Y-164651990D01*
X131502632Y-164489475D01*
X131709475Y-164282632D01*
X131871990Y-164039411D01*
X131983932Y-163769158D01*
X132041000Y-163482260D01*
X132041000Y-163189740D01*
X131983932Y-162902842D01*
X131871990Y-162632589D01*
X131709475Y-162389368D01*
X131502632Y-162182525D01*
X131328240Y-162066000D01*
X131502632Y-161949475D01*
X131709475Y-161742632D01*
X131871990Y-161499411D01*
X131983932Y-161229158D01*
X132041000Y-160942260D01*
X132041000Y-160649740D01*
X131983932Y-160362842D01*
X131871990Y-160092589D01*
X131709475Y-159849368D01*
X131502632Y-159642525D01*
X131328240Y-159526000D01*
X131502632Y-159409475D01*
X131709475Y-159202632D01*
X131871990Y-158959411D01*
X131983932Y-158689158D01*
X132041000Y-158402260D01*
X132041000Y-158109740D01*
X131983932Y-157822842D01*
X131871990Y-157552589D01*
X131709475Y-157309368D01*
X131502632Y-157102525D01*
X131328240Y-156986000D01*
X131502632Y-156869475D01*
X131709475Y-156662632D01*
X131871990Y-156419411D01*
X131983932Y-156149158D01*
X132041000Y-155862260D01*
X132041000Y-155569740D01*
X131983932Y-155282842D01*
X131871990Y-155012589D01*
X131709475Y-154769368D01*
X131502632Y-154562525D01*
X131328240Y-154446000D01*
X131502632Y-154329475D01*
X131709475Y-154122632D01*
X131871990Y-153879411D01*
X131983932Y-153609158D01*
X132041000Y-153322260D01*
X132041000Y-153029740D01*
X131983932Y-152742842D01*
X131871990Y-152472589D01*
X131709475Y-152229368D01*
X131502632Y-152022525D01*
X131328240Y-151906000D01*
X131502632Y-151789475D01*
X131709475Y-151582632D01*
X131871990Y-151339411D01*
X131983932Y-151069158D01*
X132041000Y-150782260D01*
X132041000Y-150489740D01*
X131983932Y-150202842D01*
X131871990Y-149932589D01*
X131709475Y-149689368D01*
X131502632Y-149482525D01*
X131328240Y-149366000D01*
X131502632Y-149249475D01*
X131709475Y-149042632D01*
X131871990Y-148799411D01*
X131983932Y-148529158D01*
X132041000Y-148242260D01*
X132041000Y-147949740D01*
X132003075Y-147759082D01*
X132607817Y-147154341D01*
X132637764Y-147129764D01*
X132735862Y-147010233D01*
X132808754Y-146873860D01*
X132853641Y-146725887D01*
X132865000Y-146610561D01*
X132865000Y-146610554D01*
X132868797Y-146572001D01*
X132865000Y-146533448D01*
X132865000Y-143548552D01*
X132868797Y-143509999D01*
X132865000Y-143471446D01*
X132865000Y-143471439D01*
X132853641Y-143356113D01*
X132808754Y-143208140D01*
X132735862Y-143071767D01*
X132683367Y-143007803D01*
X132662345Y-142982187D01*
X132662342Y-142982184D01*
X132637764Y-142952236D01*
X132607816Y-142927658D01*
X131279347Y-141599190D01*
X131254764Y-141569236D01*
X131135233Y-141471138D01*
X130998860Y-141398246D01*
X130850887Y-141353359D01*
X130735561Y-141342000D01*
X130735553Y-141342000D01*
X130697000Y-141338203D01*
X130658447Y-141342000D01*
X124388636Y-141342000D01*
X124318120Y-141236465D01*
X124123535Y-141041880D01*
X123894727Y-140888995D01*
X123817485Y-140857000D01*
X123894727Y-140825005D01*
X124123535Y-140672120D01*
X124318120Y-140477535D01*
X124471005Y-140248727D01*
X124576314Y-139994490D01*
X124630000Y-139724592D01*
X124630000Y-139449408D01*
X124576314Y-139179510D01*
X124471005Y-138925273D01*
X124318120Y-138696465D01*
X124123535Y-138501880D01*
X123894727Y-138348995D01*
X123817485Y-138317000D01*
X123894727Y-138285005D01*
X124123535Y-138132120D01*
X124318120Y-137937535D01*
X124471005Y-137708727D01*
X124576314Y-137454490D01*
X124630000Y-137184592D01*
X124630000Y-136909408D01*
X124576314Y-136639510D01*
X124471005Y-136385273D01*
X124318120Y-136156465D01*
X124123535Y-135961880D01*
X123894727Y-135808995D01*
X123817485Y-135777000D01*
X123894727Y-135745005D01*
X124123535Y-135592120D01*
X124318120Y-135397535D01*
X124471005Y-135168727D01*
X124576314Y-134914490D01*
X124630000Y-134644592D01*
X124630000Y-134369408D01*
X124576314Y-134099510D01*
X124471005Y-133845273D01*
X124318120Y-133616465D01*
X124123535Y-133421880D01*
X123894727Y-133268995D01*
X123817485Y-133237000D01*
X123894727Y-133205005D01*
X124123535Y-133052120D01*
X124318120Y-132857535D01*
X124388636Y-132752000D01*
X128598447Y-132752000D01*
X128637000Y-132755797D01*
X128675553Y-132752000D01*
X128675561Y-132752000D01*
X128790887Y-132740641D01*
X128938860Y-132695754D01*
X129075233Y-132622862D01*
X129194764Y-132524764D01*
X129219347Y-132494810D01*
X131083811Y-130630346D01*
X131113764Y-130605764D01*
X131211862Y-130486233D01*
X131284754Y-130349860D01*
X131294560Y-130317535D01*
X131329642Y-130201887D01*
X131337020Y-130126974D01*
X131341000Y-130086561D01*
X131341000Y-130086556D01*
X131344797Y-130048000D01*
X131341000Y-130009444D01*
X131341000Y-124973474D01*
X131502632Y-124865475D01*
X131709475Y-124658632D01*
X131871990Y-124415411D01*
X131983932Y-124145158D01*
X132041000Y-123858260D01*
X132041000Y-123565740D01*
X131983932Y-123278842D01*
X131871990Y-123008589D01*
X131709475Y-122765368D01*
X131502632Y-122558525D01*
X131328240Y-122442000D01*
X131502632Y-122325475D01*
X131709475Y-122118632D01*
X131871990Y-121875411D01*
X131983932Y-121605158D01*
X132041000Y-121318260D01*
X132041000Y-121025740D01*
X131983932Y-120738842D01*
X131871990Y-120468589D01*
X131709475Y-120225368D01*
X131502632Y-120018525D01*
X131328240Y-119902000D01*
X131502632Y-119785475D01*
X131709475Y-119578632D01*
X131871990Y-119335411D01*
X131983932Y-119065158D01*
X132041000Y-118778260D01*
X132041000Y-118485740D01*
X131983932Y-118198842D01*
X131871990Y-117928589D01*
X131709475Y-117685368D01*
X131502632Y-117478525D01*
X131320466Y-117356805D01*
X131437355Y-117287178D01*
X131653588Y-117092269D01*
X131827641Y-116858920D01*
X131952825Y-116596099D01*
X131997476Y-116448890D01*
X131876155Y-116219000D01*
X130683000Y-116219000D01*
X130683000Y-116239000D01*
X130429000Y-116239000D01*
X130429000Y-116219000D01*
X129235845Y-116219000D01*
X129114524Y-116448890D01*
X129159175Y-116596099D01*
X129284359Y-116858920D01*
X129458412Y-117092269D01*
X129674645Y-117287178D01*
X129791534Y-117356805D01*
X129609368Y-117478525D01*
X129402525Y-117685368D01*
X129294526Y-117847000D01*
X128294555Y-117847000D01*
X128256000Y-117843203D01*
X128217444Y-117847000D01*
X128217439Y-117847000D01*
X128177026Y-117850980D01*
X128102113Y-117858358D01*
X127954140Y-117903246D01*
X127817767Y-117976138D01*
X127757559Y-118025550D01*
X127728187Y-118049655D01*
X127728184Y-118049658D01*
X127698236Y-118074236D01*
X127673658Y-118104184D01*
X125710190Y-120067653D01*
X125680236Y-120092236D01*
X125582138Y-120211768D01*
X125509246Y-120348141D01*
X125464359Y-120496114D01*
X125453000Y-120611440D01*
X125453000Y-120611447D01*
X125449203Y-120650000D01*
X125453000Y-120688553D01*
X125453001Y-126420841D01*
X124574165Y-127299677D01*
X124576314Y-127294490D01*
X124630000Y-127024592D01*
X124630000Y-126749408D01*
X124576314Y-126479510D01*
X124471005Y-126225273D01*
X124318120Y-125996465D01*
X124123535Y-125801880D01*
X123894727Y-125648995D01*
X123817485Y-125617000D01*
X123894727Y-125585005D01*
X124123535Y-125432120D01*
X124318120Y-125237535D01*
X124471005Y-125008727D01*
X124576314Y-124754490D01*
X124630000Y-124484592D01*
X124630000Y-124209408D01*
X124576314Y-123939510D01*
X124471005Y-123685273D01*
X124318120Y-123456465D01*
X124123535Y-123261880D01*
X123894727Y-123108995D01*
X123817485Y-123077000D01*
X123894727Y-123045005D01*
X124123535Y-122892120D01*
X124318120Y-122697535D01*
X124471005Y-122468727D01*
X124576314Y-122214490D01*
X124630000Y-121944592D01*
X124630000Y-121669408D01*
X124576314Y-121399510D01*
X124471005Y-121145273D01*
X124318120Y-120916465D01*
X124123535Y-120721880D01*
X123894727Y-120568995D01*
X123817485Y-120537000D01*
X123894727Y-120505005D01*
X124123535Y-120352120D01*
X124318120Y-120157535D01*
X124471005Y-119928727D01*
X124576314Y-119674490D01*
X124630000Y-119404592D01*
X124630000Y-119129408D01*
X124576314Y-118859510D01*
X124471005Y-118605273D01*
X124318120Y-118376465D01*
X124123535Y-118181880D01*
X123894727Y-118028995D01*
X123823057Y-117999308D01*
X123836023Y-117994636D01*
X123951980Y-117932656D01*
X124018960Y-117692565D01*
X123233000Y-116906605D01*
X122447040Y-117692565D01*
X122514020Y-117932656D01*
X122649760Y-117996485D01*
X122571273Y-118028995D01*
X122342465Y-118181880D01*
X122147880Y-118376465D01*
X121994995Y-118605273D01*
X121889686Y-118859510D01*
X121836000Y-119129408D01*
X121836000Y-119404592D01*
X121889686Y-119674490D01*
X121994995Y-119928727D01*
X122147880Y-120157535D01*
X122342465Y-120352120D01*
X122571273Y-120505005D01*
X122648515Y-120537000D01*
X122571273Y-120568995D01*
X122342465Y-120721880D01*
X122147880Y-120916465D01*
X121994995Y-121145273D01*
X121889686Y-121399510D01*
X121836000Y-121669408D01*
X121836000Y-121944592D01*
X121889686Y-122214490D01*
X121994995Y-122468727D01*
X122147880Y-122697535D01*
X122342465Y-122892120D01*
X122571273Y-123045005D01*
X122648515Y-123077000D01*
X122571273Y-123108995D01*
X122342465Y-123261880D01*
X122147880Y-123456465D01*
X121994995Y-123685273D01*
X121889686Y-123939510D01*
X121836000Y-124209408D01*
X121836000Y-124484592D01*
X121889686Y-124754490D01*
X121994995Y-125008727D01*
X122147880Y-125237535D01*
X122342465Y-125432120D01*
X122571273Y-125585005D01*
X122648515Y-125617000D01*
X122571273Y-125648995D01*
X122342465Y-125801880D01*
X122147880Y-125996465D01*
X121994995Y-126225273D01*
X121889686Y-126479510D01*
X121836000Y-126749408D01*
X121836000Y-127024592D01*
X121889686Y-127294490D01*
X121968598Y-127485000D01*
X109701158Y-127485000D01*
X109365238Y-127149080D01*
X109390000Y-127024592D01*
X109390000Y-126749408D01*
X109336314Y-126479510D01*
X109231005Y-126225273D01*
X109078120Y-125996465D01*
X108883535Y-125801880D01*
X108654727Y-125648995D01*
X108577485Y-125617000D01*
X108654727Y-125585005D01*
X108883535Y-125432120D01*
X109078120Y-125237535D01*
X109231005Y-125008727D01*
X109336314Y-124754490D01*
X109390000Y-124484592D01*
X109390000Y-124209408D01*
X109336314Y-123939510D01*
X109231005Y-123685273D01*
X109078120Y-123456465D01*
X108883535Y-123261880D01*
X108654727Y-123108995D01*
X108577485Y-123077000D01*
X108654727Y-123045005D01*
X108883535Y-122892120D01*
X109078120Y-122697535D01*
X109231005Y-122468727D01*
X109336314Y-122214490D01*
X109390000Y-121944592D01*
X109390000Y-121669408D01*
X109336314Y-121399510D01*
X109231005Y-121145273D01*
X109078120Y-120916465D01*
X108883535Y-120721880D01*
X108654727Y-120568995D01*
X108577485Y-120537000D01*
X108654727Y-120505005D01*
X108883535Y-120352120D01*
X109078120Y-120157535D01*
X109231005Y-119928727D01*
X109336314Y-119674490D01*
X109390000Y-119404592D01*
X109390000Y-119129408D01*
X109336314Y-118859510D01*
X109231005Y-118605273D01*
X109078120Y-118376465D01*
X108883535Y-118181880D01*
X108654727Y-118028995D01*
X108577485Y-117997000D01*
X108654727Y-117965005D01*
X108883535Y-117812120D01*
X109078120Y-117617535D01*
X109231005Y-117388727D01*
X109336314Y-117134490D01*
X109390000Y-116864592D01*
X109390000Y-116589408D01*
X109336314Y-116319510D01*
X109231005Y-116065273D01*
X109078120Y-115836465D01*
X108883535Y-115641880D01*
X108654727Y-115488995D01*
X108577485Y-115457000D01*
X108654727Y-115425005D01*
X108883535Y-115272120D01*
X109078120Y-115077535D01*
X109231005Y-114848727D01*
X109336314Y-114594490D01*
X109390000Y-114324592D01*
X109390000Y-114049408D01*
X109336314Y-113779510D01*
X109231005Y-113525273D01*
X109078120Y-113296465D01*
X108883535Y-113101880D01*
X108654727Y-112948995D01*
X108400490Y-112843686D01*
X108130592Y-112790000D01*
X107855408Y-112790000D01*
X107585510Y-112843686D01*
X107331273Y-112948995D01*
X107102465Y-113101880D01*
X106907880Y-113296465D01*
X106754995Y-113525273D01*
X106649686Y-113779510D01*
X106596000Y-114049408D01*
X106596000Y-114324592D01*
X106649686Y-114594490D01*
X106754995Y-114848727D01*
X106907880Y-115077535D01*
X107102465Y-115272120D01*
X107331273Y-115425005D01*
X107408515Y-115457000D01*
X107331273Y-115488995D01*
X107102465Y-115641880D01*
X106907880Y-115836465D01*
X106754995Y-116065273D01*
X106649686Y-116319510D01*
X106596000Y-116589408D01*
X106596000Y-116864592D01*
X106649686Y-117134490D01*
X106754995Y-117388727D01*
X106907880Y-117617535D01*
X107102465Y-117812120D01*
X107331273Y-117965005D01*
X107408515Y-117997000D01*
X107331273Y-118028995D01*
X107102465Y-118181880D01*
X106907880Y-118376465D01*
X106754995Y-118605273D01*
X106649686Y-118859510D01*
X106596000Y-119129408D01*
X106596000Y-119404592D01*
X106649686Y-119674490D01*
X106754995Y-119928727D01*
X106907880Y-120157535D01*
X107102465Y-120352120D01*
X107331273Y-120505005D01*
X107408515Y-120537000D01*
X107331273Y-120568995D01*
X107102465Y-120721880D01*
X106907880Y-120916465D01*
X106754995Y-121145273D01*
X106649686Y-121399510D01*
X106596000Y-121669408D01*
X106596000Y-121944592D01*
X106649686Y-122214490D01*
X106754995Y-122468727D01*
X106907880Y-122697535D01*
X107102465Y-122892120D01*
X107331273Y-123045005D01*
X107408515Y-123077000D01*
X107331273Y-123108995D01*
X107102465Y-123261880D01*
X106907880Y-123456465D01*
X106754995Y-123685273D01*
X106649686Y-123939510D01*
X106596000Y-124209408D01*
X106596000Y-124484592D01*
X106649686Y-124754490D01*
X106754995Y-125008727D01*
X106907880Y-125237535D01*
X107102465Y-125432120D01*
X107331273Y-125585005D01*
X107408515Y-125617000D01*
X107331273Y-125648995D01*
X107102465Y-125801880D01*
X106907880Y-125996465D01*
X106754995Y-126225273D01*
X106649686Y-126479510D01*
X106596000Y-126749408D01*
X106596000Y-127024592D01*
X106649686Y-127294490D01*
X106754995Y-127548727D01*
X106907880Y-127777535D01*
X107102465Y-127972120D01*
X107331273Y-128125005D01*
X107408515Y-128157000D01*
X107331273Y-128188995D01*
X107102465Y-128341880D01*
X106907880Y-128536465D01*
X106754995Y-128765273D01*
X106649686Y-129019510D01*
X106596000Y-129289408D01*
X106596000Y-129564592D01*
X106649686Y-129834490D01*
X106754995Y-130088727D01*
X106907880Y-130317535D01*
X107102465Y-130512120D01*
X107331273Y-130665005D01*
X107408515Y-130697000D01*
X107331273Y-130728995D01*
X107102465Y-130881880D01*
X106907880Y-131076465D01*
X106754995Y-131305273D01*
X106649686Y-131559510D01*
X106596000Y-131829408D01*
X106596000Y-132104592D01*
X106649686Y-132374490D01*
X106754995Y-132628727D01*
X106907880Y-132857535D01*
X107102465Y-133052120D01*
X107331273Y-133205005D01*
X107408515Y-133237000D01*
X107331273Y-133268995D01*
X107102465Y-133421880D01*
X106907880Y-133616465D01*
X106754995Y-133845273D01*
X106649686Y-134099510D01*
X106596000Y-134369408D01*
X106596000Y-134644592D01*
X106649686Y-134914490D01*
X106754995Y-135168727D01*
X106907880Y-135397535D01*
X107102465Y-135592120D01*
X107331273Y-135745005D01*
X107408515Y-135777000D01*
X107331273Y-135808995D01*
X107102465Y-135961880D01*
X106907880Y-136156465D01*
X106754995Y-136385273D01*
X106649686Y-136639510D01*
X106596000Y-136909408D01*
X106596000Y-137184592D01*
X106649686Y-137454490D01*
X106754995Y-137708727D01*
X106907880Y-137937535D01*
X107102465Y-138132120D01*
X107331273Y-138285005D01*
X107408515Y-138317000D01*
X107331273Y-138348995D01*
X107102465Y-138501880D01*
X106907880Y-138696465D01*
X106754995Y-138925273D01*
X106649686Y-139179510D01*
X106596000Y-139449408D01*
X106596000Y-139724592D01*
X106649686Y-139994490D01*
X106754995Y-140248727D01*
X106907880Y-140477535D01*
X107102465Y-140672120D01*
X107331273Y-140825005D01*
X107408515Y-140857000D01*
X107331273Y-140888995D01*
X107102465Y-141041880D01*
X106907880Y-141236465D01*
X106754995Y-141465273D01*
X106649686Y-141719510D01*
X106596000Y-141989408D01*
X106596000Y-142264592D01*
X106649686Y-142534490D01*
X106754995Y-142788727D01*
X106907880Y-143017535D01*
X107102465Y-143212120D01*
X107331273Y-143365005D01*
X107408515Y-143397000D01*
X107331273Y-143428995D01*
X107102465Y-143581880D01*
X106907880Y-143776465D01*
X106754995Y-144005273D01*
X106649686Y-144259510D01*
X106596000Y-144529408D01*
X106596000Y-144804592D01*
X106649686Y-145074490D01*
X106754995Y-145328727D01*
X106907880Y-145557535D01*
X107102465Y-145752120D01*
X107331273Y-145905005D01*
X107408515Y-145937000D01*
X107331273Y-145968995D01*
X107102465Y-146121880D01*
X106907880Y-146316465D01*
X106859311Y-146389153D01*
X106195000Y-145724843D01*
X106195000Y-143548552D01*
X106198797Y-143509999D01*
X106195000Y-143471446D01*
X106195000Y-143471439D01*
X106183641Y-143356113D01*
X106138754Y-143208140D01*
X106065862Y-143071767D01*
X105967764Y-142952236D01*
X105937811Y-142927654D01*
X105498347Y-142488190D01*
X105473764Y-142458236D01*
X105354233Y-142360138D01*
X105217860Y-142287246D01*
X105069887Y-142242359D01*
X104954561Y-142231000D01*
X104954553Y-142231000D01*
X104916000Y-142227203D01*
X104877447Y-142231000D01*
X101701339Y-142231000D01*
X101614637Y-142101241D01*
X101414759Y-141901363D01*
X101182241Y-141746000D01*
X101414759Y-141590637D01*
X101614637Y-141390759D01*
X101771680Y-141155727D01*
X101879853Y-140894574D01*
X101935000Y-140617335D01*
X101935000Y-140334665D01*
X101879853Y-140057426D01*
X101771680Y-139796273D01*
X101614637Y-139561241D01*
X101414759Y-139361363D01*
X101182241Y-139206000D01*
X101414759Y-139050637D01*
X101614637Y-138850759D01*
X101771680Y-138615727D01*
X101879853Y-138354574D01*
X101935000Y-138077335D01*
X101935000Y-137794665D01*
X101879853Y-137517426D01*
X101771680Y-137256273D01*
X101614637Y-137021241D01*
X101414759Y-136821363D01*
X101179727Y-136664320D01*
X100918574Y-136556147D01*
X100641335Y-136501000D01*
X100358665Y-136501000D01*
X100081426Y-136556147D01*
X99820273Y-136664320D01*
X99585241Y-136821363D01*
X99505604Y-136901000D01*
X99334711Y-136901000D01*
X98995000Y-136561290D01*
X98995000Y-135120396D01*
X99074637Y-135040759D01*
X99231680Y-134805727D01*
X99339853Y-134544574D01*
X99395000Y-134267335D01*
X99395000Y-134154710D01*
X106105908Y-127443803D01*
X106145396Y-127411396D01*
X106217310Y-127323769D01*
X106274734Y-127253798D01*
X106326104Y-127157691D01*
X106370841Y-127073993D01*
X106430024Y-126878895D01*
X106445000Y-126726838D01*
X106445000Y-126726829D01*
X106450006Y-126676001D01*
X106445000Y-126625173D01*
X106445000Y-113458710D01*
X111355908Y-108547803D01*
X111395396Y-108515396D01*
X111465083Y-108430482D01*
X111524734Y-108357798D01*
X111606300Y-108205197D01*
X111620841Y-108177993D01*
X111680024Y-107982895D01*
X111693303Y-107848061D01*
X113265000Y-107848061D01*
X113265000Y-108051939D01*
X113304774Y-108251898D01*
X113382795Y-108440256D01*
X113496063Y-108609774D01*
X113515000Y-108628711D01*
X113515001Y-125051288D01*
X113496063Y-125070226D01*
X113382795Y-125239744D01*
X113304774Y-125428102D01*
X113265000Y-125628061D01*
X113265000Y-125831939D01*
X113304774Y-126031898D01*
X113382795Y-126220256D01*
X113496063Y-126389774D01*
X113640226Y-126533937D01*
X113809744Y-126647205D01*
X113998102Y-126725226D01*
X114198061Y-126765000D01*
X114401939Y-126765000D01*
X114601898Y-126725226D01*
X114790256Y-126647205D01*
X114959774Y-126533937D01*
X115103937Y-126389774D01*
X115217205Y-126220256D01*
X115295226Y-126031898D01*
X115335000Y-125831939D01*
X115335000Y-125628061D01*
X115295226Y-125428102D01*
X115217205Y-125239744D01*
X115103937Y-125070226D01*
X115085000Y-125051289D01*
X115085000Y-116799017D01*
X121831090Y-116799017D01*
X121872078Y-117071133D01*
X121965364Y-117330023D01*
X122027344Y-117445980D01*
X122267435Y-117512960D01*
X123053395Y-116727000D01*
X123412605Y-116727000D01*
X124198565Y-117512960D01*
X124438656Y-117445980D01*
X124555756Y-117196952D01*
X124622023Y-116929865D01*
X124634910Y-116654983D01*
X124593922Y-116382867D01*
X124500636Y-116123977D01*
X124438656Y-116008020D01*
X124198565Y-115941040D01*
X123412605Y-116727000D01*
X123053395Y-116727000D01*
X122267435Y-115941040D01*
X122027344Y-116008020D01*
X121910244Y-116257048D01*
X121843977Y-116524135D01*
X121831090Y-116799017D01*
X115085000Y-116799017D01*
X115085000Y-115152565D01*
X122447040Y-115152565D01*
X122514020Y-115392656D01*
X122644644Y-115454079D01*
X122629977Y-115459364D01*
X122514020Y-115521344D01*
X122447040Y-115761435D01*
X123233000Y-116547395D01*
X124018960Y-115761435D01*
X123951980Y-115521344D01*
X123821356Y-115459921D01*
X123836023Y-115454636D01*
X123951980Y-115392656D01*
X124018960Y-115152565D01*
X123233000Y-114366605D01*
X122447040Y-115152565D01*
X115085000Y-115152565D01*
X115085000Y-114259017D01*
X121831090Y-114259017D01*
X121872078Y-114531133D01*
X121965364Y-114790023D01*
X122027344Y-114905980D01*
X122267435Y-114972960D01*
X123053395Y-114187000D01*
X123412605Y-114187000D01*
X124198565Y-114972960D01*
X124438656Y-114905980D01*
X124555756Y-114656952D01*
X124622023Y-114389865D01*
X124634910Y-114114983D01*
X124593922Y-113842867D01*
X124500636Y-113583977D01*
X124438656Y-113468020D01*
X124198565Y-113401040D01*
X123412605Y-114187000D01*
X123053395Y-114187000D01*
X122267435Y-113401040D01*
X122027344Y-113468020D01*
X121910244Y-113717048D01*
X121843977Y-113984135D01*
X121831090Y-114259017D01*
X115085000Y-114259017D01*
X115085000Y-113221435D01*
X122447040Y-113221435D01*
X123233000Y-114007395D01*
X124018960Y-113221435D01*
X123951980Y-112981344D01*
X123702952Y-112864244D01*
X123435865Y-112797977D01*
X123160983Y-112785090D01*
X122888867Y-112826078D01*
X122629977Y-112919364D01*
X122514020Y-112981344D01*
X122447040Y-113221435D01*
X115085000Y-113221435D01*
X115085000Y-108628711D01*
X115103937Y-108609774D01*
X115217205Y-108440256D01*
X115295226Y-108251898D01*
X115335000Y-108051939D01*
X115335000Y-107848061D01*
X115295226Y-107648102D01*
X115217205Y-107459744D01*
X115116976Y-107309740D01*
X115525000Y-107309740D01*
X115525000Y-107602260D01*
X115582068Y-107889158D01*
X115694010Y-108159411D01*
X115856525Y-108402632D01*
X116063368Y-108609475D01*
X116306589Y-108771990D01*
X116576842Y-108883932D01*
X116863740Y-108941000D01*
X117156260Y-108941000D01*
X117443158Y-108883932D01*
X117713411Y-108771990D01*
X117956632Y-108609475D01*
X118163475Y-108402632D01*
X118280000Y-108228240D01*
X118396525Y-108402632D01*
X118603368Y-108609475D01*
X118846589Y-108771990D01*
X119116842Y-108883932D01*
X119403740Y-108941000D01*
X119571289Y-108941000D01*
X120232197Y-109601908D01*
X120264605Y-109641397D01*
X120304093Y-109673804D01*
X120422203Y-109770735D01*
X120496635Y-109810519D01*
X120602008Y-109866842D01*
X120797106Y-109926025D01*
X120949163Y-109941001D01*
X120949172Y-109941001D01*
X121000000Y-109946007D01*
X121050828Y-109941001D01*
X125481291Y-109941001D01*
X129067928Y-113527639D01*
X129067928Y-114402000D01*
X129080188Y-114526482D01*
X129116498Y-114646180D01*
X129175463Y-114756494D01*
X129254815Y-114853185D01*
X129351506Y-114932537D01*
X129461820Y-114991502D01*
X129542466Y-115015966D01*
X129458412Y-115091731D01*
X129284359Y-115325080D01*
X129159175Y-115587901D01*
X129114524Y-115735110D01*
X129235845Y-115965000D01*
X130429000Y-115965000D01*
X130429000Y-115945000D01*
X130683000Y-115945000D01*
X130683000Y-115965000D01*
X131876155Y-115965000D01*
X131997476Y-115735110D01*
X131952825Y-115587901D01*
X131827641Y-115325080D01*
X131653588Y-115091731D01*
X131569534Y-115015966D01*
X131650180Y-114991502D01*
X131760494Y-114932537D01*
X131857185Y-114853185D01*
X131936537Y-114756494D01*
X131995502Y-114646180D01*
X132031812Y-114526482D01*
X132044072Y-114402000D01*
X132044072Y-112702000D01*
X132031812Y-112577518D01*
X131995502Y-112457820D01*
X131936537Y-112347506D01*
X131857185Y-112250815D01*
X131760494Y-112171463D01*
X131650180Y-112112498D01*
X131530482Y-112076188D01*
X131406000Y-112063928D01*
X130531639Y-112063928D01*
X126677804Y-108210093D01*
X126645397Y-108170605D01*
X126605909Y-108138198D01*
X126118072Y-107650361D01*
X126118072Y-106606000D01*
X126105812Y-106481518D01*
X126069502Y-106361820D01*
X126010537Y-106251506D01*
X125931185Y-106154815D01*
X125834494Y-106075463D01*
X125724180Y-106016498D01*
X125651620Y-105994487D01*
X125783475Y-105862632D01*
X125891474Y-105701000D01*
X132530843Y-105701000D01*
X132565001Y-105735158D01*
X132565000Y-131754842D01*
X130734843Y-133585000D01*
X130708061Y-133585000D01*
X130508102Y-133624774D01*
X130319744Y-133702795D01*
X130150226Y-133816063D01*
X130006063Y-133960226D01*
X129892795Y-134129744D01*
X129814774Y-134318102D01*
X129775000Y-134518061D01*
X129775000Y-134721939D01*
X129814774Y-134921898D01*
X129892795Y-135110256D01*
X130006063Y-135279774D01*
X130150226Y-135423937D01*
X130319744Y-135537205D01*
X130508102Y-135615226D01*
X130708061Y-135655000D01*
X130911939Y-135655000D01*
X131111898Y-135615226D01*
X131300256Y-135537205D01*
X131469774Y-135423937D01*
X131613937Y-135279774D01*
X131727205Y-135110256D01*
X131805226Y-134921898D01*
X131845000Y-134721939D01*
X131845000Y-134695157D01*
X133877817Y-132662341D01*
X133907764Y-132637764D01*
X133932346Y-132607812D01*
X133956450Y-132578441D01*
X134005862Y-132518233D01*
X134078754Y-132381860D01*
X134123641Y-132233887D01*
X134135000Y-132118561D01*
X134135000Y-132118554D01*
X134138797Y-132080001D01*
X134135000Y-132041448D01*
X134135000Y-105448552D01*
X134138797Y-105409999D01*
X134135000Y-105371446D01*
X134135000Y-105371439D01*
X134123641Y-105256113D01*
X134078754Y-105108140D01*
X134005862Y-104971767D01*
X133907764Y-104852236D01*
X133877810Y-104827653D01*
X133438347Y-104388190D01*
X133413764Y-104358236D01*
X133294233Y-104260138D01*
X133157860Y-104187246D01*
X133009887Y-104142359D01*
X132894561Y-104131000D01*
X132894553Y-104131000D01*
X132856000Y-104127203D01*
X132817447Y-104131000D01*
X125891474Y-104131000D01*
X125783475Y-103969368D01*
X125576632Y-103762525D01*
X125333411Y-103600010D01*
X125063158Y-103488068D01*
X124776260Y-103431000D01*
X124483740Y-103431000D01*
X124196842Y-103488068D01*
X123926589Y-103600010D01*
X123683368Y-103762525D01*
X123476525Y-103969368D01*
X123360000Y-104143760D01*
X123243475Y-103969368D01*
X123036632Y-103762525D01*
X122793411Y-103600010D01*
X122523158Y-103488068D01*
X122236260Y-103431000D01*
X121943740Y-103431000D01*
X121656842Y-103488068D01*
X121386589Y-103600010D01*
X121143368Y-103762525D01*
X120936525Y-103969368D01*
X120820000Y-104143760D01*
X120703475Y-103969368D01*
X120496632Y-103762525D01*
X120253411Y-103600010D01*
X119983158Y-103488068D01*
X119696260Y-103431000D01*
X119403740Y-103431000D01*
X119116842Y-103488068D01*
X118846589Y-103600010D01*
X118603368Y-103762525D01*
X118396525Y-103969368D01*
X118274805Y-104151534D01*
X118205178Y-104034645D01*
X118010269Y-103818412D01*
X117776920Y-103644359D01*
X117514099Y-103519175D01*
X117366890Y-103474524D01*
X117137000Y-103595845D01*
X117137000Y-104789000D01*
X117157000Y-104789000D01*
X117157000Y-105043000D01*
X117137000Y-105043000D01*
X117137000Y-105063000D01*
X116883000Y-105063000D01*
X116883000Y-105043000D01*
X115689186Y-105043000D01*
X115568519Y-105272891D01*
X115665843Y-105547252D01*
X115814822Y-105797355D01*
X116009731Y-106013588D01*
X116239406Y-106184900D01*
X116063368Y-106302525D01*
X115856525Y-106509368D01*
X115694010Y-106752589D01*
X115582068Y-107022842D01*
X115525000Y-107309740D01*
X115116976Y-107309740D01*
X115103937Y-107290226D01*
X114959774Y-107146063D01*
X114790256Y-107032795D01*
X114601898Y-106954774D01*
X114401939Y-106915000D01*
X114198061Y-106915000D01*
X113998102Y-106954774D01*
X113809744Y-107032795D01*
X113640226Y-107146063D01*
X113496063Y-107290226D01*
X113382795Y-107459744D01*
X113304774Y-107648102D01*
X113265000Y-107848061D01*
X111693303Y-107848061D01*
X111695000Y-107830838D01*
X111695000Y-107830829D01*
X111696015Y-107820525D01*
X111784482Y-107811812D01*
X111904180Y-107775502D01*
X112014494Y-107716537D01*
X112111185Y-107637185D01*
X112190537Y-107540494D01*
X112249502Y-107430180D01*
X112285812Y-107310482D01*
X112298072Y-107186000D01*
X112298072Y-105186000D01*
X112285812Y-105061518D01*
X112249502Y-104941820D01*
X112190537Y-104831506D01*
X112111185Y-104734815D01*
X112014494Y-104655463D01*
X111904180Y-104596498D01*
X111784482Y-104560188D01*
X111773527Y-104559109D01*
X115568519Y-104559109D01*
X115689186Y-104789000D01*
X116883000Y-104789000D01*
X116883000Y-103595845D01*
X116653110Y-103474524D01*
X116505901Y-103519175D01*
X116243080Y-103644359D01*
X116009731Y-103818412D01*
X115814822Y-104034645D01*
X115665843Y-104284748D01*
X115568519Y-104559109D01*
X111773527Y-104559109D01*
X111660000Y-104547928D01*
X110485639Y-104547928D01*
X109381807Y-103444097D01*
X109349396Y-103404604D01*
X109338929Y-103396014D01*
X109533993Y-103336841D01*
X109713797Y-103240734D01*
X109871396Y-103111396D01*
X109903807Y-103071903D01*
X113012711Y-99963000D01*
X113083592Y-99963000D01*
X113353490Y-99909314D01*
X113607727Y-99804005D01*
X113836535Y-99651120D01*
X113956090Y-99531565D01*
X114827040Y-99531565D01*
X114894020Y-99771656D01*
X115143048Y-99888756D01*
X115410135Y-99955023D01*
X115685017Y-99967910D01*
X115957133Y-99926922D01*
X116216023Y-99833636D01*
X116331980Y-99771656D01*
X116398960Y-99531565D01*
X116249739Y-99382344D01*
X128925000Y-99382344D01*
X128925000Y-99753656D01*
X128997439Y-100117834D01*
X129139534Y-100460882D01*
X129345825Y-100769618D01*
X129608382Y-101032175D01*
X129917118Y-101238466D01*
X130260166Y-101380561D01*
X130624344Y-101453000D01*
X130995656Y-101453000D01*
X131359834Y-101380561D01*
X131702882Y-101238466D01*
X132011618Y-101032175D01*
X132274175Y-100769618D01*
X132480466Y-100460882D01*
X132622561Y-100117834D01*
X132695000Y-99753656D01*
X132695000Y-99382344D01*
X132622561Y-99018166D01*
X132480466Y-98675118D01*
X132274175Y-98366382D01*
X132011618Y-98103825D01*
X131702882Y-97897534D01*
X131359834Y-97755439D01*
X130995656Y-97683000D01*
X130624344Y-97683000D01*
X130260166Y-97755439D01*
X129917118Y-97897534D01*
X129608382Y-98103825D01*
X129345825Y-98366382D01*
X129139534Y-98675118D01*
X128997439Y-99018166D01*
X128925000Y-99382344D01*
X116249739Y-99382344D01*
X115613000Y-98745605D01*
X114827040Y-99531565D01*
X113956090Y-99531565D01*
X114031120Y-99456535D01*
X114184005Y-99227727D01*
X114281610Y-98992090D01*
X114345364Y-99169023D01*
X114407344Y-99284980D01*
X114647435Y-99351960D01*
X115433395Y-98566000D01*
X115792605Y-98566000D01*
X116578565Y-99351960D01*
X116818656Y-99284980D01*
X116935756Y-99035952D01*
X117002023Y-98768865D01*
X117014910Y-98493983D01*
X116973922Y-98221867D01*
X116880636Y-97962977D01*
X116818656Y-97847020D01*
X116578565Y-97780040D01*
X115792605Y-98566000D01*
X115433395Y-98566000D01*
X114647435Y-97780040D01*
X114407344Y-97847020D01*
X114290244Y-98096048D01*
X114280204Y-98136516D01*
X114184005Y-97904273D01*
X114031120Y-97675465D01*
X113956090Y-97600435D01*
X114827040Y-97600435D01*
X115613000Y-98386395D01*
X116398960Y-97600435D01*
X116331980Y-97360344D01*
X116082952Y-97243244D01*
X115815865Y-97176977D01*
X115540983Y-97164090D01*
X115268867Y-97205078D01*
X115009977Y-97298364D01*
X114894020Y-97360344D01*
X114827040Y-97600435D01*
X113956090Y-97600435D01*
X113836535Y-97480880D01*
X113607727Y-97327995D01*
X113353490Y-97222686D01*
X113083592Y-97169000D01*
X112808408Y-97169000D01*
X112538510Y-97222686D01*
X112284273Y-97327995D01*
X112055465Y-97480880D01*
X111860880Y-97675465D01*
X111707995Y-97904273D01*
X111602686Y-98158510D01*
X111549000Y-98428408D01*
X111549000Y-98499289D01*
X108707290Y-101341000D01*
X100481756Y-101341000D01*
X100405463Y-101248037D01*
X100163735Y-101049655D01*
X99887949Y-100902245D01*
X99588704Y-100811470D01*
X99355486Y-100788500D01*
X99104514Y-100788500D01*
X98871296Y-100811470D01*
X98572051Y-100902245D01*
X98296265Y-101049655D01*
X98054537Y-101248037D01*
X97856155Y-101489765D01*
X97708745Y-101765551D01*
X97617970Y-102064796D01*
X97587319Y-102376000D01*
X97617970Y-102687204D01*
X97708745Y-102986449D01*
X97856155Y-103262235D01*
X98054537Y-103503963D01*
X98227609Y-103646000D01*
X98054537Y-103788037D01*
X97856155Y-104029765D01*
X97708745Y-104305551D01*
X97617970Y-104604796D01*
X97587319Y-104916000D01*
X97617970Y-105227204D01*
X97708745Y-105526449D01*
X97856155Y-105802235D01*
X97959446Y-105928095D01*
X97875506Y-105972963D01*
X97778815Y-106052315D01*
X97699463Y-106149006D01*
X97640498Y-106259320D01*
X97604188Y-106379018D01*
X97591928Y-106503500D01*
X97595000Y-107170250D01*
X97753750Y-107329000D01*
X99103000Y-107329000D01*
X99103000Y-107309000D01*
X99357000Y-107309000D01*
X99357000Y-107329000D01*
X100706250Y-107329000D01*
X100713837Y-107321413D01*
X104704192Y-107321413D01*
X104799956Y-107585814D01*
X105089571Y-107726704D01*
X105401108Y-107808384D01*
X105722595Y-107827718D01*
X106041675Y-107783961D01*
X106346088Y-107678795D01*
X106520044Y-107585814D01*
X106615808Y-107321413D01*
X105660000Y-106365605D01*
X104704192Y-107321413D01*
X100713837Y-107321413D01*
X100865000Y-107170250D01*
X100868072Y-106503500D01*
X100855812Y-106379018D01*
X100819502Y-106259320D01*
X100760537Y-106149006D01*
X100681185Y-106052315D01*
X100584494Y-105972963D01*
X100543405Y-105951000D01*
X103313172Y-105951000D01*
X103364000Y-105956006D01*
X103414828Y-105951000D01*
X103414838Y-105951000D01*
X103566895Y-105936024D01*
X103761993Y-105876841D01*
X103941797Y-105780734D01*
X104099396Y-105651396D01*
X104114836Y-105632582D01*
X104037616Y-105927108D01*
X104018282Y-106248595D01*
X104062039Y-106567675D01*
X104167205Y-106872088D01*
X104260186Y-107046044D01*
X104524587Y-107141808D01*
X105480395Y-106186000D01*
X105466253Y-106171858D01*
X105645858Y-105992253D01*
X105660000Y-106006395D01*
X105674143Y-105992253D01*
X105853748Y-106171858D01*
X105839605Y-106186000D01*
X106795413Y-107141808D01*
X107059814Y-107046044D01*
X107200704Y-106756429D01*
X107282384Y-106444892D01*
X107301718Y-106123405D01*
X107257961Y-105804325D01*
X107152795Y-105499912D01*
X107059814Y-105325956D01*
X106795415Y-105230193D01*
X106850608Y-105175000D01*
X108185290Y-105175000D01*
X109021928Y-106011639D01*
X109021928Y-107186000D01*
X109034188Y-107310482D01*
X109070498Y-107430180D01*
X109129463Y-107540494D01*
X109208815Y-107637185D01*
X109280376Y-107695913D01*
X104714093Y-112262197D01*
X104674605Y-112294604D01*
X104642198Y-112334092D01*
X104642197Y-112334093D01*
X104545266Y-112452203D01*
X104449160Y-112632007D01*
X104389977Y-112827105D01*
X104369994Y-113030000D01*
X104375001Y-113080838D01*
X104375000Y-126247289D01*
X97931290Y-132691000D01*
X97818665Y-132691000D01*
X97541426Y-132746147D01*
X97280273Y-132854320D01*
X97045241Y-133011363D01*
X96845363Y-133211241D01*
X96711308Y-133411869D01*
X96696671Y-133384486D01*
X96452702Y-133312903D01*
X95639605Y-134126000D01*
X96452702Y-134939097D01*
X96696671Y-134867514D01*
X96710324Y-134838659D01*
X96845363Y-135040759D01*
X96925000Y-135120396D01*
X96925001Y-136939162D01*
X96919994Y-136990000D01*
X96939977Y-137192895D01*
X96999160Y-137387993D01*
X97095266Y-137567797D01*
X97192197Y-137685907D01*
X97224605Y-137725396D01*
X97264092Y-137757802D01*
X97871001Y-138364712D01*
X97871000Y-141965289D01*
X95824092Y-144012198D01*
X95784605Y-144044604D01*
X95752198Y-144084092D01*
X95752197Y-144084093D01*
X95655266Y-144202203D01*
X95559160Y-144382007D01*
X95499977Y-144577105D01*
X95479994Y-144780000D01*
X95485001Y-144830838D01*
X95485000Y-146567289D01*
X92904362Y-149147928D01*
X92030000Y-149147928D01*
X91905518Y-149160188D01*
X91785820Y-149196498D01*
X91675506Y-149255463D01*
X91578815Y-149334815D01*
X91499463Y-149431506D01*
X91440498Y-149541820D01*
X91404188Y-149661518D01*
X91391928Y-149786000D01*
X91391928Y-151486000D01*
X91404188Y-151610482D01*
X91440498Y-151730180D01*
X91499463Y-151840494D01*
X91578815Y-151937185D01*
X91675506Y-152016537D01*
X91785820Y-152075502D01*
X91845001Y-152093454D01*
X91845000Y-155991604D01*
X91765363Y-156071241D01*
X91608320Y-156306273D01*
X91500147Y-156567426D01*
X91445000Y-156844665D01*
X91445000Y-156957289D01*
X89925290Y-158477000D01*
X87425107Y-158477000D01*
X87381620Y-158433513D01*
X87454180Y-158411502D01*
X87564494Y-158352537D01*
X87661185Y-158273185D01*
X87740537Y-158176494D01*
X87799502Y-158066180D01*
X87835812Y-157946482D01*
X87848072Y-157822000D01*
X87845000Y-157257750D01*
X87686250Y-157099000D01*
X86487000Y-157099000D01*
X86487000Y-157119000D01*
X86233000Y-157119000D01*
X86233000Y-157099000D01*
X85033750Y-157099000D01*
X84875000Y-157257750D01*
X84871928Y-157822000D01*
X84884188Y-157946482D01*
X84920498Y-158066180D01*
X84979463Y-158176494D01*
X85058815Y-158273185D01*
X85155506Y-158352537D01*
X85265820Y-158411502D01*
X85338380Y-158433513D01*
X85206525Y-158565368D01*
X85044010Y-158808589D01*
X84932068Y-159078842D01*
X84875000Y-159365740D01*
X84875000Y-159658260D01*
X84932068Y-159945158D01*
X85044010Y-160215411D01*
X85206525Y-160458632D01*
X85413368Y-160665475D01*
X85587760Y-160782000D01*
X85413368Y-160898525D01*
X85206525Y-161105368D01*
X85044010Y-161348589D01*
X84932068Y-161618842D01*
X84875000Y-161905740D01*
X84875000Y-162198260D01*
X84912925Y-162388918D01*
X84855000Y-162446843D01*
X84855000Y-156122000D01*
X84871928Y-156122000D01*
X84875000Y-156686250D01*
X85033750Y-156845000D01*
X86233000Y-156845000D01*
X86233000Y-155645750D01*
X86487000Y-155645750D01*
X86487000Y-156845000D01*
X87686250Y-156845000D01*
X87845000Y-156686250D01*
X87848072Y-156122000D01*
X87835812Y-155997518D01*
X87799502Y-155877820D01*
X87740537Y-155767506D01*
X87661185Y-155670815D01*
X87564494Y-155591463D01*
X87454180Y-155532498D01*
X87334482Y-155496188D01*
X87210000Y-155483928D01*
X86645750Y-155487000D01*
X86487000Y-155645750D01*
X86233000Y-155645750D01*
X86074250Y-155487000D01*
X85510000Y-155483928D01*
X85385518Y-155496188D01*
X85265820Y-155532498D01*
X85155506Y-155591463D01*
X85058815Y-155670815D01*
X84979463Y-155767506D01*
X84920498Y-155877820D01*
X84884188Y-155997518D01*
X84871928Y-156122000D01*
X84855000Y-156122000D01*
X84855000Y-152828710D01*
X85411050Y-152272660D01*
X85416815Y-152279685D01*
X85513506Y-152359037D01*
X85623820Y-152418002D01*
X85743518Y-152454312D01*
X85868000Y-152466572D01*
X87868000Y-152466572D01*
X87992482Y-152454312D01*
X88112180Y-152418002D01*
X88222494Y-152359037D01*
X88319185Y-152279685D01*
X88398537Y-152182994D01*
X88457502Y-152072680D01*
X88493812Y-151952982D01*
X88506072Y-151828500D01*
X88506072Y-149923500D01*
X88493812Y-149799018D01*
X88457502Y-149679320D01*
X88398537Y-149569006D01*
X88319185Y-149472315D01*
X88222494Y-149392963D01*
X88130781Y-149343941D01*
X88243969Y-149202923D01*
X88387571Y-148927094D01*
X88458563Y-148708980D01*
X88338594Y-148463000D01*
X86995000Y-148463000D01*
X86995000Y-148483000D01*
X86741000Y-148483000D01*
X86741000Y-148463000D01*
X85397406Y-148463000D01*
X85277437Y-148708980D01*
X85348429Y-148927094D01*
X85492031Y-149202923D01*
X85605219Y-149343941D01*
X85513506Y-149392963D01*
X85416815Y-149472315D01*
X85337463Y-149569006D01*
X85278498Y-149679320D01*
X85242188Y-149799018D01*
X85237513Y-149846481D01*
X85141105Y-149855976D01*
X84946007Y-149915159D01*
X84766203Y-150011266D01*
X84608604Y-150140604D01*
X84576197Y-150180092D01*
X83124092Y-151632198D01*
X83084605Y-151664604D01*
X83052198Y-151704092D01*
X83052197Y-151704093D01*
X82955266Y-151822203D01*
X82859160Y-152002007D01*
X82799977Y-152197105D01*
X82779994Y-152400000D01*
X80660000Y-152400000D01*
X80660000Y-138430000D01*
X81509994Y-138430000D01*
X81515001Y-138480838D01*
X81515000Y-140919172D01*
X81509994Y-140970000D01*
X81515000Y-141020828D01*
X81515000Y-141020837D01*
X81529976Y-141172894D01*
X81589159Y-141367992D01*
X81685266Y-141547797D01*
X81814604Y-141705396D01*
X81854097Y-141737807D01*
X83052196Y-142935907D01*
X83084604Y-142975396D01*
X83124092Y-143007803D01*
X83242202Y-143104734D01*
X83288342Y-143129396D01*
X83422007Y-143200841D01*
X83617105Y-143260024D01*
X83769162Y-143275000D01*
X83769171Y-143275000D01*
X83819999Y-143280006D01*
X83870827Y-143275000D01*
X84661290Y-143275000D01*
X85833001Y-144446712D01*
X85833001Y-144552761D01*
X85692537Y-144668037D01*
X85494155Y-144909765D01*
X85346745Y-145185551D01*
X85255970Y-145484796D01*
X85225319Y-145796000D01*
X85255970Y-146107204D01*
X85346745Y-146406449D01*
X85494155Y-146682235D01*
X85692537Y-146923963D01*
X85871899Y-147071163D01*
X85686685Y-147226563D01*
X85492031Y-147469077D01*
X85348429Y-147744906D01*
X85277437Y-147963020D01*
X85397406Y-148209000D01*
X86741000Y-148209000D01*
X86741000Y-148189000D01*
X86995000Y-148189000D01*
X86995000Y-148209000D01*
X88338594Y-148209000D01*
X88458563Y-147963020D01*
X88387571Y-147744906D01*
X88243969Y-147469077D01*
X88049315Y-147226563D01*
X87864101Y-147071163D01*
X88043463Y-146923963D01*
X88241845Y-146682235D01*
X88389255Y-146406449D01*
X88480030Y-146107204D01*
X88499941Y-145905039D01*
X91488096Y-145905039D01*
X91528754Y-146039087D01*
X91648963Y-146293420D01*
X91816481Y-146519414D01*
X92024869Y-146708385D01*
X92266119Y-146853070D01*
X92530960Y-146947909D01*
X92753000Y-146826624D01*
X92753000Y-145683000D01*
X93007000Y-145683000D01*
X93007000Y-146826624D01*
X93229040Y-146947909D01*
X93493881Y-146853070D01*
X93735131Y-146708385D01*
X93943519Y-146519414D01*
X94111037Y-146293420D01*
X94231246Y-146039087D01*
X94271904Y-145905039D01*
X94149915Y-145683000D01*
X93007000Y-145683000D01*
X92753000Y-145683000D01*
X91610085Y-145683000D01*
X91488096Y-145905039D01*
X88499941Y-145905039D01*
X88510681Y-145796000D01*
X88480030Y-145484796D01*
X88389255Y-145185551D01*
X88241845Y-144909765D01*
X88043463Y-144668037D01*
X87903000Y-144552761D01*
X87903000Y-144068835D01*
X87908007Y-144018000D01*
X87903000Y-143967162D01*
X87888024Y-143815105D01*
X87828841Y-143620007D01*
X87770041Y-143509999D01*
X87732734Y-143440202D01*
X87635803Y-143322092D01*
X87603396Y-143282604D01*
X87563908Y-143250197D01*
X85857807Y-141544097D01*
X85825396Y-141504604D01*
X85667797Y-141375266D01*
X85487993Y-141279159D01*
X85292895Y-141219976D01*
X85140838Y-141205000D01*
X85140828Y-141205000D01*
X85090000Y-141199994D01*
X85039172Y-141205000D01*
X84248711Y-141205000D01*
X83585000Y-140541290D01*
X83585000Y-139548890D01*
X84410524Y-139548890D01*
X84455175Y-139696099D01*
X84580359Y-139958920D01*
X84754412Y-140192269D01*
X84970645Y-140387178D01*
X85220748Y-140536157D01*
X85495109Y-140633481D01*
X85725000Y-140512814D01*
X85725000Y-139319000D01*
X85979000Y-139319000D01*
X85979000Y-140512814D01*
X86208891Y-140633481D01*
X86483252Y-140536157D01*
X86733355Y-140387178D01*
X86949588Y-140192269D01*
X87123641Y-139958920D01*
X87248825Y-139696099D01*
X87293476Y-139548890D01*
X87172155Y-139319000D01*
X85979000Y-139319000D01*
X85725000Y-139319000D01*
X84531845Y-139319000D01*
X84410524Y-139548890D01*
X83585000Y-139548890D01*
X83585000Y-138858710D01*
X84756711Y-137687000D01*
X84786893Y-137687000D01*
X84905368Y-137805475D01*
X85087534Y-137927195D01*
X84970645Y-137996822D01*
X84754412Y-138191731D01*
X84580359Y-138425080D01*
X84455175Y-138687901D01*
X84410524Y-138835110D01*
X84531845Y-139065000D01*
X85725000Y-139065000D01*
X85725000Y-139045000D01*
X85979000Y-139045000D01*
X85979000Y-139065000D01*
X87172155Y-139065000D01*
X87293476Y-138835110D01*
X87248825Y-138687901D01*
X87123641Y-138425080D01*
X86949588Y-138191731D01*
X86733355Y-137996822D01*
X86616466Y-137927195D01*
X86798632Y-137805475D01*
X87005475Y-137598632D01*
X87167990Y-137355411D01*
X87258872Y-137136000D01*
X91441928Y-137136000D01*
X91441928Y-138736000D01*
X91454188Y-138860482D01*
X91490498Y-138980180D01*
X91549463Y-139090494D01*
X91628815Y-139187185D01*
X91725506Y-139266537D01*
X91835820Y-139325502D01*
X91955518Y-139361812D01*
X91963961Y-139362643D01*
X91765363Y-139561241D01*
X91608320Y-139796273D01*
X91500147Y-140057426D01*
X91445000Y-140334665D01*
X91445000Y-140617335D01*
X91500147Y-140894574D01*
X91608320Y-141155727D01*
X91765363Y-141390759D01*
X91965241Y-141590637D01*
X92197759Y-141746000D01*
X91965241Y-141901363D01*
X91765363Y-142101241D01*
X91608320Y-142336273D01*
X91500147Y-142597426D01*
X91445000Y-142874665D01*
X91445000Y-143157335D01*
X91500147Y-143434574D01*
X91608320Y-143695727D01*
X91765363Y-143930759D01*
X91965241Y-144130637D01*
X92200273Y-144287680D01*
X92210865Y-144292067D01*
X92024869Y-144403615D01*
X91816481Y-144592586D01*
X91648963Y-144818580D01*
X91528754Y-145072913D01*
X91488096Y-145206961D01*
X91610085Y-145429000D01*
X92753000Y-145429000D01*
X92753000Y-145409000D01*
X93007000Y-145409000D01*
X93007000Y-145429000D01*
X94149915Y-145429000D01*
X94271904Y-145206961D01*
X94231246Y-145072913D01*
X94111037Y-144818580D01*
X93943519Y-144592586D01*
X93735131Y-144403615D01*
X93549135Y-144292067D01*
X93559727Y-144287680D01*
X93794759Y-144130637D01*
X93994637Y-143930759D01*
X94151680Y-143695727D01*
X94259853Y-143434574D01*
X94315000Y-143157335D01*
X94315000Y-142874665D01*
X94259853Y-142597426D01*
X94151680Y-142336273D01*
X93994637Y-142101241D01*
X93794759Y-141901363D01*
X93562241Y-141746000D01*
X93794759Y-141590637D01*
X93994637Y-141390759D01*
X94151680Y-141155727D01*
X94259853Y-140894574D01*
X94315000Y-140617335D01*
X94315000Y-140334665D01*
X94259853Y-140057426D01*
X94151680Y-139796273D01*
X93994637Y-139561241D01*
X93796039Y-139362643D01*
X93804482Y-139361812D01*
X93924180Y-139325502D01*
X94034494Y-139266537D01*
X94131185Y-139187185D01*
X94210537Y-139090494D01*
X94269502Y-138980180D01*
X94305812Y-138860482D01*
X94318072Y-138736000D01*
X94318072Y-137136000D01*
X94305812Y-137011518D01*
X94269502Y-136891820D01*
X94210537Y-136781506D01*
X94131185Y-136684815D01*
X94034494Y-136605463D01*
X93924180Y-136546498D01*
X93804482Y-136510188D01*
X93680000Y-136497928D01*
X92080000Y-136497928D01*
X91955518Y-136510188D01*
X91835820Y-136546498D01*
X91725506Y-136605463D01*
X91628815Y-136684815D01*
X91549463Y-136781506D01*
X91490498Y-136891820D01*
X91454188Y-137011518D01*
X91441928Y-137136000D01*
X87258872Y-137136000D01*
X87279932Y-137085158D01*
X87337000Y-136798260D01*
X87337000Y-136505740D01*
X87279932Y-136218842D01*
X87167990Y-135948589D01*
X87005475Y-135705368D01*
X86798632Y-135498525D01*
X86624240Y-135382000D01*
X86798632Y-135265475D01*
X86988444Y-135075663D01*
X86996979Y-135086063D01*
X87047655Y-135147812D01*
X87047659Y-135147816D01*
X87072237Y-135177764D01*
X87102185Y-135202342D01*
X87865000Y-135965158D01*
X87865000Y-135991939D01*
X87904774Y-136191898D01*
X87982795Y-136380256D01*
X88096063Y-136549774D01*
X88240226Y-136693937D01*
X88409744Y-136807205D01*
X88598102Y-136885226D01*
X88798061Y-136925000D01*
X89001939Y-136925000D01*
X89201898Y-136885226D01*
X89390256Y-136807205D01*
X89559774Y-136693937D01*
X89703937Y-136549774D01*
X89817205Y-136380256D01*
X89895226Y-136191898D01*
X89935000Y-135991939D01*
X89935000Y-135788061D01*
X89895226Y-135588102D01*
X89817205Y-135399744D01*
X89703937Y-135230226D01*
X89592413Y-135118702D01*
X94646903Y-135118702D01*
X94718486Y-135362671D01*
X94973996Y-135483571D01*
X95248184Y-135552300D01*
X95530512Y-135566217D01*
X95810130Y-135524787D01*
X96076292Y-135429603D01*
X96201514Y-135362671D01*
X96273097Y-135118702D01*
X95460000Y-134305605D01*
X94646903Y-135118702D01*
X89592413Y-135118702D01*
X89559774Y-135086063D01*
X89390256Y-134972795D01*
X89201898Y-134894774D01*
X89001939Y-134855000D01*
X88975158Y-134855000D01*
X88415000Y-134294843D01*
X88415000Y-115608556D01*
X88418797Y-115570000D01*
X88415000Y-115531440D01*
X88415000Y-115531439D01*
X88411020Y-115491026D01*
X88403642Y-115416113D01*
X88358754Y-115268140D01*
X88346654Y-115245502D01*
X88285862Y-115131767D01*
X88187764Y-115012236D01*
X88157811Y-114987654D01*
X87299075Y-114128918D01*
X87337000Y-113938260D01*
X87337000Y-113645740D01*
X87279932Y-113358842D01*
X87167990Y-113088589D01*
X87005475Y-112845368D01*
X86798632Y-112638525D01*
X86616466Y-112516805D01*
X86733355Y-112447178D01*
X86949588Y-112252269D01*
X87123641Y-112018920D01*
X87248825Y-111756099D01*
X87293476Y-111608890D01*
X87172156Y-111379002D01*
X87337000Y-111379002D01*
X87337000Y-111307157D01*
X90655000Y-114625158D01*
X90655001Y-132041437D01*
X90651203Y-132080000D01*
X90666359Y-132233886D01*
X90711246Y-132381859D01*
X90711247Y-132381860D01*
X90784139Y-132518233D01*
X90824690Y-132567644D01*
X90857655Y-132607812D01*
X90857656Y-132607813D01*
X90882237Y-132637764D01*
X90912185Y-132662342D01*
X91675000Y-133425158D01*
X91675000Y-133451939D01*
X91714774Y-133651898D01*
X91792795Y-133840256D01*
X91906063Y-134009774D01*
X92050226Y-134153937D01*
X92219744Y-134267205D01*
X92408102Y-134345226D01*
X92608061Y-134385000D01*
X92811939Y-134385000D01*
X93011898Y-134345226D01*
X93200256Y-134267205D01*
X93306055Y-134196512D01*
X94019783Y-134196512D01*
X94061213Y-134476130D01*
X94156397Y-134742292D01*
X94223329Y-134867514D01*
X94467298Y-134939097D01*
X95280395Y-134126000D01*
X94467298Y-133312903D01*
X94223329Y-133384486D01*
X94102429Y-133639996D01*
X94033700Y-133914184D01*
X94019783Y-134196512D01*
X93306055Y-134196512D01*
X93369774Y-134153937D01*
X93513937Y-134009774D01*
X93627205Y-133840256D01*
X93705226Y-133651898D01*
X93745000Y-133451939D01*
X93745000Y-133248061D01*
X93722173Y-133133298D01*
X94646903Y-133133298D01*
X95460000Y-133946395D01*
X96273097Y-133133298D01*
X96201514Y-132889329D01*
X95946004Y-132768429D01*
X95671816Y-132699700D01*
X95389488Y-132685783D01*
X95109870Y-132727213D01*
X94843708Y-132822397D01*
X94718486Y-132889329D01*
X94646903Y-133133298D01*
X93722173Y-133133298D01*
X93705226Y-133048102D01*
X93627205Y-132859744D01*
X93513937Y-132690226D01*
X93369774Y-132546063D01*
X93200256Y-132432795D01*
X93011898Y-132354774D01*
X92811939Y-132315000D01*
X92785158Y-132315000D01*
X92225000Y-131754843D01*
X92225000Y-126371413D01*
X93274192Y-126371413D01*
X93369956Y-126635814D01*
X93659571Y-126776704D01*
X93971108Y-126858384D01*
X94292595Y-126877718D01*
X94611675Y-126833961D01*
X94916088Y-126728795D01*
X95090044Y-126635814D01*
X95185808Y-126371413D01*
X94230000Y-125415605D01*
X93274192Y-126371413D01*
X92225000Y-126371413D01*
X92225000Y-125298595D01*
X92588282Y-125298595D01*
X92632039Y-125617675D01*
X92737205Y-125922088D01*
X92830186Y-126096044D01*
X93094587Y-126191808D01*
X94050395Y-125236000D01*
X94409605Y-125236000D01*
X95365413Y-126191808D01*
X95629814Y-126096044D01*
X95770704Y-125806429D01*
X95852384Y-125494892D01*
X95871718Y-125173405D01*
X95827961Y-124854325D01*
X95722795Y-124549912D01*
X95629814Y-124375956D01*
X95365413Y-124280192D01*
X94409605Y-125236000D01*
X94050395Y-125236000D01*
X93094587Y-124280192D01*
X92830186Y-124375956D01*
X92689296Y-124665571D01*
X92607616Y-124977108D01*
X92588282Y-125298595D01*
X92225000Y-125298595D01*
X92225000Y-124100587D01*
X93274192Y-124100587D01*
X94230000Y-125056395D01*
X95185808Y-124100587D01*
X95090044Y-123836186D01*
X94800429Y-123695296D01*
X94488892Y-123613616D01*
X94167405Y-123594282D01*
X93848325Y-123638039D01*
X93543912Y-123743205D01*
X93369956Y-123836186D01*
X93274192Y-124100587D01*
X92225000Y-124100587D01*
X92225000Y-118110000D01*
X95479993Y-118110000D01*
X95485000Y-118160838D01*
X95485000Y-118211939D01*
X95494969Y-118262057D01*
X95499976Y-118312895D01*
X95514804Y-118361777D01*
X95524774Y-118411898D01*
X95544331Y-118459113D01*
X95559159Y-118507993D01*
X95583238Y-118553042D01*
X95602795Y-118600256D01*
X95631186Y-118642746D01*
X95655266Y-118687797D01*
X95687672Y-118727284D01*
X95716063Y-118769774D01*
X95752196Y-118805907D01*
X95784604Y-118845396D01*
X95824092Y-118877803D01*
X95860226Y-118913937D01*
X95902716Y-118942328D01*
X95942203Y-118974734D01*
X95987254Y-118998814D01*
X96029744Y-119027205D01*
X96076958Y-119046762D01*
X96122007Y-119070841D01*
X96170887Y-119085669D01*
X96218102Y-119105226D01*
X96268223Y-119115196D01*
X96317105Y-119130024D01*
X96367943Y-119135031D01*
X96418061Y-119145000D01*
X97361290Y-119145000D01*
X98195001Y-119978712D01*
X98195000Y-123601375D01*
X98105518Y-123610188D01*
X97985820Y-123646498D01*
X97875506Y-123705463D01*
X97778815Y-123784815D01*
X97699463Y-123881506D01*
X97640498Y-123991820D01*
X97604188Y-124111518D01*
X97591928Y-124236000D01*
X97591928Y-126236000D01*
X97604188Y-126360482D01*
X97640498Y-126480180D01*
X97699463Y-126590494D01*
X97778815Y-126687185D01*
X97875506Y-126766537D01*
X97985820Y-126825502D01*
X98105518Y-126861812D01*
X98230000Y-126874072D01*
X100230000Y-126874072D01*
X100354482Y-126861812D01*
X100474180Y-126825502D01*
X100584494Y-126766537D01*
X100681185Y-126687185D01*
X100760537Y-126590494D01*
X100819502Y-126480180D01*
X100855812Y-126360482D01*
X100868072Y-126236000D01*
X100868072Y-124236000D01*
X100855812Y-124111518D01*
X100819502Y-123991820D01*
X100760537Y-123881506D01*
X100681185Y-123784815D01*
X100584494Y-123705463D01*
X100474180Y-123646498D01*
X100354482Y-123610188D01*
X100265000Y-123601375D01*
X100265000Y-119600835D01*
X100270007Y-119550000D01*
X100265000Y-119499162D01*
X100250024Y-119347105D01*
X100190841Y-119152007D01*
X100190841Y-119152006D01*
X100094734Y-118972202D01*
X99997803Y-118854092D01*
X99965396Y-118814604D01*
X99925908Y-118782197D01*
X98557807Y-117414097D01*
X98525396Y-117374604D01*
X98367797Y-117245266D01*
X98187993Y-117149159D01*
X97992895Y-117089976D01*
X97840838Y-117075000D01*
X97840828Y-117075000D01*
X97790000Y-117069994D01*
X97739172Y-117075000D01*
X96418061Y-117075000D01*
X96367943Y-117084969D01*
X96317105Y-117089976D01*
X96268223Y-117104804D01*
X96218102Y-117114774D01*
X96170887Y-117134331D01*
X96122007Y-117149159D01*
X96076958Y-117173238D01*
X96029744Y-117192795D01*
X95987254Y-117221186D01*
X95942203Y-117245266D01*
X95902716Y-117277672D01*
X95860226Y-117306063D01*
X95824092Y-117342197D01*
X95784604Y-117374604D01*
X95752197Y-117414092D01*
X95716063Y-117450226D01*
X95687672Y-117492716D01*
X95655266Y-117532203D01*
X95631186Y-117577254D01*
X95602795Y-117619744D01*
X95583238Y-117666958D01*
X95559159Y-117712007D01*
X95544331Y-117760887D01*
X95524774Y-117808102D01*
X95514804Y-117858223D01*
X95499976Y-117907105D01*
X95494969Y-117957943D01*
X95485000Y-118008061D01*
X95485000Y-118059162D01*
X95479993Y-118110000D01*
X92225000Y-118110000D01*
X92225000Y-115294072D01*
X93730000Y-115294072D01*
X93854482Y-115281812D01*
X93974180Y-115245502D01*
X94084494Y-115186537D01*
X94181185Y-115107185D01*
X94260537Y-115010494D01*
X94319502Y-114900180D01*
X94343966Y-114819534D01*
X94419731Y-114903588D01*
X94653080Y-115077641D01*
X94915901Y-115202825D01*
X95063110Y-115247476D01*
X95293000Y-115126155D01*
X95293000Y-113933000D01*
X95273000Y-113933000D01*
X95273000Y-113679000D01*
X95293000Y-113679000D01*
X95293000Y-112485845D01*
X95547000Y-112485845D01*
X95547000Y-113679000D01*
X95567000Y-113679000D01*
X95567000Y-113933000D01*
X95547000Y-113933000D01*
X95547000Y-115126155D01*
X95776890Y-115247476D01*
X95924099Y-115202825D01*
X96186920Y-115077641D01*
X96420269Y-114903588D01*
X96615178Y-114687355D01*
X96684805Y-114570466D01*
X96806525Y-114752632D01*
X97013368Y-114959475D01*
X97256589Y-115121990D01*
X97526842Y-115233932D01*
X97813740Y-115291000D01*
X98106260Y-115291000D01*
X98393158Y-115233932D01*
X98663411Y-115121990D01*
X98906632Y-114959475D01*
X99113475Y-114752632D01*
X99230000Y-114578240D01*
X99346525Y-114752632D01*
X99553368Y-114959475D01*
X99796589Y-115121990D01*
X100066842Y-115233932D01*
X100353740Y-115291000D01*
X100646260Y-115291000D01*
X100933158Y-115233932D01*
X101203411Y-115121990D01*
X101446632Y-114959475D01*
X101653475Y-114752632D01*
X101815990Y-114509411D01*
X101927932Y-114239158D01*
X101985000Y-113952260D01*
X101985000Y-113659740D01*
X101927932Y-113372842D01*
X101815990Y-113102589D01*
X101653475Y-112859368D01*
X101446632Y-112652525D01*
X101203411Y-112490010D01*
X100933158Y-112378068D01*
X100646260Y-112321000D01*
X100353740Y-112321000D01*
X100066842Y-112378068D01*
X99796589Y-112490010D01*
X99553368Y-112652525D01*
X99346525Y-112859368D01*
X99230000Y-113033760D01*
X99113475Y-112859368D01*
X98906632Y-112652525D01*
X98663411Y-112490010D01*
X98393158Y-112378068D01*
X98106260Y-112321000D01*
X97813740Y-112321000D01*
X97526842Y-112378068D01*
X97256589Y-112490010D01*
X97013368Y-112652525D01*
X96806525Y-112859368D01*
X96684805Y-113041534D01*
X96615178Y-112924645D01*
X96420269Y-112708412D01*
X96186920Y-112534359D01*
X95924099Y-112409175D01*
X95776890Y-112364524D01*
X95547000Y-112485845D01*
X95293000Y-112485845D01*
X95063110Y-112364524D01*
X94915901Y-112409175D01*
X94653080Y-112534359D01*
X94419731Y-112708412D01*
X94343966Y-112792466D01*
X94319502Y-112711820D01*
X94260537Y-112601506D01*
X94181185Y-112504815D01*
X94084494Y-112425463D01*
X93974180Y-112366498D01*
X93854482Y-112330188D01*
X93730000Y-112317928D01*
X92030000Y-112317928D01*
X91905518Y-112330188D01*
X91785820Y-112366498D01*
X91675506Y-112425463D01*
X91578815Y-112504815D01*
X91499463Y-112601506D01*
X91440498Y-112711820D01*
X91404188Y-112831518D01*
X91391928Y-112956000D01*
X91391928Y-113141770D01*
X87299075Y-109048918D01*
X87337000Y-108858260D01*
X87337000Y-108565740D01*
X87279932Y-108278842D01*
X87167990Y-108008589D01*
X87005475Y-107765368D01*
X86798632Y-107558525D01*
X86624240Y-107442000D01*
X86798632Y-107325475D01*
X87005475Y-107118632D01*
X87113474Y-106957000D01*
X91876843Y-106957000D01*
X92095000Y-107175157D01*
X92095000Y-107524661D01*
X91965241Y-107611363D01*
X91765363Y-107811241D01*
X91608320Y-108046273D01*
X91500147Y-108307426D01*
X91445000Y-108584665D01*
X91445000Y-108867335D01*
X91500147Y-109144574D01*
X91608320Y-109405727D01*
X91765363Y-109640759D01*
X91965241Y-109840637D01*
X92200273Y-109997680D01*
X92461426Y-110105853D01*
X92738665Y-110161000D01*
X93021335Y-110161000D01*
X93298574Y-110105853D01*
X93559727Y-109997680D01*
X93794759Y-109840637D01*
X93994637Y-109640759D01*
X94151680Y-109405727D01*
X94259853Y-109144574D01*
X94315000Y-108867335D01*
X94315000Y-108584665D01*
X94279959Y-108408500D01*
X97591928Y-108408500D01*
X97604188Y-108532982D01*
X97640498Y-108652680D01*
X97699463Y-108762994D01*
X97778815Y-108859685D01*
X97875506Y-108939037D01*
X97985820Y-108998002D01*
X98105518Y-109034312D01*
X98230000Y-109046572D01*
X98944250Y-109043500D01*
X99103000Y-108884750D01*
X99103000Y-107583000D01*
X99357000Y-107583000D01*
X99357000Y-108884750D01*
X99515750Y-109043500D01*
X100230000Y-109046572D01*
X100354482Y-109034312D01*
X100474180Y-108998002D01*
X100584494Y-108939037D01*
X100681185Y-108859685D01*
X100760537Y-108762994D01*
X100819502Y-108652680D01*
X100855812Y-108532982D01*
X100868072Y-108408500D01*
X100865000Y-107741750D01*
X100706250Y-107583000D01*
X99357000Y-107583000D01*
X99103000Y-107583000D01*
X97753750Y-107583000D01*
X97595000Y-107741750D01*
X97591928Y-108408500D01*
X94279959Y-108408500D01*
X94259853Y-108307426D01*
X94151680Y-108046273D01*
X93994637Y-107811241D01*
X93794759Y-107611363D01*
X93665000Y-107524661D01*
X93665000Y-106888556D01*
X93668797Y-106850000D01*
X93665000Y-106811440D01*
X93665000Y-106811439D01*
X93657963Y-106739994D01*
X93653642Y-106696113D01*
X93608754Y-106548140D01*
X93588030Y-106509368D01*
X93535862Y-106411767D01*
X93437764Y-106292236D01*
X93407811Y-106267654D01*
X92784347Y-105644190D01*
X92759764Y-105614236D01*
X92640233Y-105516138D01*
X92503860Y-105443246D01*
X92355887Y-105398359D01*
X92240561Y-105387000D01*
X92240553Y-105387000D01*
X92202000Y-105383203D01*
X92163447Y-105387000D01*
X87113474Y-105387000D01*
X87005475Y-105225368D01*
X86798632Y-105018525D01*
X86616466Y-104896805D01*
X86733355Y-104827178D01*
X86949588Y-104632269D01*
X87123641Y-104398920D01*
X87248825Y-104136099D01*
X87293476Y-103988890D01*
X87172155Y-103759000D01*
X85979000Y-103759000D01*
X85979000Y-103779000D01*
X85725000Y-103779000D01*
X85725000Y-103759000D01*
X84531845Y-103759000D01*
X84410524Y-103988890D01*
X84455175Y-104136099D01*
X84580359Y-104398920D01*
X84754412Y-104632269D01*
X84970645Y-104827178D01*
X85087534Y-104896805D01*
X84905368Y-105018525D01*
X84698525Y-105225368D01*
X84536010Y-105468589D01*
X84424068Y-105738842D01*
X84367000Y-106025740D01*
X84367000Y-106318260D01*
X84424068Y-106605158D01*
X84536010Y-106875411D01*
X84698525Y-107118632D01*
X84905368Y-107325475D01*
X85079760Y-107442000D01*
X84905368Y-107558525D01*
X84698525Y-107765368D01*
X84536010Y-108008589D01*
X84424068Y-108278842D01*
X84367000Y-108565740D01*
X84367000Y-108858260D01*
X84424068Y-109145158D01*
X84536010Y-109415411D01*
X84698525Y-109658632D01*
X84905368Y-109865475D01*
X85087534Y-109987195D01*
X84970645Y-110056822D01*
X84754412Y-110251731D01*
X84580359Y-110485080D01*
X84455175Y-110747901D01*
X84410524Y-110895110D01*
X84531845Y-111125000D01*
X85725000Y-111125000D01*
X85725000Y-111105000D01*
X85979000Y-111105000D01*
X85979000Y-111125000D01*
X85999000Y-111125000D01*
X85999000Y-111379000D01*
X85979000Y-111379000D01*
X85979000Y-111399000D01*
X85725000Y-111399000D01*
X85725000Y-111379000D01*
X84531845Y-111379000D01*
X84410524Y-111608890D01*
X84455175Y-111756099D01*
X84580359Y-112018920D01*
X84754412Y-112252269D01*
X84970645Y-112447178D01*
X85087534Y-112516805D01*
X84905368Y-112638525D01*
X84698525Y-112845368D01*
X84536010Y-113088589D01*
X84424068Y-113358842D01*
X84367000Y-113645740D01*
X84367000Y-113938260D01*
X84424068Y-114225158D01*
X84536010Y-114495411D01*
X84698525Y-114738632D01*
X84905368Y-114945475D01*
X85079760Y-115062000D01*
X84905368Y-115178525D01*
X84698525Y-115385368D01*
X84536010Y-115628589D01*
X84424068Y-115898842D01*
X84367000Y-116185740D01*
X84367000Y-116478260D01*
X84424068Y-116765158D01*
X84536010Y-117035411D01*
X84698525Y-117278632D01*
X84905368Y-117485475D01*
X85079760Y-117602000D01*
X84905368Y-117718525D01*
X84698525Y-117925368D01*
X84536010Y-118168589D01*
X84424068Y-118438842D01*
X84367000Y-118725740D01*
X84367000Y-119018260D01*
X84424068Y-119305158D01*
X84536010Y-119575411D01*
X84698525Y-119818632D01*
X84905368Y-120025475D01*
X85079760Y-120142000D01*
X84905368Y-120258525D01*
X84698525Y-120465368D01*
X84536010Y-120708589D01*
X84424068Y-120978842D01*
X84367000Y-121265740D01*
X84367000Y-121558260D01*
X84424068Y-121845158D01*
X84536010Y-122115411D01*
X84698525Y-122358632D01*
X84905368Y-122565475D01*
X85079760Y-122682000D01*
X84905368Y-122798525D01*
X84698525Y-123005368D01*
X84536010Y-123248589D01*
X84424068Y-123518842D01*
X84367000Y-123805740D01*
X84367000Y-124098260D01*
X84424068Y-124385158D01*
X84536010Y-124655411D01*
X84698525Y-124898632D01*
X84905368Y-125105475D01*
X85079760Y-125222000D01*
X84905368Y-125338525D01*
X84698525Y-125545368D01*
X84536010Y-125788589D01*
X84424068Y-126058842D01*
X84367000Y-126345740D01*
X84367000Y-126638260D01*
X84424068Y-126925158D01*
X84536010Y-127195411D01*
X84698525Y-127438632D01*
X84905368Y-127645475D01*
X85079760Y-127762000D01*
X84905368Y-127878525D01*
X84698525Y-128085368D01*
X84536010Y-128328589D01*
X84424068Y-128598842D01*
X84367000Y-128885740D01*
X84367000Y-129178260D01*
X84424068Y-129465158D01*
X84536010Y-129735411D01*
X84698525Y-129978632D01*
X84905368Y-130185475D01*
X85079760Y-130302000D01*
X84905368Y-130418525D01*
X84698525Y-130625368D01*
X84536010Y-130868589D01*
X84424068Y-131138842D01*
X84367000Y-131425740D01*
X84367000Y-131718260D01*
X84424068Y-132005158D01*
X84536010Y-132275411D01*
X84698525Y-132518632D01*
X84905368Y-132725475D01*
X85079760Y-132842000D01*
X84905368Y-132958525D01*
X84698525Y-133165368D01*
X84536010Y-133408589D01*
X84424068Y-133678842D01*
X84367000Y-133965740D01*
X84367000Y-134258260D01*
X84424068Y-134545158D01*
X84536010Y-134815411D01*
X84698525Y-135058632D01*
X84905368Y-135265475D01*
X85079760Y-135382000D01*
X84905368Y-135498525D01*
X84786893Y-135617000D01*
X84378835Y-135617000D01*
X84328000Y-135611993D01*
X84277165Y-135617000D01*
X84277162Y-135617000D01*
X84125105Y-135631976D01*
X83930007Y-135691159D01*
X83906571Y-135703686D01*
X83750202Y-135787266D01*
X83632092Y-135884197D01*
X83592604Y-135916604D01*
X83560197Y-135956092D01*
X81854092Y-137662198D01*
X81814605Y-137694604D01*
X81782198Y-137734092D01*
X81782197Y-137734093D01*
X81685266Y-137852203D01*
X81589160Y-138032007D01*
X81529977Y-138227105D01*
X81509994Y-138430000D01*
X80660000Y-138430000D01*
X80660000Y-100242000D01*
X84363928Y-100242000D01*
X84363928Y-101942000D01*
X84376188Y-102066482D01*
X84412498Y-102186180D01*
X84471463Y-102296494D01*
X84550815Y-102393185D01*
X84647506Y-102472537D01*
X84757820Y-102531502D01*
X84838466Y-102555966D01*
X84754412Y-102631731D01*
X84580359Y-102865080D01*
X84455175Y-103127901D01*
X84410524Y-103275110D01*
X84531845Y-103505000D01*
X85725000Y-103505000D01*
X85725000Y-103485000D01*
X85979000Y-103485000D01*
X85979000Y-103505000D01*
X87172155Y-103505000D01*
X87293476Y-103275110D01*
X87248825Y-103127901D01*
X87123641Y-102865080D01*
X86949588Y-102631731D01*
X86865534Y-102555966D01*
X86946180Y-102531502D01*
X87056494Y-102472537D01*
X87153185Y-102393185D01*
X87232537Y-102296494D01*
X87291502Y-102186180D01*
X87327812Y-102066482D01*
X87340072Y-101942000D01*
X87340072Y-101455040D01*
X91488091Y-101455040D01*
X91582930Y-101719881D01*
X91727615Y-101961131D01*
X91916586Y-102169519D01*
X92142580Y-102337037D01*
X92396913Y-102457246D01*
X92530961Y-102497904D01*
X92753000Y-102375915D01*
X92753000Y-101233000D01*
X93007000Y-101233000D01*
X93007000Y-102375915D01*
X93229039Y-102497904D01*
X93363087Y-102457246D01*
X93617420Y-102337037D01*
X93843414Y-102169519D01*
X94032385Y-101961131D01*
X94177070Y-101719881D01*
X94271909Y-101455040D01*
X94150624Y-101233000D01*
X93007000Y-101233000D01*
X92753000Y-101233000D01*
X91609376Y-101233000D01*
X91488091Y-101455040D01*
X87340072Y-101455040D01*
X87340072Y-100756960D01*
X91488091Y-100756960D01*
X91609376Y-100979000D01*
X92753000Y-100979000D01*
X92753000Y-99836085D01*
X93007000Y-99836085D01*
X93007000Y-100979000D01*
X94150624Y-100979000D01*
X94271909Y-100756960D01*
X94177070Y-100492119D01*
X94032385Y-100250869D01*
X93843414Y-100042481D01*
X93617420Y-99874963D01*
X93363087Y-99754754D01*
X93229039Y-99714096D01*
X93007000Y-99836085D01*
X92753000Y-99836085D01*
X92530961Y-99714096D01*
X92396913Y-99754754D01*
X92142580Y-99874963D01*
X91916586Y-100042481D01*
X91727615Y-100250869D01*
X91582930Y-100492119D01*
X91488091Y-100756960D01*
X87340072Y-100756960D01*
X87340072Y-100242000D01*
X87327812Y-100117518D01*
X87291502Y-99997820D01*
X87232537Y-99887506D01*
X87153185Y-99790815D01*
X87056494Y-99711463D01*
X86946180Y-99652498D01*
X86826482Y-99616188D01*
X86702000Y-99603928D01*
X85002000Y-99603928D01*
X84877518Y-99616188D01*
X84757820Y-99652498D01*
X84647506Y-99711463D01*
X84550815Y-99790815D01*
X84471463Y-99887506D01*
X84412498Y-99997820D01*
X84376188Y-100117518D01*
X84363928Y-100242000D01*
X80660000Y-100242000D01*
X80660000Y-95660000D01*
X134340000Y-95660000D01*
X134340001Y-171323000D01*
G36*
X117414658Y-152814815D02*
G01*
X117439236Y-152844764D01*
X117469184Y-152869342D01*
X117469187Y-152869345D01*
X117498559Y-152893450D01*
X117558767Y-152942862D01*
X117695140Y-153015754D01*
X117843112Y-153060641D01*
X117854555Y-153061768D01*
X117958439Y-153072000D01*
X117958446Y-153072000D01*
X117996999Y-153075797D01*
X118035552Y-153072000D01*
X122077364Y-153072000D01*
X122147880Y-153177535D01*
X122342465Y-153372120D01*
X122571273Y-153525005D01*
X122648515Y-153557000D01*
X122571273Y-153588995D01*
X122342465Y-153741880D01*
X122147880Y-153936465D01*
X121994995Y-154165273D01*
X121889686Y-154419510D01*
X121836000Y-154689408D01*
X121836000Y-154964592D01*
X121889686Y-155234490D01*
X121994995Y-155488727D01*
X122147880Y-155717535D01*
X122342465Y-155912120D01*
X122571273Y-156065005D01*
X122648515Y-156097000D01*
X122571273Y-156128995D01*
X122342465Y-156281880D01*
X122147880Y-156476465D01*
X121994995Y-156705273D01*
X121889686Y-156959510D01*
X121836000Y-157229408D01*
X121836000Y-157504592D01*
X121889686Y-157774490D01*
X121994995Y-158028727D01*
X122147880Y-158257535D01*
X122342465Y-158452120D01*
X122571273Y-158605005D01*
X122648515Y-158637000D01*
X122571273Y-158668995D01*
X122342465Y-158821880D01*
X122147880Y-159016465D01*
X121994995Y-159245273D01*
X121889686Y-159499510D01*
X121836000Y-159769408D01*
X121836000Y-160044592D01*
X121873676Y-160234001D01*
X119434159Y-160234001D01*
X111115157Y-151915000D01*
X116514843Y-151915000D01*
X117414658Y-152814815D01*
G37*
X117414658Y-152814815D02*
X117439236Y-152844764D01*
X117469184Y-152869342D01*
X117469187Y-152869345D01*
X117498559Y-152893450D01*
X117558767Y-152942862D01*
X117695140Y-153015754D01*
X117843112Y-153060641D01*
X117854555Y-153061768D01*
X117958439Y-153072000D01*
X117958446Y-153072000D01*
X117996999Y-153075797D01*
X118035552Y-153072000D01*
X122077364Y-153072000D01*
X122147880Y-153177535D01*
X122342465Y-153372120D01*
X122571273Y-153525005D01*
X122648515Y-153557000D01*
X122571273Y-153588995D01*
X122342465Y-153741880D01*
X122147880Y-153936465D01*
X121994995Y-154165273D01*
X121889686Y-154419510D01*
X121836000Y-154689408D01*
X121836000Y-154964592D01*
X121889686Y-155234490D01*
X121994995Y-155488727D01*
X122147880Y-155717535D01*
X122342465Y-155912120D01*
X122571273Y-156065005D01*
X122648515Y-156097000D01*
X122571273Y-156128995D01*
X122342465Y-156281880D01*
X122147880Y-156476465D01*
X121994995Y-156705273D01*
X121889686Y-156959510D01*
X121836000Y-157229408D01*
X121836000Y-157504592D01*
X121889686Y-157774490D01*
X121994995Y-158028727D01*
X122147880Y-158257535D01*
X122342465Y-158452120D01*
X122571273Y-158605005D01*
X122648515Y-158637000D01*
X122571273Y-158668995D01*
X122342465Y-158821880D01*
X122147880Y-159016465D01*
X121994995Y-159245273D01*
X121889686Y-159499510D01*
X121836000Y-159769408D01*
X121836000Y-160044592D01*
X121873676Y-160234001D01*
X119434159Y-160234001D01*
X111115157Y-151915000D01*
X116514843Y-151915000D01*
X117414658Y-152814815D01*
G36*
X95547000Y-150509000D02*
G01*
X95567000Y-150509000D01*
X95567000Y-150763000D01*
X95547000Y-150763000D01*
X95547000Y-151956155D01*
X95776890Y-152077476D01*
X95924099Y-152032825D01*
X96186920Y-151907641D01*
X96420269Y-151733588D01*
X96615178Y-151517355D01*
X96684805Y-151400466D01*
X96806525Y-151582632D01*
X97005001Y-151781108D01*
X97005000Y-154038924D01*
X94295797Y-156748127D01*
X94259853Y-156567426D01*
X94151680Y-156306273D01*
X93994637Y-156071241D01*
X93915000Y-155991604D01*
X93915000Y-152093454D01*
X93974180Y-152075502D01*
X94084494Y-152016537D01*
X94181185Y-151937185D01*
X94260537Y-151840494D01*
X94319502Y-151730180D01*
X94343966Y-151649534D01*
X94419731Y-151733588D01*
X94653080Y-151907641D01*
X94915901Y-152032825D01*
X95063110Y-152077476D01*
X95293000Y-151956155D01*
X95293000Y-150763000D01*
X95273000Y-150763000D01*
X95273000Y-150509000D01*
X95293000Y-150509000D01*
X95293000Y-150489000D01*
X95547000Y-150489000D01*
X95547000Y-150509000D01*
G37*
X95547000Y-150509000D02*
X95567000Y-150509000D01*
X95567000Y-150763000D01*
X95547000Y-150763000D01*
X95547000Y-151956155D01*
X95776890Y-152077476D01*
X95924099Y-152032825D01*
X96186920Y-151907641D01*
X96420269Y-151733588D01*
X96615178Y-151517355D01*
X96684805Y-151400466D01*
X96806525Y-151582632D01*
X97005001Y-151781108D01*
X97005000Y-154038924D01*
X94295797Y-156748127D01*
X94259853Y-156567426D01*
X94151680Y-156306273D01*
X93994637Y-156071241D01*
X93915000Y-155991604D01*
X93915000Y-152093454D01*
X93974180Y-152075502D01*
X94084494Y-152016537D01*
X94181185Y-151937185D01*
X94260537Y-151840494D01*
X94319502Y-151730180D01*
X94343966Y-151649534D01*
X94419731Y-151733588D01*
X94653080Y-151907641D01*
X94915901Y-152032825D01*
X95063110Y-152077476D01*
X95293000Y-151956155D01*
X95293000Y-150763000D01*
X95273000Y-150763000D01*
X95273000Y-150509000D01*
X95293000Y-150509000D01*
X95293000Y-150489000D01*
X95547000Y-150489000D01*
X95547000Y-150509000D01*
G36*
X121889686Y-131559510D02*
G01*
X121836000Y-131829408D01*
X121836000Y-132104592D01*
X121889686Y-132374490D01*
X121994995Y-132628727D01*
X122147880Y-132857535D01*
X122342465Y-133052120D01*
X122571273Y-133205005D01*
X122648515Y-133237000D01*
X122571273Y-133268995D01*
X122342465Y-133421880D01*
X122147880Y-133616465D01*
X121994995Y-133845273D01*
X121889686Y-134099510D01*
X121836000Y-134369408D01*
X121836000Y-134644592D01*
X121889686Y-134914490D01*
X121994995Y-135168727D01*
X122147880Y-135397535D01*
X122342465Y-135592120D01*
X122571273Y-135745005D01*
X122648515Y-135777000D01*
X122571273Y-135808995D01*
X122342465Y-135961880D01*
X122147880Y-136156465D01*
X121994995Y-136385273D01*
X121889686Y-136639510D01*
X121836000Y-136909408D01*
X121836000Y-137184592D01*
X121889686Y-137454490D01*
X121994995Y-137708727D01*
X122147880Y-137937535D01*
X122342465Y-138132120D01*
X122571273Y-138285005D01*
X122648515Y-138317000D01*
X122571273Y-138348995D01*
X122342465Y-138501880D01*
X122147880Y-138696465D01*
X121994995Y-138925273D01*
X121889686Y-139179510D01*
X121836000Y-139449408D01*
X121836000Y-139724592D01*
X121889686Y-139994490D01*
X121994995Y-140248727D01*
X122147880Y-140477535D01*
X122342465Y-140672120D01*
X122571273Y-140825005D01*
X122648515Y-140857000D01*
X122571273Y-140888995D01*
X122342465Y-141041880D01*
X122147880Y-141236465D01*
X121994995Y-141465273D01*
X121889686Y-141719510D01*
X121836000Y-141989408D01*
X121836000Y-142264592D01*
X121889686Y-142534490D01*
X121994995Y-142788727D01*
X122147880Y-143017535D01*
X122342465Y-143212120D01*
X122571273Y-143365005D01*
X122648515Y-143397000D01*
X122571273Y-143428995D01*
X122342465Y-143581880D01*
X122147880Y-143776465D01*
X122099311Y-143849153D01*
X116605000Y-138354843D01*
X116605000Y-138328061D01*
X116565226Y-138128102D01*
X116487205Y-137939744D01*
X116373937Y-137770226D01*
X116229774Y-137626063D01*
X116060256Y-137512795D01*
X115871898Y-137434774D01*
X115671939Y-137395000D01*
X115468061Y-137395000D01*
X115268102Y-137434774D01*
X115079744Y-137512795D01*
X114910226Y-137626063D01*
X114766063Y-137770226D01*
X114652795Y-137939744D01*
X114574774Y-138128102D01*
X114535000Y-138328061D01*
X114535000Y-138531939D01*
X114574774Y-138731898D01*
X114652795Y-138920256D01*
X114766063Y-139089774D01*
X114910226Y-139233937D01*
X115079744Y-139347205D01*
X115268102Y-139425226D01*
X115468061Y-139465000D01*
X115494843Y-139465000D01*
X121224658Y-145194816D01*
X121249236Y-145224764D01*
X121279184Y-145249342D01*
X121279187Y-145249345D01*
X121285030Y-145254140D01*
X121368767Y-145322862D01*
X121502117Y-145394138D01*
X121505140Y-145395754D01*
X121653113Y-145440642D01*
X121728026Y-145448020D01*
X121768439Y-145452000D01*
X121768444Y-145452000D01*
X121807000Y-145455797D01*
X121845555Y-145452000D01*
X122077364Y-145452000D01*
X122147880Y-145557535D01*
X122342465Y-145752120D01*
X122571273Y-145905005D01*
X122648515Y-145937000D01*
X122571273Y-145968995D01*
X122342465Y-146121880D01*
X122147880Y-146316465D01*
X121994995Y-146545273D01*
X121889686Y-146799510D01*
X121836000Y-147069408D01*
X121836000Y-147344592D01*
X121889686Y-147614490D01*
X121994995Y-147868727D01*
X122147880Y-148097535D01*
X122342465Y-148292120D01*
X122571273Y-148445005D01*
X122648515Y-148477000D01*
X122571273Y-148508995D01*
X122342465Y-148661880D01*
X122147880Y-148856465D01*
X121994995Y-149085273D01*
X121889686Y-149339510D01*
X121836000Y-149609408D01*
X121836000Y-149884592D01*
X121889686Y-150154490D01*
X121968598Y-150345000D01*
X118943158Y-150345000D01*
X118184347Y-149586190D01*
X118159764Y-149556236D01*
X118040233Y-149458138D01*
X117903860Y-149385246D01*
X117755887Y-149340359D01*
X117640561Y-149329000D01*
X117640553Y-149329000D01*
X117602000Y-149325203D01*
X117563447Y-149329000D01*
X111069158Y-149329000D01*
X110513000Y-148772843D01*
X110513000Y-145580556D01*
X110516797Y-145542000D01*
X110513000Y-145503440D01*
X110513000Y-145503439D01*
X110506815Y-145440641D01*
X110501642Y-145388113D01*
X110456754Y-145240140D01*
X110448535Y-145224764D01*
X110383862Y-145103767D01*
X110285764Y-144984236D01*
X110255811Y-144959654D01*
X109435347Y-144139190D01*
X109410764Y-144109236D01*
X109291233Y-144011138D01*
X109203641Y-143964319D01*
X109078120Y-143776465D01*
X108883535Y-143581880D01*
X108654727Y-143428995D01*
X108577485Y-143397000D01*
X108654727Y-143365005D01*
X108883535Y-143212120D01*
X109078120Y-143017535D01*
X109231005Y-142788727D01*
X109336314Y-142534490D01*
X109390000Y-142264592D01*
X109390000Y-141989408D01*
X109336314Y-141719510D01*
X109231005Y-141465273D01*
X109078120Y-141236465D01*
X108883535Y-141041880D01*
X108654727Y-140888995D01*
X108577485Y-140857000D01*
X108654727Y-140825005D01*
X108883535Y-140672120D01*
X109078120Y-140477535D01*
X109231005Y-140248727D01*
X109336314Y-139994490D01*
X109390000Y-139724592D01*
X109390000Y-139449408D01*
X109336314Y-139179510D01*
X109231005Y-138925273D01*
X109078120Y-138696465D01*
X108883535Y-138501880D01*
X108654727Y-138348995D01*
X108577485Y-138317000D01*
X108654727Y-138285005D01*
X108883535Y-138132120D01*
X109078120Y-137937535D01*
X109231005Y-137708727D01*
X109336314Y-137454490D01*
X109390000Y-137184592D01*
X109390000Y-136909408D01*
X109336314Y-136639510D01*
X109231005Y-136385273D01*
X109078120Y-136156465D01*
X108883535Y-135961880D01*
X108654727Y-135808995D01*
X108577485Y-135777000D01*
X108654727Y-135745005D01*
X108883535Y-135592120D01*
X109078120Y-135397535D01*
X109231005Y-135168727D01*
X109336314Y-134914490D01*
X109390000Y-134644592D01*
X109390000Y-134369408D01*
X109336314Y-134099510D01*
X109231005Y-133845273D01*
X109078120Y-133616465D01*
X108883535Y-133421880D01*
X108654727Y-133268995D01*
X108577485Y-133237000D01*
X108654727Y-133205005D01*
X108883535Y-133052120D01*
X109078120Y-132857535D01*
X109231005Y-132628727D01*
X109336314Y-132374490D01*
X109390000Y-132104592D01*
X109390000Y-131829408D01*
X109336314Y-131559510D01*
X109238762Y-131324001D01*
X121987238Y-131324001D01*
X121889686Y-131559510D01*
G37*
X121889686Y-131559510D02*
X121836000Y-131829408D01*
X121836000Y-132104592D01*
X121889686Y-132374490D01*
X121994995Y-132628727D01*
X122147880Y-132857535D01*
X122342465Y-133052120D01*
X122571273Y-133205005D01*
X122648515Y-133237000D01*
X122571273Y-133268995D01*
X122342465Y-133421880D01*
X122147880Y-133616465D01*
X121994995Y-133845273D01*
X121889686Y-134099510D01*
X121836000Y-134369408D01*
X121836000Y-134644592D01*
X121889686Y-134914490D01*
X121994995Y-135168727D01*
X122147880Y-135397535D01*
X122342465Y-135592120D01*
X122571273Y-135745005D01*
X122648515Y-135777000D01*
X122571273Y-135808995D01*
X122342465Y-135961880D01*
X122147880Y-136156465D01*
X121994995Y-136385273D01*
X121889686Y-136639510D01*
X121836000Y-136909408D01*
X121836000Y-137184592D01*
X121889686Y-137454490D01*
X121994995Y-137708727D01*
X122147880Y-137937535D01*
X122342465Y-138132120D01*
X122571273Y-138285005D01*
X122648515Y-138317000D01*
X122571273Y-138348995D01*
X122342465Y-138501880D01*
X122147880Y-138696465D01*
X121994995Y-138925273D01*
X121889686Y-139179510D01*
X121836000Y-139449408D01*
X121836000Y-139724592D01*
X121889686Y-139994490D01*
X121994995Y-140248727D01*
X122147880Y-140477535D01*
X122342465Y-140672120D01*
X122571273Y-140825005D01*
X122648515Y-140857000D01*
X122571273Y-140888995D01*
X122342465Y-141041880D01*
X122147880Y-141236465D01*
X121994995Y-141465273D01*
X121889686Y-141719510D01*
X121836000Y-141989408D01*
X121836000Y-142264592D01*
X121889686Y-142534490D01*
X121994995Y-142788727D01*
X122147880Y-143017535D01*
X122342465Y-143212120D01*
X122571273Y-143365005D01*
X122648515Y-143397000D01*
X122571273Y-143428995D01*
X122342465Y-143581880D01*
X122147880Y-143776465D01*
X122099311Y-143849153D01*
X116605000Y-138354843D01*
X116605000Y-138328061D01*
X116565226Y-138128102D01*
X116487205Y-137939744D01*
X116373937Y-137770226D01*
X116229774Y-137626063D01*
X116060256Y-137512795D01*
X115871898Y-137434774D01*
X115671939Y-137395000D01*
X115468061Y-137395000D01*
X115268102Y-137434774D01*
X115079744Y-137512795D01*
X114910226Y-137626063D01*
X114766063Y-137770226D01*
X114652795Y-137939744D01*
X114574774Y-138128102D01*
X114535000Y-138328061D01*
X114535000Y-138531939D01*
X114574774Y-138731898D01*
X114652795Y-138920256D01*
X114766063Y-139089774D01*
X114910226Y-139233937D01*
X115079744Y-139347205D01*
X115268102Y-139425226D01*
X115468061Y-139465000D01*
X115494843Y-139465000D01*
X121224658Y-145194816D01*
X121249236Y-145224764D01*
X121279184Y-145249342D01*
X121279187Y-145249345D01*
X121285030Y-145254140D01*
X121368767Y-145322862D01*
X121502117Y-145394138D01*
X121505140Y-145395754D01*
X121653113Y-145440642D01*
X121728026Y-145448020D01*
X121768439Y-145452000D01*
X121768444Y-145452000D01*
X121807000Y-145455797D01*
X121845555Y-145452000D01*
X122077364Y-145452000D01*
X122147880Y-145557535D01*
X122342465Y-145752120D01*
X122571273Y-145905005D01*
X122648515Y-145937000D01*
X122571273Y-145968995D01*
X122342465Y-146121880D01*
X122147880Y-146316465D01*
X121994995Y-146545273D01*
X121889686Y-146799510D01*
X121836000Y-147069408D01*
X121836000Y-147344592D01*
X121889686Y-147614490D01*
X121994995Y-147868727D01*
X122147880Y-148097535D01*
X122342465Y-148292120D01*
X122571273Y-148445005D01*
X122648515Y-148477000D01*
X122571273Y-148508995D01*
X122342465Y-148661880D01*
X122147880Y-148856465D01*
X121994995Y-149085273D01*
X121889686Y-149339510D01*
X121836000Y-149609408D01*
X121836000Y-149884592D01*
X121889686Y-150154490D01*
X121968598Y-150345000D01*
X118943158Y-150345000D01*
X118184347Y-149586190D01*
X118159764Y-149556236D01*
X118040233Y-149458138D01*
X117903860Y-149385246D01*
X117755887Y-149340359D01*
X117640561Y-149329000D01*
X117640553Y-149329000D01*
X117602000Y-149325203D01*
X117563447Y-149329000D01*
X111069158Y-149329000D01*
X110513000Y-148772843D01*
X110513000Y-145580556D01*
X110516797Y-145542000D01*
X110513000Y-145503440D01*
X110513000Y-145503439D01*
X110506815Y-145440641D01*
X110501642Y-145388113D01*
X110456754Y-145240140D01*
X110448535Y-145224764D01*
X110383862Y-145103767D01*
X110285764Y-144984236D01*
X110255811Y-144959654D01*
X109435347Y-144139190D01*
X109410764Y-144109236D01*
X109291233Y-144011138D01*
X109203641Y-143964319D01*
X109078120Y-143776465D01*
X108883535Y-143581880D01*
X108654727Y-143428995D01*
X108577485Y-143397000D01*
X108654727Y-143365005D01*
X108883535Y-143212120D01*
X109078120Y-143017535D01*
X109231005Y-142788727D01*
X109336314Y-142534490D01*
X109390000Y-142264592D01*
X109390000Y-141989408D01*
X109336314Y-141719510D01*
X109231005Y-141465273D01*
X109078120Y-141236465D01*
X108883535Y-141041880D01*
X108654727Y-140888995D01*
X108577485Y-140857000D01*
X108654727Y-140825005D01*
X108883535Y-140672120D01*
X109078120Y-140477535D01*
X109231005Y-140248727D01*
X109336314Y-139994490D01*
X109390000Y-139724592D01*
X109390000Y-139449408D01*
X109336314Y-139179510D01*
X109231005Y-138925273D01*
X109078120Y-138696465D01*
X108883535Y-138501880D01*
X108654727Y-138348995D01*
X108577485Y-138317000D01*
X108654727Y-138285005D01*
X108883535Y-138132120D01*
X109078120Y-137937535D01*
X109231005Y-137708727D01*
X109336314Y-137454490D01*
X109390000Y-137184592D01*
X109390000Y-136909408D01*
X109336314Y-136639510D01*
X109231005Y-136385273D01*
X109078120Y-136156465D01*
X108883535Y-135961880D01*
X108654727Y-135808995D01*
X108577485Y-135777000D01*
X108654727Y-135745005D01*
X108883535Y-135592120D01*
X109078120Y-135397535D01*
X109231005Y-135168727D01*
X109336314Y-134914490D01*
X109390000Y-134644592D01*
X109390000Y-134369408D01*
X109336314Y-134099510D01*
X109231005Y-133845273D01*
X109078120Y-133616465D01*
X108883535Y-133421880D01*
X108654727Y-133268995D01*
X108577485Y-133237000D01*
X108654727Y-133205005D01*
X108883535Y-133052120D01*
X109078120Y-132857535D01*
X109231005Y-132628727D01*
X109336314Y-132374490D01*
X109390000Y-132104592D01*
X109390000Y-131829408D01*
X109336314Y-131559510D01*
X109238762Y-131324001D01*
X121987238Y-131324001D01*
X121889686Y-131559510D01*
M02*
