M48
; DRILL file {KiCad (5.1.9)-1} date 07/28/21 14:55:49
; FORMAT={2:4/ absolute / inch / suppress leading zeros}
; #@! TF.CreationDate,2021-07-28T14:55:49+01:00
; #@! TF.GenerationSoftware,Kicad,Pcbnew,(5.1.9)-1
; #@! TF.FileFunction,Plated,1,2,PTH
FMAT,2
INCH,TZ
T1C0.0157
T2C0.0300
T3C0.0315
T4C0.0394
T5C0.0433
%
G90
G05
T1
X52756Y-17323
X57480Y-29921
X59055Y-23622
X66535Y-17717
X71018Y-29234
X73055Y-23843
X80315Y-36220
T2
X54150Y-20622
X54150Y-26622
X55150Y-20622
X55150Y-26622
X56150Y-20622
X56150Y-26622
X57150Y-20622
X57150Y-26622
X58150Y-20622
X58150Y-26622
X59150Y-20622
X59150Y-26622
X60150Y-20622
X60150Y-26622
X61150Y-20622
X61150Y-26622
X62150Y-20622
X62150Y-26622
X63150Y-20622
X63150Y-26622
X64150Y-20622
X64150Y-26622
X65150Y-20622
X65150Y-26622
X66150Y-20622
X66150Y-26622
X67150Y-20622
X67150Y-26622
X68150Y-20622
X68150Y-26622
X69150Y-20622
X69150Y-26622
X70150Y-20622
X70150Y-26622
X71150Y-20622
X71150Y-26622
X72150Y-20622
X72150Y-26622
X73150Y-20622
X73150Y-26622
X76565Y-24984
X77615Y-24984
X78921Y-20810
X78921Y-21860
T3
X62205Y-31890
X62205Y-34890
X63780Y-31890
X63780Y-34890
X65354Y-31890
X65354Y-32890
X65354Y-33890
X65354Y-34890
X66339Y-30315
X67323Y-30315
X68354Y-31890
X68354Y-32890
X68354Y-33890
X68354Y-34890
X70079Y-31890
X70079Y-34890
X71654Y-31890
X71654Y-34890
X73228Y-31890
X73228Y-32890
X73228Y-33890
X73228Y-34890
X76228Y-31890
X76228Y-32890
X76228Y-33890
X76228Y-34890
X77953Y-31890
X77953Y-34890
T4
X53937Y-29858
X53937Y-30858
X53937Y-31858
X53937Y-32858
X53937Y-33858
X56200Y-33400
X58169Y-33400
X59843Y-17323
X60236Y-30646
X60236Y-31646
X60236Y-32646
X60236Y-33646
X60236Y-34646
X60843Y-17323
X61843Y-17323
T5
X75591Y-27165
X76740Y-29134
X77165Y-20441
X77165Y-21441
X77165Y-22441
X77740Y-29134
X78740Y-29134
X79591Y-27165
T0
M30
