G04 #@! TF.GenerationSoftware,KiCad,Pcbnew,(5.1.9)-1*
G04 #@! TF.CreationDate,2021-07-28T14:53:51+01:00*
G04 #@! TF.ProjectId,Autocroft_node,4175746f-6372-46f6-9674-5f6e6f64652e,rev?*
G04 #@! TF.SameCoordinates,Original*
G04 #@! TF.FileFunction,Legend,Top*
G04 #@! TF.FilePolarity,Positive*
%FSLAX46Y46*%
G04 Gerber Fmt 4.6, Leading zero omitted, Abs format (unit mm)*
G04 Created by KiCad (PCBNEW (5.1.9)-1) date 2021-07-28 14:53:51*
%MOMM*%
%LPD*%
G01*
G04 APERTURE LIST*
%ADD10C,0.150000*%
%ADD11C,0.120000*%
G04 APERTURE END LIST*
D10*
X202951127Y-55557728D02*
X203713032Y-55557728D01*
X203332080Y-55938680D02*
X203332080Y-55176776D01*
X202951127Y-52664668D02*
X203713032Y-52664668D01*
D11*
X138330000Y-84730000D02*
X135670000Y-84730000D01*
X138330000Y-84730000D02*
X138330000Y-74510000D01*
X138330000Y-74510000D02*
X135670000Y-74510000D01*
X135670000Y-84730000D02*
X135670000Y-74510000D01*
X135670000Y-87330000D02*
X135670000Y-86000000D01*
X137000000Y-87330000D02*
X135670000Y-87330000D01*
X201730000Y-51460000D02*
X201730000Y-56667000D01*
X199444000Y-51460000D02*
X201730000Y-51460000D01*
X199444000Y-56667000D02*
X199444000Y-51460000D01*
X201603000Y-56667000D02*
X199444000Y-56667000D01*
X150368000Y-84836000D02*
G75*
G03*
X150368000Y-84836000I-5120000J0D01*
G01*
X145248000Y-79756000D02*
X145248000Y-89916000D01*
X145288000Y-79756000D02*
X145288000Y-89916000D01*
X145328000Y-79756000D02*
X145328000Y-89916000D01*
X145368000Y-79757000D02*
X145368000Y-89915000D01*
X145408000Y-79758000D02*
X145408000Y-89914000D01*
X145448000Y-79759000D02*
X145448000Y-89913000D01*
X145488000Y-79761000D02*
X145488000Y-89911000D01*
X145528000Y-79763000D02*
X145528000Y-89909000D01*
X145568000Y-79766000D02*
X145568000Y-89906000D01*
X145608000Y-79768000D02*
X145608000Y-89904000D01*
X145648000Y-79771000D02*
X145648000Y-89901000D01*
X145688000Y-79774000D02*
X145688000Y-89898000D01*
X145728000Y-79778000D02*
X145728000Y-89894000D01*
X145768000Y-79782000D02*
X145768000Y-89890000D01*
X145808000Y-79786000D02*
X145808000Y-89886000D01*
X145848000Y-79791000D02*
X145848000Y-89881000D01*
X145888000Y-79796000D02*
X145888000Y-89876000D01*
X145928000Y-79801000D02*
X145928000Y-89871000D01*
X145969000Y-79806000D02*
X145969000Y-89866000D01*
X146009000Y-79812000D02*
X146009000Y-89860000D01*
X146049000Y-79818000D02*
X146049000Y-89854000D01*
X146089000Y-79825000D02*
X146089000Y-89847000D01*
X146129000Y-79832000D02*
X146129000Y-89840000D01*
X146169000Y-79839000D02*
X146169000Y-89833000D01*
X146209000Y-79846000D02*
X146209000Y-89826000D01*
X146249000Y-79854000D02*
X146249000Y-89818000D01*
X146289000Y-79862000D02*
X146289000Y-89810000D01*
X146329000Y-79871000D02*
X146329000Y-89801000D01*
X146369000Y-79880000D02*
X146369000Y-89792000D01*
X146409000Y-79889000D02*
X146409000Y-89783000D01*
X146449000Y-79898000D02*
X146449000Y-89774000D01*
X146489000Y-79908000D02*
X146489000Y-89764000D01*
X146529000Y-79918000D02*
X146529000Y-83595000D01*
X146529000Y-86077000D02*
X146529000Y-89754000D01*
X146569000Y-79929000D02*
X146569000Y-83595000D01*
X146569000Y-86077000D02*
X146569000Y-89743000D01*
X146609000Y-79939000D02*
X146609000Y-83595000D01*
X146609000Y-86077000D02*
X146609000Y-89733000D01*
X146649000Y-79951000D02*
X146649000Y-83595000D01*
X146649000Y-86077000D02*
X146649000Y-89721000D01*
X146689000Y-79962000D02*
X146689000Y-83595000D01*
X146689000Y-86077000D02*
X146689000Y-89710000D01*
X146729000Y-79974000D02*
X146729000Y-83595000D01*
X146729000Y-86077000D02*
X146729000Y-89698000D01*
X146769000Y-79986000D02*
X146769000Y-83595000D01*
X146769000Y-86077000D02*
X146769000Y-89686000D01*
X146809000Y-79999000D02*
X146809000Y-83595000D01*
X146809000Y-86077000D02*
X146809000Y-89673000D01*
X146849000Y-80012000D02*
X146849000Y-83595000D01*
X146849000Y-86077000D02*
X146849000Y-89660000D01*
X146889000Y-80025000D02*
X146889000Y-83595000D01*
X146889000Y-86077000D02*
X146889000Y-89647000D01*
X146929000Y-80039000D02*
X146929000Y-83595000D01*
X146929000Y-86077000D02*
X146929000Y-89633000D01*
X146969000Y-80053000D02*
X146969000Y-83595000D01*
X146969000Y-86077000D02*
X146969000Y-89619000D01*
X147009000Y-80068000D02*
X147009000Y-83595000D01*
X147009000Y-86077000D02*
X147009000Y-89604000D01*
X147049000Y-80082000D02*
X147049000Y-83595000D01*
X147049000Y-86077000D02*
X147049000Y-89590000D01*
X147089000Y-80098000D02*
X147089000Y-83595000D01*
X147089000Y-86077000D02*
X147089000Y-89574000D01*
X147129000Y-80113000D02*
X147129000Y-83595000D01*
X147129000Y-86077000D02*
X147129000Y-89559000D01*
X147169000Y-80129000D02*
X147169000Y-83595000D01*
X147169000Y-86077000D02*
X147169000Y-89543000D01*
X147209000Y-80146000D02*
X147209000Y-83595000D01*
X147209000Y-86077000D02*
X147209000Y-89526000D01*
X147249000Y-80162000D02*
X147249000Y-83595000D01*
X147249000Y-86077000D02*
X147249000Y-89510000D01*
X147289000Y-80179000D02*
X147289000Y-83595000D01*
X147289000Y-86077000D02*
X147289000Y-89493000D01*
X147329000Y-80197000D02*
X147329000Y-83595000D01*
X147329000Y-86077000D02*
X147329000Y-89475000D01*
X147369000Y-80215000D02*
X147369000Y-83595000D01*
X147369000Y-86077000D02*
X147369000Y-89457000D01*
X147409000Y-80233000D02*
X147409000Y-83595000D01*
X147409000Y-86077000D02*
X147409000Y-89439000D01*
X147449000Y-80252000D02*
X147449000Y-83595000D01*
X147449000Y-86077000D02*
X147449000Y-89420000D01*
X147489000Y-80272000D02*
X147489000Y-83595000D01*
X147489000Y-86077000D02*
X147489000Y-89400000D01*
X147529000Y-80291000D02*
X147529000Y-83595000D01*
X147529000Y-86077000D02*
X147529000Y-89381000D01*
X147569000Y-80311000D02*
X147569000Y-83595000D01*
X147569000Y-86077000D02*
X147569000Y-89361000D01*
X147609000Y-80332000D02*
X147609000Y-83595000D01*
X147609000Y-86077000D02*
X147609000Y-89340000D01*
X147649000Y-80353000D02*
X147649000Y-83595000D01*
X147649000Y-86077000D02*
X147649000Y-89319000D01*
X147689000Y-80374000D02*
X147689000Y-83595000D01*
X147689000Y-86077000D02*
X147689000Y-89298000D01*
X147729000Y-80396000D02*
X147729000Y-83595000D01*
X147729000Y-86077000D02*
X147729000Y-89276000D01*
X147769000Y-80419000D02*
X147769000Y-83595000D01*
X147769000Y-86077000D02*
X147769000Y-89253000D01*
X147809000Y-80441000D02*
X147809000Y-83595000D01*
X147809000Y-86077000D02*
X147809000Y-89231000D01*
X147849000Y-80465000D02*
X147849000Y-83595000D01*
X147849000Y-86077000D02*
X147849000Y-89207000D01*
X147889000Y-80489000D02*
X147889000Y-83595000D01*
X147889000Y-86077000D02*
X147889000Y-89183000D01*
X147929000Y-80513000D02*
X147929000Y-83595000D01*
X147929000Y-86077000D02*
X147929000Y-89159000D01*
X147969000Y-80538000D02*
X147969000Y-83595000D01*
X147969000Y-86077000D02*
X147969000Y-89134000D01*
X148009000Y-80563000D02*
X148009000Y-83595000D01*
X148009000Y-86077000D02*
X148009000Y-89109000D01*
X148049000Y-80589000D02*
X148049000Y-83595000D01*
X148049000Y-86077000D02*
X148049000Y-89083000D01*
X148089000Y-80615000D02*
X148089000Y-83595000D01*
X148089000Y-86077000D02*
X148089000Y-89057000D01*
X148129000Y-80642000D02*
X148129000Y-83595000D01*
X148129000Y-86077000D02*
X148129000Y-89030000D01*
X148169000Y-80670000D02*
X148169000Y-83595000D01*
X148169000Y-86077000D02*
X148169000Y-89002000D01*
X148209000Y-80698000D02*
X148209000Y-83595000D01*
X148209000Y-86077000D02*
X148209000Y-88974000D01*
X148249000Y-80726000D02*
X148249000Y-83595000D01*
X148249000Y-86077000D02*
X148249000Y-88946000D01*
X148289000Y-80756000D02*
X148289000Y-83595000D01*
X148289000Y-86077000D02*
X148289000Y-88916000D01*
X148329000Y-80786000D02*
X148329000Y-83595000D01*
X148329000Y-86077000D02*
X148329000Y-88886000D01*
X148369000Y-80816000D02*
X148369000Y-83595000D01*
X148369000Y-86077000D02*
X148369000Y-88856000D01*
X148409000Y-80847000D02*
X148409000Y-83595000D01*
X148409000Y-86077000D02*
X148409000Y-88825000D01*
X148449000Y-80879000D02*
X148449000Y-83595000D01*
X148449000Y-86077000D02*
X148449000Y-88793000D01*
X148489000Y-80911000D02*
X148489000Y-83595000D01*
X148489000Y-86077000D02*
X148489000Y-88761000D01*
X148529000Y-80944000D02*
X148529000Y-83595000D01*
X148529000Y-86077000D02*
X148529000Y-88728000D01*
X148569000Y-80978000D02*
X148569000Y-83595000D01*
X148569000Y-86077000D02*
X148569000Y-88694000D01*
X148609000Y-81012000D02*
X148609000Y-83595000D01*
X148609000Y-86077000D02*
X148609000Y-88660000D01*
X148649000Y-81047000D02*
X148649000Y-83595000D01*
X148649000Y-86077000D02*
X148649000Y-88625000D01*
X148689000Y-81083000D02*
X148689000Y-83595000D01*
X148689000Y-86077000D02*
X148689000Y-88589000D01*
X148729000Y-81120000D02*
X148729000Y-83595000D01*
X148729000Y-86077000D02*
X148729000Y-88552000D01*
X148769000Y-81157000D02*
X148769000Y-83595000D01*
X148769000Y-86077000D02*
X148769000Y-88515000D01*
X148809000Y-81196000D02*
X148809000Y-83595000D01*
X148809000Y-86077000D02*
X148809000Y-88476000D01*
X148849000Y-81235000D02*
X148849000Y-83595000D01*
X148849000Y-86077000D02*
X148849000Y-88437000D01*
X148889000Y-81275000D02*
X148889000Y-83595000D01*
X148889000Y-86077000D02*
X148889000Y-88397000D01*
X148929000Y-81316000D02*
X148929000Y-83595000D01*
X148929000Y-86077000D02*
X148929000Y-88356000D01*
X148969000Y-81358000D02*
X148969000Y-83595000D01*
X148969000Y-86077000D02*
X148969000Y-88314000D01*
X149009000Y-81400000D02*
X149009000Y-88272000D01*
X149049000Y-81444000D02*
X149049000Y-88228000D01*
X149089000Y-81489000D02*
X149089000Y-88183000D01*
X149129000Y-81535000D02*
X149129000Y-88137000D01*
X149169000Y-81582000D02*
X149169000Y-88090000D01*
X149209000Y-81630000D02*
X149209000Y-88042000D01*
X149249000Y-81680000D02*
X149249000Y-87992000D01*
X149289000Y-81730000D02*
X149289000Y-87942000D01*
X149329000Y-81782000D02*
X149329000Y-87890000D01*
X149369000Y-81836000D02*
X149369000Y-87836000D01*
X149409000Y-81891000D02*
X149409000Y-87781000D01*
X149449000Y-81947000D02*
X149449000Y-87725000D01*
X149489000Y-82006000D02*
X149489000Y-87666000D01*
X149529000Y-82066000D02*
X149529000Y-87606000D01*
X149569000Y-82127000D02*
X149569000Y-87545000D01*
X149609000Y-82191000D02*
X149609000Y-87481000D01*
X149649000Y-82257000D02*
X149649000Y-87415000D01*
X149689000Y-82326000D02*
X149689000Y-87346000D01*
X149729000Y-82397000D02*
X149729000Y-87275000D01*
X149769000Y-82471000D02*
X149769000Y-87201000D01*
X149809000Y-82547000D02*
X149809000Y-87125000D01*
X149849000Y-82627000D02*
X149849000Y-87045000D01*
X149889000Y-82711000D02*
X149889000Y-86961000D01*
X149929000Y-82799000D02*
X149929000Y-86873000D01*
X149969000Y-82892000D02*
X149969000Y-86780000D01*
X150009000Y-82990000D02*
X150009000Y-86682000D01*
X150049000Y-83094000D02*
X150049000Y-86578000D01*
X150089000Y-83206000D02*
X150089000Y-86466000D01*
X150129000Y-83326000D02*
X150129000Y-86346000D01*
X150169000Y-83458000D02*
X150169000Y-86214000D01*
X150209000Y-83606000D02*
X150209000Y-86066000D01*
X150249000Y-83774000D02*
X150249000Y-85898000D01*
X150289000Y-83974000D02*
X150289000Y-85698000D01*
X150329000Y-84237000D02*
X150329000Y-85435000D01*
X139768354Y-81961000D02*
X140768354Y-81961000D01*
X140268354Y-81461000D02*
X140268354Y-82461000D01*
X171370000Y-78120000D02*
X168130000Y-78120000D01*
X171370000Y-75880000D02*
X168130000Y-75880000D01*
X171370000Y-78120000D02*
X171370000Y-78055000D01*
X171370000Y-75945000D02*
X171370000Y-75880000D01*
X168130000Y-78120000D02*
X168130000Y-78055000D01*
X168130000Y-75945000D02*
X168130000Y-75880000D01*
X194360000Y-67530000D02*
X194360000Y-70470000D01*
X194360000Y-70470000D02*
X199800000Y-70470000D01*
X199800000Y-70470000D02*
X199800000Y-67530000D01*
X199800000Y-67530000D02*
X194360000Y-67530000D01*
X193340000Y-69000000D02*
X194360000Y-69000000D01*
X200820000Y-69000000D02*
X199800000Y-69000000D01*
X195260000Y-67530000D02*
X195260000Y-70470000D01*
X195380000Y-67530000D02*
X195380000Y-70470000D01*
X195140000Y-67530000D02*
X195140000Y-70470000D01*
X158410000Y-45330000D02*
X158410000Y-42670000D01*
X153270000Y-45330000D02*
X158410000Y-45330000D01*
X153270000Y-42670000D02*
X158410000Y-42670000D01*
X153270000Y-45330000D02*
X153270000Y-42670000D01*
X152000000Y-45330000D02*
X150670000Y-45330000D01*
X150670000Y-45330000D02*
X150670000Y-44000000D01*
X154330000Y-86730000D02*
X151670000Y-86730000D01*
X154330000Y-86730000D02*
X154330000Y-76510000D01*
X154330000Y-76510000D02*
X151670000Y-76510000D01*
X151670000Y-86730000D02*
X151670000Y-76510000D01*
X151670000Y-89330000D02*
X151670000Y-88000000D01*
X153000000Y-89330000D02*
X151670000Y-89330000D01*
X187070000Y-49840000D02*
X136270000Y-49840000D01*
X187070000Y-70160000D02*
X187070000Y-49840000D01*
X136270000Y-70160000D02*
X187070000Y-70160000D01*
X136270000Y-49840000D02*
X136270000Y-70160000D01*
X193333000Y-64603000D02*
X193333000Y-62444000D01*
X193333000Y-62444000D02*
X198540000Y-62444000D01*
X198540000Y-62444000D02*
X198540000Y-64730000D01*
X198540000Y-64730000D02*
X193333000Y-64730000D01*
X202580000Y-77270000D02*
X192340000Y-77270000D01*
X202580000Y-72629000D02*
X192340000Y-72629000D01*
X202580000Y-77270000D02*
X202580000Y-72629000D01*
X192340000Y-77270000D02*
X192340000Y-72629000D01*
X202580000Y-75760000D02*
X192340000Y-75760000D01*
X199310000Y-77270000D02*
X199310000Y-75760000D01*
X195609000Y-77270000D02*
X195609000Y-75760000D01*
X159040000Y-81540000D02*
X159370000Y-81540000D01*
X159370000Y-81540000D02*
X159370000Y-88080000D01*
X159370000Y-88080000D02*
X159040000Y-88080000D01*
X156960000Y-81540000D02*
X156630000Y-81540000D01*
X156630000Y-81540000D02*
X156630000Y-88080000D01*
X156630000Y-88080000D02*
X156960000Y-88080000D01*
X160630000Y-88080000D02*
X160960000Y-88080000D01*
X160630000Y-81540000D02*
X160630000Y-88080000D01*
X160960000Y-81540000D02*
X160630000Y-81540000D01*
X163370000Y-88080000D02*
X163040000Y-88080000D01*
X163370000Y-81540000D02*
X163370000Y-88080000D01*
X163040000Y-81540000D02*
X163370000Y-81540000D01*
X199040000Y-81540000D02*
X199370000Y-81540000D01*
X199370000Y-81540000D02*
X199370000Y-88080000D01*
X199370000Y-88080000D02*
X199040000Y-88080000D01*
X196960000Y-81540000D02*
X196630000Y-81540000D01*
X196630000Y-81540000D02*
X196630000Y-88080000D01*
X196630000Y-88080000D02*
X196960000Y-88080000D01*
X183040000Y-81540000D02*
X183370000Y-81540000D01*
X183370000Y-81540000D02*
X183370000Y-88080000D01*
X183370000Y-88080000D02*
X183040000Y-88080000D01*
X180960000Y-81540000D02*
X180630000Y-81540000D01*
X180630000Y-81540000D02*
X180630000Y-88080000D01*
X180630000Y-88080000D02*
X180960000Y-88080000D01*
X176630000Y-88080000D02*
X176960000Y-88080000D01*
X176630000Y-81540000D02*
X176630000Y-88080000D01*
X176960000Y-81540000D02*
X176630000Y-81540000D01*
X179370000Y-88080000D02*
X179040000Y-88080000D01*
X179370000Y-81540000D02*
X179370000Y-88080000D01*
X179040000Y-81540000D02*
X179370000Y-81540000D01*
X192730000Y-52609000D02*
X194240000Y-52609000D01*
X192730000Y-56310000D02*
X194240000Y-56310000D01*
X194240000Y-59580000D02*
X194240000Y-49340000D01*
X192730000Y-49340000D02*
X197371000Y-49340000D01*
X192730000Y-59580000D02*
X197371000Y-59580000D01*
X197371000Y-59580000D02*
X197371000Y-49340000D01*
X192730000Y-59580000D02*
X192730000Y-49340000D01*
X194950000Y-79610000D02*
X184670000Y-79610000D01*
X194950000Y-90010000D02*
X194950000Y-79610000D01*
X184670000Y-90010000D02*
X194950000Y-90010000D01*
X184670000Y-79610000D02*
X184670000Y-90010000D01*
X192460000Y-79670000D02*
X190810000Y-79670000D01*
X192460000Y-89950000D02*
X192460000Y-79670000D01*
X187160000Y-89950000D02*
X192460000Y-89950000D01*
X187160000Y-79670000D02*
X187160000Y-89950000D01*
X188810000Y-79670000D02*
X187160000Y-79670000D01*
X190810000Y-79670000D02*
G75*
G02*
X188810000Y-79670000I-1000000J0D01*
G01*
X168810000Y-79670000D02*
X167160000Y-79670000D01*
X167160000Y-79670000D02*
X167160000Y-89950000D01*
X167160000Y-89950000D02*
X172460000Y-89950000D01*
X172460000Y-89950000D02*
X172460000Y-79670000D01*
X172460000Y-79670000D02*
X170810000Y-79670000D01*
X164670000Y-79610000D02*
X164670000Y-90010000D01*
X164670000Y-90010000D02*
X174950000Y-90010000D01*
X174950000Y-90010000D02*
X174950000Y-79610000D01*
X174950000Y-79610000D02*
X164670000Y-79610000D01*
X170810000Y-79670000D02*
G75*
G02*
X168810000Y-79670000I-1000000J0D01*
G01*
D10*
X136666666Y-88222380D02*
X136666666Y-88936666D01*
X136619047Y-89079523D01*
X136523809Y-89174761D01*
X136380952Y-89222380D01*
X136285714Y-89222380D01*
X137047619Y-88222380D02*
X137666666Y-88222380D01*
X137333333Y-88603333D01*
X137476190Y-88603333D01*
X137571428Y-88650952D01*
X137619047Y-88698571D01*
X137666666Y-88793809D01*
X137666666Y-89031904D01*
X137619047Y-89127142D01*
X137571428Y-89174761D01*
X137476190Y-89222380D01*
X137190476Y-89222380D01*
X137095238Y-89174761D01*
X137047619Y-89127142D01*
X200214285Y-48928571D02*
X200357142Y-48976190D01*
X200404761Y-49023809D01*
X200452380Y-49119047D01*
X200452380Y-49261904D01*
X200404761Y-49357142D01*
X200357142Y-49404761D01*
X200261904Y-49452380D01*
X199880952Y-49452380D01*
X199880952Y-48452380D01*
X200214285Y-48452380D01*
X200309523Y-48500000D01*
X200357142Y-48547619D01*
X200404761Y-48642857D01*
X200404761Y-48738095D01*
X200357142Y-48833333D01*
X200309523Y-48880952D01*
X200214285Y-48928571D01*
X199880952Y-48928571D01*
X200738095Y-48452380D02*
X201309523Y-48452380D01*
X201023809Y-49452380D02*
X201023809Y-48452380D01*
X202166666Y-49452380D02*
X201595238Y-49452380D01*
X201880952Y-49452380D02*
X201880952Y-48452380D01*
X201785714Y-48595238D01*
X201690476Y-48690476D01*
X201595238Y-48738095D01*
X138581333Y-83193142D02*
X138533714Y-83240761D01*
X138390857Y-83288380D01*
X138295619Y-83288380D01*
X138152761Y-83240761D01*
X138057523Y-83145523D01*
X138009904Y-83050285D01*
X137962285Y-82859809D01*
X137962285Y-82716952D01*
X138009904Y-82526476D01*
X138057523Y-82431238D01*
X138152761Y-82336000D01*
X138295619Y-82288380D01*
X138390857Y-82288380D01*
X138533714Y-82336000D01*
X138581333Y-82383619D01*
X139533714Y-83288380D02*
X138962285Y-83288380D01*
X139248000Y-83288380D02*
X139248000Y-82288380D01*
X139152761Y-82431238D01*
X139057523Y-82526476D01*
X138962285Y-82574095D01*
X165833333Y-77357142D02*
X165785714Y-77404761D01*
X165642857Y-77452380D01*
X165547619Y-77452380D01*
X165404761Y-77404761D01*
X165309523Y-77309523D01*
X165261904Y-77214285D01*
X165214285Y-77023809D01*
X165214285Y-76880952D01*
X165261904Y-76690476D01*
X165309523Y-76595238D01*
X165404761Y-76500000D01*
X165547619Y-76452380D01*
X165642857Y-76452380D01*
X165785714Y-76500000D01*
X165833333Y-76547619D01*
X166214285Y-76547619D02*
X166261904Y-76500000D01*
X166357142Y-76452380D01*
X166595238Y-76452380D01*
X166690476Y-76500000D01*
X166738095Y-76547619D01*
X166785714Y-76642857D01*
X166785714Y-76738095D01*
X166738095Y-76880952D01*
X166166666Y-77452380D01*
X166785714Y-77452380D01*
X196341904Y-66982380D02*
X196341904Y-65982380D01*
X196580000Y-65982380D01*
X196722857Y-66030000D01*
X196818095Y-66125238D01*
X196865714Y-66220476D01*
X196913333Y-66410952D01*
X196913333Y-66553809D01*
X196865714Y-66744285D01*
X196818095Y-66839523D01*
X196722857Y-66934761D01*
X196580000Y-66982380D01*
X196341904Y-66982380D01*
X197865714Y-66982380D02*
X197294285Y-66982380D01*
X197580000Y-66982380D02*
X197580000Y-65982380D01*
X197484761Y-66125238D01*
X197389523Y-66220476D01*
X197294285Y-66268095D01*
X191738095Y-67352380D02*
X191738095Y-66352380D01*
X192309523Y-67352380D02*
X191880952Y-66780952D01*
X192309523Y-66352380D02*
X191738095Y-66923809D01*
X155470266Y-46328080D02*
X155470266Y-47042366D01*
X155422647Y-47185223D01*
X155327409Y-47280461D01*
X155184552Y-47328080D01*
X155089314Y-47328080D01*
X156470266Y-47328080D02*
X155898838Y-47328080D01*
X156184552Y-47328080D02*
X156184552Y-46328080D01*
X156089314Y-46470938D01*
X155994076Y-46566176D01*
X155898838Y-46613795D01*
X152666666Y-90222380D02*
X152666666Y-90936666D01*
X152619047Y-91079523D01*
X152523809Y-91174761D01*
X152380952Y-91222380D01*
X152285714Y-91222380D01*
X153095238Y-90317619D02*
X153142857Y-90270000D01*
X153238095Y-90222380D01*
X153476190Y-90222380D01*
X153571428Y-90270000D01*
X153619047Y-90317619D01*
X153666666Y-90412857D01*
X153666666Y-90508095D01*
X153619047Y-90650952D01*
X153047619Y-91222380D01*
X153666666Y-91222380D01*
X133452380Y-60333333D02*
X134166666Y-60333333D01*
X134309523Y-60380952D01*
X134404761Y-60476190D01*
X134452380Y-60619047D01*
X134452380Y-60714285D01*
X133785714Y-59428571D02*
X134452380Y-59428571D01*
X133404761Y-59666666D02*
X134119047Y-59904761D01*
X134119047Y-59285714D01*
X137500380Y-61261904D02*
X138309904Y-61261904D01*
X138405142Y-61214285D01*
X138452761Y-61166666D01*
X138500380Y-61071428D01*
X138500380Y-60880952D01*
X138452761Y-60785714D01*
X138405142Y-60738095D01*
X138309904Y-60690476D01*
X137500380Y-60690476D01*
X138452761Y-60261904D02*
X138500380Y-60119047D01*
X138500380Y-59880952D01*
X138452761Y-59785714D01*
X138405142Y-59738095D01*
X138309904Y-59690476D01*
X138214666Y-59690476D01*
X138119428Y-59738095D01*
X138071809Y-59785714D01*
X138024190Y-59880952D01*
X137976571Y-60071428D01*
X137928952Y-60166666D01*
X137881333Y-60214285D01*
X137786095Y-60261904D01*
X137690857Y-60261904D01*
X137595619Y-60214285D01*
X137548000Y-60166666D01*
X137500380Y-60071428D01*
X137500380Y-59833333D01*
X137548000Y-59690476D01*
X137976571Y-58928571D02*
X138024190Y-58785714D01*
X138071809Y-58738095D01*
X138167047Y-58690476D01*
X138309904Y-58690476D01*
X138405142Y-58738095D01*
X138452761Y-58785714D01*
X138500380Y-58880952D01*
X138500380Y-59261904D01*
X137500380Y-59261904D01*
X137500380Y-58928571D01*
X137548000Y-58833333D01*
X137595619Y-58785714D01*
X137690857Y-58738095D01*
X137786095Y-58738095D01*
X137881333Y-58785714D01*
X137928952Y-58833333D01*
X137976571Y-58928571D01*
X137976571Y-59261904D01*
X200833333Y-63452380D02*
X200357142Y-63452380D01*
X200357142Y-62452380D01*
X201690476Y-63452380D02*
X201119047Y-63452380D01*
X201404761Y-63452380D02*
X201404761Y-62452380D01*
X201309523Y-62595238D01*
X201214285Y-62690476D01*
X201119047Y-62738095D01*
X197364761Y-78817619D02*
X197269523Y-78770000D01*
X197174285Y-78674761D01*
X197031428Y-78531904D01*
X196936190Y-78484285D01*
X196840952Y-78484285D01*
X196888571Y-78722380D02*
X196793333Y-78674761D01*
X196698095Y-78579523D01*
X196650476Y-78389047D01*
X196650476Y-78055714D01*
X196698095Y-77865238D01*
X196793333Y-77770000D01*
X196888571Y-77722380D01*
X197079047Y-77722380D01*
X197174285Y-77770000D01*
X197269523Y-77865238D01*
X197317142Y-78055714D01*
X197317142Y-78389047D01*
X197269523Y-78579523D01*
X197174285Y-78674761D01*
X197079047Y-78722380D01*
X196888571Y-78722380D01*
X198269523Y-78722380D02*
X197698095Y-78722380D01*
X197983809Y-78722380D02*
X197983809Y-77722380D01*
X197888571Y-77865238D01*
X197793333Y-77960476D01*
X197698095Y-78008095D01*
X158452380Y-91166666D02*
X157976190Y-91500000D01*
X158452380Y-91738095D02*
X157452380Y-91738095D01*
X157452380Y-91357142D01*
X157500000Y-91261904D01*
X157547619Y-91214285D01*
X157642857Y-91166666D01*
X157785714Y-91166666D01*
X157880952Y-91214285D01*
X157928571Y-91261904D01*
X157976190Y-91357142D01*
X157976190Y-91738095D01*
X158452380Y-90214285D02*
X158452380Y-90785714D01*
X158452380Y-90500000D02*
X157452380Y-90500000D01*
X157595238Y-90595238D01*
X157690476Y-90690476D01*
X157738095Y-90785714D01*
X162452380Y-91166666D02*
X161976190Y-91500000D01*
X162452380Y-91738095D02*
X161452380Y-91738095D01*
X161452380Y-91357142D01*
X161500000Y-91261904D01*
X161547619Y-91214285D01*
X161642857Y-91166666D01*
X161785714Y-91166666D01*
X161880952Y-91214285D01*
X161928571Y-91261904D01*
X161976190Y-91357142D01*
X161976190Y-91738095D01*
X161547619Y-90785714D02*
X161500000Y-90738095D01*
X161452380Y-90642857D01*
X161452380Y-90404761D01*
X161500000Y-90309523D01*
X161547619Y-90261904D01*
X161642857Y-90214285D01*
X161738095Y-90214285D01*
X161880952Y-90261904D01*
X162452380Y-90833333D01*
X162452380Y-90214285D01*
X200822380Y-84976666D02*
X200346190Y-85310000D01*
X200822380Y-85548095D02*
X199822380Y-85548095D01*
X199822380Y-85167142D01*
X199870000Y-85071904D01*
X199917619Y-85024285D01*
X200012857Y-84976666D01*
X200155714Y-84976666D01*
X200250952Y-85024285D01*
X200298571Y-85071904D01*
X200346190Y-85167142D01*
X200346190Y-85548095D01*
X199822380Y-84643333D02*
X199822380Y-84024285D01*
X200203333Y-84357619D01*
X200203333Y-84214761D01*
X200250952Y-84119523D01*
X200298571Y-84071904D01*
X200393809Y-84024285D01*
X200631904Y-84024285D01*
X200727142Y-84071904D01*
X200774761Y-84119523D01*
X200822380Y-84214761D01*
X200822380Y-84500476D01*
X200774761Y-84595714D01*
X200727142Y-84643333D01*
X182452380Y-78166666D02*
X181976190Y-78500000D01*
X182452380Y-78738095D02*
X181452380Y-78738095D01*
X181452380Y-78357142D01*
X181500000Y-78261904D01*
X181547619Y-78214285D01*
X181642857Y-78166666D01*
X181785714Y-78166666D01*
X181880952Y-78214285D01*
X181928571Y-78261904D01*
X181976190Y-78357142D01*
X181976190Y-78738095D01*
X181785714Y-77309523D02*
X182452380Y-77309523D01*
X181404761Y-77547619D02*
X182119047Y-77785714D01*
X182119047Y-77166666D01*
X178452380Y-91166666D02*
X177976190Y-91500000D01*
X178452380Y-91738095D02*
X177452380Y-91738095D01*
X177452380Y-91357142D01*
X177500000Y-91261904D01*
X177547619Y-91214285D01*
X177642857Y-91166666D01*
X177785714Y-91166666D01*
X177880952Y-91214285D01*
X177928571Y-91261904D01*
X177976190Y-91357142D01*
X177976190Y-91738095D01*
X177452380Y-90261904D02*
X177452380Y-90738095D01*
X177928571Y-90785714D01*
X177880952Y-90738095D01*
X177833333Y-90642857D01*
X177833333Y-90404761D01*
X177880952Y-90309523D01*
X177928571Y-90261904D01*
X178023809Y-90214285D01*
X178261904Y-90214285D01*
X178357142Y-90261904D01*
X178404761Y-90309523D01*
X178452380Y-90404761D01*
X178452380Y-90642857D01*
X178404761Y-90738095D01*
X178357142Y-90785714D01*
X191182380Y-55221904D02*
X191991904Y-55221904D01*
X192087142Y-55174285D01*
X192134761Y-55126666D01*
X192182380Y-55031428D01*
X192182380Y-54840952D01*
X192134761Y-54745714D01*
X192087142Y-54698095D01*
X191991904Y-54650476D01*
X191182380Y-54650476D01*
X192182380Y-53650476D02*
X192182380Y-54221904D01*
X192182380Y-53936190D02*
X191182380Y-53936190D01*
X191325238Y-54031428D01*
X191420476Y-54126666D01*
X191468095Y-54221904D01*
X189048095Y-78122380D02*
X189048095Y-78931904D01*
X189095714Y-79027142D01*
X189143333Y-79074761D01*
X189238571Y-79122380D01*
X189429047Y-79122380D01*
X189524285Y-79074761D01*
X189571904Y-79027142D01*
X189619523Y-78931904D01*
X189619523Y-78122380D01*
X190048095Y-78217619D02*
X190095714Y-78170000D01*
X190190952Y-78122380D01*
X190429047Y-78122380D01*
X190524285Y-78170000D01*
X190571904Y-78217619D01*
X190619523Y-78312857D01*
X190619523Y-78408095D01*
X190571904Y-78550952D01*
X190000476Y-79122380D01*
X190619523Y-79122380D01*
X166238095Y-91452380D02*
X166238095Y-92261904D01*
X166285714Y-92357142D01*
X166333333Y-92404761D01*
X166428571Y-92452380D01*
X166619047Y-92452380D01*
X166714285Y-92404761D01*
X166761904Y-92357142D01*
X166809523Y-92261904D01*
X166809523Y-91452380D01*
X167190476Y-91452380D02*
X167809523Y-91452380D01*
X167476190Y-91833333D01*
X167619047Y-91833333D01*
X167714285Y-91880952D01*
X167761904Y-91928571D01*
X167809523Y-92023809D01*
X167809523Y-92261904D01*
X167761904Y-92357142D01*
X167714285Y-92404761D01*
X167619047Y-92452380D01*
X167333333Y-92452380D01*
X167238095Y-92404761D01*
X167190476Y-92357142D01*
M02*
