G04 #@! TF.GenerationSoftware,KiCad,Pcbnew,(5.1.9)-1*
G04 #@! TF.CreationDate,2021-07-28T14:53:51+01:00*
G04 #@! TF.ProjectId,Autocroft_node,4175746f-6372-46f6-9674-5f6e6f64652e,rev?*
G04 #@! TF.SameCoordinates,Original*
G04 #@! TF.FileFunction,Soldermask,Bot*
G04 #@! TF.FilePolarity,Negative*
%FSLAX46Y46*%
G04 Gerber Fmt 4.6, Leading zero omitted, Abs format (unit mm)*
G04 Created by KiCad (PCBNEW (5.1.9)-1) date 2021-07-28 14:53:51*
%MOMM*%
%LPD*%
G01*
G04 APERTURE LIST*
%ADD10C,2.200000*%
%ADD11O,1.700000X1.700000*%
%ADD12R,1.700000X1.700000*%
%ADD13C,1.524000*%
%ADD14R,2.000000X2.000000*%
%ADD15C,2.000000*%
%ADD16C,1.600000*%
%ADD17R,2.200000X2.200000*%
%ADD18O,2.200000X2.200000*%
%ADD19R,1.905000X2.000000*%
%ADD20O,1.905000X2.000000*%
%ADD21O,1.600000X1.600000*%
%ADD22O,2.000000X1.905000*%
%ADD23R,2.000000X1.905000*%
%ADD24R,1.600000X1.600000*%
G04 APERTURE END LIST*
D10*
X140388340Y-91531440D03*
X197228460Y-44886880D03*
D11*
X137000000Y-75840000D03*
X137000000Y-78380000D03*
X137000000Y-80920000D03*
X137000000Y-83460000D03*
D12*
X137000000Y-86000000D03*
D13*
X200460000Y-52857000D03*
X200460000Y-55524000D03*
D14*
X142748000Y-84836000D03*
D15*
X147748000Y-84836000D03*
D16*
X171000000Y-77000000D03*
X168500000Y-77000000D03*
D17*
X192000000Y-69000000D03*
D18*
X202160000Y-69000000D03*
D12*
X152000000Y-44000000D03*
D11*
X154540000Y-44000000D03*
X157080000Y-44000000D03*
D12*
X153000000Y-88000000D03*
D11*
X153000000Y-85460000D03*
X153000000Y-82920000D03*
X153000000Y-80380000D03*
X153000000Y-77840000D03*
D13*
X137540000Y-67620000D03*
X140080000Y-67620000D03*
X142620000Y-67620000D03*
X145160000Y-67620000D03*
X147700000Y-67620000D03*
X150240000Y-67620000D03*
X152780000Y-67620000D03*
X155320000Y-67620000D03*
X157860000Y-67620000D03*
X160400000Y-67620000D03*
X162940000Y-67620000D03*
X165480000Y-67620000D03*
X168020000Y-67620000D03*
X170560000Y-67620000D03*
X173100000Y-67620000D03*
X175640000Y-67620000D03*
X178180000Y-67620000D03*
X180720000Y-67620000D03*
X183260000Y-67620000D03*
X185800000Y-67620000D03*
X185800000Y-52380000D03*
X183260000Y-52380000D03*
X180720000Y-52380000D03*
X178180000Y-52380000D03*
X175640000Y-52380000D03*
X173100000Y-52380000D03*
X170560000Y-52380000D03*
X168020000Y-52380000D03*
X165480000Y-52380000D03*
X162940000Y-52380000D03*
X160400000Y-52380000D03*
X157860000Y-52380000D03*
X155320000Y-52380000D03*
X152780000Y-52380000D03*
X150240000Y-52380000D03*
X147700000Y-52380000D03*
X145160000Y-52380000D03*
X142620000Y-52380000D03*
X140080000Y-52380000D03*
X137540000Y-52380000D03*
X194476000Y-63460000D03*
X197143000Y-63460000D03*
D19*
X200000000Y-74000000D03*
D20*
X197460000Y-74000000D03*
X194920000Y-74000000D03*
D16*
X158000000Y-81000000D03*
D21*
X158000000Y-88620000D03*
X162000000Y-88620000D03*
D16*
X162000000Y-81000000D03*
X198000000Y-81000000D03*
D21*
X198000000Y-88620000D03*
D16*
X182000000Y-81000000D03*
D21*
X182000000Y-88620000D03*
X178000000Y-88620000D03*
D16*
X178000000Y-81000000D03*
D22*
X196000000Y-51920000D03*
X196000000Y-54460000D03*
D23*
X196000000Y-57000000D03*
D21*
X193620000Y-81000000D03*
X186000000Y-88620000D03*
X193620000Y-83540000D03*
X186000000Y-86080000D03*
X193620000Y-86080000D03*
X186000000Y-83540000D03*
X193620000Y-88620000D03*
D24*
X186000000Y-81000000D03*
X166000000Y-81000000D03*
D21*
X173620000Y-88620000D03*
X166000000Y-83540000D03*
X173620000Y-86080000D03*
X166000000Y-86080000D03*
X173620000Y-83540000D03*
X166000000Y-88620000D03*
X173620000Y-81000000D03*
M02*
