G04 #@! TF.GenerationSoftware,KiCad,Pcbnew,(5.1.9)-1*
G04 #@! TF.CreationDate,2021-07-28T14:53:51+01:00*
G04 #@! TF.ProjectId,Autocroft_node,4175746f-6372-46f6-9674-5f6e6f64652e,rev?*
G04 #@! TF.SameCoordinates,Original*
G04 #@! TF.FileFunction,Copper,L1,Top*
G04 #@! TF.FilePolarity,Positive*
%FSLAX46Y46*%
G04 Gerber Fmt 4.6, Leading zero omitted, Abs format (unit mm)*
G04 Created by KiCad (PCBNEW (5.1.9)-1) date 2021-07-28 14:53:51*
%MOMM*%
%LPD*%
G01*
G04 APERTURE LIST*
G04 #@! TA.AperFunction,ComponentPad*
%ADD10O,1.700000X1.700000*%
G04 #@! TD*
G04 #@! TA.AperFunction,ComponentPad*
%ADD11R,1.700000X1.700000*%
G04 #@! TD*
G04 #@! TA.AperFunction,ComponentPad*
%ADD12C,1.524000*%
G04 #@! TD*
G04 #@! TA.AperFunction,ComponentPad*
%ADD13R,2.000000X2.000000*%
G04 #@! TD*
G04 #@! TA.AperFunction,ComponentPad*
%ADD14C,2.000000*%
G04 #@! TD*
G04 #@! TA.AperFunction,ComponentPad*
%ADD15C,1.600000*%
G04 #@! TD*
G04 #@! TA.AperFunction,ComponentPad*
%ADD16R,2.200000X2.200000*%
G04 #@! TD*
G04 #@! TA.AperFunction,ComponentPad*
%ADD17O,2.200000X2.200000*%
G04 #@! TD*
G04 #@! TA.AperFunction,ComponentPad*
%ADD18R,1.905000X2.000000*%
G04 #@! TD*
G04 #@! TA.AperFunction,ComponentPad*
%ADD19O,1.905000X2.000000*%
G04 #@! TD*
G04 #@! TA.AperFunction,ComponentPad*
%ADD20O,1.600000X1.600000*%
G04 #@! TD*
G04 #@! TA.AperFunction,ComponentPad*
%ADD21O,2.000000X1.905000*%
G04 #@! TD*
G04 #@! TA.AperFunction,ComponentPad*
%ADD22R,2.000000X1.905000*%
G04 #@! TD*
G04 #@! TA.AperFunction,ComponentPad*
%ADD23R,1.600000X1.600000*%
G04 #@! TD*
G04 #@! TA.AperFunction,ViaPad*
%ADD24C,0.800000*%
G04 #@! TD*
G04 #@! TA.AperFunction,Conductor*
%ADD25C,0.800000*%
G04 #@! TD*
G04 #@! TA.AperFunction,Conductor*
%ADD26C,0.300000*%
G04 #@! TD*
G04 #@! TA.AperFunction,Conductor*
%ADD27C,0.254000*%
G04 #@! TD*
G04 #@! TA.AperFunction,Conductor*
%ADD28C,0.100000*%
G04 #@! TD*
G04 APERTURE END LIST*
D10*
X137000000Y-75840000D03*
X137000000Y-78380000D03*
X137000000Y-80920000D03*
X137000000Y-83460000D03*
D11*
X137000000Y-86000000D03*
D12*
X200460000Y-52857000D03*
X200460000Y-55524000D03*
D13*
X142748000Y-84836000D03*
D14*
X147748000Y-84836000D03*
D15*
X171000000Y-77000000D03*
X168500000Y-77000000D03*
D16*
X192000000Y-69000000D03*
D17*
X202160000Y-69000000D03*
D11*
X152000000Y-44000000D03*
D10*
X154540000Y-44000000D03*
X157080000Y-44000000D03*
D11*
X153000000Y-88000000D03*
D10*
X153000000Y-85460000D03*
X153000000Y-82920000D03*
X153000000Y-80380000D03*
X153000000Y-77840000D03*
D12*
X137540000Y-67620000D03*
X140080000Y-67620000D03*
X142620000Y-67620000D03*
X145160000Y-67620000D03*
X147700000Y-67620000D03*
X150240000Y-67620000D03*
X152780000Y-67620000D03*
X155320000Y-67620000D03*
X157860000Y-67620000D03*
X160400000Y-67620000D03*
X162940000Y-67620000D03*
X165480000Y-67620000D03*
X168020000Y-67620000D03*
X170560000Y-67620000D03*
X173100000Y-67620000D03*
X175640000Y-67620000D03*
X178180000Y-67620000D03*
X180720000Y-67620000D03*
X183260000Y-67620000D03*
X185800000Y-67620000D03*
X185800000Y-52380000D03*
X183260000Y-52380000D03*
X180720000Y-52380000D03*
X178180000Y-52380000D03*
X175640000Y-52380000D03*
X173100000Y-52380000D03*
X170560000Y-52380000D03*
X168020000Y-52380000D03*
X165480000Y-52380000D03*
X162940000Y-52380000D03*
X160400000Y-52380000D03*
X157860000Y-52380000D03*
X155320000Y-52380000D03*
X152780000Y-52380000D03*
X150240000Y-52380000D03*
X147700000Y-52380000D03*
X145160000Y-52380000D03*
X142620000Y-52380000D03*
X140080000Y-52380000D03*
X137540000Y-52380000D03*
X194476000Y-63460000D03*
X197143000Y-63460000D03*
D18*
X200000000Y-74000000D03*
D19*
X197460000Y-74000000D03*
X194920000Y-74000000D03*
D15*
X158000000Y-81000000D03*
D20*
X158000000Y-88620000D03*
X162000000Y-88620000D03*
D15*
X162000000Y-81000000D03*
X198000000Y-81000000D03*
D20*
X198000000Y-88620000D03*
D15*
X182000000Y-81000000D03*
D20*
X182000000Y-88620000D03*
X178000000Y-88620000D03*
D15*
X178000000Y-81000000D03*
D21*
X196000000Y-51920000D03*
X196000000Y-54460000D03*
D22*
X196000000Y-57000000D03*
D20*
X193620000Y-81000000D03*
X186000000Y-88620000D03*
X193620000Y-83540000D03*
X186000000Y-86080000D03*
X193620000Y-86080000D03*
X186000000Y-83540000D03*
X193620000Y-88620000D03*
D23*
X186000000Y-81000000D03*
X166000000Y-81000000D03*
D20*
X173620000Y-88620000D03*
X166000000Y-83540000D03*
X173620000Y-86080000D03*
X166000000Y-86080000D03*
X173620000Y-83540000D03*
X166000000Y-88620000D03*
X173620000Y-81000000D03*
D24*
X134000000Y-44000000D03*
X204000000Y-92000000D03*
X150000000Y-60000000D03*
X169000000Y-45000000D03*
X146000000Y-76000000D03*
X185560000Y-60560000D03*
X180385720Y-74254360D03*
D25*
X196000000Y-54460000D02*
X197540000Y-54460000D01*
X199143000Y-52857000D02*
X200460000Y-52857000D01*
X197540000Y-54460000D02*
X199143000Y-52857000D01*
X183260000Y-65400000D02*
X183260000Y-67620000D01*
X194200000Y-54460000D02*
X183260000Y-65400000D01*
X196000000Y-54460000D02*
X194200000Y-54460000D01*
X194920000Y-74000000D02*
X195000000Y-74000000D01*
X194920000Y-74000000D02*
X194920000Y-74920000D01*
X194920000Y-74920000D02*
X200000000Y-80000000D01*
X200000000Y-86620000D02*
X198000000Y-88620000D01*
X200000000Y-80000000D02*
X200000000Y-86620000D01*
X186000000Y-88620000D02*
X186000000Y-91000000D01*
X186000000Y-91000000D02*
X187000000Y-92000000D01*
X194620000Y-92000000D02*
X198000000Y-88620000D01*
X187000000Y-92000000D02*
X194620000Y-92000000D01*
X178000000Y-88620000D02*
X178000000Y-90000000D01*
X178020001Y-90020001D02*
X178020001Y-91020001D01*
X178000000Y-90000000D02*
X178020001Y-90020001D01*
X179000000Y-92000000D02*
X187000000Y-92000000D01*
X178020001Y-91020001D02*
X179000000Y-92000000D01*
X166000000Y-88620000D02*
X166000000Y-91000000D01*
X167000000Y-92000000D02*
X179000000Y-92000000D01*
X166000000Y-91000000D02*
X167000000Y-92000000D01*
X154540000Y-44000000D02*
X154540000Y-42540000D01*
X154540000Y-42540000D02*
X153000000Y-41000000D01*
X153000000Y-41000000D02*
X143000000Y-41000000D01*
X140080000Y-43920000D02*
X140080000Y-52380000D01*
X143000000Y-41000000D02*
X140080000Y-43920000D01*
X137540000Y-52380000D02*
X140080000Y-52380000D01*
X145522001Y-82610001D02*
X147748000Y-84836000D01*
X137849999Y-82610001D02*
X145522001Y-82610001D01*
X137000000Y-83460000D02*
X137849999Y-82610001D01*
X153000000Y-77840000D02*
X150160000Y-77840000D01*
X147748000Y-80252000D02*
X147748000Y-84836000D01*
X150160000Y-77840000D02*
X147748000Y-80252000D01*
X153000000Y-77840000D02*
X160160000Y-77840000D01*
X161000000Y-77000000D02*
X168500000Y-77000000D01*
X160160000Y-77840000D02*
X161000000Y-77000000D01*
X198984000Y-57000000D02*
X200460000Y-55524000D01*
X196000000Y-57000000D02*
X198984000Y-57000000D01*
X196000000Y-57000000D02*
X194000000Y-57000000D01*
X193000000Y-61984000D02*
X194476000Y-63460000D01*
X193000000Y-58000000D02*
X193000000Y-61984000D01*
X194000000Y-57000000D02*
X193000000Y-58000000D01*
X194476000Y-66524000D02*
X192000000Y-69000000D01*
X194476000Y-63460000D02*
X194476000Y-66524000D01*
X192000000Y-79380000D02*
X193620000Y-81000000D01*
X192000000Y-69000000D02*
X192000000Y-79380000D01*
X158000000Y-81000000D02*
X162000000Y-81000000D01*
X153620000Y-81000000D02*
X153000000Y-80380000D01*
X152000000Y-44000000D02*
X145000000Y-44000000D01*
X142620000Y-46380000D02*
X142620000Y-52380000D01*
X145000000Y-44000000D02*
X142620000Y-46380000D01*
X142620000Y-52380000D02*
X142620000Y-56380000D01*
X142620000Y-56380000D02*
X136500000Y-62500000D01*
X134000000Y-83000000D02*
X137000000Y-86000000D01*
X134000000Y-65000000D02*
X134000000Y-83000000D01*
X158000000Y-81000000D02*
X153620000Y-81000000D01*
X142748000Y-85748000D02*
X142748000Y-84836000D01*
X144000000Y-87000000D02*
X142748000Y-85748000D01*
X149000000Y-87000000D02*
X144000000Y-87000000D01*
X150000000Y-86000000D02*
X149000000Y-87000000D01*
X150000000Y-81000000D02*
X150000000Y-86000000D01*
X150620000Y-80380000D02*
X150000000Y-81000000D01*
X153000000Y-80380000D02*
X150620000Y-80380000D01*
X171000000Y-77000000D02*
X173000000Y-77000000D01*
X173620000Y-77620000D02*
X173620000Y-81000000D01*
X173000000Y-77000000D02*
X173620000Y-77620000D01*
X162000000Y-81000000D02*
X164000000Y-79000000D01*
X164000000Y-79000000D02*
X170000000Y-79000000D01*
X171000000Y-78000000D02*
X171000000Y-77000000D01*
X170000000Y-79000000D02*
X171000000Y-78000000D01*
X185800000Y-67620000D02*
X185800000Y-74200000D01*
X182380000Y-77620000D02*
X173620000Y-77620000D01*
X185800000Y-74200000D02*
X182380000Y-77620000D01*
X141584000Y-86000000D02*
X142748000Y-84836000D01*
X137000000Y-86000000D02*
X141584000Y-86000000D01*
X136500000Y-62500000D02*
X134000000Y-65000000D01*
D26*
X202160000Y-68477000D02*
X202160000Y-69000000D01*
X197143000Y-63460000D02*
X202160000Y-68477000D01*
X197460000Y-73700000D02*
X197460000Y-74000000D01*
X202160000Y-69000000D02*
X197460000Y-73700000D01*
X157080000Y-44000000D02*
X160000000Y-44000000D01*
X162940000Y-46940000D02*
X162940000Y-52380000D01*
X160000000Y-44000000D02*
X162940000Y-46940000D01*
X172469999Y-84929999D02*
X173620000Y-86080000D01*
X161690001Y-84929999D02*
X172469999Y-84929999D01*
X158000000Y-88620000D02*
X161690001Y-84929999D01*
X154840000Y-85460000D02*
X158000000Y-88620000D01*
X153000000Y-85460000D02*
X154840000Y-85460000D01*
X172469999Y-87469999D02*
X173620000Y-88620000D01*
X163150001Y-87469999D02*
X172469999Y-87469999D01*
X162000000Y-88620000D02*
X163150001Y-87469999D01*
X153000000Y-82920000D02*
X152080000Y-82920000D01*
X150750010Y-84249990D02*
X150750010Y-89750010D01*
X152080000Y-82920000D02*
X150750010Y-84249990D01*
X150750010Y-89750010D02*
X151000000Y-90000000D01*
X151000000Y-90000000D02*
X161000000Y-90000000D01*
X161000000Y-90000000D02*
X162000000Y-89000000D01*
X162000000Y-89000000D02*
X162000000Y-88620000D01*
X150240000Y-67620000D02*
X150240000Y-74760000D01*
X144080000Y-80920000D02*
X137000000Y-80920000D01*
X150240000Y-74760000D02*
X144080000Y-80920000D01*
X152400000Y-65200000D02*
X152780000Y-65580000D01*
X142600000Y-65200000D02*
X152400000Y-65200000D01*
X152780000Y-65580000D02*
X152780000Y-67620000D01*
X141400000Y-66400000D02*
X142600000Y-65200000D01*
X141400000Y-73980000D02*
X141400000Y-66400000D01*
X137000000Y-78380000D02*
X141400000Y-73980000D01*
D25*
X180720000Y-65400000D02*
X180720000Y-67620000D01*
X194200000Y-51920000D02*
X185560000Y-60560000D01*
X196000000Y-51920000D02*
X194200000Y-51920000D01*
X185560000Y-60560000D02*
X180720000Y-65400000D01*
D26*
X196610001Y-82389999D02*
X198000000Y-81000000D01*
X189690001Y-82389999D02*
X196610001Y-82389999D01*
X186000000Y-86080000D02*
X189690001Y-82389999D01*
X157860000Y-52380000D02*
X167504260Y-62024260D01*
X177067999Y-67086239D02*
X177067999Y-70835039D01*
X172006020Y-62024260D02*
X177067999Y-67086239D01*
X167504260Y-62024260D02*
X172006020Y-62024260D01*
X180385720Y-74152760D02*
X180385720Y-74254360D01*
X177067999Y-70835039D02*
X180385720Y-74152760D01*
X182000000Y-81000000D02*
X186000000Y-81000000D01*
X182000000Y-87540000D02*
X186000000Y-83540000D01*
X182000000Y-88620000D02*
X182000000Y-87540000D01*
X178000000Y-84620000D02*
X182000000Y-88620000D01*
X178000000Y-81000000D02*
X178000000Y-84620000D01*
X137000000Y-75840000D02*
X137000000Y-70528160D01*
X138967999Y-68560161D02*
X138967999Y-64247241D01*
X137000000Y-70528160D02*
X138967999Y-68560161D01*
X138967999Y-64247241D02*
X146298920Y-56916320D01*
X146298920Y-56916320D02*
X152841960Y-56916320D01*
X155320000Y-54438280D02*
X155320000Y-52380000D01*
X152841960Y-56916320D02*
X155320000Y-54438280D01*
D27*
X206340001Y-94340000D02*
X130660000Y-94340000D01*
X130660000Y-91360557D01*
X138653340Y-91360557D01*
X138653340Y-91702323D01*
X138720015Y-92037521D01*
X138850803Y-92353271D01*
X139040677Y-92637438D01*
X139282342Y-92879103D01*
X139566509Y-93068977D01*
X139882259Y-93199765D01*
X140217457Y-93266440D01*
X140559223Y-93266440D01*
X140894421Y-93199765D01*
X141210171Y-93068977D01*
X141494338Y-92879103D01*
X141736003Y-92637438D01*
X141925877Y-92353271D01*
X142056665Y-92037521D01*
X142123340Y-91702323D01*
X142123340Y-91360557D01*
X142056665Y-91025359D01*
X141925877Y-90709609D01*
X141736003Y-90425442D01*
X141494338Y-90183777D01*
X141210171Y-89993903D01*
X140894421Y-89863115D01*
X140559223Y-89796440D01*
X140217457Y-89796440D01*
X139882259Y-89863115D01*
X139566509Y-89993903D01*
X139282342Y-90183777D01*
X139040677Y-90425442D01*
X138850803Y-90709609D01*
X138720015Y-91025359D01*
X138653340Y-91360557D01*
X130660000Y-91360557D01*
X130660000Y-65000000D01*
X132959994Y-65000000D01*
X132965000Y-65050828D01*
X132965001Y-82949162D01*
X132959994Y-83000000D01*
X132979977Y-83202895D01*
X133039160Y-83397993D01*
X133135266Y-83577797D01*
X133230540Y-83693888D01*
X133264605Y-83735396D01*
X133304092Y-83767802D01*
X135511928Y-85975639D01*
X135511928Y-86850000D01*
X135524188Y-86974482D01*
X135560498Y-87094180D01*
X135619463Y-87204494D01*
X135698815Y-87301185D01*
X135795506Y-87380537D01*
X135905820Y-87439502D01*
X136025518Y-87475812D01*
X136150000Y-87488072D01*
X137850000Y-87488072D01*
X137974482Y-87475812D01*
X138094180Y-87439502D01*
X138204494Y-87380537D01*
X138301185Y-87301185D01*
X138380537Y-87204494D01*
X138439502Y-87094180D01*
X138457454Y-87035000D01*
X141533172Y-87035000D01*
X141584000Y-87040006D01*
X141634828Y-87035000D01*
X141634838Y-87035000D01*
X141786895Y-87020024D01*
X141981993Y-86960841D01*
X142161797Y-86864734D01*
X142293191Y-86756902D01*
X143232197Y-87695908D01*
X143264604Y-87735396D01*
X143304092Y-87767803D01*
X143422202Y-87864734D01*
X143503580Y-87908231D01*
X143602007Y-87960841D01*
X143797105Y-88020024D01*
X143949162Y-88035000D01*
X143949171Y-88035000D01*
X143999999Y-88040006D01*
X144050827Y-88035000D01*
X148949172Y-88035000D01*
X149000000Y-88040006D01*
X149050828Y-88035000D01*
X149050838Y-88035000D01*
X149202895Y-88020024D01*
X149397993Y-87960841D01*
X149577797Y-87864734D01*
X149735396Y-87735396D01*
X149767807Y-87695903D01*
X149965011Y-87498700D01*
X149965011Y-89711447D01*
X149961213Y-89750010D01*
X149976369Y-89903896D01*
X150021256Y-90051869D01*
X150021257Y-90051870D01*
X150094149Y-90188243D01*
X150134700Y-90237654D01*
X150167665Y-90277822D01*
X150167669Y-90277826D01*
X150192247Y-90307774D01*
X150222195Y-90332352D01*
X150417653Y-90527810D01*
X150442236Y-90557764D01*
X150561767Y-90655862D01*
X150698140Y-90728754D01*
X150818175Y-90765166D01*
X150846112Y-90773641D01*
X150860490Y-90775057D01*
X150961439Y-90785000D01*
X150961446Y-90785000D01*
X150999999Y-90788797D01*
X151038552Y-90785000D01*
X160961447Y-90785000D01*
X161000000Y-90788797D01*
X161038553Y-90785000D01*
X161038561Y-90785000D01*
X161153887Y-90773641D01*
X161301860Y-90728754D01*
X161438233Y-90655862D01*
X161557764Y-90557764D01*
X161582347Y-90527810D01*
X162055157Y-90055000D01*
X162141335Y-90055000D01*
X162418574Y-89999853D01*
X162679727Y-89891680D01*
X162914759Y-89734637D01*
X163114637Y-89534759D01*
X163271680Y-89299727D01*
X163379853Y-89038574D01*
X163393684Y-88969039D01*
X164608096Y-88969039D01*
X164648754Y-89103087D01*
X164768963Y-89357420D01*
X164936481Y-89583414D01*
X165144869Y-89772385D01*
X165386119Y-89917070D01*
X165650960Y-90011909D01*
X165873000Y-89890624D01*
X165873000Y-88747000D01*
X166127000Y-88747000D01*
X166127000Y-89890624D01*
X166349040Y-90011909D01*
X166613881Y-89917070D01*
X166855131Y-89772385D01*
X167063519Y-89583414D01*
X167231037Y-89357420D01*
X167351246Y-89103087D01*
X167391904Y-88969039D01*
X167269915Y-88747000D01*
X166127000Y-88747000D01*
X165873000Y-88747000D01*
X164730085Y-88747000D01*
X164608096Y-88969039D01*
X163393684Y-88969039D01*
X163435000Y-88761335D01*
X163435000Y-88478665D01*
X163404554Y-88325604D01*
X163475159Y-88254999D01*
X164612937Y-88254999D01*
X164608096Y-88270961D01*
X164730085Y-88493000D01*
X165873000Y-88493000D01*
X165873000Y-88473000D01*
X166127000Y-88473000D01*
X166127000Y-88493000D01*
X167269915Y-88493000D01*
X167391904Y-88270961D01*
X167387063Y-88254999D01*
X172144842Y-88254999D01*
X172215446Y-88325604D01*
X172185000Y-88478665D01*
X172185000Y-88761335D01*
X172240147Y-89038574D01*
X172348320Y-89299727D01*
X172505363Y-89534759D01*
X172705241Y-89734637D01*
X172940273Y-89891680D01*
X173201426Y-89999853D01*
X173478665Y-90055000D01*
X173761335Y-90055000D01*
X174038574Y-89999853D01*
X174299727Y-89891680D01*
X174534759Y-89734637D01*
X174734637Y-89534759D01*
X174891680Y-89299727D01*
X174999853Y-89038574D01*
X175013684Y-88969040D01*
X176608091Y-88969040D01*
X176702930Y-89233881D01*
X176847615Y-89475131D01*
X177036586Y-89683519D01*
X177262580Y-89851037D01*
X177516913Y-89971246D01*
X177650961Y-90011904D01*
X177873000Y-89889915D01*
X177873000Y-88747000D01*
X178127000Y-88747000D01*
X178127000Y-89889915D01*
X178349039Y-90011904D01*
X178483087Y-89971246D01*
X178737420Y-89851037D01*
X178963414Y-89683519D01*
X179152385Y-89475131D01*
X179297070Y-89233881D01*
X179391909Y-88969040D01*
X179270624Y-88747000D01*
X178127000Y-88747000D01*
X177873000Y-88747000D01*
X176729376Y-88747000D01*
X176608091Y-88969040D01*
X175013684Y-88969040D01*
X175055000Y-88761335D01*
X175055000Y-88478665D01*
X175013685Y-88270960D01*
X176608091Y-88270960D01*
X176729376Y-88493000D01*
X177873000Y-88493000D01*
X177873000Y-87350085D01*
X178127000Y-87350085D01*
X178127000Y-88493000D01*
X179270624Y-88493000D01*
X179391909Y-88270960D01*
X179297070Y-88006119D01*
X179152385Y-87764869D01*
X178963414Y-87556481D01*
X178737420Y-87388963D01*
X178483087Y-87268754D01*
X178349039Y-87228096D01*
X178127000Y-87350085D01*
X177873000Y-87350085D01*
X177650961Y-87228096D01*
X177516913Y-87268754D01*
X177262580Y-87388963D01*
X177036586Y-87556481D01*
X176847615Y-87764869D01*
X176702930Y-88006119D01*
X176608091Y-88270960D01*
X175013685Y-88270960D01*
X174999853Y-88201426D01*
X174891680Y-87940273D01*
X174734637Y-87705241D01*
X174534759Y-87505363D01*
X174302241Y-87350000D01*
X174534759Y-87194637D01*
X174734637Y-86994759D01*
X174891680Y-86759727D01*
X174999853Y-86498574D01*
X175055000Y-86221335D01*
X175055000Y-85938665D01*
X174999853Y-85661426D01*
X174891680Y-85400273D01*
X174734637Y-85165241D01*
X174534759Y-84965363D01*
X174302241Y-84810000D01*
X174534759Y-84654637D01*
X174734637Y-84454759D01*
X174891680Y-84219727D01*
X174999853Y-83958574D01*
X175055000Y-83681335D01*
X175055000Y-83398665D01*
X174999853Y-83121426D01*
X174891680Y-82860273D01*
X174734637Y-82625241D01*
X174534759Y-82425363D01*
X174302241Y-82270000D01*
X174534759Y-82114637D01*
X174734637Y-81914759D01*
X174891680Y-81679727D01*
X174999853Y-81418574D01*
X175055000Y-81141335D01*
X175055000Y-80858665D01*
X176565000Y-80858665D01*
X176565000Y-81141335D01*
X176620147Y-81418574D01*
X176728320Y-81679727D01*
X176885363Y-81914759D01*
X177085241Y-82114637D01*
X177215000Y-82201339D01*
X177215001Y-84581437D01*
X177211203Y-84620000D01*
X177226359Y-84773886D01*
X177271246Y-84921859D01*
X177299651Y-84975000D01*
X177344139Y-85058233D01*
X177365193Y-85083887D01*
X177417655Y-85147812D01*
X177417659Y-85147816D01*
X177442237Y-85177764D01*
X177472185Y-85202342D01*
X180595446Y-88325604D01*
X180565000Y-88478665D01*
X180565000Y-88761335D01*
X180620147Y-89038574D01*
X180728320Y-89299727D01*
X180885363Y-89534759D01*
X181085241Y-89734637D01*
X181320273Y-89891680D01*
X181581426Y-89999853D01*
X181858665Y-90055000D01*
X182141335Y-90055000D01*
X182418574Y-89999853D01*
X182679727Y-89891680D01*
X182914759Y-89734637D01*
X183114637Y-89534759D01*
X183271680Y-89299727D01*
X183379853Y-89038574D01*
X183393684Y-88969039D01*
X184608096Y-88969039D01*
X184648754Y-89103087D01*
X184768963Y-89357420D01*
X184936481Y-89583414D01*
X185144869Y-89772385D01*
X185386119Y-89917070D01*
X185650960Y-90011909D01*
X185873000Y-89890624D01*
X185873000Y-88747000D01*
X186127000Y-88747000D01*
X186127000Y-89890624D01*
X186349040Y-90011909D01*
X186613881Y-89917070D01*
X186855131Y-89772385D01*
X187063519Y-89583414D01*
X187231037Y-89357420D01*
X187351246Y-89103087D01*
X187391904Y-88969039D01*
X187269915Y-88747000D01*
X186127000Y-88747000D01*
X185873000Y-88747000D01*
X184730085Y-88747000D01*
X184608096Y-88969039D01*
X183393684Y-88969039D01*
X183435000Y-88761335D01*
X183435000Y-88478665D01*
X183379853Y-88201426D01*
X183271680Y-87940273D01*
X183114637Y-87705241D01*
X183029777Y-87620381D01*
X184565000Y-86085158D01*
X184565000Y-86221335D01*
X184620147Y-86498574D01*
X184728320Y-86759727D01*
X184885363Y-86994759D01*
X185085241Y-87194637D01*
X185320273Y-87351680D01*
X185330865Y-87356067D01*
X185144869Y-87467615D01*
X184936481Y-87656586D01*
X184768963Y-87882580D01*
X184648754Y-88136913D01*
X184608096Y-88270961D01*
X184730085Y-88493000D01*
X185873000Y-88493000D01*
X185873000Y-88473000D01*
X186127000Y-88473000D01*
X186127000Y-88493000D01*
X187269915Y-88493000D01*
X187391904Y-88270961D01*
X187351246Y-88136913D01*
X187231037Y-87882580D01*
X187063519Y-87656586D01*
X186855131Y-87467615D01*
X186669135Y-87356067D01*
X186679727Y-87351680D01*
X186914759Y-87194637D01*
X187114637Y-86994759D01*
X187271680Y-86759727D01*
X187379853Y-86498574D01*
X187435000Y-86221335D01*
X187435000Y-85938665D01*
X187404554Y-85785603D01*
X190015159Y-83174999D01*
X192229491Y-83174999D01*
X192185000Y-83398665D01*
X192185000Y-83681335D01*
X192240147Y-83958574D01*
X192348320Y-84219727D01*
X192505363Y-84454759D01*
X192705241Y-84654637D01*
X192937759Y-84810000D01*
X192705241Y-84965363D01*
X192505363Y-85165241D01*
X192348320Y-85400273D01*
X192240147Y-85661426D01*
X192185000Y-85938665D01*
X192185000Y-86221335D01*
X192240147Y-86498574D01*
X192348320Y-86759727D01*
X192505363Y-86994759D01*
X192705241Y-87194637D01*
X192937759Y-87350000D01*
X192705241Y-87505363D01*
X192505363Y-87705241D01*
X192348320Y-87940273D01*
X192240147Y-88201426D01*
X192185000Y-88478665D01*
X192185000Y-88761335D01*
X192240147Y-89038574D01*
X192348320Y-89299727D01*
X192505363Y-89534759D01*
X192705241Y-89734637D01*
X192940273Y-89891680D01*
X193201426Y-89999853D01*
X193478665Y-90055000D01*
X193761335Y-90055000D01*
X194038574Y-89999853D01*
X194299727Y-89891680D01*
X194534759Y-89734637D01*
X194734637Y-89534759D01*
X194891680Y-89299727D01*
X194999853Y-89038574D01*
X195013684Y-88969040D01*
X196608091Y-88969040D01*
X196702930Y-89233881D01*
X196847615Y-89475131D01*
X197036586Y-89683519D01*
X197262580Y-89851037D01*
X197516913Y-89971246D01*
X197650961Y-90011904D01*
X197873000Y-89889915D01*
X197873000Y-88747000D01*
X198127000Y-88747000D01*
X198127000Y-89889915D01*
X198349039Y-90011904D01*
X198483087Y-89971246D01*
X198737420Y-89851037D01*
X198963414Y-89683519D01*
X199152385Y-89475131D01*
X199297070Y-89233881D01*
X199391909Y-88969040D01*
X199270624Y-88747000D01*
X198127000Y-88747000D01*
X197873000Y-88747000D01*
X196729376Y-88747000D01*
X196608091Y-88969040D01*
X195013684Y-88969040D01*
X195055000Y-88761335D01*
X195055000Y-88478665D01*
X195013685Y-88270960D01*
X196608091Y-88270960D01*
X196729376Y-88493000D01*
X197873000Y-88493000D01*
X197873000Y-87350085D01*
X198127000Y-87350085D01*
X198127000Y-88493000D01*
X199270624Y-88493000D01*
X199391909Y-88270960D01*
X199297070Y-88006119D01*
X199152385Y-87764869D01*
X198963414Y-87556481D01*
X198737420Y-87388963D01*
X198483087Y-87268754D01*
X198349039Y-87228096D01*
X198127000Y-87350085D01*
X197873000Y-87350085D01*
X197650961Y-87228096D01*
X197516913Y-87268754D01*
X197262580Y-87388963D01*
X197036586Y-87556481D01*
X196847615Y-87764869D01*
X196702930Y-88006119D01*
X196608091Y-88270960D01*
X195013685Y-88270960D01*
X194999853Y-88201426D01*
X194891680Y-87940273D01*
X194734637Y-87705241D01*
X194534759Y-87505363D01*
X194302241Y-87350000D01*
X194534759Y-87194637D01*
X194734637Y-86994759D01*
X194891680Y-86759727D01*
X194999853Y-86498574D01*
X195055000Y-86221335D01*
X195055000Y-85938665D01*
X194999853Y-85661426D01*
X194891680Y-85400273D01*
X194734637Y-85165241D01*
X194534759Y-84965363D01*
X194302241Y-84810000D01*
X194534759Y-84654637D01*
X194734637Y-84454759D01*
X194891680Y-84219727D01*
X194999853Y-83958574D01*
X195055000Y-83681335D01*
X195055000Y-83398665D01*
X195010509Y-83174999D01*
X196571448Y-83174999D01*
X196610001Y-83178796D01*
X196648554Y-83174999D01*
X196648562Y-83174999D01*
X196763888Y-83163640D01*
X196911861Y-83118753D01*
X197048234Y-83045861D01*
X197167765Y-82947763D01*
X197192348Y-82917809D01*
X197705604Y-82404554D01*
X197858665Y-82435000D01*
X198141335Y-82435000D01*
X198418574Y-82379853D01*
X198679727Y-82271680D01*
X198914759Y-82114637D01*
X199114637Y-81914759D01*
X199271680Y-81679727D01*
X199379853Y-81418574D01*
X199435000Y-81141335D01*
X199435000Y-80858665D01*
X199379853Y-80581426D01*
X199271680Y-80320273D01*
X199114637Y-80085241D01*
X198914759Y-79885363D01*
X198679727Y-79728320D01*
X198418574Y-79620147D01*
X198141335Y-79565000D01*
X197858665Y-79565000D01*
X197581426Y-79620147D01*
X197320273Y-79728320D01*
X197085241Y-79885363D01*
X196885363Y-80085241D01*
X196728320Y-80320273D01*
X196620147Y-80581426D01*
X196565000Y-80858665D01*
X196565000Y-81141335D01*
X196595446Y-81294396D01*
X196284844Y-81604999D01*
X194922633Y-81604999D01*
X194999853Y-81418574D01*
X195055000Y-81141335D01*
X195055000Y-80858665D01*
X194999853Y-80581426D01*
X194891680Y-80320273D01*
X194734637Y-80085241D01*
X194534759Y-79885363D01*
X194299727Y-79728320D01*
X194038574Y-79620147D01*
X193761335Y-79565000D01*
X193648711Y-79565000D01*
X193035000Y-78951290D01*
X193035000Y-74373863D01*
X193367622Y-74373863D01*
X193461121Y-74670446D01*
X193610684Y-74943089D01*
X193810563Y-75181315D01*
X194053077Y-75375969D01*
X194328906Y-75519571D01*
X194547020Y-75590563D01*
X194793000Y-75470594D01*
X194793000Y-74127000D01*
X193494430Y-74127000D01*
X193367622Y-74373863D01*
X193035000Y-74373863D01*
X193035000Y-73626137D01*
X193367622Y-73626137D01*
X193494430Y-73873000D01*
X194793000Y-73873000D01*
X194793000Y-72529406D01*
X194547020Y-72409437D01*
X194328906Y-72480429D01*
X194053077Y-72624031D01*
X193810563Y-72818685D01*
X193610684Y-73056911D01*
X193461121Y-73329554D01*
X193367622Y-73626137D01*
X193035000Y-73626137D01*
X193035000Y-70738072D01*
X193100000Y-70738072D01*
X193224482Y-70725812D01*
X193344180Y-70689502D01*
X193454494Y-70630537D01*
X193551185Y-70551185D01*
X193630537Y-70454494D01*
X193689502Y-70344180D01*
X193725812Y-70224482D01*
X193738072Y-70100000D01*
X193738072Y-68725638D01*
X195171908Y-67291803D01*
X195211396Y-67259396D01*
X195275104Y-67181768D01*
X195340734Y-67101798D01*
X195431304Y-66932352D01*
X195436841Y-66921993D01*
X195496024Y-66726895D01*
X195511000Y-66574838D01*
X195511000Y-66574835D01*
X195516007Y-66524000D01*
X195511000Y-66473165D01*
X195511000Y-64400655D01*
X195561120Y-64350535D01*
X195714005Y-64121727D01*
X195809500Y-63891183D01*
X195904995Y-64121727D01*
X196057880Y-64350535D01*
X196252465Y-64545120D01*
X196481273Y-64698005D01*
X196735510Y-64803314D01*
X197005408Y-64857000D01*
X197280592Y-64857000D01*
X197405081Y-64832238D01*
X200673952Y-68101110D01*
X200622463Y-68178169D01*
X200491675Y-68493919D01*
X200425000Y-68829117D01*
X200425000Y-69170883D01*
X200491675Y-69506081D01*
X200506931Y-69542912D01*
X197671676Y-72378167D01*
X197460000Y-72357319D01*
X197148797Y-72387970D01*
X196849552Y-72478745D01*
X196573766Y-72626155D01*
X196332037Y-72824537D01*
X196184837Y-73003899D01*
X196029437Y-72818685D01*
X195786923Y-72624031D01*
X195511094Y-72480429D01*
X195292980Y-72409437D01*
X195047000Y-72529406D01*
X195047000Y-73873000D01*
X195067000Y-73873000D01*
X195067000Y-74127000D01*
X195047000Y-74127000D01*
X195047000Y-75470594D01*
X195292980Y-75590563D01*
X195511094Y-75519571D01*
X195786923Y-75375969D01*
X196029437Y-75181315D01*
X196184838Y-74996100D01*
X196332037Y-75175463D01*
X196573765Y-75373845D01*
X196849551Y-75521255D01*
X197148796Y-75612030D01*
X197460000Y-75642681D01*
X197771203Y-75612030D01*
X198070448Y-75521255D01*
X198346234Y-75373845D01*
X198472095Y-75270553D01*
X198516963Y-75354494D01*
X198596315Y-75451185D01*
X198693006Y-75530537D01*
X198803320Y-75589502D01*
X198923018Y-75625812D01*
X199047500Y-75638072D01*
X200952500Y-75638072D01*
X201076982Y-75625812D01*
X201196680Y-75589502D01*
X201306994Y-75530537D01*
X201403685Y-75451185D01*
X201483037Y-75354494D01*
X201542002Y-75244180D01*
X201578312Y-75124482D01*
X201590572Y-75000000D01*
X201590572Y-73000000D01*
X201578312Y-72875518D01*
X201542002Y-72755820D01*
X201483037Y-72645506D01*
X201403685Y-72548815D01*
X201306994Y-72469463D01*
X201196680Y-72410498D01*
X201076982Y-72374188D01*
X200952500Y-72361928D01*
X199908229Y-72361928D01*
X201617088Y-70653069D01*
X201653919Y-70668325D01*
X201989117Y-70735000D01*
X202330883Y-70735000D01*
X202666081Y-70668325D01*
X202981831Y-70537537D01*
X203265998Y-70347663D01*
X203507663Y-70105998D01*
X203697537Y-69821831D01*
X203828325Y-69506081D01*
X203895000Y-69170883D01*
X203895000Y-68829117D01*
X203828325Y-68493919D01*
X203697537Y-68178169D01*
X203507663Y-67894002D01*
X203265998Y-67652337D01*
X202981831Y-67462463D01*
X202666081Y-67331675D01*
X202330883Y-67265000D01*
X202058158Y-67265000D01*
X198515238Y-63722081D01*
X198540000Y-63597592D01*
X198540000Y-63322408D01*
X198486314Y-63052510D01*
X198381005Y-62798273D01*
X198228120Y-62569465D01*
X198033535Y-62374880D01*
X197804727Y-62221995D01*
X197550490Y-62116686D01*
X197280592Y-62063000D01*
X197005408Y-62063000D01*
X196735510Y-62116686D01*
X196481273Y-62221995D01*
X196252465Y-62374880D01*
X196057880Y-62569465D01*
X195904995Y-62798273D01*
X195809500Y-63028817D01*
X195714005Y-62798273D01*
X195561120Y-62569465D01*
X195366535Y-62374880D01*
X195137727Y-62221995D01*
X194883490Y-62116686D01*
X194613592Y-62063000D01*
X194542711Y-62063000D01*
X194035000Y-61555290D01*
X194035000Y-58428710D01*
X194377107Y-58086604D01*
X194410498Y-58196680D01*
X194469463Y-58306994D01*
X194548815Y-58403685D01*
X194645506Y-58483037D01*
X194755820Y-58542002D01*
X194875518Y-58578312D01*
X195000000Y-58590572D01*
X197000000Y-58590572D01*
X197124482Y-58578312D01*
X197244180Y-58542002D01*
X197354494Y-58483037D01*
X197451185Y-58403685D01*
X197530537Y-58306994D01*
X197589502Y-58196680D01*
X197625812Y-58076982D01*
X197629947Y-58035000D01*
X198933172Y-58035000D01*
X198984000Y-58040006D01*
X199034828Y-58035000D01*
X199034838Y-58035000D01*
X199186895Y-58020024D01*
X199381993Y-57960841D01*
X199561797Y-57864734D01*
X199719396Y-57735396D01*
X199751807Y-57695903D01*
X200526711Y-56921000D01*
X200597592Y-56921000D01*
X200867490Y-56867314D01*
X201121727Y-56762005D01*
X201350535Y-56609120D01*
X201545120Y-56414535D01*
X201698005Y-56185727D01*
X201803314Y-55931490D01*
X201857000Y-55661592D01*
X201857000Y-55386408D01*
X201803314Y-55116510D01*
X201698005Y-54862273D01*
X201545120Y-54633465D01*
X201350535Y-54438880D01*
X201121727Y-54285995D01*
X200886090Y-54188390D01*
X201063023Y-54124636D01*
X201178980Y-54062656D01*
X201245960Y-53822565D01*
X200460000Y-53036605D01*
X199674040Y-53822565D01*
X199741020Y-54062656D01*
X199990048Y-54179756D01*
X200030516Y-54189796D01*
X199798273Y-54285995D01*
X199569465Y-54438880D01*
X199374880Y-54633465D01*
X199221995Y-54862273D01*
X199116686Y-55116510D01*
X199063000Y-55386408D01*
X199063000Y-55457289D01*
X198555290Y-55965000D01*
X197629947Y-55965000D01*
X197625812Y-55923018D01*
X197589502Y-55803320D01*
X197530537Y-55693006D01*
X197451185Y-55596315D01*
X197354494Y-55516963D01*
X197262781Y-55467941D01*
X197375969Y-55326923D01*
X197519571Y-55051094D01*
X197590563Y-54832980D01*
X197470594Y-54587000D01*
X196127000Y-54587000D01*
X196127000Y-54607000D01*
X195873000Y-54607000D01*
X195873000Y-54587000D01*
X194529406Y-54587000D01*
X194409437Y-54832980D01*
X194480429Y-55051094D01*
X194624031Y-55326923D01*
X194737219Y-55467941D01*
X194645506Y-55516963D01*
X194548815Y-55596315D01*
X194469463Y-55693006D01*
X194410498Y-55803320D01*
X194374188Y-55923018D01*
X194370053Y-55965000D01*
X194050835Y-55965000D01*
X194000000Y-55959993D01*
X193949165Y-55965000D01*
X193949162Y-55965000D01*
X193797105Y-55979976D01*
X193647415Y-56025385D01*
X193602006Y-56039159D01*
X193422202Y-56135266D01*
X193358475Y-56187566D01*
X193264604Y-56264604D01*
X193232197Y-56304092D01*
X192304097Y-57232193D01*
X192264604Y-57264604D01*
X192135266Y-57422203D01*
X192039159Y-57602008D01*
X191979976Y-57797106D01*
X191965000Y-57949163D01*
X191965000Y-57949172D01*
X191959994Y-58000000D01*
X191965000Y-58050828D01*
X191965001Y-61933162D01*
X191959994Y-61984000D01*
X191979977Y-62186895D01*
X192039160Y-62381993D01*
X192135266Y-62561797D01*
X192225054Y-62671203D01*
X192264605Y-62719396D01*
X192304092Y-62751802D01*
X193079000Y-63526711D01*
X193079000Y-63597592D01*
X193132686Y-63867490D01*
X193237995Y-64121727D01*
X193390880Y-64350535D01*
X193441000Y-64400655D01*
X193441001Y-66095288D01*
X192274362Y-67261928D01*
X190900000Y-67261928D01*
X190775518Y-67274188D01*
X190655820Y-67310498D01*
X190545506Y-67369463D01*
X190448815Y-67448815D01*
X190369463Y-67545506D01*
X190310498Y-67655820D01*
X190274188Y-67775518D01*
X190261928Y-67900000D01*
X190261928Y-70100000D01*
X190274188Y-70224482D01*
X190310498Y-70344180D01*
X190369463Y-70454494D01*
X190448815Y-70551185D01*
X190545506Y-70630537D01*
X190655820Y-70689502D01*
X190775518Y-70725812D01*
X190900000Y-70738072D01*
X190965000Y-70738072D01*
X190965001Y-79329162D01*
X190959994Y-79380000D01*
X190979977Y-79582895D01*
X191039160Y-79777993D01*
X191135266Y-79957797D01*
X191202039Y-80039159D01*
X191264605Y-80115396D01*
X191304092Y-80147802D01*
X192185000Y-81028711D01*
X192185000Y-81141335D01*
X192240147Y-81418574D01*
X192317367Y-81604999D01*
X189728553Y-81604999D01*
X189690000Y-81601202D01*
X189651447Y-81604999D01*
X189651440Y-81604999D01*
X189550491Y-81614942D01*
X189536113Y-81616358D01*
X189512863Y-81623411D01*
X189388141Y-81661245D01*
X189251768Y-81734137D01*
X189203633Y-81773641D01*
X189162188Y-81807654D01*
X189162185Y-81807657D01*
X189132237Y-81832235D01*
X189107659Y-81862183D01*
X187435000Y-83534842D01*
X187435000Y-83398665D01*
X187379853Y-83121426D01*
X187271680Y-82860273D01*
X187114637Y-82625241D01*
X186916039Y-82426643D01*
X186924482Y-82425812D01*
X187044180Y-82389502D01*
X187154494Y-82330537D01*
X187251185Y-82251185D01*
X187330537Y-82154494D01*
X187389502Y-82044180D01*
X187425812Y-81924482D01*
X187438072Y-81800000D01*
X187438072Y-80200000D01*
X187425812Y-80075518D01*
X187389502Y-79955820D01*
X187330537Y-79845506D01*
X187251185Y-79748815D01*
X187154494Y-79669463D01*
X187044180Y-79610498D01*
X186924482Y-79574188D01*
X186800000Y-79561928D01*
X185200000Y-79561928D01*
X185075518Y-79574188D01*
X184955820Y-79610498D01*
X184845506Y-79669463D01*
X184748815Y-79748815D01*
X184669463Y-79845506D01*
X184610498Y-79955820D01*
X184574188Y-80075518D01*
X184561928Y-80200000D01*
X184561928Y-80215000D01*
X183201339Y-80215000D01*
X183114637Y-80085241D01*
X182914759Y-79885363D01*
X182679727Y-79728320D01*
X182418574Y-79620147D01*
X182141335Y-79565000D01*
X181858665Y-79565000D01*
X181581426Y-79620147D01*
X181320273Y-79728320D01*
X181085241Y-79885363D01*
X180885363Y-80085241D01*
X180728320Y-80320273D01*
X180620147Y-80581426D01*
X180565000Y-80858665D01*
X180565000Y-81141335D01*
X180620147Y-81418574D01*
X180728320Y-81679727D01*
X180885363Y-81914759D01*
X181085241Y-82114637D01*
X181320273Y-82271680D01*
X181581426Y-82379853D01*
X181858665Y-82435000D01*
X182141335Y-82435000D01*
X182418574Y-82379853D01*
X182679727Y-82271680D01*
X182914759Y-82114637D01*
X183114637Y-81914759D01*
X183201339Y-81785000D01*
X184561928Y-81785000D01*
X184561928Y-81800000D01*
X184574188Y-81924482D01*
X184610498Y-82044180D01*
X184669463Y-82154494D01*
X184748815Y-82251185D01*
X184845506Y-82330537D01*
X184955820Y-82389502D01*
X185075518Y-82425812D01*
X185083961Y-82426643D01*
X184885363Y-82625241D01*
X184728320Y-82860273D01*
X184620147Y-83121426D01*
X184565000Y-83398665D01*
X184565000Y-83681335D01*
X184595446Y-83834396D01*
X181472185Y-86957658D01*
X181458800Y-86968643D01*
X178785000Y-84294843D01*
X178785000Y-82201339D01*
X178914759Y-82114637D01*
X179114637Y-81914759D01*
X179271680Y-81679727D01*
X179379853Y-81418574D01*
X179435000Y-81141335D01*
X179435000Y-80858665D01*
X179379853Y-80581426D01*
X179271680Y-80320273D01*
X179114637Y-80085241D01*
X178914759Y-79885363D01*
X178679727Y-79728320D01*
X178418574Y-79620147D01*
X178141335Y-79565000D01*
X177858665Y-79565000D01*
X177581426Y-79620147D01*
X177320273Y-79728320D01*
X177085241Y-79885363D01*
X176885363Y-80085241D01*
X176728320Y-80320273D01*
X176620147Y-80581426D01*
X176565000Y-80858665D01*
X175055000Y-80858665D01*
X174999853Y-80581426D01*
X174891680Y-80320273D01*
X174734637Y-80085241D01*
X174655000Y-80005604D01*
X174655000Y-78655000D01*
X182329172Y-78655000D01*
X182380000Y-78660006D01*
X182430828Y-78655000D01*
X182430838Y-78655000D01*
X182582895Y-78640024D01*
X182777993Y-78580841D01*
X182957797Y-78484734D01*
X183115396Y-78355396D01*
X183147807Y-78315903D01*
X186495908Y-74967803D01*
X186535396Y-74935396D01*
X186567803Y-74895908D01*
X186664734Y-74777798D01*
X186729909Y-74655862D01*
X186760841Y-74597993D01*
X186820024Y-74402895D01*
X186835000Y-74250838D01*
X186835000Y-74250829D01*
X186840006Y-74200001D01*
X186835000Y-74149173D01*
X186835000Y-68560655D01*
X186885120Y-68510535D01*
X187038005Y-68281727D01*
X187143314Y-68027490D01*
X187197000Y-67757592D01*
X187197000Y-67482408D01*
X187143314Y-67212510D01*
X187038005Y-66958273D01*
X186885120Y-66729465D01*
X186690535Y-66534880D01*
X186461727Y-66381995D01*
X186207490Y-66276686D01*
X185937592Y-66223000D01*
X185662408Y-66223000D01*
X185392510Y-66276686D01*
X185138273Y-66381995D01*
X184909465Y-66534880D01*
X184714880Y-66729465D01*
X184561995Y-66958273D01*
X184532308Y-67029943D01*
X184527636Y-67016977D01*
X184465656Y-66901020D01*
X184225565Y-66834040D01*
X183439605Y-67620000D01*
X184225565Y-68405960D01*
X184465656Y-68338980D01*
X184529485Y-68203240D01*
X184561995Y-68281727D01*
X184714880Y-68510535D01*
X184765000Y-68560655D01*
X184765001Y-73771288D01*
X181951290Y-76585000D01*
X174048710Y-76585000D01*
X173767807Y-76304097D01*
X173735396Y-76264604D01*
X173577797Y-76135266D01*
X173397993Y-76039159D01*
X173202895Y-75979976D01*
X173050838Y-75965000D01*
X173050828Y-75965000D01*
X173000000Y-75959994D01*
X172949172Y-75965000D01*
X171994396Y-75965000D01*
X171914759Y-75885363D01*
X171679727Y-75728320D01*
X171418574Y-75620147D01*
X171141335Y-75565000D01*
X170858665Y-75565000D01*
X170581426Y-75620147D01*
X170320273Y-75728320D01*
X170085241Y-75885363D01*
X169885363Y-76085241D01*
X169751308Y-76285869D01*
X169736671Y-76258486D01*
X169492702Y-76186903D01*
X168679605Y-77000000D01*
X168693748Y-77014143D01*
X168514143Y-77193748D01*
X168500000Y-77179605D01*
X168485858Y-77193748D01*
X168306253Y-77014143D01*
X168320395Y-77000000D01*
X167507298Y-76186903D01*
X167263329Y-76258486D01*
X167142429Y-76513996D01*
X167073700Y-76788184D01*
X167059783Y-77070512D01*
X167101213Y-77350130D01*
X167196397Y-77616292D01*
X167263329Y-77741514D01*
X167507296Y-77813097D01*
X167391023Y-77929370D01*
X167426653Y-77965000D01*
X164050827Y-77965000D01*
X163999999Y-77959994D01*
X163949171Y-77965000D01*
X163949162Y-77965000D01*
X163797105Y-77979976D01*
X163602007Y-78039159D01*
X163529077Y-78078141D01*
X163422202Y-78135266D01*
X163311504Y-78226114D01*
X163264604Y-78264604D01*
X163232197Y-78304092D01*
X161971290Y-79565000D01*
X161858665Y-79565000D01*
X161581426Y-79620147D01*
X161320273Y-79728320D01*
X161085241Y-79885363D01*
X161005604Y-79965000D01*
X158994396Y-79965000D01*
X158914759Y-79885363D01*
X158679727Y-79728320D01*
X158418574Y-79620147D01*
X158141335Y-79565000D01*
X157858665Y-79565000D01*
X157581426Y-79620147D01*
X157320273Y-79728320D01*
X157085241Y-79885363D01*
X157005604Y-79965000D01*
X154431544Y-79965000D01*
X154427932Y-79946842D01*
X154315990Y-79676589D01*
X154153475Y-79433368D01*
X153946632Y-79226525D01*
X153764466Y-79104805D01*
X153881355Y-79035178D01*
X154097588Y-78840269D01*
X154271641Y-78606920D01*
X154396825Y-78344099D01*
X154441476Y-78196890D01*
X154320155Y-77967000D01*
X153127000Y-77967000D01*
X153127000Y-77987000D01*
X152873000Y-77987000D01*
X152873000Y-77967000D01*
X151679845Y-77967000D01*
X151558524Y-78196890D01*
X151603175Y-78344099D01*
X151728359Y-78606920D01*
X151902412Y-78840269D01*
X152118645Y-79035178D01*
X152235534Y-79104805D01*
X152053368Y-79226525D01*
X151934893Y-79345000D01*
X150670827Y-79345000D01*
X150619999Y-79339994D01*
X150569171Y-79345000D01*
X150569162Y-79345000D01*
X150417105Y-79359976D01*
X150222007Y-79419159D01*
X150138309Y-79463896D01*
X150042202Y-79515266D01*
X150020015Y-79533475D01*
X149884604Y-79644604D01*
X149852193Y-79684097D01*
X149304097Y-80232193D01*
X149264604Y-80264604D01*
X149135266Y-80422203D01*
X149039159Y-80602008D01*
X148979976Y-80797106D01*
X148965000Y-80949163D01*
X148965000Y-80949172D01*
X148959994Y-81000000D01*
X148965000Y-81050828D01*
X148965001Y-83909742D01*
X148883413Y-83880192D01*
X147927605Y-84836000D01*
X147941748Y-84850143D01*
X147762143Y-85029748D01*
X147748000Y-85015605D01*
X147733858Y-85029748D01*
X147554253Y-84850143D01*
X147568395Y-84836000D01*
X146612587Y-83880192D01*
X146348186Y-83975956D01*
X146207296Y-84265571D01*
X146125616Y-84577108D01*
X146106282Y-84898595D01*
X146150039Y-85217675D01*
X146255205Y-85522088D01*
X146348186Y-85696044D01*
X146612585Y-85791807D01*
X146496917Y-85907475D01*
X146554442Y-85965000D01*
X144428711Y-85965000D01*
X144378329Y-85914618D01*
X144386072Y-85836000D01*
X144386072Y-83836000D01*
X144373812Y-83711518D01*
X144370497Y-83700587D01*
X146792192Y-83700587D01*
X147748000Y-84656395D01*
X148703808Y-83700587D01*
X148608044Y-83436186D01*
X148318429Y-83295296D01*
X148006892Y-83213616D01*
X147685405Y-83194282D01*
X147366325Y-83238039D01*
X147061912Y-83343205D01*
X146887956Y-83436186D01*
X146792192Y-83700587D01*
X144370497Y-83700587D01*
X144337502Y-83591820D01*
X144278537Y-83481506D01*
X144199185Y-83384815D01*
X144102494Y-83305463D01*
X143992180Y-83246498D01*
X143872482Y-83210188D01*
X143748000Y-83197928D01*
X141748000Y-83197928D01*
X141623518Y-83210188D01*
X141503820Y-83246498D01*
X141393506Y-83305463D01*
X141296815Y-83384815D01*
X141217463Y-83481506D01*
X141158498Y-83591820D01*
X141122188Y-83711518D01*
X141109928Y-83836000D01*
X141109928Y-84965000D01*
X138457454Y-84965000D01*
X138439502Y-84905820D01*
X138380537Y-84795506D01*
X138301185Y-84698815D01*
X138204494Y-84619463D01*
X138094180Y-84560498D01*
X138013534Y-84536034D01*
X138097588Y-84460269D01*
X138271641Y-84226920D01*
X138396825Y-83964099D01*
X138441476Y-83816890D01*
X138320155Y-83587000D01*
X137127000Y-83587000D01*
X137127000Y-83607000D01*
X136873000Y-83607000D01*
X136873000Y-83587000D01*
X136853000Y-83587000D01*
X136853000Y-83333000D01*
X136873000Y-83333000D01*
X136873000Y-83313000D01*
X137127000Y-83313000D01*
X137127000Y-83333000D01*
X138320155Y-83333000D01*
X138441476Y-83103110D01*
X138396825Y-82955901D01*
X138271641Y-82693080D01*
X138097588Y-82459731D01*
X137881355Y-82264822D01*
X137764466Y-82195195D01*
X137946632Y-82073475D01*
X138153475Y-81866632D01*
X138261474Y-81705000D01*
X144041447Y-81705000D01*
X144080000Y-81708797D01*
X144118553Y-81705000D01*
X144118561Y-81705000D01*
X144233887Y-81693641D01*
X144381860Y-81648754D01*
X144518233Y-81575862D01*
X144637764Y-81477764D01*
X144662347Y-81447810D01*
X148627047Y-77483110D01*
X151558524Y-77483110D01*
X151679845Y-77713000D01*
X152873000Y-77713000D01*
X152873000Y-76519186D01*
X153127000Y-76519186D01*
X153127000Y-77713000D01*
X154320155Y-77713000D01*
X154441476Y-77483110D01*
X154396825Y-77335901D01*
X154271641Y-77073080D01*
X154097588Y-76839731D01*
X153881355Y-76644822D01*
X153631252Y-76495843D01*
X153356891Y-76398519D01*
X153127000Y-76519186D01*
X152873000Y-76519186D01*
X152643109Y-76398519D01*
X152368748Y-76495843D01*
X152118645Y-76644822D01*
X151902412Y-76839731D01*
X151728359Y-77073080D01*
X151603175Y-77335901D01*
X151558524Y-77483110D01*
X148627047Y-77483110D01*
X150102859Y-76007298D01*
X167686903Y-76007298D01*
X168500000Y-76820395D01*
X169313097Y-76007298D01*
X169241514Y-75763329D01*
X168986004Y-75642429D01*
X168711816Y-75573700D01*
X168429488Y-75559783D01*
X168149870Y-75601213D01*
X167883708Y-75696397D01*
X167758486Y-75763329D01*
X167686903Y-76007298D01*
X150102859Y-76007298D01*
X150767810Y-75342347D01*
X150797764Y-75317764D01*
X150895862Y-75198233D01*
X150968754Y-75061860D01*
X150987519Y-75000000D01*
X151013642Y-74913887D01*
X151024009Y-74808621D01*
X151025000Y-74798561D01*
X151025000Y-74798556D01*
X151028797Y-74760000D01*
X151025000Y-74721444D01*
X151025000Y-68775636D01*
X151130535Y-68705120D01*
X151325120Y-68510535D01*
X151478005Y-68281727D01*
X151510000Y-68204485D01*
X151541995Y-68281727D01*
X151694880Y-68510535D01*
X151889465Y-68705120D01*
X152118273Y-68858005D01*
X152372510Y-68963314D01*
X152642408Y-69017000D01*
X152917592Y-69017000D01*
X153187490Y-68963314D01*
X153441727Y-68858005D01*
X153670535Y-68705120D01*
X153865120Y-68510535D01*
X154018005Y-68281727D01*
X154050000Y-68204485D01*
X154081995Y-68281727D01*
X154234880Y-68510535D01*
X154429465Y-68705120D01*
X154658273Y-68858005D01*
X154912510Y-68963314D01*
X155182408Y-69017000D01*
X155457592Y-69017000D01*
X155727490Y-68963314D01*
X155981727Y-68858005D01*
X156210535Y-68705120D01*
X156405120Y-68510535D01*
X156558005Y-68281727D01*
X156590000Y-68204485D01*
X156621995Y-68281727D01*
X156774880Y-68510535D01*
X156969465Y-68705120D01*
X157198273Y-68858005D01*
X157452510Y-68963314D01*
X157722408Y-69017000D01*
X157997592Y-69017000D01*
X158267490Y-68963314D01*
X158521727Y-68858005D01*
X158750535Y-68705120D01*
X158945120Y-68510535D01*
X159098005Y-68281727D01*
X159130000Y-68204485D01*
X159161995Y-68281727D01*
X159314880Y-68510535D01*
X159509465Y-68705120D01*
X159738273Y-68858005D01*
X159992510Y-68963314D01*
X160262408Y-69017000D01*
X160537592Y-69017000D01*
X160807490Y-68963314D01*
X161061727Y-68858005D01*
X161290535Y-68705120D01*
X161485120Y-68510535D01*
X161638005Y-68281727D01*
X161670000Y-68204485D01*
X161701995Y-68281727D01*
X161854880Y-68510535D01*
X162049465Y-68705120D01*
X162278273Y-68858005D01*
X162532510Y-68963314D01*
X162802408Y-69017000D01*
X163077592Y-69017000D01*
X163347490Y-68963314D01*
X163601727Y-68858005D01*
X163830535Y-68705120D01*
X164025120Y-68510535D01*
X164178005Y-68281727D01*
X164210000Y-68204485D01*
X164241995Y-68281727D01*
X164394880Y-68510535D01*
X164589465Y-68705120D01*
X164818273Y-68858005D01*
X165072510Y-68963314D01*
X165342408Y-69017000D01*
X165617592Y-69017000D01*
X165887490Y-68963314D01*
X166141727Y-68858005D01*
X166370535Y-68705120D01*
X166565120Y-68510535D01*
X166718005Y-68281727D01*
X166750000Y-68204485D01*
X166781995Y-68281727D01*
X166934880Y-68510535D01*
X167129465Y-68705120D01*
X167358273Y-68858005D01*
X167612510Y-68963314D01*
X167882408Y-69017000D01*
X168157592Y-69017000D01*
X168427490Y-68963314D01*
X168681727Y-68858005D01*
X168910535Y-68705120D01*
X169105120Y-68510535D01*
X169258005Y-68281727D01*
X169290000Y-68204485D01*
X169321995Y-68281727D01*
X169474880Y-68510535D01*
X169669465Y-68705120D01*
X169898273Y-68858005D01*
X170152510Y-68963314D01*
X170422408Y-69017000D01*
X170697592Y-69017000D01*
X170967490Y-68963314D01*
X171221727Y-68858005D01*
X171450535Y-68705120D01*
X171645120Y-68510535D01*
X171798005Y-68281727D01*
X171830000Y-68204485D01*
X171861995Y-68281727D01*
X172014880Y-68510535D01*
X172209465Y-68705120D01*
X172438273Y-68858005D01*
X172692510Y-68963314D01*
X172962408Y-69017000D01*
X173237592Y-69017000D01*
X173507490Y-68963314D01*
X173761727Y-68858005D01*
X173990535Y-68705120D01*
X174185120Y-68510535D01*
X174338005Y-68281727D01*
X174370000Y-68204485D01*
X174401995Y-68281727D01*
X174554880Y-68510535D01*
X174749465Y-68705120D01*
X174978273Y-68858005D01*
X175232510Y-68963314D01*
X175502408Y-69017000D01*
X175777592Y-69017000D01*
X176047490Y-68963314D01*
X176282999Y-68865762D01*
X176283000Y-70796476D01*
X176279202Y-70835039D01*
X176294358Y-70988925D01*
X176339245Y-71136898D01*
X176339246Y-71136899D01*
X176412138Y-71273272D01*
X176447990Y-71316957D01*
X176485654Y-71362851D01*
X176485658Y-71362855D01*
X176510236Y-71392803D01*
X176540184Y-71417381D01*
X179350720Y-74227918D01*
X179350720Y-74356299D01*
X179390494Y-74556258D01*
X179468515Y-74744616D01*
X179581783Y-74914134D01*
X179725946Y-75058297D01*
X179895464Y-75171565D01*
X180083822Y-75249586D01*
X180283781Y-75289360D01*
X180487659Y-75289360D01*
X180687618Y-75249586D01*
X180875976Y-75171565D01*
X181045494Y-75058297D01*
X181189657Y-74914134D01*
X181302925Y-74744616D01*
X181380946Y-74556258D01*
X181420720Y-74356299D01*
X181420720Y-74152421D01*
X181380946Y-73952462D01*
X181302925Y-73764104D01*
X181189657Y-73594586D01*
X181045494Y-73450423D01*
X180875976Y-73337155D01*
X180687618Y-73259134D01*
X180581055Y-73237938D01*
X177852999Y-70509882D01*
X177852999Y-68979324D01*
X178042408Y-69017000D01*
X178317592Y-69017000D01*
X178587490Y-68963314D01*
X178841727Y-68858005D01*
X179070535Y-68705120D01*
X179265120Y-68510535D01*
X179418005Y-68281727D01*
X179450000Y-68204485D01*
X179481995Y-68281727D01*
X179634880Y-68510535D01*
X179829465Y-68705120D01*
X180058273Y-68858005D01*
X180312510Y-68963314D01*
X180582408Y-69017000D01*
X180857592Y-69017000D01*
X181127490Y-68963314D01*
X181381727Y-68858005D01*
X181610535Y-68705120D01*
X181730090Y-68585565D01*
X182474040Y-68585565D01*
X182541020Y-68825656D01*
X182790048Y-68942756D01*
X183057135Y-69009023D01*
X183332017Y-69021910D01*
X183604133Y-68980922D01*
X183863023Y-68887636D01*
X183978980Y-68825656D01*
X184045960Y-68585565D01*
X183260000Y-67799605D01*
X182474040Y-68585565D01*
X181730090Y-68585565D01*
X181805120Y-68510535D01*
X181958005Y-68281727D01*
X181987692Y-68210057D01*
X181992364Y-68223023D01*
X182054344Y-68338980D01*
X182294435Y-68405960D01*
X183080395Y-67620000D01*
X182294435Y-66834040D01*
X182054344Y-66901020D01*
X181990515Y-67036760D01*
X181958005Y-66958273D01*
X181805120Y-66729465D01*
X181755000Y-66679345D01*
X181755000Y-66654435D01*
X182474040Y-66654435D01*
X183260000Y-67440395D01*
X184045960Y-66654435D01*
X183978980Y-66414344D01*
X183729952Y-66297244D01*
X183462865Y-66230977D01*
X183187983Y-66218090D01*
X182915867Y-66259078D01*
X182656977Y-66352364D01*
X182541020Y-66414344D01*
X182474040Y-66654435D01*
X181755000Y-66654435D01*
X181755000Y-65828710D01*
X186327803Y-61255908D01*
X186363937Y-61219774D01*
X186363939Y-61219771D01*
X194628711Y-52955000D01*
X194748244Y-52955000D01*
X194824537Y-53047963D01*
X195003899Y-53195163D01*
X194818685Y-53350563D01*
X194624031Y-53593077D01*
X194480429Y-53868906D01*
X194409437Y-54087020D01*
X194529406Y-54333000D01*
X195873000Y-54333000D01*
X195873000Y-54313000D01*
X196127000Y-54313000D01*
X196127000Y-54333000D01*
X197470594Y-54333000D01*
X197590563Y-54087020D01*
X197519571Y-53868906D01*
X197375969Y-53593077D01*
X197181315Y-53350563D01*
X196996101Y-53195163D01*
X197175463Y-53047963D01*
X197273079Y-52929017D01*
X199058090Y-52929017D01*
X199099078Y-53201133D01*
X199192364Y-53460023D01*
X199254344Y-53575980D01*
X199494435Y-53642960D01*
X200280395Y-52857000D01*
X200639605Y-52857000D01*
X201425565Y-53642960D01*
X201665656Y-53575980D01*
X201782756Y-53326952D01*
X201849023Y-53059865D01*
X201861910Y-52784983D01*
X201820922Y-52512867D01*
X201727636Y-52253977D01*
X201665656Y-52138020D01*
X201425565Y-52071040D01*
X200639605Y-52857000D01*
X200280395Y-52857000D01*
X199494435Y-52071040D01*
X199254344Y-52138020D01*
X199137244Y-52387048D01*
X199070977Y-52654135D01*
X199058090Y-52929017D01*
X197273079Y-52929017D01*
X197373845Y-52806235D01*
X197521255Y-52530449D01*
X197612030Y-52231204D01*
X197642681Y-51920000D01*
X197639868Y-51891435D01*
X199674040Y-51891435D01*
X200460000Y-52677395D01*
X201245960Y-51891435D01*
X201178980Y-51651344D01*
X200929952Y-51534244D01*
X200662865Y-51467977D01*
X200387983Y-51455090D01*
X200115867Y-51496078D01*
X199856977Y-51589364D01*
X199741020Y-51651344D01*
X199674040Y-51891435D01*
X197639868Y-51891435D01*
X197612030Y-51608796D01*
X197521255Y-51309551D01*
X197373845Y-51033765D01*
X197175463Y-50792037D01*
X196933735Y-50593655D01*
X196657949Y-50446245D01*
X196358704Y-50355470D01*
X196125486Y-50332500D01*
X195874514Y-50332500D01*
X195641296Y-50355470D01*
X195342051Y-50446245D01*
X195066265Y-50593655D01*
X194824537Y-50792037D01*
X194748244Y-50885000D01*
X194250827Y-50885000D01*
X194199999Y-50879994D01*
X194149171Y-50885000D01*
X194149162Y-50885000D01*
X193997105Y-50899976D01*
X193802007Y-50959159D01*
X193766590Y-50978090D01*
X193622202Y-51055266D01*
X193516523Y-51141995D01*
X193464604Y-51184604D01*
X193432197Y-51224092D01*
X184900229Y-59756061D01*
X184900226Y-59756063D01*
X184864092Y-59792197D01*
X180024097Y-64632193D01*
X179984604Y-64664604D01*
X179855266Y-64822203D01*
X179759159Y-65002008D01*
X179699976Y-65197106D01*
X179685000Y-65349163D01*
X179685000Y-65349172D01*
X179679994Y-65400000D01*
X179685000Y-65450828D01*
X179685001Y-66679344D01*
X179634880Y-66729465D01*
X179481995Y-66958273D01*
X179450000Y-67035515D01*
X179418005Y-66958273D01*
X179265120Y-66729465D01*
X179070535Y-66534880D01*
X178841727Y-66381995D01*
X178587490Y-66276686D01*
X178317592Y-66223000D01*
X178042408Y-66223000D01*
X177772510Y-66276686D01*
X177518273Y-66381995D01*
X177491681Y-66399763D01*
X172588367Y-61496450D01*
X172563784Y-61466496D01*
X172444253Y-61368398D01*
X172307880Y-61295506D01*
X172159907Y-61250619D01*
X172044581Y-61239260D01*
X172044573Y-61239260D01*
X172006020Y-61235463D01*
X171967467Y-61239260D01*
X167829418Y-61239260D01*
X160367157Y-53777000D01*
X160537592Y-53777000D01*
X160807490Y-53723314D01*
X161061727Y-53618005D01*
X161290535Y-53465120D01*
X161485120Y-53270535D01*
X161638005Y-53041727D01*
X161670000Y-52964485D01*
X161701995Y-53041727D01*
X161854880Y-53270535D01*
X162049465Y-53465120D01*
X162278273Y-53618005D01*
X162532510Y-53723314D01*
X162802408Y-53777000D01*
X163077592Y-53777000D01*
X163347490Y-53723314D01*
X163601727Y-53618005D01*
X163830535Y-53465120D01*
X164025120Y-53270535D01*
X164178005Y-53041727D01*
X164210000Y-52964485D01*
X164241995Y-53041727D01*
X164394880Y-53270535D01*
X164589465Y-53465120D01*
X164818273Y-53618005D01*
X165072510Y-53723314D01*
X165342408Y-53777000D01*
X165617592Y-53777000D01*
X165887490Y-53723314D01*
X166141727Y-53618005D01*
X166370535Y-53465120D01*
X166565120Y-53270535D01*
X166718005Y-53041727D01*
X166750000Y-52964485D01*
X166781995Y-53041727D01*
X166934880Y-53270535D01*
X167129465Y-53465120D01*
X167358273Y-53618005D01*
X167612510Y-53723314D01*
X167882408Y-53777000D01*
X168157592Y-53777000D01*
X168427490Y-53723314D01*
X168681727Y-53618005D01*
X168910535Y-53465120D01*
X169105120Y-53270535D01*
X169258005Y-53041727D01*
X169290000Y-52964485D01*
X169321995Y-53041727D01*
X169474880Y-53270535D01*
X169669465Y-53465120D01*
X169898273Y-53618005D01*
X170152510Y-53723314D01*
X170422408Y-53777000D01*
X170697592Y-53777000D01*
X170967490Y-53723314D01*
X171221727Y-53618005D01*
X171450535Y-53465120D01*
X171645120Y-53270535D01*
X171798005Y-53041727D01*
X171830000Y-52964485D01*
X171861995Y-53041727D01*
X172014880Y-53270535D01*
X172209465Y-53465120D01*
X172438273Y-53618005D01*
X172692510Y-53723314D01*
X172962408Y-53777000D01*
X173237592Y-53777000D01*
X173507490Y-53723314D01*
X173761727Y-53618005D01*
X173990535Y-53465120D01*
X174185120Y-53270535D01*
X174338005Y-53041727D01*
X174370000Y-52964485D01*
X174401995Y-53041727D01*
X174554880Y-53270535D01*
X174749465Y-53465120D01*
X174978273Y-53618005D01*
X175232510Y-53723314D01*
X175502408Y-53777000D01*
X175777592Y-53777000D01*
X176047490Y-53723314D01*
X176301727Y-53618005D01*
X176530535Y-53465120D01*
X176725120Y-53270535D01*
X176878005Y-53041727D01*
X176910000Y-52964485D01*
X176941995Y-53041727D01*
X177094880Y-53270535D01*
X177289465Y-53465120D01*
X177518273Y-53618005D01*
X177772510Y-53723314D01*
X178042408Y-53777000D01*
X178317592Y-53777000D01*
X178587490Y-53723314D01*
X178841727Y-53618005D01*
X179070535Y-53465120D01*
X179265120Y-53270535D01*
X179418005Y-53041727D01*
X179450000Y-52964485D01*
X179481995Y-53041727D01*
X179634880Y-53270535D01*
X179829465Y-53465120D01*
X180058273Y-53618005D01*
X180312510Y-53723314D01*
X180582408Y-53777000D01*
X180857592Y-53777000D01*
X181127490Y-53723314D01*
X181381727Y-53618005D01*
X181610535Y-53465120D01*
X181805120Y-53270535D01*
X181958005Y-53041727D01*
X181990000Y-52964485D01*
X182021995Y-53041727D01*
X182174880Y-53270535D01*
X182369465Y-53465120D01*
X182598273Y-53618005D01*
X182852510Y-53723314D01*
X183122408Y-53777000D01*
X183397592Y-53777000D01*
X183667490Y-53723314D01*
X183921727Y-53618005D01*
X184150535Y-53465120D01*
X184345120Y-53270535D01*
X184498005Y-53041727D01*
X184530000Y-52964485D01*
X184561995Y-53041727D01*
X184714880Y-53270535D01*
X184909465Y-53465120D01*
X185138273Y-53618005D01*
X185392510Y-53723314D01*
X185662408Y-53777000D01*
X185937592Y-53777000D01*
X186207490Y-53723314D01*
X186461727Y-53618005D01*
X186690535Y-53465120D01*
X186885120Y-53270535D01*
X187038005Y-53041727D01*
X187143314Y-52787490D01*
X187197000Y-52517592D01*
X187197000Y-52242408D01*
X187143314Y-51972510D01*
X187038005Y-51718273D01*
X186885120Y-51489465D01*
X186690535Y-51294880D01*
X186461727Y-51141995D01*
X186207490Y-51036686D01*
X185937592Y-50983000D01*
X185662408Y-50983000D01*
X185392510Y-51036686D01*
X185138273Y-51141995D01*
X184909465Y-51294880D01*
X184714880Y-51489465D01*
X184561995Y-51718273D01*
X184530000Y-51795515D01*
X184498005Y-51718273D01*
X184345120Y-51489465D01*
X184150535Y-51294880D01*
X183921727Y-51141995D01*
X183667490Y-51036686D01*
X183397592Y-50983000D01*
X183122408Y-50983000D01*
X182852510Y-51036686D01*
X182598273Y-51141995D01*
X182369465Y-51294880D01*
X182174880Y-51489465D01*
X182021995Y-51718273D01*
X181990000Y-51795515D01*
X181958005Y-51718273D01*
X181805120Y-51489465D01*
X181610535Y-51294880D01*
X181381727Y-51141995D01*
X181127490Y-51036686D01*
X180857592Y-50983000D01*
X180582408Y-50983000D01*
X180312510Y-51036686D01*
X180058273Y-51141995D01*
X179829465Y-51294880D01*
X179634880Y-51489465D01*
X179481995Y-51718273D01*
X179450000Y-51795515D01*
X179418005Y-51718273D01*
X179265120Y-51489465D01*
X179070535Y-51294880D01*
X178841727Y-51141995D01*
X178587490Y-51036686D01*
X178317592Y-50983000D01*
X178042408Y-50983000D01*
X177772510Y-51036686D01*
X177518273Y-51141995D01*
X177289465Y-51294880D01*
X177094880Y-51489465D01*
X176941995Y-51718273D01*
X176910000Y-51795515D01*
X176878005Y-51718273D01*
X176725120Y-51489465D01*
X176530535Y-51294880D01*
X176301727Y-51141995D01*
X176047490Y-51036686D01*
X175777592Y-50983000D01*
X175502408Y-50983000D01*
X175232510Y-51036686D01*
X174978273Y-51141995D01*
X174749465Y-51294880D01*
X174554880Y-51489465D01*
X174401995Y-51718273D01*
X174370000Y-51795515D01*
X174338005Y-51718273D01*
X174185120Y-51489465D01*
X173990535Y-51294880D01*
X173761727Y-51141995D01*
X173507490Y-51036686D01*
X173237592Y-50983000D01*
X172962408Y-50983000D01*
X172692510Y-51036686D01*
X172438273Y-51141995D01*
X172209465Y-51294880D01*
X172014880Y-51489465D01*
X171861995Y-51718273D01*
X171830000Y-51795515D01*
X171798005Y-51718273D01*
X171645120Y-51489465D01*
X171450535Y-51294880D01*
X171221727Y-51141995D01*
X170967490Y-51036686D01*
X170697592Y-50983000D01*
X170422408Y-50983000D01*
X170152510Y-51036686D01*
X169898273Y-51141995D01*
X169669465Y-51294880D01*
X169474880Y-51489465D01*
X169321995Y-51718273D01*
X169290000Y-51795515D01*
X169258005Y-51718273D01*
X169105120Y-51489465D01*
X168910535Y-51294880D01*
X168681727Y-51141995D01*
X168427490Y-51036686D01*
X168157592Y-50983000D01*
X167882408Y-50983000D01*
X167612510Y-51036686D01*
X167358273Y-51141995D01*
X167129465Y-51294880D01*
X166934880Y-51489465D01*
X166781995Y-51718273D01*
X166750000Y-51795515D01*
X166718005Y-51718273D01*
X166565120Y-51489465D01*
X166370535Y-51294880D01*
X166141727Y-51141995D01*
X165887490Y-51036686D01*
X165617592Y-50983000D01*
X165342408Y-50983000D01*
X165072510Y-51036686D01*
X164818273Y-51141995D01*
X164589465Y-51294880D01*
X164394880Y-51489465D01*
X164241995Y-51718273D01*
X164210000Y-51795515D01*
X164178005Y-51718273D01*
X164025120Y-51489465D01*
X163830535Y-51294880D01*
X163725000Y-51224364D01*
X163725000Y-46978556D01*
X163728797Y-46940000D01*
X163725000Y-46901440D01*
X163725000Y-46901439D01*
X163721020Y-46861026D01*
X163713642Y-46786113D01*
X163668754Y-46638140D01*
X163639225Y-46582895D01*
X163595862Y-46501767D01*
X163497764Y-46382236D01*
X163467811Y-46357654D01*
X161826154Y-44715997D01*
X195493460Y-44715997D01*
X195493460Y-45057763D01*
X195560135Y-45392961D01*
X195690923Y-45708711D01*
X195880797Y-45992878D01*
X196122462Y-46234543D01*
X196406629Y-46424417D01*
X196722379Y-46555205D01*
X197057577Y-46621880D01*
X197399343Y-46621880D01*
X197734541Y-46555205D01*
X198050291Y-46424417D01*
X198334458Y-46234543D01*
X198576123Y-45992878D01*
X198765997Y-45708711D01*
X198896785Y-45392961D01*
X198963460Y-45057763D01*
X198963460Y-44715997D01*
X198896785Y-44380799D01*
X198765997Y-44065049D01*
X198576123Y-43780882D01*
X198334458Y-43539217D01*
X198050291Y-43349343D01*
X197734541Y-43218555D01*
X197399343Y-43151880D01*
X197057577Y-43151880D01*
X196722379Y-43218555D01*
X196406629Y-43349343D01*
X196122462Y-43539217D01*
X195880797Y-43780882D01*
X195690923Y-44065049D01*
X195560135Y-44380799D01*
X195493460Y-44715997D01*
X161826154Y-44715997D01*
X160582347Y-43472190D01*
X160557764Y-43442236D01*
X160438233Y-43344138D01*
X160301860Y-43271246D01*
X160153887Y-43226359D01*
X160038561Y-43215000D01*
X160038553Y-43215000D01*
X160000000Y-43211203D01*
X159961447Y-43215000D01*
X158341474Y-43215000D01*
X158233475Y-43053368D01*
X158026632Y-42846525D01*
X157783411Y-42684010D01*
X157513158Y-42572068D01*
X157226260Y-42515000D01*
X156933740Y-42515000D01*
X156646842Y-42572068D01*
X156376589Y-42684010D01*
X156133368Y-42846525D01*
X155926525Y-43053368D01*
X155804805Y-43235534D01*
X155735178Y-43118645D01*
X155540269Y-42902412D01*
X155306920Y-42728359D01*
X155044099Y-42603175D01*
X154896890Y-42558524D01*
X154667000Y-42679845D01*
X154667000Y-43873000D01*
X154687000Y-43873000D01*
X154687000Y-44127000D01*
X154667000Y-44127000D01*
X154667000Y-45320155D01*
X154896890Y-45441476D01*
X155044099Y-45396825D01*
X155306920Y-45271641D01*
X155540269Y-45097588D01*
X155735178Y-44881355D01*
X155804805Y-44764466D01*
X155926525Y-44946632D01*
X156133368Y-45153475D01*
X156376589Y-45315990D01*
X156646842Y-45427932D01*
X156933740Y-45485000D01*
X157226260Y-45485000D01*
X157513158Y-45427932D01*
X157783411Y-45315990D01*
X158026632Y-45153475D01*
X158233475Y-44946632D01*
X158341474Y-44785000D01*
X159674843Y-44785000D01*
X162155000Y-47265157D01*
X162155001Y-51224363D01*
X162049465Y-51294880D01*
X161854880Y-51489465D01*
X161701995Y-51718273D01*
X161670000Y-51795515D01*
X161638005Y-51718273D01*
X161485120Y-51489465D01*
X161290535Y-51294880D01*
X161061727Y-51141995D01*
X160807490Y-51036686D01*
X160537592Y-50983000D01*
X160262408Y-50983000D01*
X159992510Y-51036686D01*
X159738273Y-51141995D01*
X159509465Y-51294880D01*
X159314880Y-51489465D01*
X159161995Y-51718273D01*
X159130000Y-51795515D01*
X159098005Y-51718273D01*
X158945120Y-51489465D01*
X158750535Y-51294880D01*
X158521727Y-51141995D01*
X158267490Y-51036686D01*
X157997592Y-50983000D01*
X157722408Y-50983000D01*
X157452510Y-51036686D01*
X157198273Y-51141995D01*
X156969465Y-51294880D01*
X156774880Y-51489465D01*
X156621995Y-51718273D01*
X156590000Y-51795515D01*
X156558005Y-51718273D01*
X156405120Y-51489465D01*
X156210535Y-51294880D01*
X155981727Y-51141995D01*
X155727490Y-51036686D01*
X155457592Y-50983000D01*
X155182408Y-50983000D01*
X154912510Y-51036686D01*
X154658273Y-51141995D01*
X154429465Y-51294880D01*
X154234880Y-51489465D01*
X154081995Y-51718273D01*
X154050000Y-51795515D01*
X154018005Y-51718273D01*
X153865120Y-51489465D01*
X153670535Y-51294880D01*
X153441727Y-51141995D01*
X153187490Y-51036686D01*
X152917592Y-50983000D01*
X152642408Y-50983000D01*
X152372510Y-51036686D01*
X152118273Y-51141995D01*
X151889465Y-51294880D01*
X151694880Y-51489465D01*
X151541995Y-51718273D01*
X151510000Y-51795515D01*
X151478005Y-51718273D01*
X151325120Y-51489465D01*
X151130535Y-51294880D01*
X150901727Y-51141995D01*
X150647490Y-51036686D01*
X150377592Y-50983000D01*
X150102408Y-50983000D01*
X149832510Y-51036686D01*
X149578273Y-51141995D01*
X149349465Y-51294880D01*
X149154880Y-51489465D01*
X149001995Y-51718273D01*
X148970000Y-51795515D01*
X148938005Y-51718273D01*
X148785120Y-51489465D01*
X148590535Y-51294880D01*
X148361727Y-51141995D01*
X148107490Y-51036686D01*
X147837592Y-50983000D01*
X147562408Y-50983000D01*
X147292510Y-51036686D01*
X147038273Y-51141995D01*
X146809465Y-51294880D01*
X146614880Y-51489465D01*
X146461995Y-51718273D01*
X146430000Y-51795515D01*
X146398005Y-51718273D01*
X146245120Y-51489465D01*
X146050535Y-51294880D01*
X145821727Y-51141995D01*
X145567490Y-51036686D01*
X145297592Y-50983000D01*
X145022408Y-50983000D01*
X144752510Y-51036686D01*
X144498273Y-51141995D01*
X144269465Y-51294880D01*
X144074880Y-51489465D01*
X143921995Y-51718273D01*
X143890000Y-51795515D01*
X143858005Y-51718273D01*
X143705120Y-51489465D01*
X143655000Y-51439345D01*
X143655000Y-46808710D01*
X145428711Y-45035000D01*
X150542546Y-45035000D01*
X150560498Y-45094180D01*
X150619463Y-45204494D01*
X150698815Y-45301185D01*
X150795506Y-45380537D01*
X150905820Y-45439502D01*
X151025518Y-45475812D01*
X151150000Y-45488072D01*
X152850000Y-45488072D01*
X152974482Y-45475812D01*
X153094180Y-45439502D01*
X153204494Y-45380537D01*
X153301185Y-45301185D01*
X153380537Y-45204494D01*
X153439502Y-45094180D01*
X153463966Y-45013534D01*
X153539731Y-45097588D01*
X153773080Y-45271641D01*
X154035901Y-45396825D01*
X154183110Y-45441476D01*
X154413000Y-45320155D01*
X154413000Y-44127000D01*
X154393000Y-44127000D01*
X154393000Y-43873000D01*
X154413000Y-43873000D01*
X154413000Y-42679845D01*
X154183110Y-42558524D01*
X154035901Y-42603175D01*
X153773080Y-42728359D01*
X153539731Y-42902412D01*
X153463966Y-42986466D01*
X153439502Y-42905820D01*
X153380537Y-42795506D01*
X153301185Y-42698815D01*
X153204494Y-42619463D01*
X153094180Y-42560498D01*
X152974482Y-42524188D01*
X152850000Y-42511928D01*
X151150000Y-42511928D01*
X151025518Y-42524188D01*
X150905820Y-42560498D01*
X150795506Y-42619463D01*
X150698815Y-42698815D01*
X150619463Y-42795506D01*
X150560498Y-42905820D01*
X150542546Y-42965000D01*
X145050827Y-42965000D01*
X144999999Y-42959994D01*
X144949171Y-42965000D01*
X144949162Y-42965000D01*
X144797105Y-42979976D01*
X144602007Y-43039159D01*
X144575424Y-43053368D01*
X144422202Y-43135266D01*
X144320715Y-43218555D01*
X144264604Y-43264604D01*
X144232197Y-43304092D01*
X141924097Y-45612193D01*
X141884604Y-45644604D01*
X141755266Y-45802203D01*
X141659159Y-45982008D01*
X141599976Y-46177106D01*
X141585000Y-46329163D01*
X141585000Y-46329172D01*
X141579994Y-46380000D01*
X141585000Y-46430828D01*
X141585001Y-51439344D01*
X141534880Y-51489465D01*
X141381995Y-51718273D01*
X141352308Y-51789943D01*
X141347636Y-51776977D01*
X141285656Y-51661020D01*
X141045565Y-51594040D01*
X140259605Y-52380000D01*
X141045565Y-53165960D01*
X141285656Y-53098980D01*
X141349485Y-52963240D01*
X141381995Y-53041727D01*
X141534880Y-53270535D01*
X141585000Y-53320655D01*
X141585001Y-55951288D01*
X135804098Y-61732192D01*
X135804092Y-61732197D01*
X133304097Y-64232193D01*
X133264604Y-64264604D01*
X133135266Y-64422203D01*
X133039159Y-64602008D01*
X132979976Y-64797106D01*
X132965000Y-64949163D01*
X132965000Y-64949172D01*
X132959994Y-65000000D01*
X130660000Y-65000000D01*
X130660000Y-53345565D01*
X136754040Y-53345565D01*
X136821020Y-53585656D01*
X137070048Y-53702756D01*
X137337135Y-53769023D01*
X137612017Y-53781910D01*
X137884133Y-53740922D01*
X138143023Y-53647636D01*
X138258980Y-53585656D01*
X138325960Y-53345565D01*
X139294040Y-53345565D01*
X139361020Y-53585656D01*
X139610048Y-53702756D01*
X139877135Y-53769023D01*
X140152017Y-53781910D01*
X140424133Y-53740922D01*
X140683023Y-53647636D01*
X140798980Y-53585656D01*
X140865960Y-53345565D01*
X140080000Y-52559605D01*
X139294040Y-53345565D01*
X138325960Y-53345565D01*
X137540000Y-52559605D01*
X136754040Y-53345565D01*
X130660000Y-53345565D01*
X130660000Y-52452017D01*
X136138090Y-52452017D01*
X136179078Y-52724133D01*
X136272364Y-52983023D01*
X136334344Y-53098980D01*
X136574435Y-53165960D01*
X137360395Y-52380000D01*
X137719605Y-52380000D01*
X138505565Y-53165960D01*
X138745656Y-53098980D01*
X138807079Y-52968356D01*
X138812364Y-52983023D01*
X138874344Y-53098980D01*
X139114435Y-53165960D01*
X139900395Y-52380000D01*
X139114435Y-51594040D01*
X138874344Y-51661020D01*
X138812921Y-51791644D01*
X138807636Y-51776977D01*
X138745656Y-51661020D01*
X138505565Y-51594040D01*
X137719605Y-52380000D01*
X137360395Y-52380000D01*
X136574435Y-51594040D01*
X136334344Y-51661020D01*
X136217244Y-51910048D01*
X136150977Y-52177135D01*
X136138090Y-52452017D01*
X130660000Y-52452017D01*
X130660000Y-51414435D01*
X136754040Y-51414435D01*
X137540000Y-52200395D01*
X138325960Y-51414435D01*
X139294040Y-51414435D01*
X140080000Y-52200395D01*
X140865960Y-51414435D01*
X140798980Y-51174344D01*
X140549952Y-51057244D01*
X140282865Y-50990977D01*
X140007983Y-50978090D01*
X139735867Y-51019078D01*
X139476977Y-51112364D01*
X139361020Y-51174344D01*
X139294040Y-51414435D01*
X138325960Y-51414435D01*
X138258980Y-51174344D01*
X138009952Y-51057244D01*
X137742865Y-50990977D01*
X137467983Y-50978090D01*
X137195867Y-51019078D01*
X136936977Y-51112364D01*
X136821020Y-51174344D01*
X136754040Y-51414435D01*
X130660000Y-51414435D01*
X130660000Y-40660000D01*
X206340000Y-40660000D01*
X206340001Y-94340000D01*
G04 #@! TA.AperFunction,Conductor*
D28*
G36*
X206340001Y-94340000D02*
G01*
X130660000Y-94340000D01*
X130660000Y-91360557D01*
X138653340Y-91360557D01*
X138653340Y-91702323D01*
X138720015Y-92037521D01*
X138850803Y-92353271D01*
X139040677Y-92637438D01*
X139282342Y-92879103D01*
X139566509Y-93068977D01*
X139882259Y-93199765D01*
X140217457Y-93266440D01*
X140559223Y-93266440D01*
X140894421Y-93199765D01*
X141210171Y-93068977D01*
X141494338Y-92879103D01*
X141736003Y-92637438D01*
X141925877Y-92353271D01*
X142056665Y-92037521D01*
X142123340Y-91702323D01*
X142123340Y-91360557D01*
X142056665Y-91025359D01*
X141925877Y-90709609D01*
X141736003Y-90425442D01*
X141494338Y-90183777D01*
X141210171Y-89993903D01*
X140894421Y-89863115D01*
X140559223Y-89796440D01*
X140217457Y-89796440D01*
X139882259Y-89863115D01*
X139566509Y-89993903D01*
X139282342Y-90183777D01*
X139040677Y-90425442D01*
X138850803Y-90709609D01*
X138720015Y-91025359D01*
X138653340Y-91360557D01*
X130660000Y-91360557D01*
X130660000Y-65000000D01*
X132959994Y-65000000D01*
X132965000Y-65050828D01*
X132965001Y-82949162D01*
X132959994Y-83000000D01*
X132979977Y-83202895D01*
X133039160Y-83397993D01*
X133135266Y-83577797D01*
X133230540Y-83693888D01*
X133264605Y-83735396D01*
X133304092Y-83767802D01*
X135511928Y-85975639D01*
X135511928Y-86850000D01*
X135524188Y-86974482D01*
X135560498Y-87094180D01*
X135619463Y-87204494D01*
X135698815Y-87301185D01*
X135795506Y-87380537D01*
X135905820Y-87439502D01*
X136025518Y-87475812D01*
X136150000Y-87488072D01*
X137850000Y-87488072D01*
X137974482Y-87475812D01*
X138094180Y-87439502D01*
X138204494Y-87380537D01*
X138301185Y-87301185D01*
X138380537Y-87204494D01*
X138439502Y-87094180D01*
X138457454Y-87035000D01*
X141533172Y-87035000D01*
X141584000Y-87040006D01*
X141634828Y-87035000D01*
X141634838Y-87035000D01*
X141786895Y-87020024D01*
X141981993Y-86960841D01*
X142161797Y-86864734D01*
X142293191Y-86756902D01*
X143232197Y-87695908D01*
X143264604Y-87735396D01*
X143304092Y-87767803D01*
X143422202Y-87864734D01*
X143503580Y-87908231D01*
X143602007Y-87960841D01*
X143797105Y-88020024D01*
X143949162Y-88035000D01*
X143949171Y-88035000D01*
X143999999Y-88040006D01*
X144050827Y-88035000D01*
X148949172Y-88035000D01*
X149000000Y-88040006D01*
X149050828Y-88035000D01*
X149050838Y-88035000D01*
X149202895Y-88020024D01*
X149397993Y-87960841D01*
X149577797Y-87864734D01*
X149735396Y-87735396D01*
X149767807Y-87695903D01*
X149965011Y-87498700D01*
X149965011Y-89711447D01*
X149961213Y-89750010D01*
X149976369Y-89903896D01*
X150021256Y-90051869D01*
X150021257Y-90051870D01*
X150094149Y-90188243D01*
X150134700Y-90237654D01*
X150167665Y-90277822D01*
X150167669Y-90277826D01*
X150192247Y-90307774D01*
X150222195Y-90332352D01*
X150417653Y-90527810D01*
X150442236Y-90557764D01*
X150561767Y-90655862D01*
X150698140Y-90728754D01*
X150818175Y-90765166D01*
X150846112Y-90773641D01*
X150860490Y-90775057D01*
X150961439Y-90785000D01*
X150961446Y-90785000D01*
X150999999Y-90788797D01*
X151038552Y-90785000D01*
X160961447Y-90785000D01*
X161000000Y-90788797D01*
X161038553Y-90785000D01*
X161038561Y-90785000D01*
X161153887Y-90773641D01*
X161301860Y-90728754D01*
X161438233Y-90655862D01*
X161557764Y-90557764D01*
X161582347Y-90527810D01*
X162055157Y-90055000D01*
X162141335Y-90055000D01*
X162418574Y-89999853D01*
X162679727Y-89891680D01*
X162914759Y-89734637D01*
X163114637Y-89534759D01*
X163271680Y-89299727D01*
X163379853Y-89038574D01*
X163393684Y-88969039D01*
X164608096Y-88969039D01*
X164648754Y-89103087D01*
X164768963Y-89357420D01*
X164936481Y-89583414D01*
X165144869Y-89772385D01*
X165386119Y-89917070D01*
X165650960Y-90011909D01*
X165873000Y-89890624D01*
X165873000Y-88747000D01*
X166127000Y-88747000D01*
X166127000Y-89890624D01*
X166349040Y-90011909D01*
X166613881Y-89917070D01*
X166855131Y-89772385D01*
X167063519Y-89583414D01*
X167231037Y-89357420D01*
X167351246Y-89103087D01*
X167391904Y-88969039D01*
X167269915Y-88747000D01*
X166127000Y-88747000D01*
X165873000Y-88747000D01*
X164730085Y-88747000D01*
X164608096Y-88969039D01*
X163393684Y-88969039D01*
X163435000Y-88761335D01*
X163435000Y-88478665D01*
X163404554Y-88325604D01*
X163475159Y-88254999D01*
X164612937Y-88254999D01*
X164608096Y-88270961D01*
X164730085Y-88493000D01*
X165873000Y-88493000D01*
X165873000Y-88473000D01*
X166127000Y-88473000D01*
X166127000Y-88493000D01*
X167269915Y-88493000D01*
X167391904Y-88270961D01*
X167387063Y-88254999D01*
X172144842Y-88254999D01*
X172215446Y-88325604D01*
X172185000Y-88478665D01*
X172185000Y-88761335D01*
X172240147Y-89038574D01*
X172348320Y-89299727D01*
X172505363Y-89534759D01*
X172705241Y-89734637D01*
X172940273Y-89891680D01*
X173201426Y-89999853D01*
X173478665Y-90055000D01*
X173761335Y-90055000D01*
X174038574Y-89999853D01*
X174299727Y-89891680D01*
X174534759Y-89734637D01*
X174734637Y-89534759D01*
X174891680Y-89299727D01*
X174999853Y-89038574D01*
X175013684Y-88969040D01*
X176608091Y-88969040D01*
X176702930Y-89233881D01*
X176847615Y-89475131D01*
X177036586Y-89683519D01*
X177262580Y-89851037D01*
X177516913Y-89971246D01*
X177650961Y-90011904D01*
X177873000Y-89889915D01*
X177873000Y-88747000D01*
X178127000Y-88747000D01*
X178127000Y-89889915D01*
X178349039Y-90011904D01*
X178483087Y-89971246D01*
X178737420Y-89851037D01*
X178963414Y-89683519D01*
X179152385Y-89475131D01*
X179297070Y-89233881D01*
X179391909Y-88969040D01*
X179270624Y-88747000D01*
X178127000Y-88747000D01*
X177873000Y-88747000D01*
X176729376Y-88747000D01*
X176608091Y-88969040D01*
X175013684Y-88969040D01*
X175055000Y-88761335D01*
X175055000Y-88478665D01*
X175013685Y-88270960D01*
X176608091Y-88270960D01*
X176729376Y-88493000D01*
X177873000Y-88493000D01*
X177873000Y-87350085D01*
X178127000Y-87350085D01*
X178127000Y-88493000D01*
X179270624Y-88493000D01*
X179391909Y-88270960D01*
X179297070Y-88006119D01*
X179152385Y-87764869D01*
X178963414Y-87556481D01*
X178737420Y-87388963D01*
X178483087Y-87268754D01*
X178349039Y-87228096D01*
X178127000Y-87350085D01*
X177873000Y-87350085D01*
X177650961Y-87228096D01*
X177516913Y-87268754D01*
X177262580Y-87388963D01*
X177036586Y-87556481D01*
X176847615Y-87764869D01*
X176702930Y-88006119D01*
X176608091Y-88270960D01*
X175013685Y-88270960D01*
X174999853Y-88201426D01*
X174891680Y-87940273D01*
X174734637Y-87705241D01*
X174534759Y-87505363D01*
X174302241Y-87350000D01*
X174534759Y-87194637D01*
X174734637Y-86994759D01*
X174891680Y-86759727D01*
X174999853Y-86498574D01*
X175055000Y-86221335D01*
X175055000Y-85938665D01*
X174999853Y-85661426D01*
X174891680Y-85400273D01*
X174734637Y-85165241D01*
X174534759Y-84965363D01*
X174302241Y-84810000D01*
X174534759Y-84654637D01*
X174734637Y-84454759D01*
X174891680Y-84219727D01*
X174999853Y-83958574D01*
X175055000Y-83681335D01*
X175055000Y-83398665D01*
X174999853Y-83121426D01*
X174891680Y-82860273D01*
X174734637Y-82625241D01*
X174534759Y-82425363D01*
X174302241Y-82270000D01*
X174534759Y-82114637D01*
X174734637Y-81914759D01*
X174891680Y-81679727D01*
X174999853Y-81418574D01*
X175055000Y-81141335D01*
X175055000Y-80858665D01*
X176565000Y-80858665D01*
X176565000Y-81141335D01*
X176620147Y-81418574D01*
X176728320Y-81679727D01*
X176885363Y-81914759D01*
X177085241Y-82114637D01*
X177215000Y-82201339D01*
X177215001Y-84581437D01*
X177211203Y-84620000D01*
X177226359Y-84773886D01*
X177271246Y-84921859D01*
X177299651Y-84975000D01*
X177344139Y-85058233D01*
X177365193Y-85083887D01*
X177417655Y-85147812D01*
X177417659Y-85147816D01*
X177442237Y-85177764D01*
X177472185Y-85202342D01*
X180595446Y-88325604D01*
X180565000Y-88478665D01*
X180565000Y-88761335D01*
X180620147Y-89038574D01*
X180728320Y-89299727D01*
X180885363Y-89534759D01*
X181085241Y-89734637D01*
X181320273Y-89891680D01*
X181581426Y-89999853D01*
X181858665Y-90055000D01*
X182141335Y-90055000D01*
X182418574Y-89999853D01*
X182679727Y-89891680D01*
X182914759Y-89734637D01*
X183114637Y-89534759D01*
X183271680Y-89299727D01*
X183379853Y-89038574D01*
X183393684Y-88969039D01*
X184608096Y-88969039D01*
X184648754Y-89103087D01*
X184768963Y-89357420D01*
X184936481Y-89583414D01*
X185144869Y-89772385D01*
X185386119Y-89917070D01*
X185650960Y-90011909D01*
X185873000Y-89890624D01*
X185873000Y-88747000D01*
X186127000Y-88747000D01*
X186127000Y-89890624D01*
X186349040Y-90011909D01*
X186613881Y-89917070D01*
X186855131Y-89772385D01*
X187063519Y-89583414D01*
X187231037Y-89357420D01*
X187351246Y-89103087D01*
X187391904Y-88969039D01*
X187269915Y-88747000D01*
X186127000Y-88747000D01*
X185873000Y-88747000D01*
X184730085Y-88747000D01*
X184608096Y-88969039D01*
X183393684Y-88969039D01*
X183435000Y-88761335D01*
X183435000Y-88478665D01*
X183379853Y-88201426D01*
X183271680Y-87940273D01*
X183114637Y-87705241D01*
X183029777Y-87620381D01*
X184565000Y-86085158D01*
X184565000Y-86221335D01*
X184620147Y-86498574D01*
X184728320Y-86759727D01*
X184885363Y-86994759D01*
X185085241Y-87194637D01*
X185320273Y-87351680D01*
X185330865Y-87356067D01*
X185144869Y-87467615D01*
X184936481Y-87656586D01*
X184768963Y-87882580D01*
X184648754Y-88136913D01*
X184608096Y-88270961D01*
X184730085Y-88493000D01*
X185873000Y-88493000D01*
X185873000Y-88473000D01*
X186127000Y-88473000D01*
X186127000Y-88493000D01*
X187269915Y-88493000D01*
X187391904Y-88270961D01*
X187351246Y-88136913D01*
X187231037Y-87882580D01*
X187063519Y-87656586D01*
X186855131Y-87467615D01*
X186669135Y-87356067D01*
X186679727Y-87351680D01*
X186914759Y-87194637D01*
X187114637Y-86994759D01*
X187271680Y-86759727D01*
X187379853Y-86498574D01*
X187435000Y-86221335D01*
X187435000Y-85938665D01*
X187404554Y-85785603D01*
X190015159Y-83174999D01*
X192229491Y-83174999D01*
X192185000Y-83398665D01*
X192185000Y-83681335D01*
X192240147Y-83958574D01*
X192348320Y-84219727D01*
X192505363Y-84454759D01*
X192705241Y-84654637D01*
X192937759Y-84810000D01*
X192705241Y-84965363D01*
X192505363Y-85165241D01*
X192348320Y-85400273D01*
X192240147Y-85661426D01*
X192185000Y-85938665D01*
X192185000Y-86221335D01*
X192240147Y-86498574D01*
X192348320Y-86759727D01*
X192505363Y-86994759D01*
X192705241Y-87194637D01*
X192937759Y-87350000D01*
X192705241Y-87505363D01*
X192505363Y-87705241D01*
X192348320Y-87940273D01*
X192240147Y-88201426D01*
X192185000Y-88478665D01*
X192185000Y-88761335D01*
X192240147Y-89038574D01*
X192348320Y-89299727D01*
X192505363Y-89534759D01*
X192705241Y-89734637D01*
X192940273Y-89891680D01*
X193201426Y-89999853D01*
X193478665Y-90055000D01*
X193761335Y-90055000D01*
X194038574Y-89999853D01*
X194299727Y-89891680D01*
X194534759Y-89734637D01*
X194734637Y-89534759D01*
X194891680Y-89299727D01*
X194999853Y-89038574D01*
X195013684Y-88969040D01*
X196608091Y-88969040D01*
X196702930Y-89233881D01*
X196847615Y-89475131D01*
X197036586Y-89683519D01*
X197262580Y-89851037D01*
X197516913Y-89971246D01*
X197650961Y-90011904D01*
X197873000Y-89889915D01*
X197873000Y-88747000D01*
X198127000Y-88747000D01*
X198127000Y-89889915D01*
X198349039Y-90011904D01*
X198483087Y-89971246D01*
X198737420Y-89851037D01*
X198963414Y-89683519D01*
X199152385Y-89475131D01*
X199297070Y-89233881D01*
X199391909Y-88969040D01*
X199270624Y-88747000D01*
X198127000Y-88747000D01*
X197873000Y-88747000D01*
X196729376Y-88747000D01*
X196608091Y-88969040D01*
X195013684Y-88969040D01*
X195055000Y-88761335D01*
X195055000Y-88478665D01*
X195013685Y-88270960D01*
X196608091Y-88270960D01*
X196729376Y-88493000D01*
X197873000Y-88493000D01*
X197873000Y-87350085D01*
X198127000Y-87350085D01*
X198127000Y-88493000D01*
X199270624Y-88493000D01*
X199391909Y-88270960D01*
X199297070Y-88006119D01*
X199152385Y-87764869D01*
X198963414Y-87556481D01*
X198737420Y-87388963D01*
X198483087Y-87268754D01*
X198349039Y-87228096D01*
X198127000Y-87350085D01*
X197873000Y-87350085D01*
X197650961Y-87228096D01*
X197516913Y-87268754D01*
X197262580Y-87388963D01*
X197036586Y-87556481D01*
X196847615Y-87764869D01*
X196702930Y-88006119D01*
X196608091Y-88270960D01*
X195013685Y-88270960D01*
X194999853Y-88201426D01*
X194891680Y-87940273D01*
X194734637Y-87705241D01*
X194534759Y-87505363D01*
X194302241Y-87350000D01*
X194534759Y-87194637D01*
X194734637Y-86994759D01*
X194891680Y-86759727D01*
X194999853Y-86498574D01*
X195055000Y-86221335D01*
X195055000Y-85938665D01*
X194999853Y-85661426D01*
X194891680Y-85400273D01*
X194734637Y-85165241D01*
X194534759Y-84965363D01*
X194302241Y-84810000D01*
X194534759Y-84654637D01*
X194734637Y-84454759D01*
X194891680Y-84219727D01*
X194999853Y-83958574D01*
X195055000Y-83681335D01*
X195055000Y-83398665D01*
X195010509Y-83174999D01*
X196571448Y-83174999D01*
X196610001Y-83178796D01*
X196648554Y-83174999D01*
X196648562Y-83174999D01*
X196763888Y-83163640D01*
X196911861Y-83118753D01*
X197048234Y-83045861D01*
X197167765Y-82947763D01*
X197192348Y-82917809D01*
X197705604Y-82404554D01*
X197858665Y-82435000D01*
X198141335Y-82435000D01*
X198418574Y-82379853D01*
X198679727Y-82271680D01*
X198914759Y-82114637D01*
X199114637Y-81914759D01*
X199271680Y-81679727D01*
X199379853Y-81418574D01*
X199435000Y-81141335D01*
X199435000Y-80858665D01*
X199379853Y-80581426D01*
X199271680Y-80320273D01*
X199114637Y-80085241D01*
X198914759Y-79885363D01*
X198679727Y-79728320D01*
X198418574Y-79620147D01*
X198141335Y-79565000D01*
X197858665Y-79565000D01*
X197581426Y-79620147D01*
X197320273Y-79728320D01*
X197085241Y-79885363D01*
X196885363Y-80085241D01*
X196728320Y-80320273D01*
X196620147Y-80581426D01*
X196565000Y-80858665D01*
X196565000Y-81141335D01*
X196595446Y-81294396D01*
X196284844Y-81604999D01*
X194922633Y-81604999D01*
X194999853Y-81418574D01*
X195055000Y-81141335D01*
X195055000Y-80858665D01*
X194999853Y-80581426D01*
X194891680Y-80320273D01*
X194734637Y-80085241D01*
X194534759Y-79885363D01*
X194299727Y-79728320D01*
X194038574Y-79620147D01*
X193761335Y-79565000D01*
X193648711Y-79565000D01*
X193035000Y-78951290D01*
X193035000Y-74373863D01*
X193367622Y-74373863D01*
X193461121Y-74670446D01*
X193610684Y-74943089D01*
X193810563Y-75181315D01*
X194053077Y-75375969D01*
X194328906Y-75519571D01*
X194547020Y-75590563D01*
X194793000Y-75470594D01*
X194793000Y-74127000D01*
X193494430Y-74127000D01*
X193367622Y-74373863D01*
X193035000Y-74373863D01*
X193035000Y-73626137D01*
X193367622Y-73626137D01*
X193494430Y-73873000D01*
X194793000Y-73873000D01*
X194793000Y-72529406D01*
X194547020Y-72409437D01*
X194328906Y-72480429D01*
X194053077Y-72624031D01*
X193810563Y-72818685D01*
X193610684Y-73056911D01*
X193461121Y-73329554D01*
X193367622Y-73626137D01*
X193035000Y-73626137D01*
X193035000Y-70738072D01*
X193100000Y-70738072D01*
X193224482Y-70725812D01*
X193344180Y-70689502D01*
X193454494Y-70630537D01*
X193551185Y-70551185D01*
X193630537Y-70454494D01*
X193689502Y-70344180D01*
X193725812Y-70224482D01*
X193738072Y-70100000D01*
X193738072Y-68725638D01*
X195171908Y-67291803D01*
X195211396Y-67259396D01*
X195275104Y-67181768D01*
X195340734Y-67101798D01*
X195431304Y-66932352D01*
X195436841Y-66921993D01*
X195496024Y-66726895D01*
X195511000Y-66574838D01*
X195511000Y-66574835D01*
X195516007Y-66524000D01*
X195511000Y-66473165D01*
X195511000Y-64400655D01*
X195561120Y-64350535D01*
X195714005Y-64121727D01*
X195809500Y-63891183D01*
X195904995Y-64121727D01*
X196057880Y-64350535D01*
X196252465Y-64545120D01*
X196481273Y-64698005D01*
X196735510Y-64803314D01*
X197005408Y-64857000D01*
X197280592Y-64857000D01*
X197405081Y-64832238D01*
X200673952Y-68101110D01*
X200622463Y-68178169D01*
X200491675Y-68493919D01*
X200425000Y-68829117D01*
X200425000Y-69170883D01*
X200491675Y-69506081D01*
X200506931Y-69542912D01*
X197671676Y-72378167D01*
X197460000Y-72357319D01*
X197148797Y-72387970D01*
X196849552Y-72478745D01*
X196573766Y-72626155D01*
X196332037Y-72824537D01*
X196184837Y-73003899D01*
X196029437Y-72818685D01*
X195786923Y-72624031D01*
X195511094Y-72480429D01*
X195292980Y-72409437D01*
X195047000Y-72529406D01*
X195047000Y-73873000D01*
X195067000Y-73873000D01*
X195067000Y-74127000D01*
X195047000Y-74127000D01*
X195047000Y-75470594D01*
X195292980Y-75590563D01*
X195511094Y-75519571D01*
X195786923Y-75375969D01*
X196029437Y-75181315D01*
X196184838Y-74996100D01*
X196332037Y-75175463D01*
X196573765Y-75373845D01*
X196849551Y-75521255D01*
X197148796Y-75612030D01*
X197460000Y-75642681D01*
X197771203Y-75612030D01*
X198070448Y-75521255D01*
X198346234Y-75373845D01*
X198472095Y-75270553D01*
X198516963Y-75354494D01*
X198596315Y-75451185D01*
X198693006Y-75530537D01*
X198803320Y-75589502D01*
X198923018Y-75625812D01*
X199047500Y-75638072D01*
X200952500Y-75638072D01*
X201076982Y-75625812D01*
X201196680Y-75589502D01*
X201306994Y-75530537D01*
X201403685Y-75451185D01*
X201483037Y-75354494D01*
X201542002Y-75244180D01*
X201578312Y-75124482D01*
X201590572Y-75000000D01*
X201590572Y-73000000D01*
X201578312Y-72875518D01*
X201542002Y-72755820D01*
X201483037Y-72645506D01*
X201403685Y-72548815D01*
X201306994Y-72469463D01*
X201196680Y-72410498D01*
X201076982Y-72374188D01*
X200952500Y-72361928D01*
X199908229Y-72361928D01*
X201617088Y-70653069D01*
X201653919Y-70668325D01*
X201989117Y-70735000D01*
X202330883Y-70735000D01*
X202666081Y-70668325D01*
X202981831Y-70537537D01*
X203265998Y-70347663D01*
X203507663Y-70105998D01*
X203697537Y-69821831D01*
X203828325Y-69506081D01*
X203895000Y-69170883D01*
X203895000Y-68829117D01*
X203828325Y-68493919D01*
X203697537Y-68178169D01*
X203507663Y-67894002D01*
X203265998Y-67652337D01*
X202981831Y-67462463D01*
X202666081Y-67331675D01*
X202330883Y-67265000D01*
X202058158Y-67265000D01*
X198515238Y-63722081D01*
X198540000Y-63597592D01*
X198540000Y-63322408D01*
X198486314Y-63052510D01*
X198381005Y-62798273D01*
X198228120Y-62569465D01*
X198033535Y-62374880D01*
X197804727Y-62221995D01*
X197550490Y-62116686D01*
X197280592Y-62063000D01*
X197005408Y-62063000D01*
X196735510Y-62116686D01*
X196481273Y-62221995D01*
X196252465Y-62374880D01*
X196057880Y-62569465D01*
X195904995Y-62798273D01*
X195809500Y-63028817D01*
X195714005Y-62798273D01*
X195561120Y-62569465D01*
X195366535Y-62374880D01*
X195137727Y-62221995D01*
X194883490Y-62116686D01*
X194613592Y-62063000D01*
X194542711Y-62063000D01*
X194035000Y-61555290D01*
X194035000Y-58428710D01*
X194377107Y-58086604D01*
X194410498Y-58196680D01*
X194469463Y-58306994D01*
X194548815Y-58403685D01*
X194645506Y-58483037D01*
X194755820Y-58542002D01*
X194875518Y-58578312D01*
X195000000Y-58590572D01*
X197000000Y-58590572D01*
X197124482Y-58578312D01*
X197244180Y-58542002D01*
X197354494Y-58483037D01*
X197451185Y-58403685D01*
X197530537Y-58306994D01*
X197589502Y-58196680D01*
X197625812Y-58076982D01*
X197629947Y-58035000D01*
X198933172Y-58035000D01*
X198984000Y-58040006D01*
X199034828Y-58035000D01*
X199034838Y-58035000D01*
X199186895Y-58020024D01*
X199381993Y-57960841D01*
X199561797Y-57864734D01*
X199719396Y-57735396D01*
X199751807Y-57695903D01*
X200526711Y-56921000D01*
X200597592Y-56921000D01*
X200867490Y-56867314D01*
X201121727Y-56762005D01*
X201350535Y-56609120D01*
X201545120Y-56414535D01*
X201698005Y-56185727D01*
X201803314Y-55931490D01*
X201857000Y-55661592D01*
X201857000Y-55386408D01*
X201803314Y-55116510D01*
X201698005Y-54862273D01*
X201545120Y-54633465D01*
X201350535Y-54438880D01*
X201121727Y-54285995D01*
X200886090Y-54188390D01*
X201063023Y-54124636D01*
X201178980Y-54062656D01*
X201245960Y-53822565D01*
X200460000Y-53036605D01*
X199674040Y-53822565D01*
X199741020Y-54062656D01*
X199990048Y-54179756D01*
X200030516Y-54189796D01*
X199798273Y-54285995D01*
X199569465Y-54438880D01*
X199374880Y-54633465D01*
X199221995Y-54862273D01*
X199116686Y-55116510D01*
X199063000Y-55386408D01*
X199063000Y-55457289D01*
X198555290Y-55965000D01*
X197629947Y-55965000D01*
X197625812Y-55923018D01*
X197589502Y-55803320D01*
X197530537Y-55693006D01*
X197451185Y-55596315D01*
X197354494Y-55516963D01*
X197262781Y-55467941D01*
X197375969Y-55326923D01*
X197519571Y-55051094D01*
X197590563Y-54832980D01*
X197470594Y-54587000D01*
X196127000Y-54587000D01*
X196127000Y-54607000D01*
X195873000Y-54607000D01*
X195873000Y-54587000D01*
X194529406Y-54587000D01*
X194409437Y-54832980D01*
X194480429Y-55051094D01*
X194624031Y-55326923D01*
X194737219Y-55467941D01*
X194645506Y-55516963D01*
X194548815Y-55596315D01*
X194469463Y-55693006D01*
X194410498Y-55803320D01*
X194374188Y-55923018D01*
X194370053Y-55965000D01*
X194050835Y-55965000D01*
X194000000Y-55959993D01*
X193949165Y-55965000D01*
X193949162Y-55965000D01*
X193797105Y-55979976D01*
X193647415Y-56025385D01*
X193602006Y-56039159D01*
X193422202Y-56135266D01*
X193358475Y-56187566D01*
X193264604Y-56264604D01*
X193232197Y-56304092D01*
X192304097Y-57232193D01*
X192264604Y-57264604D01*
X192135266Y-57422203D01*
X192039159Y-57602008D01*
X191979976Y-57797106D01*
X191965000Y-57949163D01*
X191965000Y-57949172D01*
X191959994Y-58000000D01*
X191965000Y-58050828D01*
X191965001Y-61933162D01*
X191959994Y-61984000D01*
X191979977Y-62186895D01*
X192039160Y-62381993D01*
X192135266Y-62561797D01*
X192225054Y-62671203D01*
X192264605Y-62719396D01*
X192304092Y-62751802D01*
X193079000Y-63526711D01*
X193079000Y-63597592D01*
X193132686Y-63867490D01*
X193237995Y-64121727D01*
X193390880Y-64350535D01*
X193441000Y-64400655D01*
X193441001Y-66095288D01*
X192274362Y-67261928D01*
X190900000Y-67261928D01*
X190775518Y-67274188D01*
X190655820Y-67310498D01*
X190545506Y-67369463D01*
X190448815Y-67448815D01*
X190369463Y-67545506D01*
X190310498Y-67655820D01*
X190274188Y-67775518D01*
X190261928Y-67900000D01*
X190261928Y-70100000D01*
X190274188Y-70224482D01*
X190310498Y-70344180D01*
X190369463Y-70454494D01*
X190448815Y-70551185D01*
X190545506Y-70630537D01*
X190655820Y-70689502D01*
X190775518Y-70725812D01*
X190900000Y-70738072D01*
X190965000Y-70738072D01*
X190965001Y-79329162D01*
X190959994Y-79380000D01*
X190979977Y-79582895D01*
X191039160Y-79777993D01*
X191135266Y-79957797D01*
X191202039Y-80039159D01*
X191264605Y-80115396D01*
X191304092Y-80147802D01*
X192185000Y-81028711D01*
X192185000Y-81141335D01*
X192240147Y-81418574D01*
X192317367Y-81604999D01*
X189728553Y-81604999D01*
X189690000Y-81601202D01*
X189651447Y-81604999D01*
X189651440Y-81604999D01*
X189550491Y-81614942D01*
X189536113Y-81616358D01*
X189512863Y-81623411D01*
X189388141Y-81661245D01*
X189251768Y-81734137D01*
X189203633Y-81773641D01*
X189162188Y-81807654D01*
X189162185Y-81807657D01*
X189132237Y-81832235D01*
X189107659Y-81862183D01*
X187435000Y-83534842D01*
X187435000Y-83398665D01*
X187379853Y-83121426D01*
X187271680Y-82860273D01*
X187114637Y-82625241D01*
X186916039Y-82426643D01*
X186924482Y-82425812D01*
X187044180Y-82389502D01*
X187154494Y-82330537D01*
X187251185Y-82251185D01*
X187330537Y-82154494D01*
X187389502Y-82044180D01*
X187425812Y-81924482D01*
X187438072Y-81800000D01*
X187438072Y-80200000D01*
X187425812Y-80075518D01*
X187389502Y-79955820D01*
X187330537Y-79845506D01*
X187251185Y-79748815D01*
X187154494Y-79669463D01*
X187044180Y-79610498D01*
X186924482Y-79574188D01*
X186800000Y-79561928D01*
X185200000Y-79561928D01*
X185075518Y-79574188D01*
X184955820Y-79610498D01*
X184845506Y-79669463D01*
X184748815Y-79748815D01*
X184669463Y-79845506D01*
X184610498Y-79955820D01*
X184574188Y-80075518D01*
X184561928Y-80200000D01*
X184561928Y-80215000D01*
X183201339Y-80215000D01*
X183114637Y-80085241D01*
X182914759Y-79885363D01*
X182679727Y-79728320D01*
X182418574Y-79620147D01*
X182141335Y-79565000D01*
X181858665Y-79565000D01*
X181581426Y-79620147D01*
X181320273Y-79728320D01*
X181085241Y-79885363D01*
X180885363Y-80085241D01*
X180728320Y-80320273D01*
X180620147Y-80581426D01*
X180565000Y-80858665D01*
X180565000Y-81141335D01*
X180620147Y-81418574D01*
X180728320Y-81679727D01*
X180885363Y-81914759D01*
X181085241Y-82114637D01*
X181320273Y-82271680D01*
X181581426Y-82379853D01*
X181858665Y-82435000D01*
X182141335Y-82435000D01*
X182418574Y-82379853D01*
X182679727Y-82271680D01*
X182914759Y-82114637D01*
X183114637Y-81914759D01*
X183201339Y-81785000D01*
X184561928Y-81785000D01*
X184561928Y-81800000D01*
X184574188Y-81924482D01*
X184610498Y-82044180D01*
X184669463Y-82154494D01*
X184748815Y-82251185D01*
X184845506Y-82330537D01*
X184955820Y-82389502D01*
X185075518Y-82425812D01*
X185083961Y-82426643D01*
X184885363Y-82625241D01*
X184728320Y-82860273D01*
X184620147Y-83121426D01*
X184565000Y-83398665D01*
X184565000Y-83681335D01*
X184595446Y-83834396D01*
X181472185Y-86957658D01*
X181458800Y-86968643D01*
X178785000Y-84294843D01*
X178785000Y-82201339D01*
X178914759Y-82114637D01*
X179114637Y-81914759D01*
X179271680Y-81679727D01*
X179379853Y-81418574D01*
X179435000Y-81141335D01*
X179435000Y-80858665D01*
X179379853Y-80581426D01*
X179271680Y-80320273D01*
X179114637Y-80085241D01*
X178914759Y-79885363D01*
X178679727Y-79728320D01*
X178418574Y-79620147D01*
X178141335Y-79565000D01*
X177858665Y-79565000D01*
X177581426Y-79620147D01*
X177320273Y-79728320D01*
X177085241Y-79885363D01*
X176885363Y-80085241D01*
X176728320Y-80320273D01*
X176620147Y-80581426D01*
X176565000Y-80858665D01*
X175055000Y-80858665D01*
X174999853Y-80581426D01*
X174891680Y-80320273D01*
X174734637Y-80085241D01*
X174655000Y-80005604D01*
X174655000Y-78655000D01*
X182329172Y-78655000D01*
X182380000Y-78660006D01*
X182430828Y-78655000D01*
X182430838Y-78655000D01*
X182582895Y-78640024D01*
X182777993Y-78580841D01*
X182957797Y-78484734D01*
X183115396Y-78355396D01*
X183147807Y-78315903D01*
X186495908Y-74967803D01*
X186535396Y-74935396D01*
X186567803Y-74895908D01*
X186664734Y-74777798D01*
X186729909Y-74655862D01*
X186760841Y-74597993D01*
X186820024Y-74402895D01*
X186835000Y-74250838D01*
X186835000Y-74250829D01*
X186840006Y-74200001D01*
X186835000Y-74149173D01*
X186835000Y-68560655D01*
X186885120Y-68510535D01*
X187038005Y-68281727D01*
X187143314Y-68027490D01*
X187197000Y-67757592D01*
X187197000Y-67482408D01*
X187143314Y-67212510D01*
X187038005Y-66958273D01*
X186885120Y-66729465D01*
X186690535Y-66534880D01*
X186461727Y-66381995D01*
X186207490Y-66276686D01*
X185937592Y-66223000D01*
X185662408Y-66223000D01*
X185392510Y-66276686D01*
X185138273Y-66381995D01*
X184909465Y-66534880D01*
X184714880Y-66729465D01*
X184561995Y-66958273D01*
X184532308Y-67029943D01*
X184527636Y-67016977D01*
X184465656Y-66901020D01*
X184225565Y-66834040D01*
X183439605Y-67620000D01*
X184225565Y-68405960D01*
X184465656Y-68338980D01*
X184529485Y-68203240D01*
X184561995Y-68281727D01*
X184714880Y-68510535D01*
X184765000Y-68560655D01*
X184765001Y-73771288D01*
X181951290Y-76585000D01*
X174048710Y-76585000D01*
X173767807Y-76304097D01*
X173735396Y-76264604D01*
X173577797Y-76135266D01*
X173397993Y-76039159D01*
X173202895Y-75979976D01*
X173050838Y-75965000D01*
X173050828Y-75965000D01*
X173000000Y-75959994D01*
X172949172Y-75965000D01*
X171994396Y-75965000D01*
X171914759Y-75885363D01*
X171679727Y-75728320D01*
X171418574Y-75620147D01*
X171141335Y-75565000D01*
X170858665Y-75565000D01*
X170581426Y-75620147D01*
X170320273Y-75728320D01*
X170085241Y-75885363D01*
X169885363Y-76085241D01*
X169751308Y-76285869D01*
X169736671Y-76258486D01*
X169492702Y-76186903D01*
X168679605Y-77000000D01*
X168693748Y-77014143D01*
X168514143Y-77193748D01*
X168500000Y-77179605D01*
X168485858Y-77193748D01*
X168306253Y-77014143D01*
X168320395Y-77000000D01*
X167507298Y-76186903D01*
X167263329Y-76258486D01*
X167142429Y-76513996D01*
X167073700Y-76788184D01*
X167059783Y-77070512D01*
X167101213Y-77350130D01*
X167196397Y-77616292D01*
X167263329Y-77741514D01*
X167507296Y-77813097D01*
X167391023Y-77929370D01*
X167426653Y-77965000D01*
X164050827Y-77965000D01*
X163999999Y-77959994D01*
X163949171Y-77965000D01*
X163949162Y-77965000D01*
X163797105Y-77979976D01*
X163602007Y-78039159D01*
X163529077Y-78078141D01*
X163422202Y-78135266D01*
X163311504Y-78226114D01*
X163264604Y-78264604D01*
X163232197Y-78304092D01*
X161971290Y-79565000D01*
X161858665Y-79565000D01*
X161581426Y-79620147D01*
X161320273Y-79728320D01*
X161085241Y-79885363D01*
X161005604Y-79965000D01*
X158994396Y-79965000D01*
X158914759Y-79885363D01*
X158679727Y-79728320D01*
X158418574Y-79620147D01*
X158141335Y-79565000D01*
X157858665Y-79565000D01*
X157581426Y-79620147D01*
X157320273Y-79728320D01*
X157085241Y-79885363D01*
X157005604Y-79965000D01*
X154431544Y-79965000D01*
X154427932Y-79946842D01*
X154315990Y-79676589D01*
X154153475Y-79433368D01*
X153946632Y-79226525D01*
X153764466Y-79104805D01*
X153881355Y-79035178D01*
X154097588Y-78840269D01*
X154271641Y-78606920D01*
X154396825Y-78344099D01*
X154441476Y-78196890D01*
X154320155Y-77967000D01*
X153127000Y-77967000D01*
X153127000Y-77987000D01*
X152873000Y-77987000D01*
X152873000Y-77967000D01*
X151679845Y-77967000D01*
X151558524Y-78196890D01*
X151603175Y-78344099D01*
X151728359Y-78606920D01*
X151902412Y-78840269D01*
X152118645Y-79035178D01*
X152235534Y-79104805D01*
X152053368Y-79226525D01*
X151934893Y-79345000D01*
X150670827Y-79345000D01*
X150619999Y-79339994D01*
X150569171Y-79345000D01*
X150569162Y-79345000D01*
X150417105Y-79359976D01*
X150222007Y-79419159D01*
X150138309Y-79463896D01*
X150042202Y-79515266D01*
X150020015Y-79533475D01*
X149884604Y-79644604D01*
X149852193Y-79684097D01*
X149304097Y-80232193D01*
X149264604Y-80264604D01*
X149135266Y-80422203D01*
X149039159Y-80602008D01*
X148979976Y-80797106D01*
X148965000Y-80949163D01*
X148965000Y-80949172D01*
X148959994Y-81000000D01*
X148965000Y-81050828D01*
X148965001Y-83909742D01*
X148883413Y-83880192D01*
X147927605Y-84836000D01*
X147941748Y-84850143D01*
X147762143Y-85029748D01*
X147748000Y-85015605D01*
X147733858Y-85029748D01*
X147554253Y-84850143D01*
X147568395Y-84836000D01*
X146612587Y-83880192D01*
X146348186Y-83975956D01*
X146207296Y-84265571D01*
X146125616Y-84577108D01*
X146106282Y-84898595D01*
X146150039Y-85217675D01*
X146255205Y-85522088D01*
X146348186Y-85696044D01*
X146612585Y-85791807D01*
X146496917Y-85907475D01*
X146554442Y-85965000D01*
X144428711Y-85965000D01*
X144378329Y-85914618D01*
X144386072Y-85836000D01*
X144386072Y-83836000D01*
X144373812Y-83711518D01*
X144370497Y-83700587D01*
X146792192Y-83700587D01*
X147748000Y-84656395D01*
X148703808Y-83700587D01*
X148608044Y-83436186D01*
X148318429Y-83295296D01*
X148006892Y-83213616D01*
X147685405Y-83194282D01*
X147366325Y-83238039D01*
X147061912Y-83343205D01*
X146887956Y-83436186D01*
X146792192Y-83700587D01*
X144370497Y-83700587D01*
X144337502Y-83591820D01*
X144278537Y-83481506D01*
X144199185Y-83384815D01*
X144102494Y-83305463D01*
X143992180Y-83246498D01*
X143872482Y-83210188D01*
X143748000Y-83197928D01*
X141748000Y-83197928D01*
X141623518Y-83210188D01*
X141503820Y-83246498D01*
X141393506Y-83305463D01*
X141296815Y-83384815D01*
X141217463Y-83481506D01*
X141158498Y-83591820D01*
X141122188Y-83711518D01*
X141109928Y-83836000D01*
X141109928Y-84965000D01*
X138457454Y-84965000D01*
X138439502Y-84905820D01*
X138380537Y-84795506D01*
X138301185Y-84698815D01*
X138204494Y-84619463D01*
X138094180Y-84560498D01*
X138013534Y-84536034D01*
X138097588Y-84460269D01*
X138271641Y-84226920D01*
X138396825Y-83964099D01*
X138441476Y-83816890D01*
X138320155Y-83587000D01*
X137127000Y-83587000D01*
X137127000Y-83607000D01*
X136873000Y-83607000D01*
X136873000Y-83587000D01*
X136853000Y-83587000D01*
X136853000Y-83333000D01*
X136873000Y-83333000D01*
X136873000Y-83313000D01*
X137127000Y-83313000D01*
X137127000Y-83333000D01*
X138320155Y-83333000D01*
X138441476Y-83103110D01*
X138396825Y-82955901D01*
X138271641Y-82693080D01*
X138097588Y-82459731D01*
X137881355Y-82264822D01*
X137764466Y-82195195D01*
X137946632Y-82073475D01*
X138153475Y-81866632D01*
X138261474Y-81705000D01*
X144041447Y-81705000D01*
X144080000Y-81708797D01*
X144118553Y-81705000D01*
X144118561Y-81705000D01*
X144233887Y-81693641D01*
X144381860Y-81648754D01*
X144518233Y-81575862D01*
X144637764Y-81477764D01*
X144662347Y-81447810D01*
X148627047Y-77483110D01*
X151558524Y-77483110D01*
X151679845Y-77713000D01*
X152873000Y-77713000D01*
X152873000Y-76519186D01*
X153127000Y-76519186D01*
X153127000Y-77713000D01*
X154320155Y-77713000D01*
X154441476Y-77483110D01*
X154396825Y-77335901D01*
X154271641Y-77073080D01*
X154097588Y-76839731D01*
X153881355Y-76644822D01*
X153631252Y-76495843D01*
X153356891Y-76398519D01*
X153127000Y-76519186D01*
X152873000Y-76519186D01*
X152643109Y-76398519D01*
X152368748Y-76495843D01*
X152118645Y-76644822D01*
X151902412Y-76839731D01*
X151728359Y-77073080D01*
X151603175Y-77335901D01*
X151558524Y-77483110D01*
X148627047Y-77483110D01*
X150102859Y-76007298D01*
X167686903Y-76007298D01*
X168500000Y-76820395D01*
X169313097Y-76007298D01*
X169241514Y-75763329D01*
X168986004Y-75642429D01*
X168711816Y-75573700D01*
X168429488Y-75559783D01*
X168149870Y-75601213D01*
X167883708Y-75696397D01*
X167758486Y-75763329D01*
X167686903Y-76007298D01*
X150102859Y-76007298D01*
X150767810Y-75342347D01*
X150797764Y-75317764D01*
X150895862Y-75198233D01*
X150968754Y-75061860D01*
X150987519Y-75000000D01*
X151013642Y-74913887D01*
X151024009Y-74808621D01*
X151025000Y-74798561D01*
X151025000Y-74798556D01*
X151028797Y-74760000D01*
X151025000Y-74721444D01*
X151025000Y-68775636D01*
X151130535Y-68705120D01*
X151325120Y-68510535D01*
X151478005Y-68281727D01*
X151510000Y-68204485D01*
X151541995Y-68281727D01*
X151694880Y-68510535D01*
X151889465Y-68705120D01*
X152118273Y-68858005D01*
X152372510Y-68963314D01*
X152642408Y-69017000D01*
X152917592Y-69017000D01*
X153187490Y-68963314D01*
X153441727Y-68858005D01*
X153670535Y-68705120D01*
X153865120Y-68510535D01*
X154018005Y-68281727D01*
X154050000Y-68204485D01*
X154081995Y-68281727D01*
X154234880Y-68510535D01*
X154429465Y-68705120D01*
X154658273Y-68858005D01*
X154912510Y-68963314D01*
X155182408Y-69017000D01*
X155457592Y-69017000D01*
X155727490Y-68963314D01*
X155981727Y-68858005D01*
X156210535Y-68705120D01*
X156405120Y-68510535D01*
X156558005Y-68281727D01*
X156590000Y-68204485D01*
X156621995Y-68281727D01*
X156774880Y-68510535D01*
X156969465Y-68705120D01*
X157198273Y-68858005D01*
X157452510Y-68963314D01*
X157722408Y-69017000D01*
X157997592Y-69017000D01*
X158267490Y-68963314D01*
X158521727Y-68858005D01*
X158750535Y-68705120D01*
X158945120Y-68510535D01*
X159098005Y-68281727D01*
X159130000Y-68204485D01*
X159161995Y-68281727D01*
X159314880Y-68510535D01*
X159509465Y-68705120D01*
X159738273Y-68858005D01*
X159992510Y-68963314D01*
X160262408Y-69017000D01*
X160537592Y-69017000D01*
X160807490Y-68963314D01*
X161061727Y-68858005D01*
X161290535Y-68705120D01*
X161485120Y-68510535D01*
X161638005Y-68281727D01*
X161670000Y-68204485D01*
X161701995Y-68281727D01*
X161854880Y-68510535D01*
X162049465Y-68705120D01*
X162278273Y-68858005D01*
X162532510Y-68963314D01*
X162802408Y-69017000D01*
X163077592Y-69017000D01*
X163347490Y-68963314D01*
X163601727Y-68858005D01*
X163830535Y-68705120D01*
X164025120Y-68510535D01*
X164178005Y-68281727D01*
X164210000Y-68204485D01*
X164241995Y-68281727D01*
X164394880Y-68510535D01*
X164589465Y-68705120D01*
X164818273Y-68858005D01*
X165072510Y-68963314D01*
X165342408Y-69017000D01*
X165617592Y-69017000D01*
X165887490Y-68963314D01*
X166141727Y-68858005D01*
X166370535Y-68705120D01*
X166565120Y-68510535D01*
X166718005Y-68281727D01*
X166750000Y-68204485D01*
X166781995Y-68281727D01*
X166934880Y-68510535D01*
X167129465Y-68705120D01*
X167358273Y-68858005D01*
X167612510Y-68963314D01*
X167882408Y-69017000D01*
X168157592Y-69017000D01*
X168427490Y-68963314D01*
X168681727Y-68858005D01*
X168910535Y-68705120D01*
X169105120Y-68510535D01*
X169258005Y-68281727D01*
X169290000Y-68204485D01*
X169321995Y-68281727D01*
X169474880Y-68510535D01*
X169669465Y-68705120D01*
X169898273Y-68858005D01*
X170152510Y-68963314D01*
X170422408Y-69017000D01*
X170697592Y-69017000D01*
X170967490Y-68963314D01*
X171221727Y-68858005D01*
X171450535Y-68705120D01*
X171645120Y-68510535D01*
X171798005Y-68281727D01*
X171830000Y-68204485D01*
X171861995Y-68281727D01*
X172014880Y-68510535D01*
X172209465Y-68705120D01*
X172438273Y-68858005D01*
X172692510Y-68963314D01*
X172962408Y-69017000D01*
X173237592Y-69017000D01*
X173507490Y-68963314D01*
X173761727Y-68858005D01*
X173990535Y-68705120D01*
X174185120Y-68510535D01*
X174338005Y-68281727D01*
X174370000Y-68204485D01*
X174401995Y-68281727D01*
X174554880Y-68510535D01*
X174749465Y-68705120D01*
X174978273Y-68858005D01*
X175232510Y-68963314D01*
X175502408Y-69017000D01*
X175777592Y-69017000D01*
X176047490Y-68963314D01*
X176282999Y-68865762D01*
X176283000Y-70796476D01*
X176279202Y-70835039D01*
X176294358Y-70988925D01*
X176339245Y-71136898D01*
X176339246Y-71136899D01*
X176412138Y-71273272D01*
X176447990Y-71316957D01*
X176485654Y-71362851D01*
X176485658Y-71362855D01*
X176510236Y-71392803D01*
X176540184Y-71417381D01*
X179350720Y-74227918D01*
X179350720Y-74356299D01*
X179390494Y-74556258D01*
X179468515Y-74744616D01*
X179581783Y-74914134D01*
X179725946Y-75058297D01*
X179895464Y-75171565D01*
X180083822Y-75249586D01*
X180283781Y-75289360D01*
X180487659Y-75289360D01*
X180687618Y-75249586D01*
X180875976Y-75171565D01*
X181045494Y-75058297D01*
X181189657Y-74914134D01*
X181302925Y-74744616D01*
X181380946Y-74556258D01*
X181420720Y-74356299D01*
X181420720Y-74152421D01*
X181380946Y-73952462D01*
X181302925Y-73764104D01*
X181189657Y-73594586D01*
X181045494Y-73450423D01*
X180875976Y-73337155D01*
X180687618Y-73259134D01*
X180581055Y-73237938D01*
X177852999Y-70509882D01*
X177852999Y-68979324D01*
X178042408Y-69017000D01*
X178317592Y-69017000D01*
X178587490Y-68963314D01*
X178841727Y-68858005D01*
X179070535Y-68705120D01*
X179265120Y-68510535D01*
X179418005Y-68281727D01*
X179450000Y-68204485D01*
X179481995Y-68281727D01*
X179634880Y-68510535D01*
X179829465Y-68705120D01*
X180058273Y-68858005D01*
X180312510Y-68963314D01*
X180582408Y-69017000D01*
X180857592Y-69017000D01*
X181127490Y-68963314D01*
X181381727Y-68858005D01*
X181610535Y-68705120D01*
X181730090Y-68585565D01*
X182474040Y-68585565D01*
X182541020Y-68825656D01*
X182790048Y-68942756D01*
X183057135Y-69009023D01*
X183332017Y-69021910D01*
X183604133Y-68980922D01*
X183863023Y-68887636D01*
X183978980Y-68825656D01*
X184045960Y-68585565D01*
X183260000Y-67799605D01*
X182474040Y-68585565D01*
X181730090Y-68585565D01*
X181805120Y-68510535D01*
X181958005Y-68281727D01*
X181987692Y-68210057D01*
X181992364Y-68223023D01*
X182054344Y-68338980D01*
X182294435Y-68405960D01*
X183080395Y-67620000D01*
X182294435Y-66834040D01*
X182054344Y-66901020D01*
X181990515Y-67036760D01*
X181958005Y-66958273D01*
X181805120Y-66729465D01*
X181755000Y-66679345D01*
X181755000Y-66654435D01*
X182474040Y-66654435D01*
X183260000Y-67440395D01*
X184045960Y-66654435D01*
X183978980Y-66414344D01*
X183729952Y-66297244D01*
X183462865Y-66230977D01*
X183187983Y-66218090D01*
X182915867Y-66259078D01*
X182656977Y-66352364D01*
X182541020Y-66414344D01*
X182474040Y-66654435D01*
X181755000Y-66654435D01*
X181755000Y-65828710D01*
X186327803Y-61255908D01*
X186363937Y-61219774D01*
X186363939Y-61219771D01*
X194628711Y-52955000D01*
X194748244Y-52955000D01*
X194824537Y-53047963D01*
X195003899Y-53195163D01*
X194818685Y-53350563D01*
X194624031Y-53593077D01*
X194480429Y-53868906D01*
X194409437Y-54087020D01*
X194529406Y-54333000D01*
X195873000Y-54333000D01*
X195873000Y-54313000D01*
X196127000Y-54313000D01*
X196127000Y-54333000D01*
X197470594Y-54333000D01*
X197590563Y-54087020D01*
X197519571Y-53868906D01*
X197375969Y-53593077D01*
X197181315Y-53350563D01*
X196996101Y-53195163D01*
X197175463Y-53047963D01*
X197273079Y-52929017D01*
X199058090Y-52929017D01*
X199099078Y-53201133D01*
X199192364Y-53460023D01*
X199254344Y-53575980D01*
X199494435Y-53642960D01*
X200280395Y-52857000D01*
X200639605Y-52857000D01*
X201425565Y-53642960D01*
X201665656Y-53575980D01*
X201782756Y-53326952D01*
X201849023Y-53059865D01*
X201861910Y-52784983D01*
X201820922Y-52512867D01*
X201727636Y-52253977D01*
X201665656Y-52138020D01*
X201425565Y-52071040D01*
X200639605Y-52857000D01*
X200280395Y-52857000D01*
X199494435Y-52071040D01*
X199254344Y-52138020D01*
X199137244Y-52387048D01*
X199070977Y-52654135D01*
X199058090Y-52929017D01*
X197273079Y-52929017D01*
X197373845Y-52806235D01*
X197521255Y-52530449D01*
X197612030Y-52231204D01*
X197642681Y-51920000D01*
X197639868Y-51891435D01*
X199674040Y-51891435D01*
X200460000Y-52677395D01*
X201245960Y-51891435D01*
X201178980Y-51651344D01*
X200929952Y-51534244D01*
X200662865Y-51467977D01*
X200387983Y-51455090D01*
X200115867Y-51496078D01*
X199856977Y-51589364D01*
X199741020Y-51651344D01*
X199674040Y-51891435D01*
X197639868Y-51891435D01*
X197612030Y-51608796D01*
X197521255Y-51309551D01*
X197373845Y-51033765D01*
X197175463Y-50792037D01*
X196933735Y-50593655D01*
X196657949Y-50446245D01*
X196358704Y-50355470D01*
X196125486Y-50332500D01*
X195874514Y-50332500D01*
X195641296Y-50355470D01*
X195342051Y-50446245D01*
X195066265Y-50593655D01*
X194824537Y-50792037D01*
X194748244Y-50885000D01*
X194250827Y-50885000D01*
X194199999Y-50879994D01*
X194149171Y-50885000D01*
X194149162Y-50885000D01*
X193997105Y-50899976D01*
X193802007Y-50959159D01*
X193766590Y-50978090D01*
X193622202Y-51055266D01*
X193516523Y-51141995D01*
X193464604Y-51184604D01*
X193432197Y-51224092D01*
X184900229Y-59756061D01*
X184900226Y-59756063D01*
X184864092Y-59792197D01*
X180024097Y-64632193D01*
X179984604Y-64664604D01*
X179855266Y-64822203D01*
X179759159Y-65002008D01*
X179699976Y-65197106D01*
X179685000Y-65349163D01*
X179685000Y-65349172D01*
X179679994Y-65400000D01*
X179685000Y-65450828D01*
X179685001Y-66679344D01*
X179634880Y-66729465D01*
X179481995Y-66958273D01*
X179450000Y-67035515D01*
X179418005Y-66958273D01*
X179265120Y-66729465D01*
X179070535Y-66534880D01*
X178841727Y-66381995D01*
X178587490Y-66276686D01*
X178317592Y-66223000D01*
X178042408Y-66223000D01*
X177772510Y-66276686D01*
X177518273Y-66381995D01*
X177491681Y-66399763D01*
X172588367Y-61496450D01*
X172563784Y-61466496D01*
X172444253Y-61368398D01*
X172307880Y-61295506D01*
X172159907Y-61250619D01*
X172044581Y-61239260D01*
X172044573Y-61239260D01*
X172006020Y-61235463D01*
X171967467Y-61239260D01*
X167829418Y-61239260D01*
X160367157Y-53777000D01*
X160537592Y-53777000D01*
X160807490Y-53723314D01*
X161061727Y-53618005D01*
X161290535Y-53465120D01*
X161485120Y-53270535D01*
X161638005Y-53041727D01*
X161670000Y-52964485D01*
X161701995Y-53041727D01*
X161854880Y-53270535D01*
X162049465Y-53465120D01*
X162278273Y-53618005D01*
X162532510Y-53723314D01*
X162802408Y-53777000D01*
X163077592Y-53777000D01*
X163347490Y-53723314D01*
X163601727Y-53618005D01*
X163830535Y-53465120D01*
X164025120Y-53270535D01*
X164178005Y-53041727D01*
X164210000Y-52964485D01*
X164241995Y-53041727D01*
X164394880Y-53270535D01*
X164589465Y-53465120D01*
X164818273Y-53618005D01*
X165072510Y-53723314D01*
X165342408Y-53777000D01*
X165617592Y-53777000D01*
X165887490Y-53723314D01*
X166141727Y-53618005D01*
X166370535Y-53465120D01*
X166565120Y-53270535D01*
X166718005Y-53041727D01*
X166750000Y-52964485D01*
X166781995Y-53041727D01*
X166934880Y-53270535D01*
X167129465Y-53465120D01*
X167358273Y-53618005D01*
X167612510Y-53723314D01*
X167882408Y-53777000D01*
X168157592Y-53777000D01*
X168427490Y-53723314D01*
X168681727Y-53618005D01*
X168910535Y-53465120D01*
X169105120Y-53270535D01*
X169258005Y-53041727D01*
X169290000Y-52964485D01*
X169321995Y-53041727D01*
X169474880Y-53270535D01*
X169669465Y-53465120D01*
X169898273Y-53618005D01*
X170152510Y-53723314D01*
X170422408Y-53777000D01*
X170697592Y-53777000D01*
X170967490Y-53723314D01*
X171221727Y-53618005D01*
X171450535Y-53465120D01*
X171645120Y-53270535D01*
X171798005Y-53041727D01*
X171830000Y-52964485D01*
X171861995Y-53041727D01*
X172014880Y-53270535D01*
X172209465Y-53465120D01*
X172438273Y-53618005D01*
X172692510Y-53723314D01*
X172962408Y-53777000D01*
X173237592Y-53777000D01*
X173507490Y-53723314D01*
X173761727Y-53618005D01*
X173990535Y-53465120D01*
X174185120Y-53270535D01*
X174338005Y-53041727D01*
X174370000Y-52964485D01*
X174401995Y-53041727D01*
X174554880Y-53270535D01*
X174749465Y-53465120D01*
X174978273Y-53618005D01*
X175232510Y-53723314D01*
X175502408Y-53777000D01*
X175777592Y-53777000D01*
X176047490Y-53723314D01*
X176301727Y-53618005D01*
X176530535Y-53465120D01*
X176725120Y-53270535D01*
X176878005Y-53041727D01*
X176910000Y-52964485D01*
X176941995Y-53041727D01*
X177094880Y-53270535D01*
X177289465Y-53465120D01*
X177518273Y-53618005D01*
X177772510Y-53723314D01*
X178042408Y-53777000D01*
X178317592Y-53777000D01*
X178587490Y-53723314D01*
X178841727Y-53618005D01*
X179070535Y-53465120D01*
X179265120Y-53270535D01*
X179418005Y-53041727D01*
X179450000Y-52964485D01*
X179481995Y-53041727D01*
X179634880Y-53270535D01*
X179829465Y-53465120D01*
X180058273Y-53618005D01*
X180312510Y-53723314D01*
X180582408Y-53777000D01*
X180857592Y-53777000D01*
X181127490Y-53723314D01*
X181381727Y-53618005D01*
X181610535Y-53465120D01*
X181805120Y-53270535D01*
X181958005Y-53041727D01*
X181990000Y-52964485D01*
X182021995Y-53041727D01*
X182174880Y-53270535D01*
X182369465Y-53465120D01*
X182598273Y-53618005D01*
X182852510Y-53723314D01*
X183122408Y-53777000D01*
X183397592Y-53777000D01*
X183667490Y-53723314D01*
X183921727Y-53618005D01*
X184150535Y-53465120D01*
X184345120Y-53270535D01*
X184498005Y-53041727D01*
X184530000Y-52964485D01*
X184561995Y-53041727D01*
X184714880Y-53270535D01*
X184909465Y-53465120D01*
X185138273Y-53618005D01*
X185392510Y-53723314D01*
X185662408Y-53777000D01*
X185937592Y-53777000D01*
X186207490Y-53723314D01*
X186461727Y-53618005D01*
X186690535Y-53465120D01*
X186885120Y-53270535D01*
X187038005Y-53041727D01*
X187143314Y-52787490D01*
X187197000Y-52517592D01*
X187197000Y-52242408D01*
X187143314Y-51972510D01*
X187038005Y-51718273D01*
X186885120Y-51489465D01*
X186690535Y-51294880D01*
X186461727Y-51141995D01*
X186207490Y-51036686D01*
X185937592Y-50983000D01*
X185662408Y-50983000D01*
X185392510Y-51036686D01*
X185138273Y-51141995D01*
X184909465Y-51294880D01*
X184714880Y-51489465D01*
X184561995Y-51718273D01*
X184530000Y-51795515D01*
X184498005Y-51718273D01*
X184345120Y-51489465D01*
X184150535Y-51294880D01*
X183921727Y-51141995D01*
X183667490Y-51036686D01*
X183397592Y-50983000D01*
X183122408Y-50983000D01*
X182852510Y-51036686D01*
X182598273Y-51141995D01*
X182369465Y-51294880D01*
X182174880Y-51489465D01*
X182021995Y-51718273D01*
X181990000Y-51795515D01*
X181958005Y-51718273D01*
X181805120Y-51489465D01*
X181610535Y-51294880D01*
X181381727Y-51141995D01*
X181127490Y-51036686D01*
X180857592Y-50983000D01*
X180582408Y-50983000D01*
X180312510Y-51036686D01*
X180058273Y-51141995D01*
X179829465Y-51294880D01*
X179634880Y-51489465D01*
X179481995Y-51718273D01*
X179450000Y-51795515D01*
X179418005Y-51718273D01*
X179265120Y-51489465D01*
X179070535Y-51294880D01*
X178841727Y-51141995D01*
X178587490Y-51036686D01*
X178317592Y-50983000D01*
X178042408Y-50983000D01*
X177772510Y-51036686D01*
X177518273Y-51141995D01*
X177289465Y-51294880D01*
X177094880Y-51489465D01*
X176941995Y-51718273D01*
X176910000Y-51795515D01*
X176878005Y-51718273D01*
X176725120Y-51489465D01*
X176530535Y-51294880D01*
X176301727Y-51141995D01*
X176047490Y-51036686D01*
X175777592Y-50983000D01*
X175502408Y-50983000D01*
X175232510Y-51036686D01*
X174978273Y-51141995D01*
X174749465Y-51294880D01*
X174554880Y-51489465D01*
X174401995Y-51718273D01*
X174370000Y-51795515D01*
X174338005Y-51718273D01*
X174185120Y-51489465D01*
X173990535Y-51294880D01*
X173761727Y-51141995D01*
X173507490Y-51036686D01*
X173237592Y-50983000D01*
X172962408Y-50983000D01*
X172692510Y-51036686D01*
X172438273Y-51141995D01*
X172209465Y-51294880D01*
X172014880Y-51489465D01*
X171861995Y-51718273D01*
X171830000Y-51795515D01*
X171798005Y-51718273D01*
X171645120Y-51489465D01*
X171450535Y-51294880D01*
X171221727Y-51141995D01*
X170967490Y-51036686D01*
X170697592Y-50983000D01*
X170422408Y-50983000D01*
X170152510Y-51036686D01*
X169898273Y-51141995D01*
X169669465Y-51294880D01*
X169474880Y-51489465D01*
X169321995Y-51718273D01*
X169290000Y-51795515D01*
X169258005Y-51718273D01*
X169105120Y-51489465D01*
X168910535Y-51294880D01*
X168681727Y-51141995D01*
X168427490Y-51036686D01*
X168157592Y-50983000D01*
X167882408Y-50983000D01*
X167612510Y-51036686D01*
X167358273Y-51141995D01*
X167129465Y-51294880D01*
X166934880Y-51489465D01*
X166781995Y-51718273D01*
X166750000Y-51795515D01*
X166718005Y-51718273D01*
X166565120Y-51489465D01*
X166370535Y-51294880D01*
X166141727Y-51141995D01*
X165887490Y-51036686D01*
X165617592Y-50983000D01*
X165342408Y-50983000D01*
X165072510Y-51036686D01*
X164818273Y-51141995D01*
X164589465Y-51294880D01*
X164394880Y-51489465D01*
X164241995Y-51718273D01*
X164210000Y-51795515D01*
X164178005Y-51718273D01*
X164025120Y-51489465D01*
X163830535Y-51294880D01*
X163725000Y-51224364D01*
X163725000Y-46978556D01*
X163728797Y-46940000D01*
X163725000Y-46901440D01*
X163725000Y-46901439D01*
X163721020Y-46861026D01*
X163713642Y-46786113D01*
X163668754Y-46638140D01*
X163639225Y-46582895D01*
X163595862Y-46501767D01*
X163497764Y-46382236D01*
X163467811Y-46357654D01*
X161826154Y-44715997D01*
X195493460Y-44715997D01*
X195493460Y-45057763D01*
X195560135Y-45392961D01*
X195690923Y-45708711D01*
X195880797Y-45992878D01*
X196122462Y-46234543D01*
X196406629Y-46424417D01*
X196722379Y-46555205D01*
X197057577Y-46621880D01*
X197399343Y-46621880D01*
X197734541Y-46555205D01*
X198050291Y-46424417D01*
X198334458Y-46234543D01*
X198576123Y-45992878D01*
X198765997Y-45708711D01*
X198896785Y-45392961D01*
X198963460Y-45057763D01*
X198963460Y-44715997D01*
X198896785Y-44380799D01*
X198765997Y-44065049D01*
X198576123Y-43780882D01*
X198334458Y-43539217D01*
X198050291Y-43349343D01*
X197734541Y-43218555D01*
X197399343Y-43151880D01*
X197057577Y-43151880D01*
X196722379Y-43218555D01*
X196406629Y-43349343D01*
X196122462Y-43539217D01*
X195880797Y-43780882D01*
X195690923Y-44065049D01*
X195560135Y-44380799D01*
X195493460Y-44715997D01*
X161826154Y-44715997D01*
X160582347Y-43472190D01*
X160557764Y-43442236D01*
X160438233Y-43344138D01*
X160301860Y-43271246D01*
X160153887Y-43226359D01*
X160038561Y-43215000D01*
X160038553Y-43215000D01*
X160000000Y-43211203D01*
X159961447Y-43215000D01*
X158341474Y-43215000D01*
X158233475Y-43053368D01*
X158026632Y-42846525D01*
X157783411Y-42684010D01*
X157513158Y-42572068D01*
X157226260Y-42515000D01*
X156933740Y-42515000D01*
X156646842Y-42572068D01*
X156376589Y-42684010D01*
X156133368Y-42846525D01*
X155926525Y-43053368D01*
X155804805Y-43235534D01*
X155735178Y-43118645D01*
X155540269Y-42902412D01*
X155306920Y-42728359D01*
X155044099Y-42603175D01*
X154896890Y-42558524D01*
X154667000Y-42679845D01*
X154667000Y-43873000D01*
X154687000Y-43873000D01*
X154687000Y-44127000D01*
X154667000Y-44127000D01*
X154667000Y-45320155D01*
X154896890Y-45441476D01*
X155044099Y-45396825D01*
X155306920Y-45271641D01*
X155540269Y-45097588D01*
X155735178Y-44881355D01*
X155804805Y-44764466D01*
X155926525Y-44946632D01*
X156133368Y-45153475D01*
X156376589Y-45315990D01*
X156646842Y-45427932D01*
X156933740Y-45485000D01*
X157226260Y-45485000D01*
X157513158Y-45427932D01*
X157783411Y-45315990D01*
X158026632Y-45153475D01*
X158233475Y-44946632D01*
X158341474Y-44785000D01*
X159674843Y-44785000D01*
X162155000Y-47265157D01*
X162155001Y-51224363D01*
X162049465Y-51294880D01*
X161854880Y-51489465D01*
X161701995Y-51718273D01*
X161670000Y-51795515D01*
X161638005Y-51718273D01*
X161485120Y-51489465D01*
X161290535Y-51294880D01*
X161061727Y-51141995D01*
X160807490Y-51036686D01*
X160537592Y-50983000D01*
X160262408Y-50983000D01*
X159992510Y-51036686D01*
X159738273Y-51141995D01*
X159509465Y-51294880D01*
X159314880Y-51489465D01*
X159161995Y-51718273D01*
X159130000Y-51795515D01*
X159098005Y-51718273D01*
X158945120Y-51489465D01*
X158750535Y-51294880D01*
X158521727Y-51141995D01*
X158267490Y-51036686D01*
X157997592Y-50983000D01*
X157722408Y-50983000D01*
X157452510Y-51036686D01*
X157198273Y-51141995D01*
X156969465Y-51294880D01*
X156774880Y-51489465D01*
X156621995Y-51718273D01*
X156590000Y-51795515D01*
X156558005Y-51718273D01*
X156405120Y-51489465D01*
X156210535Y-51294880D01*
X155981727Y-51141995D01*
X155727490Y-51036686D01*
X155457592Y-50983000D01*
X155182408Y-50983000D01*
X154912510Y-51036686D01*
X154658273Y-51141995D01*
X154429465Y-51294880D01*
X154234880Y-51489465D01*
X154081995Y-51718273D01*
X154050000Y-51795515D01*
X154018005Y-51718273D01*
X153865120Y-51489465D01*
X153670535Y-51294880D01*
X153441727Y-51141995D01*
X153187490Y-51036686D01*
X152917592Y-50983000D01*
X152642408Y-50983000D01*
X152372510Y-51036686D01*
X152118273Y-51141995D01*
X151889465Y-51294880D01*
X151694880Y-51489465D01*
X151541995Y-51718273D01*
X151510000Y-51795515D01*
X151478005Y-51718273D01*
X151325120Y-51489465D01*
X151130535Y-51294880D01*
X150901727Y-51141995D01*
X150647490Y-51036686D01*
X150377592Y-50983000D01*
X150102408Y-50983000D01*
X149832510Y-51036686D01*
X149578273Y-51141995D01*
X149349465Y-51294880D01*
X149154880Y-51489465D01*
X149001995Y-51718273D01*
X148970000Y-51795515D01*
X148938005Y-51718273D01*
X148785120Y-51489465D01*
X148590535Y-51294880D01*
X148361727Y-51141995D01*
X148107490Y-51036686D01*
X147837592Y-50983000D01*
X147562408Y-50983000D01*
X147292510Y-51036686D01*
X147038273Y-51141995D01*
X146809465Y-51294880D01*
X146614880Y-51489465D01*
X146461995Y-51718273D01*
X146430000Y-51795515D01*
X146398005Y-51718273D01*
X146245120Y-51489465D01*
X146050535Y-51294880D01*
X145821727Y-51141995D01*
X145567490Y-51036686D01*
X145297592Y-50983000D01*
X145022408Y-50983000D01*
X144752510Y-51036686D01*
X144498273Y-51141995D01*
X144269465Y-51294880D01*
X144074880Y-51489465D01*
X143921995Y-51718273D01*
X143890000Y-51795515D01*
X143858005Y-51718273D01*
X143705120Y-51489465D01*
X143655000Y-51439345D01*
X143655000Y-46808710D01*
X145428711Y-45035000D01*
X150542546Y-45035000D01*
X150560498Y-45094180D01*
X150619463Y-45204494D01*
X150698815Y-45301185D01*
X150795506Y-45380537D01*
X150905820Y-45439502D01*
X151025518Y-45475812D01*
X151150000Y-45488072D01*
X152850000Y-45488072D01*
X152974482Y-45475812D01*
X153094180Y-45439502D01*
X153204494Y-45380537D01*
X153301185Y-45301185D01*
X153380537Y-45204494D01*
X153439502Y-45094180D01*
X153463966Y-45013534D01*
X153539731Y-45097588D01*
X153773080Y-45271641D01*
X154035901Y-45396825D01*
X154183110Y-45441476D01*
X154413000Y-45320155D01*
X154413000Y-44127000D01*
X154393000Y-44127000D01*
X154393000Y-43873000D01*
X154413000Y-43873000D01*
X154413000Y-42679845D01*
X154183110Y-42558524D01*
X154035901Y-42603175D01*
X153773080Y-42728359D01*
X153539731Y-42902412D01*
X153463966Y-42986466D01*
X153439502Y-42905820D01*
X153380537Y-42795506D01*
X153301185Y-42698815D01*
X153204494Y-42619463D01*
X153094180Y-42560498D01*
X152974482Y-42524188D01*
X152850000Y-42511928D01*
X151150000Y-42511928D01*
X151025518Y-42524188D01*
X150905820Y-42560498D01*
X150795506Y-42619463D01*
X150698815Y-42698815D01*
X150619463Y-42795506D01*
X150560498Y-42905820D01*
X150542546Y-42965000D01*
X145050827Y-42965000D01*
X144999999Y-42959994D01*
X144949171Y-42965000D01*
X144949162Y-42965000D01*
X144797105Y-42979976D01*
X144602007Y-43039159D01*
X144575424Y-43053368D01*
X144422202Y-43135266D01*
X144320715Y-43218555D01*
X144264604Y-43264604D01*
X144232197Y-43304092D01*
X141924097Y-45612193D01*
X141884604Y-45644604D01*
X141755266Y-45802203D01*
X141659159Y-45982008D01*
X141599976Y-46177106D01*
X141585000Y-46329163D01*
X141585000Y-46329172D01*
X141579994Y-46380000D01*
X141585000Y-46430828D01*
X141585001Y-51439344D01*
X141534880Y-51489465D01*
X141381995Y-51718273D01*
X141352308Y-51789943D01*
X141347636Y-51776977D01*
X141285656Y-51661020D01*
X141045565Y-51594040D01*
X140259605Y-52380000D01*
X141045565Y-53165960D01*
X141285656Y-53098980D01*
X141349485Y-52963240D01*
X141381995Y-53041727D01*
X141534880Y-53270535D01*
X141585000Y-53320655D01*
X141585001Y-55951288D01*
X135804098Y-61732192D01*
X135804092Y-61732197D01*
X133304097Y-64232193D01*
X133264604Y-64264604D01*
X133135266Y-64422203D01*
X133039159Y-64602008D01*
X132979976Y-64797106D01*
X132965000Y-64949163D01*
X132965000Y-64949172D01*
X132959994Y-65000000D01*
X130660000Y-65000000D01*
X130660000Y-53345565D01*
X136754040Y-53345565D01*
X136821020Y-53585656D01*
X137070048Y-53702756D01*
X137337135Y-53769023D01*
X137612017Y-53781910D01*
X137884133Y-53740922D01*
X138143023Y-53647636D01*
X138258980Y-53585656D01*
X138325960Y-53345565D01*
X139294040Y-53345565D01*
X139361020Y-53585656D01*
X139610048Y-53702756D01*
X139877135Y-53769023D01*
X140152017Y-53781910D01*
X140424133Y-53740922D01*
X140683023Y-53647636D01*
X140798980Y-53585656D01*
X140865960Y-53345565D01*
X140080000Y-52559605D01*
X139294040Y-53345565D01*
X138325960Y-53345565D01*
X137540000Y-52559605D01*
X136754040Y-53345565D01*
X130660000Y-53345565D01*
X130660000Y-52452017D01*
X136138090Y-52452017D01*
X136179078Y-52724133D01*
X136272364Y-52983023D01*
X136334344Y-53098980D01*
X136574435Y-53165960D01*
X137360395Y-52380000D01*
X137719605Y-52380000D01*
X138505565Y-53165960D01*
X138745656Y-53098980D01*
X138807079Y-52968356D01*
X138812364Y-52983023D01*
X138874344Y-53098980D01*
X139114435Y-53165960D01*
X139900395Y-52380000D01*
X139114435Y-51594040D01*
X138874344Y-51661020D01*
X138812921Y-51791644D01*
X138807636Y-51776977D01*
X138745656Y-51661020D01*
X138505565Y-51594040D01*
X137719605Y-52380000D01*
X137360395Y-52380000D01*
X136574435Y-51594040D01*
X136334344Y-51661020D01*
X136217244Y-51910048D01*
X136150977Y-52177135D01*
X136138090Y-52452017D01*
X130660000Y-52452017D01*
X130660000Y-51414435D01*
X136754040Y-51414435D01*
X137540000Y-52200395D01*
X138325960Y-51414435D01*
X139294040Y-51414435D01*
X140080000Y-52200395D01*
X140865960Y-51414435D01*
X140798980Y-51174344D01*
X140549952Y-51057244D01*
X140282865Y-50990977D01*
X140007983Y-50978090D01*
X139735867Y-51019078D01*
X139476977Y-51112364D01*
X139361020Y-51174344D01*
X139294040Y-51414435D01*
X138325960Y-51414435D01*
X138258980Y-51174344D01*
X138009952Y-51057244D01*
X137742865Y-50990977D01*
X137467983Y-50978090D01*
X137195867Y-51019078D01*
X136936977Y-51112364D01*
X136821020Y-51174344D01*
X136754040Y-51414435D01*
X130660000Y-51414435D01*
X130660000Y-40660000D01*
X206340000Y-40660000D01*
X206340001Y-94340000D01*
G37*
G04 #@! TD.AperFunction*
D27*
X149001995Y-68281727D02*
X149154880Y-68510535D01*
X149349465Y-68705120D01*
X149455000Y-68775637D01*
X149455001Y-74434842D01*
X143754843Y-80135000D01*
X138261474Y-80135000D01*
X138153475Y-79973368D01*
X137946632Y-79766525D01*
X137772240Y-79650000D01*
X137946632Y-79533475D01*
X138153475Y-79326632D01*
X138315990Y-79083411D01*
X138427932Y-78813158D01*
X138485000Y-78526260D01*
X138485000Y-78233740D01*
X138447075Y-78043082D01*
X141927811Y-74562346D01*
X141957764Y-74537764D01*
X142055862Y-74418233D01*
X142128754Y-74281860D01*
X142128754Y-74281859D01*
X142173642Y-74133887D01*
X142183030Y-74038560D01*
X142185000Y-74018561D01*
X142185000Y-74018556D01*
X142188797Y-73980000D01*
X142185000Y-73941444D01*
X142185000Y-68951919D01*
X142212510Y-68963314D01*
X142482408Y-69017000D01*
X142757592Y-69017000D01*
X143027490Y-68963314D01*
X143281727Y-68858005D01*
X143510535Y-68705120D01*
X143705120Y-68510535D01*
X143858005Y-68281727D01*
X143890000Y-68204485D01*
X143921995Y-68281727D01*
X144074880Y-68510535D01*
X144269465Y-68705120D01*
X144498273Y-68858005D01*
X144752510Y-68963314D01*
X145022408Y-69017000D01*
X145297592Y-69017000D01*
X145567490Y-68963314D01*
X145821727Y-68858005D01*
X146050535Y-68705120D01*
X146245120Y-68510535D01*
X146398005Y-68281727D01*
X146430000Y-68204485D01*
X146461995Y-68281727D01*
X146614880Y-68510535D01*
X146809465Y-68705120D01*
X147038273Y-68858005D01*
X147292510Y-68963314D01*
X147562408Y-69017000D01*
X147837592Y-69017000D01*
X148107490Y-68963314D01*
X148361727Y-68858005D01*
X148590535Y-68705120D01*
X148785120Y-68510535D01*
X148938005Y-68281727D01*
X148970000Y-68204485D01*
X149001995Y-68281727D01*
G04 #@! TA.AperFunction,Conductor*
D28*
G36*
X149001995Y-68281727D02*
G01*
X149154880Y-68510535D01*
X149349465Y-68705120D01*
X149455000Y-68775637D01*
X149455001Y-74434842D01*
X143754843Y-80135000D01*
X138261474Y-80135000D01*
X138153475Y-79973368D01*
X137946632Y-79766525D01*
X137772240Y-79650000D01*
X137946632Y-79533475D01*
X138153475Y-79326632D01*
X138315990Y-79083411D01*
X138427932Y-78813158D01*
X138485000Y-78526260D01*
X138485000Y-78233740D01*
X138447075Y-78043082D01*
X141927811Y-74562346D01*
X141957764Y-74537764D01*
X142055862Y-74418233D01*
X142128754Y-74281860D01*
X142128754Y-74281859D01*
X142173642Y-74133887D01*
X142183030Y-74038560D01*
X142185000Y-74018561D01*
X142185000Y-74018556D01*
X142188797Y-73980000D01*
X142185000Y-73941444D01*
X142185000Y-68951919D01*
X142212510Y-68963314D01*
X142482408Y-69017000D01*
X142757592Y-69017000D01*
X143027490Y-68963314D01*
X143281727Y-68858005D01*
X143510535Y-68705120D01*
X143705120Y-68510535D01*
X143858005Y-68281727D01*
X143890000Y-68204485D01*
X143921995Y-68281727D01*
X144074880Y-68510535D01*
X144269465Y-68705120D01*
X144498273Y-68858005D01*
X144752510Y-68963314D01*
X145022408Y-69017000D01*
X145297592Y-69017000D01*
X145567490Y-68963314D01*
X145821727Y-68858005D01*
X146050535Y-68705120D01*
X146245120Y-68510535D01*
X146398005Y-68281727D01*
X146430000Y-68204485D01*
X146461995Y-68281727D01*
X146614880Y-68510535D01*
X146809465Y-68705120D01*
X147038273Y-68858005D01*
X147292510Y-68963314D01*
X147562408Y-69017000D01*
X147837592Y-69017000D01*
X148107490Y-68963314D01*
X148361727Y-68858005D01*
X148590535Y-68705120D01*
X148785120Y-68510535D01*
X148938005Y-68281727D01*
X148970000Y-68204485D01*
X149001995Y-68281727D01*
G37*
G04 #@! TD.AperFunction*
D27*
X156621995Y-53041727D02*
X156774880Y-53270535D01*
X156969465Y-53465120D01*
X157198273Y-53618005D01*
X157452510Y-53723314D01*
X157722408Y-53777000D01*
X157997592Y-53777000D01*
X158122081Y-53752238D01*
X166921918Y-62552076D01*
X166946496Y-62582024D01*
X166976444Y-62606602D01*
X166976447Y-62606605D01*
X167005819Y-62630710D01*
X167066027Y-62680122D01*
X167202400Y-62753014D01*
X167315932Y-62787454D01*
X167350372Y-62797901D01*
X167364750Y-62799317D01*
X167465699Y-62809260D01*
X167465706Y-62809260D01*
X167504259Y-62813057D01*
X167542812Y-62809260D01*
X171680863Y-62809260D01*
X175172956Y-66301354D01*
X174978273Y-66381995D01*
X174749465Y-66534880D01*
X174554880Y-66729465D01*
X174401995Y-66958273D01*
X174370000Y-67035515D01*
X174338005Y-66958273D01*
X174185120Y-66729465D01*
X173990535Y-66534880D01*
X173761727Y-66381995D01*
X173507490Y-66276686D01*
X173237592Y-66223000D01*
X172962408Y-66223000D01*
X172692510Y-66276686D01*
X172438273Y-66381995D01*
X172209465Y-66534880D01*
X172014880Y-66729465D01*
X171861995Y-66958273D01*
X171830000Y-67035515D01*
X171798005Y-66958273D01*
X171645120Y-66729465D01*
X171450535Y-66534880D01*
X171221727Y-66381995D01*
X170967490Y-66276686D01*
X170697592Y-66223000D01*
X170422408Y-66223000D01*
X170152510Y-66276686D01*
X169898273Y-66381995D01*
X169669465Y-66534880D01*
X169474880Y-66729465D01*
X169321995Y-66958273D01*
X169290000Y-67035515D01*
X169258005Y-66958273D01*
X169105120Y-66729465D01*
X168910535Y-66534880D01*
X168681727Y-66381995D01*
X168427490Y-66276686D01*
X168157592Y-66223000D01*
X167882408Y-66223000D01*
X167612510Y-66276686D01*
X167358273Y-66381995D01*
X167129465Y-66534880D01*
X166934880Y-66729465D01*
X166781995Y-66958273D01*
X166750000Y-67035515D01*
X166718005Y-66958273D01*
X166565120Y-66729465D01*
X166370535Y-66534880D01*
X166141727Y-66381995D01*
X165887490Y-66276686D01*
X165617592Y-66223000D01*
X165342408Y-66223000D01*
X165072510Y-66276686D01*
X164818273Y-66381995D01*
X164589465Y-66534880D01*
X164394880Y-66729465D01*
X164241995Y-66958273D01*
X164210000Y-67035515D01*
X164178005Y-66958273D01*
X164025120Y-66729465D01*
X163830535Y-66534880D01*
X163601727Y-66381995D01*
X163347490Y-66276686D01*
X163077592Y-66223000D01*
X162802408Y-66223000D01*
X162532510Y-66276686D01*
X162278273Y-66381995D01*
X162049465Y-66534880D01*
X161854880Y-66729465D01*
X161701995Y-66958273D01*
X161670000Y-67035515D01*
X161638005Y-66958273D01*
X161485120Y-66729465D01*
X161290535Y-66534880D01*
X161061727Y-66381995D01*
X160807490Y-66276686D01*
X160537592Y-66223000D01*
X160262408Y-66223000D01*
X159992510Y-66276686D01*
X159738273Y-66381995D01*
X159509465Y-66534880D01*
X159314880Y-66729465D01*
X159161995Y-66958273D01*
X159130000Y-67035515D01*
X159098005Y-66958273D01*
X158945120Y-66729465D01*
X158750535Y-66534880D01*
X158521727Y-66381995D01*
X158267490Y-66276686D01*
X157997592Y-66223000D01*
X157722408Y-66223000D01*
X157452510Y-66276686D01*
X157198273Y-66381995D01*
X156969465Y-66534880D01*
X156774880Y-66729465D01*
X156621995Y-66958273D01*
X156590000Y-67035515D01*
X156558005Y-66958273D01*
X156405120Y-66729465D01*
X156210535Y-66534880D01*
X155981727Y-66381995D01*
X155727490Y-66276686D01*
X155457592Y-66223000D01*
X155182408Y-66223000D01*
X154912510Y-66276686D01*
X154658273Y-66381995D01*
X154429465Y-66534880D01*
X154234880Y-66729465D01*
X154081995Y-66958273D01*
X154050000Y-67035515D01*
X154018005Y-66958273D01*
X153865120Y-66729465D01*
X153670535Y-66534880D01*
X153565000Y-66464364D01*
X153565000Y-65618552D01*
X153568797Y-65579999D01*
X153565000Y-65541446D01*
X153565000Y-65541439D01*
X153553641Y-65426113D01*
X153508754Y-65278140D01*
X153435862Y-65141767D01*
X153337764Y-65022236D01*
X153307811Y-64997654D01*
X152982347Y-64672190D01*
X152957764Y-64642236D01*
X152838233Y-64544138D01*
X152701860Y-64471246D01*
X152553887Y-64426359D01*
X152438561Y-64415000D01*
X152438553Y-64415000D01*
X152400000Y-64411203D01*
X152361447Y-64415000D01*
X142638552Y-64415000D01*
X142599999Y-64411203D01*
X142561446Y-64415000D01*
X142561439Y-64415000D01*
X142460490Y-64424943D01*
X142446112Y-64426359D01*
X142411672Y-64436806D01*
X142298140Y-64471246D01*
X142161767Y-64544138D01*
X142101559Y-64593550D01*
X142072187Y-64617655D01*
X142072184Y-64617658D01*
X142042236Y-64642236D01*
X142017658Y-64672185D01*
X140872185Y-65817658D01*
X140842237Y-65842236D01*
X140817659Y-65872184D01*
X140817655Y-65872188D01*
X140784690Y-65912356D01*
X140744139Y-65961767D01*
X140735571Y-65977797D01*
X140671246Y-66098141D01*
X140626359Y-66246114D01*
X140618023Y-66330755D01*
X140487490Y-66276686D01*
X140217592Y-66223000D01*
X139942408Y-66223000D01*
X139752999Y-66260676D01*
X139752999Y-64572398D01*
X146624078Y-57701320D01*
X152803407Y-57701320D01*
X152841960Y-57705117D01*
X152880513Y-57701320D01*
X152880521Y-57701320D01*
X152995847Y-57689961D01*
X153143820Y-57645074D01*
X153280193Y-57572182D01*
X153399724Y-57474084D01*
X153424307Y-57444130D01*
X155847811Y-55020626D01*
X155877764Y-54996044D01*
X155975862Y-54876513D01*
X156048754Y-54740140D01*
X156073287Y-54659266D01*
X156093642Y-54592167D01*
X156104295Y-54483994D01*
X156105000Y-54476841D01*
X156105000Y-54476836D01*
X156108797Y-54438280D01*
X156105000Y-54399724D01*
X156105000Y-53535636D01*
X156210535Y-53465120D01*
X156405120Y-53270535D01*
X156558005Y-53041727D01*
X156590000Y-52964485D01*
X156621995Y-53041727D01*
G04 #@! TA.AperFunction,Conductor*
D28*
G36*
X156621995Y-53041727D02*
G01*
X156774880Y-53270535D01*
X156969465Y-53465120D01*
X157198273Y-53618005D01*
X157452510Y-53723314D01*
X157722408Y-53777000D01*
X157997592Y-53777000D01*
X158122081Y-53752238D01*
X166921918Y-62552076D01*
X166946496Y-62582024D01*
X166976444Y-62606602D01*
X166976447Y-62606605D01*
X167005819Y-62630710D01*
X167066027Y-62680122D01*
X167202400Y-62753014D01*
X167315932Y-62787454D01*
X167350372Y-62797901D01*
X167364750Y-62799317D01*
X167465699Y-62809260D01*
X167465706Y-62809260D01*
X167504259Y-62813057D01*
X167542812Y-62809260D01*
X171680863Y-62809260D01*
X175172956Y-66301354D01*
X174978273Y-66381995D01*
X174749465Y-66534880D01*
X174554880Y-66729465D01*
X174401995Y-66958273D01*
X174370000Y-67035515D01*
X174338005Y-66958273D01*
X174185120Y-66729465D01*
X173990535Y-66534880D01*
X173761727Y-66381995D01*
X173507490Y-66276686D01*
X173237592Y-66223000D01*
X172962408Y-66223000D01*
X172692510Y-66276686D01*
X172438273Y-66381995D01*
X172209465Y-66534880D01*
X172014880Y-66729465D01*
X171861995Y-66958273D01*
X171830000Y-67035515D01*
X171798005Y-66958273D01*
X171645120Y-66729465D01*
X171450535Y-66534880D01*
X171221727Y-66381995D01*
X170967490Y-66276686D01*
X170697592Y-66223000D01*
X170422408Y-66223000D01*
X170152510Y-66276686D01*
X169898273Y-66381995D01*
X169669465Y-66534880D01*
X169474880Y-66729465D01*
X169321995Y-66958273D01*
X169290000Y-67035515D01*
X169258005Y-66958273D01*
X169105120Y-66729465D01*
X168910535Y-66534880D01*
X168681727Y-66381995D01*
X168427490Y-66276686D01*
X168157592Y-66223000D01*
X167882408Y-66223000D01*
X167612510Y-66276686D01*
X167358273Y-66381995D01*
X167129465Y-66534880D01*
X166934880Y-66729465D01*
X166781995Y-66958273D01*
X166750000Y-67035515D01*
X166718005Y-66958273D01*
X166565120Y-66729465D01*
X166370535Y-66534880D01*
X166141727Y-66381995D01*
X165887490Y-66276686D01*
X165617592Y-66223000D01*
X165342408Y-66223000D01*
X165072510Y-66276686D01*
X164818273Y-66381995D01*
X164589465Y-66534880D01*
X164394880Y-66729465D01*
X164241995Y-66958273D01*
X164210000Y-67035515D01*
X164178005Y-66958273D01*
X164025120Y-66729465D01*
X163830535Y-66534880D01*
X163601727Y-66381995D01*
X163347490Y-66276686D01*
X163077592Y-66223000D01*
X162802408Y-66223000D01*
X162532510Y-66276686D01*
X162278273Y-66381995D01*
X162049465Y-66534880D01*
X161854880Y-66729465D01*
X161701995Y-66958273D01*
X161670000Y-67035515D01*
X161638005Y-66958273D01*
X161485120Y-66729465D01*
X161290535Y-66534880D01*
X161061727Y-66381995D01*
X160807490Y-66276686D01*
X160537592Y-66223000D01*
X160262408Y-66223000D01*
X159992510Y-66276686D01*
X159738273Y-66381995D01*
X159509465Y-66534880D01*
X159314880Y-66729465D01*
X159161995Y-66958273D01*
X159130000Y-67035515D01*
X159098005Y-66958273D01*
X158945120Y-66729465D01*
X158750535Y-66534880D01*
X158521727Y-66381995D01*
X158267490Y-66276686D01*
X157997592Y-66223000D01*
X157722408Y-66223000D01*
X157452510Y-66276686D01*
X157198273Y-66381995D01*
X156969465Y-66534880D01*
X156774880Y-66729465D01*
X156621995Y-66958273D01*
X156590000Y-67035515D01*
X156558005Y-66958273D01*
X156405120Y-66729465D01*
X156210535Y-66534880D01*
X155981727Y-66381995D01*
X155727490Y-66276686D01*
X155457592Y-66223000D01*
X155182408Y-66223000D01*
X154912510Y-66276686D01*
X154658273Y-66381995D01*
X154429465Y-66534880D01*
X154234880Y-66729465D01*
X154081995Y-66958273D01*
X154050000Y-67035515D01*
X154018005Y-66958273D01*
X153865120Y-66729465D01*
X153670535Y-66534880D01*
X153565000Y-66464364D01*
X153565000Y-65618552D01*
X153568797Y-65579999D01*
X153565000Y-65541446D01*
X153565000Y-65541439D01*
X153553641Y-65426113D01*
X153508754Y-65278140D01*
X153435862Y-65141767D01*
X153337764Y-65022236D01*
X153307811Y-64997654D01*
X152982347Y-64672190D01*
X152957764Y-64642236D01*
X152838233Y-64544138D01*
X152701860Y-64471246D01*
X152553887Y-64426359D01*
X152438561Y-64415000D01*
X152438553Y-64415000D01*
X152400000Y-64411203D01*
X152361447Y-64415000D01*
X142638552Y-64415000D01*
X142599999Y-64411203D01*
X142561446Y-64415000D01*
X142561439Y-64415000D01*
X142460490Y-64424943D01*
X142446112Y-64426359D01*
X142411672Y-64436806D01*
X142298140Y-64471246D01*
X142161767Y-64544138D01*
X142101559Y-64593550D01*
X142072187Y-64617655D01*
X142072184Y-64617658D01*
X142042236Y-64642236D01*
X142017658Y-64672185D01*
X140872185Y-65817658D01*
X140842237Y-65842236D01*
X140817659Y-65872184D01*
X140817655Y-65872188D01*
X140784690Y-65912356D01*
X140744139Y-65961767D01*
X140735571Y-65977797D01*
X140671246Y-66098141D01*
X140626359Y-66246114D01*
X140618023Y-66330755D01*
X140487490Y-66276686D01*
X140217592Y-66223000D01*
X139942408Y-66223000D01*
X139752999Y-66260676D01*
X139752999Y-64572398D01*
X146624078Y-57701320D01*
X152803407Y-57701320D01*
X152841960Y-57705117D01*
X152880513Y-57701320D01*
X152880521Y-57701320D01*
X152995847Y-57689961D01*
X153143820Y-57645074D01*
X153280193Y-57572182D01*
X153399724Y-57474084D01*
X153424307Y-57444130D01*
X155847811Y-55020626D01*
X155877764Y-54996044D01*
X155975862Y-54876513D01*
X156048754Y-54740140D01*
X156073287Y-54659266D01*
X156093642Y-54592167D01*
X156104295Y-54483994D01*
X156105000Y-54476841D01*
X156105000Y-54476836D01*
X156108797Y-54438280D01*
X156105000Y-54399724D01*
X156105000Y-53535636D01*
X156210535Y-53465120D01*
X156405120Y-53270535D01*
X156558005Y-53041727D01*
X156590000Y-52964485D01*
X156621995Y-53041727D01*
G37*
G04 #@! TD.AperFunction*
M02*
