G04 #@! TF.GenerationSoftware,KiCad,Pcbnew,(5.1.6)-1*
G04 #@! TF.CreationDate,2021-07-21T10:19:36+01:00*
G04 #@! TF.ProjectId,master_controller_v1,6d617374-6572-45f6-936f-6e74726f6c6c,1.0*
G04 #@! TF.SameCoordinates,Original*
G04 #@! TF.FileFunction,Legend,Top*
G04 #@! TF.FilePolarity,Positive*
%FSLAX46Y46*%
G04 Gerber Fmt 4.6, Leading zero omitted, Abs format (unit mm)*
G04 Created by KiCad (PCBNEW (5.1.6)-1) date 2021-07-21 10:19:36*
%MOMM*%
%LPD*%
G01*
G04 APERTURE LIST*
%ADD10C,0.120000*%
%ADD11C,0.150000*%
G04 APERTURE END LIST*
D10*
X91550000Y-113806000D02*
X91550000Y-112476000D01*
X91550000Y-112476000D02*
X92880000Y-112476000D01*
X94150000Y-112476000D02*
X101830000Y-112476000D01*
X101830000Y-115136000D02*
X101830000Y-112476000D01*
X94150000Y-115136000D02*
X101830000Y-115136000D01*
X94150000Y-115136000D02*
X94150000Y-112476000D01*
X94869000Y-165227000D02*
X94869000Y-163068000D01*
X94869000Y-163068000D02*
X100076000Y-163068000D01*
X100076000Y-163068000D02*
X100076000Y-165354000D01*
X100076000Y-165354000D02*
X94869000Y-165354000D01*
X111803000Y-99709000D02*
X111803000Y-97550000D01*
X111803000Y-97550000D02*
X117010000Y-97550000D01*
X117010000Y-97550000D02*
X117010000Y-99836000D01*
X117010000Y-99836000D02*
X111803000Y-99836000D01*
X125773000Y-112917000D02*
X105453000Y-112917000D01*
X105453000Y-112917000D02*
X105453000Y-163717000D01*
X105453000Y-163717000D02*
X125773000Y-163717000D01*
X125773000Y-163717000D02*
X125773000Y-112917000D01*
X101850000Y-125236000D02*
G75*
G03*
X101850000Y-125236000I-5120000J0D01*
G01*
X96730000Y-130316000D02*
X96730000Y-120156000D01*
X96690000Y-130316000D02*
X96690000Y-120156000D01*
X96650000Y-130316000D02*
X96650000Y-120156000D01*
X96610000Y-130315000D02*
X96610000Y-120157000D01*
X96570000Y-130314000D02*
X96570000Y-120158000D01*
X96530000Y-130313000D02*
X96530000Y-120159000D01*
X96490000Y-130311000D02*
X96490000Y-120161000D01*
X96450000Y-130309000D02*
X96450000Y-120163000D01*
X96410000Y-130306000D02*
X96410000Y-120166000D01*
X96370000Y-130304000D02*
X96370000Y-120168000D01*
X96330000Y-130301000D02*
X96330000Y-120171000D01*
X96290000Y-130298000D02*
X96290000Y-120174000D01*
X96250000Y-130294000D02*
X96250000Y-120178000D01*
X96210000Y-130290000D02*
X96210000Y-120182000D01*
X96170000Y-130286000D02*
X96170000Y-120186000D01*
X96130000Y-130281000D02*
X96130000Y-120191000D01*
X96090000Y-130276000D02*
X96090000Y-120196000D01*
X96050000Y-130271000D02*
X96050000Y-120201000D01*
X96009000Y-130266000D02*
X96009000Y-120206000D01*
X95969000Y-130260000D02*
X95969000Y-120212000D01*
X95929000Y-130254000D02*
X95929000Y-120218000D01*
X95889000Y-130247000D02*
X95889000Y-120225000D01*
X95849000Y-130240000D02*
X95849000Y-120232000D01*
X95809000Y-130233000D02*
X95809000Y-120239000D01*
X95769000Y-130226000D02*
X95769000Y-120246000D01*
X95729000Y-130218000D02*
X95729000Y-120254000D01*
X95689000Y-130210000D02*
X95689000Y-120262000D01*
X95649000Y-130201000D02*
X95649000Y-120271000D01*
X95609000Y-130192000D02*
X95609000Y-120280000D01*
X95569000Y-130183000D02*
X95569000Y-120289000D01*
X95529000Y-130174000D02*
X95529000Y-120298000D01*
X95489000Y-130164000D02*
X95489000Y-120308000D01*
X95449000Y-130154000D02*
X95449000Y-126477000D01*
X95449000Y-123995000D02*
X95449000Y-120318000D01*
X95409000Y-130143000D02*
X95409000Y-126477000D01*
X95409000Y-123995000D02*
X95409000Y-120329000D01*
X95369000Y-130133000D02*
X95369000Y-126477000D01*
X95369000Y-123995000D02*
X95369000Y-120339000D01*
X95329000Y-130121000D02*
X95329000Y-126477000D01*
X95329000Y-123995000D02*
X95329000Y-120351000D01*
X95289000Y-130110000D02*
X95289000Y-126477000D01*
X95289000Y-123995000D02*
X95289000Y-120362000D01*
X95249000Y-130098000D02*
X95249000Y-126477000D01*
X95249000Y-123995000D02*
X95249000Y-120374000D01*
X95209000Y-130086000D02*
X95209000Y-126477000D01*
X95209000Y-123995000D02*
X95209000Y-120386000D01*
X95169000Y-130073000D02*
X95169000Y-126477000D01*
X95169000Y-123995000D02*
X95169000Y-120399000D01*
X95129000Y-130060000D02*
X95129000Y-126477000D01*
X95129000Y-123995000D02*
X95129000Y-120412000D01*
X95089000Y-130047000D02*
X95089000Y-126477000D01*
X95089000Y-123995000D02*
X95089000Y-120425000D01*
X95049000Y-130033000D02*
X95049000Y-126477000D01*
X95049000Y-123995000D02*
X95049000Y-120439000D01*
X95009000Y-130019000D02*
X95009000Y-126477000D01*
X95009000Y-123995000D02*
X95009000Y-120453000D01*
X94969000Y-130004000D02*
X94969000Y-126477000D01*
X94969000Y-123995000D02*
X94969000Y-120468000D01*
X94929000Y-129990000D02*
X94929000Y-126477000D01*
X94929000Y-123995000D02*
X94929000Y-120482000D01*
X94889000Y-129974000D02*
X94889000Y-126477000D01*
X94889000Y-123995000D02*
X94889000Y-120498000D01*
X94849000Y-129959000D02*
X94849000Y-126477000D01*
X94849000Y-123995000D02*
X94849000Y-120513000D01*
X94809000Y-129943000D02*
X94809000Y-126477000D01*
X94809000Y-123995000D02*
X94809000Y-120529000D01*
X94769000Y-129926000D02*
X94769000Y-126477000D01*
X94769000Y-123995000D02*
X94769000Y-120546000D01*
X94729000Y-129910000D02*
X94729000Y-126477000D01*
X94729000Y-123995000D02*
X94729000Y-120562000D01*
X94689000Y-129893000D02*
X94689000Y-126477000D01*
X94689000Y-123995000D02*
X94689000Y-120579000D01*
X94649000Y-129875000D02*
X94649000Y-126477000D01*
X94649000Y-123995000D02*
X94649000Y-120597000D01*
X94609000Y-129857000D02*
X94609000Y-126477000D01*
X94609000Y-123995000D02*
X94609000Y-120615000D01*
X94569000Y-129839000D02*
X94569000Y-126477000D01*
X94569000Y-123995000D02*
X94569000Y-120633000D01*
X94529000Y-129820000D02*
X94529000Y-126477000D01*
X94529000Y-123995000D02*
X94529000Y-120652000D01*
X94489000Y-129800000D02*
X94489000Y-126477000D01*
X94489000Y-123995000D02*
X94489000Y-120672000D01*
X94449000Y-129781000D02*
X94449000Y-126477000D01*
X94449000Y-123995000D02*
X94449000Y-120691000D01*
X94409000Y-129761000D02*
X94409000Y-126477000D01*
X94409000Y-123995000D02*
X94409000Y-120711000D01*
X94369000Y-129740000D02*
X94369000Y-126477000D01*
X94369000Y-123995000D02*
X94369000Y-120732000D01*
X94329000Y-129719000D02*
X94329000Y-126477000D01*
X94329000Y-123995000D02*
X94329000Y-120753000D01*
X94289000Y-129698000D02*
X94289000Y-126477000D01*
X94289000Y-123995000D02*
X94289000Y-120774000D01*
X94249000Y-129676000D02*
X94249000Y-126477000D01*
X94249000Y-123995000D02*
X94249000Y-120796000D01*
X94209000Y-129653000D02*
X94209000Y-126477000D01*
X94209000Y-123995000D02*
X94209000Y-120819000D01*
X94169000Y-129631000D02*
X94169000Y-126477000D01*
X94169000Y-123995000D02*
X94169000Y-120841000D01*
X94129000Y-129607000D02*
X94129000Y-126477000D01*
X94129000Y-123995000D02*
X94129000Y-120865000D01*
X94089000Y-129583000D02*
X94089000Y-126477000D01*
X94089000Y-123995000D02*
X94089000Y-120889000D01*
X94049000Y-129559000D02*
X94049000Y-126477000D01*
X94049000Y-123995000D02*
X94049000Y-120913000D01*
X94009000Y-129534000D02*
X94009000Y-126477000D01*
X94009000Y-123995000D02*
X94009000Y-120938000D01*
X93969000Y-129509000D02*
X93969000Y-126477000D01*
X93969000Y-123995000D02*
X93969000Y-120963000D01*
X93929000Y-129483000D02*
X93929000Y-126477000D01*
X93929000Y-123995000D02*
X93929000Y-120989000D01*
X93889000Y-129457000D02*
X93889000Y-126477000D01*
X93889000Y-123995000D02*
X93889000Y-121015000D01*
X93849000Y-129430000D02*
X93849000Y-126477000D01*
X93849000Y-123995000D02*
X93849000Y-121042000D01*
X93809000Y-129402000D02*
X93809000Y-126477000D01*
X93809000Y-123995000D02*
X93809000Y-121070000D01*
X93769000Y-129374000D02*
X93769000Y-126477000D01*
X93769000Y-123995000D02*
X93769000Y-121098000D01*
X93729000Y-129346000D02*
X93729000Y-126477000D01*
X93729000Y-123995000D02*
X93729000Y-121126000D01*
X93689000Y-129316000D02*
X93689000Y-126477000D01*
X93689000Y-123995000D02*
X93689000Y-121156000D01*
X93649000Y-129286000D02*
X93649000Y-126477000D01*
X93649000Y-123995000D02*
X93649000Y-121186000D01*
X93609000Y-129256000D02*
X93609000Y-126477000D01*
X93609000Y-123995000D02*
X93609000Y-121216000D01*
X93569000Y-129225000D02*
X93569000Y-126477000D01*
X93569000Y-123995000D02*
X93569000Y-121247000D01*
X93529000Y-129193000D02*
X93529000Y-126477000D01*
X93529000Y-123995000D02*
X93529000Y-121279000D01*
X93489000Y-129161000D02*
X93489000Y-126477000D01*
X93489000Y-123995000D02*
X93489000Y-121311000D01*
X93449000Y-129128000D02*
X93449000Y-126477000D01*
X93449000Y-123995000D02*
X93449000Y-121344000D01*
X93409000Y-129094000D02*
X93409000Y-126477000D01*
X93409000Y-123995000D02*
X93409000Y-121378000D01*
X93369000Y-129060000D02*
X93369000Y-126477000D01*
X93369000Y-123995000D02*
X93369000Y-121412000D01*
X93329000Y-129025000D02*
X93329000Y-126477000D01*
X93329000Y-123995000D02*
X93329000Y-121447000D01*
X93289000Y-128989000D02*
X93289000Y-126477000D01*
X93289000Y-123995000D02*
X93289000Y-121483000D01*
X93249000Y-128952000D02*
X93249000Y-126477000D01*
X93249000Y-123995000D02*
X93249000Y-121520000D01*
X93209000Y-128915000D02*
X93209000Y-126477000D01*
X93209000Y-123995000D02*
X93209000Y-121557000D01*
X93169000Y-128876000D02*
X93169000Y-126477000D01*
X93169000Y-123995000D02*
X93169000Y-121596000D01*
X93129000Y-128837000D02*
X93129000Y-126477000D01*
X93129000Y-123995000D02*
X93129000Y-121635000D01*
X93089000Y-128797000D02*
X93089000Y-126477000D01*
X93089000Y-123995000D02*
X93089000Y-121675000D01*
X93049000Y-128756000D02*
X93049000Y-126477000D01*
X93049000Y-123995000D02*
X93049000Y-121716000D01*
X93009000Y-128714000D02*
X93009000Y-126477000D01*
X93009000Y-123995000D02*
X93009000Y-121758000D01*
X92969000Y-128672000D02*
X92969000Y-121800000D01*
X92929000Y-128628000D02*
X92929000Y-121844000D01*
X92889000Y-128583000D02*
X92889000Y-121889000D01*
X92849000Y-128537000D02*
X92849000Y-121935000D01*
X92809000Y-128490000D02*
X92809000Y-121982000D01*
X92769000Y-128442000D02*
X92769000Y-122030000D01*
X92729000Y-128392000D02*
X92729000Y-122080000D01*
X92689000Y-128342000D02*
X92689000Y-122130000D01*
X92649000Y-128290000D02*
X92649000Y-122182000D01*
X92609000Y-128236000D02*
X92609000Y-122236000D01*
X92569000Y-128181000D02*
X92569000Y-122291000D01*
X92529000Y-128125000D02*
X92529000Y-122347000D01*
X92489000Y-128066000D02*
X92489000Y-122406000D01*
X92449000Y-128006000D02*
X92449000Y-122466000D01*
X92409000Y-127945000D02*
X92409000Y-122527000D01*
X92369000Y-127881000D02*
X92369000Y-122591000D01*
X92329000Y-127815000D02*
X92329000Y-122657000D01*
X92289000Y-127746000D02*
X92289000Y-122726000D01*
X92249000Y-127675000D02*
X92249000Y-122797000D01*
X92209000Y-127601000D02*
X92209000Y-122871000D01*
X92169000Y-127525000D02*
X92169000Y-122947000D01*
X92129000Y-127445000D02*
X92129000Y-123027000D01*
X92089000Y-127361000D02*
X92089000Y-123111000D01*
X92049000Y-127273000D02*
X92049000Y-123199000D01*
X92009000Y-127180000D02*
X92009000Y-123292000D01*
X91969000Y-127082000D02*
X91969000Y-123390000D01*
X91929000Y-126978000D02*
X91929000Y-123494000D01*
X91889000Y-126866000D02*
X91889000Y-123606000D01*
X91849000Y-126746000D02*
X91849000Y-123726000D01*
X91809000Y-126614000D02*
X91809000Y-123858000D01*
X91769000Y-126466000D02*
X91769000Y-124006000D01*
X91729000Y-126298000D02*
X91729000Y-124174000D01*
X91689000Y-126098000D02*
X91689000Y-124374000D01*
X91649000Y-125835000D02*
X91649000Y-124637000D01*
X102209646Y-128111000D02*
X101209646Y-128111000D01*
X101709646Y-128611000D02*
X101709646Y-127611000D01*
X113139646Y-109561000D02*
X113139646Y-108561000D01*
X113639646Y-109061000D02*
X112639646Y-109061000D01*
X103079000Y-106785000D02*
X103079000Y-105587000D01*
X103119000Y-107048000D02*
X103119000Y-105324000D01*
X103159000Y-107248000D02*
X103159000Y-105124000D01*
X103199000Y-107416000D02*
X103199000Y-104956000D01*
X103239000Y-107564000D02*
X103239000Y-104808000D01*
X103279000Y-107696000D02*
X103279000Y-104676000D01*
X103319000Y-107816000D02*
X103319000Y-104556000D01*
X103359000Y-107928000D02*
X103359000Y-104444000D01*
X103399000Y-108032000D02*
X103399000Y-104340000D01*
X103439000Y-108130000D02*
X103439000Y-104242000D01*
X103479000Y-108223000D02*
X103479000Y-104149000D01*
X103519000Y-108311000D02*
X103519000Y-104061000D01*
X103559000Y-108395000D02*
X103559000Y-103977000D01*
X103599000Y-108475000D02*
X103599000Y-103897000D01*
X103639000Y-108551000D02*
X103639000Y-103821000D01*
X103679000Y-108625000D02*
X103679000Y-103747000D01*
X103719000Y-108696000D02*
X103719000Y-103676000D01*
X103759000Y-108765000D02*
X103759000Y-103607000D01*
X103799000Y-108831000D02*
X103799000Y-103541000D01*
X103839000Y-108895000D02*
X103839000Y-103477000D01*
X103879000Y-108956000D02*
X103879000Y-103416000D01*
X103919000Y-109016000D02*
X103919000Y-103356000D01*
X103959000Y-109075000D02*
X103959000Y-103297000D01*
X103999000Y-109131000D02*
X103999000Y-103241000D01*
X104039000Y-109186000D02*
X104039000Y-103186000D01*
X104079000Y-109240000D02*
X104079000Y-103132000D01*
X104119000Y-109292000D02*
X104119000Y-103080000D01*
X104159000Y-109342000D02*
X104159000Y-103030000D01*
X104199000Y-109392000D02*
X104199000Y-102980000D01*
X104239000Y-109440000D02*
X104239000Y-102932000D01*
X104279000Y-109487000D02*
X104279000Y-102885000D01*
X104319000Y-109533000D02*
X104319000Y-102839000D01*
X104359000Y-109578000D02*
X104359000Y-102794000D01*
X104399000Y-109622000D02*
X104399000Y-102750000D01*
X104439000Y-104945000D02*
X104439000Y-102708000D01*
X104439000Y-109664000D02*
X104439000Y-107427000D01*
X104479000Y-104945000D02*
X104479000Y-102666000D01*
X104479000Y-109706000D02*
X104479000Y-107427000D01*
X104519000Y-104945000D02*
X104519000Y-102625000D01*
X104519000Y-109747000D02*
X104519000Y-107427000D01*
X104559000Y-104945000D02*
X104559000Y-102585000D01*
X104559000Y-109787000D02*
X104559000Y-107427000D01*
X104599000Y-104945000D02*
X104599000Y-102546000D01*
X104599000Y-109826000D02*
X104599000Y-107427000D01*
X104639000Y-104945000D02*
X104639000Y-102507000D01*
X104639000Y-109865000D02*
X104639000Y-107427000D01*
X104679000Y-104945000D02*
X104679000Y-102470000D01*
X104679000Y-109902000D02*
X104679000Y-107427000D01*
X104719000Y-104945000D02*
X104719000Y-102433000D01*
X104719000Y-109939000D02*
X104719000Y-107427000D01*
X104759000Y-104945000D02*
X104759000Y-102397000D01*
X104759000Y-109975000D02*
X104759000Y-107427000D01*
X104799000Y-104945000D02*
X104799000Y-102362000D01*
X104799000Y-110010000D02*
X104799000Y-107427000D01*
X104839000Y-104945000D02*
X104839000Y-102328000D01*
X104839000Y-110044000D02*
X104839000Y-107427000D01*
X104879000Y-104945000D02*
X104879000Y-102294000D01*
X104879000Y-110078000D02*
X104879000Y-107427000D01*
X104919000Y-104945000D02*
X104919000Y-102261000D01*
X104919000Y-110111000D02*
X104919000Y-107427000D01*
X104959000Y-104945000D02*
X104959000Y-102229000D01*
X104959000Y-110143000D02*
X104959000Y-107427000D01*
X104999000Y-104945000D02*
X104999000Y-102197000D01*
X104999000Y-110175000D02*
X104999000Y-107427000D01*
X105039000Y-104945000D02*
X105039000Y-102166000D01*
X105039000Y-110206000D02*
X105039000Y-107427000D01*
X105079000Y-104945000D02*
X105079000Y-102136000D01*
X105079000Y-110236000D02*
X105079000Y-107427000D01*
X105119000Y-104945000D02*
X105119000Y-102106000D01*
X105119000Y-110266000D02*
X105119000Y-107427000D01*
X105159000Y-104945000D02*
X105159000Y-102076000D01*
X105159000Y-110296000D02*
X105159000Y-107427000D01*
X105199000Y-104945000D02*
X105199000Y-102048000D01*
X105199000Y-110324000D02*
X105199000Y-107427000D01*
X105239000Y-104945000D02*
X105239000Y-102020000D01*
X105239000Y-110352000D02*
X105239000Y-107427000D01*
X105279000Y-104945000D02*
X105279000Y-101992000D01*
X105279000Y-110380000D02*
X105279000Y-107427000D01*
X105319000Y-104945000D02*
X105319000Y-101965000D01*
X105319000Y-110407000D02*
X105319000Y-107427000D01*
X105359000Y-104945000D02*
X105359000Y-101939000D01*
X105359000Y-110433000D02*
X105359000Y-107427000D01*
X105399000Y-104945000D02*
X105399000Y-101913000D01*
X105399000Y-110459000D02*
X105399000Y-107427000D01*
X105439000Y-104945000D02*
X105439000Y-101888000D01*
X105439000Y-110484000D02*
X105439000Y-107427000D01*
X105479000Y-104945000D02*
X105479000Y-101863000D01*
X105479000Y-110509000D02*
X105479000Y-107427000D01*
X105519000Y-104945000D02*
X105519000Y-101839000D01*
X105519000Y-110533000D02*
X105519000Y-107427000D01*
X105559000Y-104945000D02*
X105559000Y-101815000D01*
X105559000Y-110557000D02*
X105559000Y-107427000D01*
X105599000Y-104945000D02*
X105599000Y-101791000D01*
X105599000Y-110581000D02*
X105599000Y-107427000D01*
X105639000Y-104945000D02*
X105639000Y-101769000D01*
X105639000Y-110603000D02*
X105639000Y-107427000D01*
X105679000Y-104945000D02*
X105679000Y-101746000D01*
X105679000Y-110626000D02*
X105679000Y-107427000D01*
X105719000Y-104945000D02*
X105719000Y-101724000D01*
X105719000Y-110648000D02*
X105719000Y-107427000D01*
X105759000Y-104945000D02*
X105759000Y-101703000D01*
X105759000Y-110669000D02*
X105759000Y-107427000D01*
X105799000Y-104945000D02*
X105799000Y-101682000D01*
X105799000Y-110690000D02*
X105799000Y-107427000D01*
X105839000Y-104945000D02*
X105839000Y-101661000D01*
X105839000Y-110711000D02*
X105839000Y-107427000D01*
X105879000Y-104945000D02*
X105879000Y-101641000D01*
X105879000Y-110731000D02*
X105879000Y-107427000D01*
X105919000Y-104945000D02*
X105919000Y-101622000D01*
X105919000Y-110750000D02*
X105919000Y-107427000D01*
X105959000Y-104945000D02*
X105959000Y-101602000D01*
X105959000Y-110770000D02*
X105959000Y-107427000D01*
X105999000Y-104945000D02*
X105999000Y-101583000D01*
X105999000Y-110789000D02*
X105999000Y-107427000D01*
X106039000Y-104945000D02*
X106039000Y-101565000D01*
X106039000Y-110807000D02*
X106039000Y-107427000D01*
X106079000Y-104945000D02*
X106079000Y-101547000D01*
X106079000Y-110825000D02*
X106079000Y-107427000D01*
X106119000Y-104945000D02*
X106119000Y-101529000D01*
X106119000Y-110843000D02*
X106119000Y-107427000D01*
X106159000Y-104945000D02*
X106159000Y-101512000D01*
X106159000Y-110860000D02*
X106159000Y-107427000D01*
X106199000Y-104945000D02*
X106199000Y-101496000D01*
X106199000Y-110876000D02*
X106199000Y-107427000D01*
X106239000Y-104945000D02*
X106239000Y-101479000D01*
X106239000Y-110893000D02*
X106239000Y-107427000D01*
X106279000Y-104945000D02*
X106279000Y-101463000D01*
X106279000Y-110909000D02*
X106279000Y-107427000D01*
X106319000Y-104945000D02*
X106319000Y-101448000D01*
X106319000Y-110924000D02*
X106319000Y-107427000D01*
X106359000Y-104945000D02*
X106359000Y-101432000D01*
X106359000Y-110940000D02*
X106359000Y-107427000D01*
X106399000Y-104945000D02*
X106399000Y-101418000D01*
X106399000Y-110954000D02*
X106399000Y-107427000D01*
X106439000Y-104945000D02*
X106439000Y-101403000D01*
X106439000Y-110969000D02*
X106439000Y-107427000D01*
X106479000Y-104945000D02*
X106479000Y-101389000D01*
X106479000Y-110983000D02*
X106479000Y-107427000D01*
X106519000Y-104945000D02*
X106519000Y-101375000D01*
X106519000Y-110997000D02*
X106519000Y-107427000D01*
X106559000Y-104945000D02*
X106559000Y-101362000D01*
X106559000Y-111010000D02*
X106559000Y-107427000D01*
X106599000Y-104945000D02*
X106599000Y-101349000D01*
X106599000Y-111023000D02*
X106599000Y-107427000D01*
X106639000Y-104945000D02*
X106639000Y-101336000D01*
X106639000Y-111036000D02*
X106639000Y-107427000D01*
X106679000Y-104945000D02*
X106679000Y-101324000D01*
X106679000Y-111048000D02*
X106679000Y-107427000D01*
X106719000Y-104945000D02*
X106719000Y-101312000D01*
X106719000Y-111060000D02*
X106719000Y-107427000D01*
X106759000Y-104945000D02*
X106759000Y-101301000D01*
X106759000Y-111071000D02*
X106759000Y-107427000D01*
X106799000Y-104945000D02*
X106799000Y-101289000D01*
X106799000Y-111083000D02*
X106799000Y-107427000D01*
X106839000Y-104945000D02*
X106839000Y-101279000D01*
X106839000Y-111093000D02*
X106839000Y-107427000D01*
X106879000Y-104945000D02*
X106879000Y-101268000D01*
X106879000Y-111104000D02*
X106879000Y-107427000D01*
X106919000Y-111114000D02*
X106919000Y-101258000D01*
X106959000Y-111124000D02*
X106959000Y-101248000D01*
X106999000Y-111133000D02*
X106999000Y-101239000D01*
X107039000Y-111142000D02*
X107039000Y-101230000D01*
X107079000Y-111151000D02*
X107079000Y-101221000D01*
X107119000Y-111160000D02*
X107119000Y-101212000D01*
X107159000Y-111168000D02*
X107159000Y-101204000D01*
X107199000Y-111176000D02*
X107199000Y-101196000D01*
X107239000Y-111183000D02*
X107239000Y-101189000D01*
X107279000Y-111190000D02*
X107279000Y-101182000D01*
X107319000Y-111197000D02*
X107319000Y-101175000D01*
X107359000Y-111204000D02*
X107359000Y-101168000D01*
X107399000Y-111210000D02*
X107399000Y-101162000D01*
X107439000Y-111216000D02*
X107439000Y-101156000D01*
X107480000Y-111221000D02*
X107480000Y-101151000D01*
X107520000Y-111226000D02*
X107520000Y-101146000D01*
X107560000Y-111231000D02*
X107560000Y-101141000D01*
X107600000Y-111236000D02*
X107600000Y-101136000D01*
X107640000Y-111240000D02*
X107640000Y-101132000D01*
X107680000Y-111244000D02*
X107680000Y-101128000D01*
X107720000Y-111248000D02*
X107720000Y-101124000D01*
X107760000Y-111251000D02*
X107760000Y-101121000D01*
X107800000Y-111254000D02*
X107800000Y-101118000D01*
X107840000Y-111256000D02*
X107840000Y-101116000D01*
X107880000Y-111259000D02*
X107880000Y-101113000D01*
X107920000Y-111261000D02*
X107920000Y-101111000D01*
X107960000Y-111263000D02*
X107960000Y-101109000D01*
X108000000Y-111264000D02*
X108000000Y-101108000D01*
X108040000Y-111265000D02*
X108040000Y-101107000D01*
X108080000Y-111266000D02*
X108080000Y-101106000D01*
X108120000Y-111266000D02*
X108120000Y-101106000D01*
X108160000Y-111266000D02*
X108160000Y-101106000D01*
X113280000Y-106186000D02*
G75*
G03*
X113280000Y-106186000I-5120000J0D01*
G01*
X84522000Y-99762000D02*
X85852000Y-99762000D01*
X84522000Y-101092000D02*
X84522000Y-99762000D01*
X84522000Y-102362000D02*
X87182000Y-102362000D01*
X87182000Y-102362000D02*
X87182000Y-140522000D01*
X84522000Y-102362000D02*
X84522000Y-140522000D01*
X84522000Y-140522000D02*
X87182000Y-140522000D01*
X86360000Y-155642000D02*
X87690000Y-155642000D01*
X87690000Y-155642000D02*
X87690000Y-156972000D01*
X87690000Y-158242000D02*
X87690000Y-168462000D01*
X85030000Y-168462000D02*
X87690000Y-168462000D01*
X85030000Y-158242000D02*
X85030000Y-168462000D01*
X85030000Y-158242000D02*
X87690000Y-158242000D01*
X91550000Y-150636000D02*
X91550000Y-149306000D01*
X91550000Y-149306000D02*
X92880000Y-149306000D01*
X94150000Y-149306000D02*
X101830000Y-149306000D01*
X101830000Y-151966000D02*
X101830000Y-149306000D01*
X94150000Y-151966000D02*
X101830000Y-151966000D01*
X94150000Y-151966000D02*
X94150000Y-149306000D01*
X125960000Y-103586000D02*
X125960000Y-106186000D01*
X125960000Y-103586000D02*
X115680000Y-103586000D01*
X115680000Y-103586000D02*
X115680000Y-108786000D01*
X123360000Y-108786000D02*
X115680000Y-108786000D01*
X123360000Y-106186000D02*
X123360000Y-108786000D01*
X125960000Y-106186000D02*
X123360000Y-106186000D01*
X125960000Y-108786000D02*
X124630000Y-108786000D01*
X125960000Y-107456000D02*
X125960000Y-108786000D01*
X129226000Y-114822000D02*
X131886000Y-114822000D01*
X129226000Y-114822000D02*
X129226000Y-122502000D01*
X129226000Y-122502000D02*
X131886000Y-122502000D01*
X131886000Y-114822000D02*
X131886000Y-122502000D01*
X131886000Y-112222000D02*
X131886000Y-113552000D01*
X130556000Y-112222000D02*
X131886000Y-112222000D01*
X129226000Y-144226000D02*
X130556000Y-144226000D01*
X129226000Y-145556000D02*
X129226000Y-144226000D01*
X129226000Y-146826000D02*
X131886000Y-146826000D01*
X131886000Y-146826000D02*
X131886000Y-164666000D01*
X129226000Y-146826000D02*
X129226000Y-164666000D01*
X129226000Y-164666000D02*
X131886000Y-164666000D01*
X94250000Y-101646000D02*
X93920000Y-101646000D01*
X94250000Y-108186000D02*
X94250000Y-101646000D01*
X93920000Y-108186000D02*
X94250000Y-108186000D01*
X91510000Y-101646000D02*
X91840000Y-101646000D01*
X91510000Y-108186000D02*
X91510000Y-101646000D01*
X91840000Y-108186000D02*
X91510000Y-108186000D01*
X95960000Y-103065000D02*
X97470000Y-103065000D01*
X95960000Y-106766000D02*
X97470000Y-106766000D01*
X97470000Y-110036000D02*
X97470000Y-99796000D01*
X95960000Y-99796000D02*
X100601000Y-99796000D01*
X95960000Y-110036000D02*
X100601000Y-110036000D01*
X100601000Y-110036000D02*
X100601000Y-99796000D01*
X95960000Y-110036000D02*
X95960000Y-99796000D01*
X83598000Y-153456000D02*
X83598000Y-143216000D01*
X88239000Y-153456000D02*
X88239000Y-143216000D01*
X83598000Y-153456000D02*
X88239000Y-153456000D01*
X83598000Y-143216000D02*
X88239000Y-143216000D01*
X85108000Y-153456000D02*
X85108000Y-143216000D01*
X83598000Y-150186000D02*
X85108000Y-150186000D01*
X83598000Y-146485000D02*
X85108000Y-146485000D01*
X101830000Y-136546000D02*
X91550000Y-136546000D01*
X101830000Y-146946000D02*
X101830000Y-136546000D01*
X91550000Y-146946000D02*
X101830000Y-146946000D01*
X91550000Y-136546000D02*
X91550000Y-146946000D01*
X99340000Y-136606000D02*
X97690000Y-136606000D01*
X99340000Y-146886000D02*
X99340000Y-136606000D01*
X94040000Y-146886000D02*
X99340000Y-146886000D01*
X94040000Y-136606000D02*
X94040000Y-146886000D01*
X95690000Y-136606000D02*
X94040000Y-136606000D01*
X97690000Y-136606000D02*
G75*
G02*
X95690000Y-136606000I-1000000J0D01*
G01*
X99960000Y-158026000D02*
X99960000Y-158356000D01*
X99960000Y-158356000D02*
X93420000Y-158356000D01*
X93420000Y-158356000D02*
X93420000Y-158026000D01*
X99960000Y-155946000D02*
X99960000Y-155616000D01*
X99960000Y-155616000D02*
X93420000Y-155616000D01*
X93420000Y-155616000D02*
X93420000Y-155946000D01*
X98330000Y-135246000D02*
X95090000Y-135246000D01*
X98330000Y-133006000D02*
X95090000Y-133006000D01*
X98330000Y-135246000D02*
X98330000Y-135181000D01*
X98330000Y-133071000D02*
X98330000Y-133006000D01*
X95090000Y-135246000D02*
X95090000Y-135181000D01*
X95090000Y-133071000D02*
X95090000Y-133006000D01*
D11*
X107886666Y-165862380D02*
X107553333Y-165386190D01*
X107315238Y-165862380D02*
X107315238Y-164862380D01*
X107696190Y-164862380D01*
X107791428Y-164910000D01*
X107839047Y-164957619D01*
X107886666Y-165052857D01*
X107886666Y-165195714D01*
X107839047Y-165290952D01*
X107791428Y-165338571D01*
X107696190Y-165386190D01*
X107315238Y-165386190D01*
X108315238Y-165338571D02*
X108648571Y-165338571D01*
X108791428Y-165862380D02*
X108315238Y-165862380D01*
X108315238Y-164862380D01*
X108791428Y-164862380D01*
X109553333Y-165338571D02*
X109220000Y-165338571D01*
X109220000Y-165862380D02*
X109220000Y-164862380D01*
X109696190Y-164862380D01*
X110220000Y-164862380D02*
X110220000Y-165100476D01*
X109981904Y-165005238D02*
X110220000Y-165100476D01*
X110458095Y-165005238D01*
X110077142Y-165290952D02*
X110220000Y-165100476D01*
X110362857Y-165290952D01*
X110981904Y-164862380D02*
X110981904Y-165100476D01*
X110743809Y-165005238D02*
X110981904Y-165100476D01*
X111220000Y-165005238D01*
X110839047Y-165290952D02*
X110981904Y-165100476D01*
X111124761Y-165290952D01*
X129476666Y-97282380D02*
X129143333Y-96806190D01*
X128905238Y-97282380D02*
X128905238Y-96282380D01*
X129286190Y-96282380D01*
X129381428Y-96330000D01*
X129429047Y-96377619D01*
X129476666Y-96472857D01*
X129476666Y-96615714D01*
X129429047Y-96710952D01*
X129381428Y-96758571D01*
X129286190Y-96806190D01*
X128905238Y-96806190D01*
X129905238Y-96758571D02*
X130238571Y-96758571D01*
X130381428Y-97282380D02*
X129905238Y-97282380D01*
X129905238Y-96282380D01*
X130381428Y-96282380D01*
X131143333Y-96758571D02*
X130810000Y-96758571D01*
X130810000Y-97282380D02*
X130810000Y-96282380D01*
X131286190Y-96282380D01*
X131810000Y-96282380D02*
X131810000Y-96520476D01*
X131571904Y-96425238D02*
X131810000Y-96520476D01*
X132048095Y-96425238D01*
X131667142Y-96710952D02*
X131810000Y-96520476D01*
X131952857Y-96710952D01*
X132571904Y-96282380D02*
X132571904Y-96520476D01*
X132333809Y-96425238D02*
X132571904Y-96520476D01*
X132810000Y-96425238D01*
X132429047Y-96710952D02*
X132571904Y-96520476D01*
X132714761Y-96710952D01*
X89562380Y-114139333D02*
X90276666Y-114139333D01*
X90419523Y-114186952D01*
X90514761Y-114282190D01*
X90562380Y-114425047D01*
X90562380Y-114520285D01*
X89562380Y-113186952D02*
X89562380Y-113663142D01*
X90038571Y-113710761D01*
X89990952Y-113663142D01*
X89943333Y-113567904D01*
X89943333Y-113329809D01*
X89990952Y-113234571D01*
X90038571Y-113186952D01*
X90133809Y-113139333D01*
X90371904Y-113139333D01*
X90467142Y-113186952D01*
X90514761Y-113234571D01*
X90562380Y-113329809D01*
X90562380Y-113567904D01*
X90514761Y-113663142D01*
X90467142Y-113710761D01*
X97210571Y-160297714D02*
X97258190Y-160154857D01*
X97305809Y-160107238D01*
X97401047Y-160059619D01*
X97543904Y-160059619D01*
X97639142Y-160107238D01*
X97686761Y-160154857D01*
X97734380Y-160250095D01*
X97734380Y-160631047D01*
X96734380Y-160631047D01*
X96734380Y-160297714D01*
X96782000Y-160202476D01*
X96829619Y-160154857D01*
X96924857Y-160107238D01*
X97020095Y-160107238D01*
X97115333Y-160154857D01*
X97162952Y-160202476D01*
X97210571Y-160297714D01*
X97210571Y-160631047D01*
X96734380Y-159773904D02*
X96734380Y-159202476D01*
X97734380Y-159488190D02*
X96734380Y-159488190D01*
X97734380Y-158345333D02*
X97734380Y-158916761D01*
X97734380Y-158631047D02*
X96734380Y-158631047D01*
X96877238Y-158726285D01*
X96972476Y-158821523D01*
X97020095Y-158916761D01*
X114898571Y-101891714D02*
X114946190Y-101748857D01*
X114993809Y-101701238D01*
X115089047Y-101653619D01*
X115231904Y-101653619D01*
X115327142Y-101701238D01*
X115374761Y-101748857D01*
X115422380Y-101844095D01*
X115422380Y-102225047D01*
X114422380Y-102225047D01*
X114422380Y-101891714D01*
X114470000Y-101796476D01*
X114517619Y-101748857D01*
X114612857Y-101701238D01*
X114708095Y-101701238D01*
X114803333Y-101748857D01*
X114850952Y-101796476D01*
X114898571Y-101891714D01*
X114898571Y-102225047D01*
X114422380Y-101367904D02*
X114422380Y-100796476D01*
X115422380Y-101082190D02*
X114422380Y-101082190D01*
X114517619Y-100510761D02*
X114470000Y-100463142D01*
X114422380Y-100367904D01*
X114422380Y-100129809D01*
X114470000Y-100034571D01*
X114517619Y-99986952D01*
X114612857Y-99939333D01*
X114708095Y-99939333D01*
X114850952Y-99986952D01*
X115422380Y-100558380D01*
X115422380Y-99939333D01*
X114565380Y-111980333D02*
X115279666Y-111980333D01*
X115422523Y-112027952D01*
X115517761Y-112123190D01*
X115565380Y-112266047D01*
X115565380Y-112361285D01*
X114565380Y-111075571D02*
X114565380Y-111266047D01*
X114613000Y-111361285D01*
X114660619Y-111408904D01*
X114803476Y-111504142D01*
X114993952Y-111551761D01*
X115374904Y-111551761D01*
X115470142Y-111504142D01*
X115517761Y-111456523D01*
X115565380Y-111361285D01*
X115565380Y-111170809D01*
X115517761Y-111075571D01*
X115470142Y-111027952D01*
X115374904Y-110980333D01*
X115136809Y-110980333D01*
X115041571Y-111027952D01*
X114993952Y-111075571D01*
X114946333Y-111170809D01*
X114946333Y-111361285D01*
X114993952Y-111456523D01*
X115041571Y-111504142D01*
X115136809Y-111551761D01*
X114351095Y-114147380D02*
X114351095Y-114956904D01*
X114398714Y-115052142D01*
X114446333Y-115099761D01*
X114541571Y-115147380D01*
X114732047Y-115147380D01*
X114827285Y-115099761D01*
X114874904Y-115052142D01*
X114922523Y-114956904D01*
X114922523Y-114147380D01*
X115351095Y-115099761D02*
X115493952Y-115147380D01*
X115732047Y-115147380D01*
X115827285Y-115099761D01*
X115874904Y-115052142D01*
X115922523Y-114956904D01*
X115922523Y-114861666D01*
X115874904Y-114766428D01*
X115827285Y-114718809D01*
X115732047Y-114671190D01*
X115541571Y-114623571D01*
X115446333Y-114575952D01*
X115398714Y-114528333D01*
X115351095Y-114433095D01*
X115351095Y-114337857D01*
X115398714Y-114242619D01*
X115446333Y-114195000D01*
X115541571Y-114147380D01*
X115779666Y-114147380D01*
X115922523Y-114195000D01*
X116684428Y-114623571D02*
X116827285Y-114671190D01*
X116874904Y-114718809D01*
X116922523Y-114814047D01*
X116922523Y-114956904D01*
X116874904Y-115052142D01*
X116827285Y-115099761D01*
X116732047Y-115147380D01*
X116351095Y-115147380D01*
X116351095Y-114147380D01*
X116684428Y-114147380D01*
X116779666Y-114195000D01*
X116827285Y-114242619D01*
X116874904Y-114337857D01*
X116874904Y-114433095D01*
X116827285Y-114528333D01*
X116779666Y-114575952D01*
X116684428Y-114623571D01*
X116351095Y-114623571D01*
X96563333Y-131843142D02*
X96515714Y-131890761D01*
X96372857Y-131938380D01*
X96277619Y-131938380D01*
X96134761Y-131890761D01*
X96039523Y-131795523D01*
X95991904Y-131700285D01*
X95944285Y-131509809D01*
X95944285Y-131366952D01*
X95991904Y-131176476D01*
X96039523Y-131081238D01*
X96134761Y-130986000D01*
X96277619Y-130938380D01*
X96372857Y-130938380D01*
X96515714Y-130986000D01*
X96563333Y-131033619D01*
X97515714Y-131938380D02*
X96944285Y-131938380D01*
X97230000Y-131938380D02*
X97230000Y-130938380D01*
X97134761Y-131081238D01*
X97039523Y-131176476D01*
X96944285Y-131224095D01*
X107993333Y-112793142D02*
X107945714Y-112840761D01*
X107802857Y-112888380D01*
X107707619Y-112888380D01*
X107564761Y-112840761D01*
X107469523Y-112745523D01*
X107421904Y-112650285D01*
X107374285Y-112459809D01*
X107374285Y-112316952D01*
X107421904Y-112126476D01*
X107469523Y-112031238D01*
X107564761Y-111936000D01*
X107707619Y-111888380D01*
X107802857Y-111888380D01*
X107945714Y-111936000D01*
X107993333Y-111983619D01*
X108374285Y-111983619D02*
X108421904Y-111936000D01*
X108517142Y-111888380D01*
X108755238Y-111888380D01*
X108850476Y-111936000D01*
X108898095Y-111983619D01*
X108945714Y-112078857D01*
X108945714Y-112174095D01*
X108898095Y-112316952D01*
X108326666Y-112888380D01*
X108945714Y-112888380D01*
X84637714Y-99214380D02*
X84637714Y-98214380D01*
X84875809Y-98214380D01*
X85018666Y-98262000D01*
X85113904Y-98357238D01*
X85161523Y-98452476D01*
X85209142Y-98642952D01*
X85209142Y-98785809D01*
X85161523Y-98976285D01*
X85113904Y-99071523D01*
X85018666Y-99166761D01*
X84875809Y-99214380D01*
X84637714Y-99214380D01*
X85590095Y-99166761D02*
X85732952Y-99214380D01*
X85971047Y-99214380D01*
X86066285Y-99166761D01*
X86113904Y-99119142D01*
X86161523Y-99023904D01*
X86161523Y-98928666D01*
X86113904Y-98833428D01*
X86066285Y-98785809D01*
X85971047Y-98738190D01*
X85780571Y-98690571D01*
X85685333Y-98642952D01*
X85637714Y-98595333D01*
X85590095Y-98500095D01*
X85590095Y-98404857D01*
X85637714Y-98309619D01*
X85685333Y-98262000D01*
X85780571Y-98214380D01*
X86018666Y-98214380D01*
X86161523Y-98262000D01*
X87113904Y-99214380D02*
X86542476Y-99214380D01*
X86828190Y-99214380D02*
X86828190Y-98214380D01*
X86732952Y-98357238D01*
X86637714Y-98452476D01*
X86542476Y-98500095D01*
X86026666Y-153654380D02*
X86026666Y-154368666D01*
X85979047Y-154511523D01*
X85883809Y-154606761D01*
X85740952Y-154654380D01*
X85645714Y-154654380D01*
X87026666Y-154654380D02*
X86455238Y-154654380D01*
X86740952Y-154654380D02*
X86740952Y-153654380D01*
X86645714Y-153797238D01*
X86550476Y-153892476D01*
X86455238Y-153940095D01*
X89562380Y-150969333D02*
X90276666Y-150969333D01*
X90419523Y-151016952D01*
X90514761Y-151112190D01*
X90562380Y-151255047D01*
X90562380Y-151350285D01*
X89657619Y-150540761D02*
X89610000Y-150493142D01*
X89562380Y-150397904D01*
X89562380Y-150159809D01*
X89610000Y-150064571D01*
X89657619Y-150016952D01*
X89752857Y-149969333D01*
X89848095Y-149969333D01*
X89990952Y-150016952D01*
X90562380Y-150588380D01*
X90562380Y-149969333D01*
X126852380Y-106519333D02*
X127566666Y-106519333D01*
X127709523Y-106566952D01*
X127804761Y-106662190D01*
X127852380Y-106805047D01*
X127852380Y-106900285D01*
X126852380Y-106138380D02*
X126852380Y-105519333D01*
X127233333Y-105852666D01*
X127233333Y-105709809D01*
X127280952Y-105614571D01*
X127328571Y-105566952D01*
X127423809Y-105519333D01*
X127661904Y-105519333D01*
X127757142Y-105566952D01*
X127804761Y-105614571D01*
X127852380Y-105709809D01*
X127852380Y-105995523D01*
X127804761Y-106090761D01*
X127757142Y-106138380D01*
X133643619Y-113345666D02*
X132929333Y-113345666D01*
X132786476Y-113298047D01*
X132691238Y-113202809D01*
X132643619Y-113059952D01*
X132643619Y-112964714D01*
X133310285Y-114250428D02*
X132643619Y-114250428D01*
X133691238Y-114012333D02*
X132976952Y-113774238D01*
X132976952Y-114393285D01*
X130222666Y-142678380D02*
X130222666Y-143392666D01*
X130175047Y-143535523D01*
X130079809Y-143630761D01*
X129936952Y-143678380D01*
X129841714Y-143678380D01*
X130603619Y-142678380D02*
X131270285Y-142678380D01*
X130841714Y-143678380D01*
X90962380Y-105082666D02*
X90486190Y-105416000D01*
X90962380Y-105654095D02*
X89962380Y-105654095D01*
X89962380Y-105273142D01*
X90010000Y-105177904D01*
X90057619Y-105130285D01*
X90152857Y-105082666D01*
X90295714Y-105082666D01*
X90390952Y-105130285D01*
X90438571Y-105177904D01*
X90486190Y-105273142D01*
X90486190Y-105654095D01*
X90962380Y-104130285D02*
X90962380Y-104701714D01*
X90962380Y-104416000D02*
X89962380Y-104416000D01*
X90105238Y-104511238D01*
X90200476Y-104606476D01*
X90248095Y-104701714D01*
X94412380Y-105677904D02*
X95221904Y-105677904D01*
X95317142Y-105630285D01*
X95364761Y-105582666D01*
X95412380Y-105487428D01*
X95412380Y-105296952D01*
X95364761Y-105201714D01*
X95317142Y-105154095D01*
X95221904Y-105106476D01*
X94412380Y-105106476D01*
X95412380Y-104106476D02*
X95412380Y-104677904D01*
X95412380Y-104392190D02*
X94412380Y-104392190D01*
X94555238Y-104487428D01*
X94650476Y-104582666D01*
X94698095Y-104677904D01*
X82050380Y-149097904D02*
X82859904Y-149097904D01*
X82955142Y-149050285D01*
X83002761Y-149002666D01*
X83050380Y-148907428D01*
X83050380Y-148716952D01*
X83002761Y-148621714D01*
X82955142Y-148574095D01*
X82859904Y-148526476D01*
X82050380Y-148526476D01*
X82145619Y-148097904D02*
X82098000Y-148050285D01*
X82050380Y-147955047D01*
X82050380Y-147716952D01*
X82098000Y-147621714D01*
X82145619Y-147574095D01*
X82240857Y-147526476D01*
X82336095Y-147526476D01*
X82478952Y-147574095D01*
X83050380Y-148145523D01*
X83050380Y-147526476D01*
X95928095Y-135058380D02*
X95928095Y-135867904D01*
X95975714Y-135963142D01*
X96023333Y-136010761D01*
X96118571Y-136058380D01*
X96309047Y-136058380D01*
X96404285Y-136010761D01*
X96451904Y-135963142D01*
X96499523Y-135867904D01*
X96499523Y-135058380D01*
X96880476Y-135058380D02*
X97499523Y-135058380D01*
X97166190Y-135439333D01*
X97309047Y-135439333D01*
X97404285Y-135486952D01*
X97451904Y-135534571D01*
X97499523Y-135629809D01*
X97499523Y-135867904D01*
X97451904Y-135963142D01*
X97404285Y-136010761D01*
X97309047Y-136058380D01*
X97023333Y-136058380D01*
X96928095Y-136010761D01*
X96880476Y-135963142D01*
X99063333Y-154898380D02*
X98730000Y-154422190D01*
X98491904Y-154898380D02*
X98491904Y-153898380D01*
X98872857Y-153898380D01*
X98968095Y-153946000D01*
X99015714Y-153993619D01*
X99063333Y-154088857D01*
X99063333Y-154231714D01*
X99015714Y-154326952D01*
X98968095Y-154374571D01*
X98872857Y-154422190D01*
X98491904Y-154422190D01*
X99444285Y-153993619D02*
X99491904Y-153946000D01*
X99587142Y-153898380D01*
X99825238Y-153898380D01*
X99920476Y-153946000D01*
X99968095Y-153993619D01*
X100015714Y-154088857D01*
X100015714Y-154184095D01*
X99968095Y-154326952D01*
X99396666Y-154898380D01*
X100015714Y-154898380D01*
X96543333Y-136733142D02*
X96495714Y-136780761D01*
X96352857Y-136828380D01*
X96257619Y-136828380D01*
X96114761Y-136780761D01*
X96019523Y-136685523D01*
X95971904Y-136590285D01*
X95924285Y-136399809D01*
X95924285Y-136256952D01*
X95971904Y-136066476D01*
X96019523Y-135971238D01*
X96114761Y-135876000D01*
X96257619Y-135828380D01*
X96352857Y-135828380D01*
X96495714Y-135876000D01*
X96543333Y-135923619D01*
X96876666Y-135828380D02*
X97495714Y-135828380D01*
X97162380Y-136209333D01*
X97305238Y-136209333D01*
X97400476Y-136256952D01*
X97448095Y-136304571D01*
X97495714Y-136399809D01*
X97495714Y-136637904D01*
X97448095Y-136733142D01*
X97400476Y-136780761D01*
X97305238Y-136828380D01*
X97019523Y-136828380D01*
X96924285Y-136780761D01*
X96876666Y-136733142D01*
M02*
