G04 #@! TF.GenerationSoftware,KiCad,Pcbnew,(5.1.6)-1*
G04 #@! TF.CreationDate,2021-07-21T10:19:36+01:00*
G04 #@! TF.ProjectId,master_controller_v1,6d617374-6572-45f6-936f-6e74726f6c6c,1.0*
G04 #@! TF.SameCoordinates,Original*
G04 #@! TF.FileFunction,Copper,L2,Bot*
G04 #@! TF.FilePolarity,Positive*
%FSLAX46Y46*%
G04 Gerber Fmt 4.6, Leading zero omitted, Abs format (unit mm)*
G04 Created by KiCad (PCBNEW (5.1.6)-1) date 2021-07-21 10:19:36*
%MOMM*%
%LPD*%
G01*
G04 APERTURE LIST*
G04 #@! TA.AperFunction,ComponentPad*
%ADD10O,1.700000X1.700000*%
G04 #@! TD*
G04 #@! TA.AperFunction,ComponentPad*
%ADD11R,1.700000X1.700000*%
G04 #@! TD*
G04 #@! TA.AperFunction,ComponentPad*
%ADD12C,1.524000*%
G04 #@! TD*
G04 #@! TA.AperFunction,ComponentPad*
%ADD13R,2.000000X2.000000*%
G04 #@! TD*
G04 #@! TA.AperFunction,ComponentPad*
%ADD14C,2.000000*%
G04 #@! TD*
G04 #@! TA.AperFunction,ComponentPad*
%ADD15O,1.600000X1.600000*%
G04 #@! TD*
G04 #@! TA.AperFunction,ComponentPad*
%ADD16C,1.600000*%
G04 #@! TD*
G04 #@! TA.AperFunction,ComponentPad*
%ADD17O,2.000000X1.905000*%
G04 #@! TD*
G04 #@! TA.AperFunction,ComponentPad*
%ADD18R,2.000000X1.905000*%
G04 #@! TD*
G04 #@! TA.AperFunction,ComponentPad*
%ADD19R,1.600000X1.600000*%
G04 #@! TD*
G04 #@! TA.AperFunction,ViaPad*
%ADD20C,0.800000*%
G04 #@! TD*
G04 #@! TA.AperFunction,Conductor*
%ADD21C,0.800000*%
G04 #@! TD*
G04 #@! TA.AperFunction,Conductor*
%ADD22C,0.300000*%
G04 #@! TD*
G04 #@! TA.AperFunction,Conductor*
%ADD23C,0.254000*%
G04 #@! TD*
G04 APERTURE END LIST*
D10*
X100500000Y-113806000D03*
X97960000Y-113806000D03*
X95420000Y-113806000D03*
D11*
X92880000Y-113806000D03*
D12*
X96012000Y-164084000D03*
X98679000Y-164084000D03*
X112946000Y-98566000D03*
X115613000Y-98566000D03*
X107993000Y-114187000D03*
X107993000Y-116727000D03*
X107993000Y-119267000D03*
X107993000Y-121807000D03*
X107993000Y-124347000D03*
X107993000Y-126887000D03*
X107993000Y-129427000D03*
X107993000Y-131967000D03*
X107993000Y-134507000D03*
X107993000Y-137047000D03*
X107993000Y-139587000D03*
X107993000Y-142127000D03*
X107993000Y-144667000D03*
X107993000Y-147207000D03*
X107993000Y-149747000D03*
X107993000Y-152287000D03*
X107993000Y-154827000D03*
X107993000Y-157367000D03*
X107993000Y-159907000D03*
X107993000Y-162447000D03*
X123233000Y-162447000D03*
X123233000Y-159907000D03*
X123233000Y-157367000D03*
X123233000Y-154827000D03*
X123233000Y-152287000D03*
X123233000Y-149747000D03*
X123233000Y-147207000D03*
X123233000Y-144667000D03*
X123233000Y-142127000D03*
X123233000Y-139587000D03*
X123233000Y-137047000D03*
X123233000Y-134507000D03*
X123233000Y-131967000D03*
X123233000Y-129427000D03*
X123233000Y-126887000D03*
X123233000Y-124347000D03*
X123233000Y-121807000D03*
X123233000Y-119267000D03*
X123233000Y-116727000D03*
X123233000Y-114187000D03*
D13*
X99230000Y-125236000D03*
D14*
X94230000Y-125236000D03*
X105660000Y-106186000D03*
D13*
X110660000Y-106186000D03*
D10*
X85852000Y-139192000D03*
X85852000Y-136652000D03*
X85852000Y-134112000D03*
X85852000Y-131572000D03*
X85852000Y-129032000D03*
X85852000Y-126492000D03*
X85852000Y-123952000D03*
X85852000Y-121412000D03*
X85852000Y-118872000D03*
X85852000Y-116332000D03*
X85852000Y-113792000D03*
X85852000Y-111252000D03*
X85852000Y-108712000D03*
X85852000Y-106172000D03*
X85852000Y-103632000D03*
D11*
X85852000Y-101092000D03*
D10*
X86360000Y-167132000D03*
X86360000Y-164592000D03*
X86360000Y-162052000D03*
X86360000Y-159512000D03*
D11*
X86360000Y-156972000D03*
D10*
X100500000Y-150636000D03*
X97960000Y-150636000D03*
X95420000Y-150636000D03*
D11*
X92880000Y-150636000D03*
X124630000Y-107456000D03*
D10*
X124630000Y-104916000D03*
X122090000Y-107456000D03*
X122090000Y-104916000D03*
X119550000Y-107456000D03*
X119550000Y-104916000D03*
X117010000Y-107456000D03*
X117010000Y-104916000D03*
D11*
X130556000Y-113552000D03*
D10*
X130556000Y-116092000D03*
X130556000Y-118632000D03*
X130556000Y-121172000D03*
X130556000Y-163336000D03*
X130556000Y-160796000D03*
X130556000Y-158256000D03*
X130556000Y-155716000D03*
X130556000Y-153176000D03*
X130556000Y-150636000D03*
X130556000Y-148096000D03*
D11*
X130556000Y-145556000D03*
D15*
X92880000Y-101106000D03*
D16*
X92880000Y-108726000D03*
D17*
X99230000Y-102376000D03*
X99230000Y-104916000D03*
D18*
X99230000Y-107456000D03*
X86868000Y-150876000D03*
D17*
X86868000Y-148336000D03*
X86868000Y-145796000D03*
D15*
X100500000Y-137936000D03*
X92880000Y-145556000D03*
X100500000Y-140476000D03*
X92880000Y-143016000D03*
X100500000Y-143016000D03*
X92880000Y-140476000D03*
X100500000Y-145556000D03*
D19*
X92880000Y-137936000D03*
D15*
X92880000Y-156986000D03*
D16*
X100500000Y-156986000D03*
X97960000Y-134126000D03*
X95460000Y-134126000D03*
D20*
X96520000Y-168910000D03*
X104140000Y-168910000D03*
X115570000Y-168910000D03*
X121920000Y-168910000D03*
X91440000Y-97790000D03*
X127000000Y-97790000D03*
X119380000Y-113030000D03*
X104140000Y-137160000D03*
X83820000Y-147320000D03*
X104726001Y-97203999D03*
X121920000Y-97790000D03*
X114300000Y-152400000D03*
X128270000Y-168910000D03*
X96520000Y-118110000D03*
X92710000Y-133350000D03*
X88900000Y-135890000D03*
X130810000Y-134620000D03*
X114300000Y-107950000D03*
X114300000Y-125730000D03*
X115570000Y-138430000D03*
D21*
X95420000Y-150636000D02*
X95420000Y-147490000D01*
X93486000Y-145556000D02*
X92880000Y-145556000D01*
X95420000Y-147490000D02*
X93486000Y-145556000D01*
X105297000Y-157367000D02*
X107993000Y-157367000D01*
X90170000Y-149098000D02*
X90170000Y-152400000D01*
X101600000Y-153670000D02*
X105297000Y-157367000D01*
X86868000Y-145796000D02*
X90170000Y-149098000D01*
X90170000Y-152400000D02*
X91440000Y-153670000D01*
X91440000Y-153670000D02*
X101600000Y-153670000D01*
X85852000Y-101092000D02*
X88392000Y-101092000D01*
X88392000Y-101092000D02*
X90170000Y-102870000D01*
X90170000Y-102870000D02*
X90170000Y-113030000D01*
X90946000Y-113806000D02*
X92880000Y-113806000D01*
X90170000Y-113030000D02*
X90946000Y-113806000D01*
X85852000Y-101092000D02*
X84328000Y-101092000D01*
X84328000Y-101092000D02*
X82550000Y-102870000D01*
X82550000Y-102870000D02*
X82550000Y-109220000D01*
X83312000Y-136652000D02*
X85852000Y-136652000D01*
X82550000Y-135890000D02*
X83312000Y-136652000D01*
X92880000Y-113806000D02*
X92880000Y-115740000D01*
X92880000Y-115740000D02*
X95250000Y-118110000D01*
X95250000Y-118110000D02*
X96520000Y-118110000D01*
X82550000Y-109220000D02*
X82550000Y-123190000D01*
X82550000Y-123190000D02*
X82550000Y-135890000D01*
X110660000Y-106186000D02*
X110660000Y-108120000D01*
X110660000Y-108120000D02*
X113030000Y-110490000D01*
X113030000Y-110490000D02*
X118110000Y-110490000D01*
X119550000Y-109050000D02*
X119550000Y-107456000D01*
X118110000Y-110490000D02*
X119550000Y-109050000D01*
D22*
X95363000Y-131967000D02*
X107993000Y-131967000D01*
X92710000Y-133350000D02*
X93980000Y-133350000D01*
X93980000Y-133350000D02*
X95363000Y-131967000D01*
X106610000Y-135890000D02*
X107993000Y-134507000D01*
X88900000Y-135890000D02*
X106610000Y-135890000D01*
X85852000Y-126492000D02*
X89408000Y-126492000D01*
X89408000Y-126492000D02*
X96520000Y-119380000D01*
X102800000Y-119380000D02*
X107993000Y-114187000D01*
X96520000Y-119380000D02*
X102800000Y-119380000D01*
X88435998Y-129032000D02*
X96520000Y-120947998D01*
X85852000Y-129032000D02*
X88435998Y-129032000D01*
X103772002Y-120947998D02*
X107993000Y-116727000D01*
X96520000Y-120947998D02*
X103772002Y-120947998D01*
X89892002Y-131572000D02*
X99544002Y-121920000D01*
X85852000Y-131572000D02*
X89892002Y-131572000D01*
X107993000Y-120161238D02*
X107993000Y-119267000D01*
X106234238Y-121920000D02*
X107993000Y-120161238D01*
X99544002Y-121920000D02*
X106234238Y-121920000D01*
X92710000Y-132080000D02*
X90678000Y-134112000D01*
X92710000Y-130810000D02*
X92710000Y-132080000D01*
X95250000Y-128270000D02*
X92710000Y-130810000D01*
X90678000Y-134112000D02*
X85852000Y-134112000D01*
X100330000Y-128270000D02*
X95250000Y-128270000D01*
X107993000Y-121807000D02*
X106610000Y-123190000D01*
X101600000Y-124460000D02*
X101600000Y-127000000D01*
X102870000Y-123190000D02*
X101600000Y-124460000D01*
X106610000Y-123190000D02*
X102870000Y-123190000D01*
X101600000Y-127000000D02*
X100330000Y-128270000D01*
X130810000Y-134620000D02*
X125730000Y-139700000D01*
X125730000Y-139700000D02*
X125730000Y-146050000D01*
X125730000Y-146050000D02*
X124460000Y-147320000D01*
X124347000Y-147207000D02*
X123233000Y-147207000D01*
X124460000Y-147320000D02*
X124347000Y-147207000D01*
X117010000Y-107456000D02*
X114794000Y-107456000D01*
X114794000Y-107456000D02*
X114300000Y-107950000D01*
X114300000Y-137160000D02*
X115570000Y-138430000D01*
X114300000Y-125730000D02*
X114300000Y-137160000D01*
X123233000Y-124347000D02*
X108106000Y-109220000D01*
X108106000Y-109220000D02*
X100330000Y-109220000D01*
X97960000Y-111590000D02*
X97960000Y-113806000D01*
X100330000Y-109220000D02*
X97960000Y-111590000D01*
X100500000Y-113806000D02*
X100500000Y-111590000D01*
X100500000Y-111590000D02*
X101600000Y-110490000D01*
X122338762Y-126887000D02*
X123233000Y-126887000D01*
X105941762Y-110490000D02*
X122338762Y-126887000D01*
X101600000Y-110490000D02*
X105941762Y-110490000D01*
X123233000Y-139587000D02*
X122033000Y-139587000D01*
X122033000Y-139587000D02*
X120650000Y-140970000D01*
X120650000Y-140970000D02*
X120650000Y-147320000D01*
X120650000Y-147320000D02*
X121920000Y-148590000D01*
X128510000Y-148590000D02*
X130556000Y-150636000D01*
X121920000Y-148590000D02*
X128510000Y-148590000D01*
X119493000Y-137047000D02*
X118110000Y-138430000D01*
X128510000Y-151130000D02*
X130556000Y-153176000D01*
X118110000Y-138430000D02*
X118110000Y-149860000D01*
X123233000Y-137047000D02*
X119493000Y-137047000D01*
X118110000Y-149860000D02*
X119380000Y-151130000D01*
X119380000Y-151130000D02*
X128510000Y-151130000D01*
X123233000Y-129427000D02*
X131967000Y-129427000D01*
X131967000Y-129427000D02*
X133350000Y-130810000D01*
X133350000Y-130810000D02*
X133350000Y-154940000D01*
X132574000Y-155716000D02*
X130556000Y-155716000D01*
X133350000Y-154940000D02*
X132574000Y-155716000D01*
D23*
G36*
X134340001Y-171323000D02*
G01*
X80660000Y-171323000D01*
X80660000Y-168724344D01*
X107335000Y-168724344D01*
X107335000Y-169095656D01*
X107407439Y-169459834D01*
X107549534Y-169802882D01*
X107755825Y-170111618D01*
X108018382Y-170374175D01*
X108327118Y-170580466D01*
X108670166Y-170722561D01*
X109034344Y-170795000D01*
X109405656Y-170795000D01*
X109769834Y-170722561D01*
X110112882Y-170580466D01*
X110421618Y-170374175D01*
X110684175Y-170111618D01*
X110890466Y-169802882D01*
X111032561Y-169459834D01*
X111105000Y-169095656D01*
X111105000Y-168724344D01*
X111032561Y-168360166D01*
X110890466Y-168017118D01*
X110684175Y-167708382D01*
X110421618Y-167445825D01*
X110112882Y-167239534D01*
X109769834Y-167097439D01*
X109405656Y-167025000D01*
X109034344Y-167025000D01*
X108670166Y-167097439D01*
X108327118Y-167239534D01*
X108018382Y-167445825D01*
X107755825Y-167708382D01*
X107549534Y-168017118D01*
X107407439Y-168360166D01*
X107335000Y-168724344D01*
X80660000Y-168724344D01*
X80660000Y-157822000D01*
X84871928Y-157822000D01*
X84884188Y-157946482D01*
X84920498Y-158066180D01*
X84979463Y-158176494D01*
X85058815Y-158273185D01*
X85155506Y-158352537D01*
X85265820Y-158411502D01*
X85338380Y-158433513D01*
X85206525Y-158565368D01*
X85044010Y-158808589D01*
X84932068Y-159078842D01*
X84875000Y-159365740D01*
X84875000Y-159658260D01*
X84932068Y-159945158D01*
X85044010Y-160215411D01*
X85206525Y-160458632D01*
X85413368Y-160665475D01*
X85587760Y-160782000D01*
X85413368Y-160898525D01*
X85206525Y-161105368D01*
X85044010Y-161348589D01*
X84932068Y-161618842D01*
X84875000Y-161905740D01*
X84875000Y-162198260D01*
X84932068Y-162485158D01*
X85044010Y-162755411D01*
X85206525Y-162998632D01*
X85413368Y-163205475D01*
X85587760Y-163322000D01*
X85413368Y-163438525D01*
X85206525Y-163645368D01*
X85044010Y-163888589D01*
X84932068Y-164158842D01*
X84875000Y-164445740D01*
X84875000Y-164738260D01*
X84932068Y-165025158D01*
X85044010Y-165295411D01*
X85206525Y-165538632D01*
X85413368Y-165745475D01*
X85587760Y-165862000D01*
X85413368Y-165978525D01*
X85206525Y-166185368D01*
X85044010Y-166428589D01*
X84932068Y-166698842D01*
X84875000Y-166985740D01*
X84875000Y-167278260D01*
X84932068Y-167565158D01*
X85044010Y-167835411D01*
X85206525Y-168078632D01*
X85413368Y-168285475D01*
X85656589Y-168447990D01*
X85926842Y-168559932D01*
X86213740Y-168617000D01*
X86506260Y-168617000D01*
X86793158Y-168559932D01*
X87063411Y-168447990D01*
X87306632Y-168285475D01*
X87513475Y-168078632D01*
X87675990Y-167835411D01*
X87787932Y-167565158D01*
X87845000Y-167278260D01*
X87845000Y-166985740D01*
X87787932Y-166698842D01*
X87675990Y-166428589D01*
X87513475Y-166185368D01*
X87306632Y-165978525D01*
X87132240Y-165862000D01*
X87306632Y-165745475D01*
X87513475Y-165538632D01*
X87675990Y-165295411D01*
X87787932Y-165025158D01*
X87845000Y-164738260D01*
X87845000Y-164445740D01*
X87787932Y-164158842D01*
X87699940Y-163946408D01*
X94615000Y-163946408D01*
X94615000Y-164221592D01*
X94668686Y-164491490D01*
X94773995Y-164745727D01*
X94926880Y-164974535D01*
X95121465Y-165169120D01*
X95350273Y-165322005D01*
X95604510Y-165427314D01*
X95874408Y-165481000D01*
X96149592Y-165481000D01*
X96419490Y-165427314D01*
X96673727Y-165322005D01*
X96902535Y-165169120D01*
X97022090Y-165049565D01*
X97893040Y-165049565D01*
X97960020Y-165289656D01*
X98209048Y-165406756D01*
X98476135Y-165473023D01*
X98751017Y-165485910D01*
X99023133Y-165444922D01*
X99282023Y-165351636D01*
X99397980Y-165289656D01*
X99464960Y-165049565D01*
X98679000Y-164263605D01*
X97893040Y-165049565D01*
X97022090Y-165049565D01*
X97097120Y-164974535D01*
X97250005Y-164745727D01*
X97347610Y-164510090D01*
X97411364Y-164687023D01*
X97473344Y-164802980D01*
X97713435Y-164869960D01*
X98499395Y-164084000D01*
X98858605Y-164084000D01*
X99644565Y-164869960D01*
X99884656Y-164802980D01*
X100001756Y-164553952D01*
X100068023Y-164286865D01*
X100080910Y-164011983D01*
X100039922Y-163739867D01*
X99946636Y-163480977D01*
X99884656Y-163365020D01*
X99644565Y-163298040D01*
X98858605Y-164084000D01*
X98499395Y-164084000D01*
X97713435Y-163298040D01*
X97473344Y-163365020D01*
X97356244Y-163614048D01*
X97346204Y-163654516D01*
X97250005Y-163422273D01*
X97097120Y-163193465D01*
X97022090Y-163118435D01*
X97893040Y-163118435D01*
X98679000Y-163904395D01*
X99464960Y-163118435D01*
X99397980Y-162878344D01*
X99148952Y-162761244D01*
X98881865Y-162694977D01*
X98606983Y-162682090D01*
X98334867Y-162723078D01*
X98075977Y-162816364D01*
X97960020Y-162878344D01*
X97893040Y-163118435D01*
X97022090Y-163118435D01*
X96902535Y-162998880D01*
X96673727Y-162845995D01*
X96419490Y-162740686D01*
X96149592Y-162687000D01*
X95874408Y-162687000D01*
X95604510Y-162740686D01*
X95350273Y-162845995D01*
X95121465Y-162998880D01*
X94926880Y-163193465D01*
X94773995Y-163422273D01*
X94668686Y-163676510D01*
X94615000Y-163946408D01*
X87699940Y-163946408D01*
X87675990Y-163888589D01*
X87513475Y-163645368D01*
X87306632Y-163438525D01*
X87132240Y-163322000D01*
X87306632Y-163205475D01*
X87513475Y-162998632D01*
X87675990Y-162755411D01*
X87787932Y-162485158D01*
X87822891Y-162309408D01*
X106596000Y-162309408D01*
X106596000Y-162584592D01*
X106649686Y-162854490D01*
X106754995Y-163108727D01*
X106907880Y-163337535D01*
X107102465Y-163532120D01*
X107331273Y-163685005D01*
X107585510Y-163790314D01*
X107855408Y-163844000D01*
X108130592Y-163844000D01*
X108400490Y-163790314D01*
X108654727Y-163685005D01*
X108883535Y-163532120D01*
X109078120Y-163337535D01*
X109231005Y-163108727D01*
X109336314Y-162854490D01*
X109390000Y-162584592D01*
X109390000Y-162309408D01*
X109336314Y-162039510D01*
X109231005Y-161785273D01*
X109078120Y-161556465D01*
X108883535Y-161361880D01*
X108654727Y-161208995D01*
X108583057Y-161179308D01*
X108596023Y-161174636D01*
X108711980Y-161112656D01*
X108778960Y-160872565D01*
X107993000Y-160086605D01*
X107207040Y-160872565D01*
X107274020Y-161112656D01*
X107409760Y-161176485D01*
X107331273Y-161208995D01*
X107102465Y-161361880D01*
X106907880Y-161556465D01*
X106754995Y-161785273D01*
X106649686Y-162039510D01*
X106596000Y-162309408D01*
X87822891Y-162309408D01*
X87845000Y-162198260D01*
X87845000Y-161905740D01*
X87787932Y-161618842D01*
X87675990Y-161348589D01*
X87513475Y-161105368D01*
X87306632Y-160898525D01*
X87132240Y-160782000D01*
X87306632Y-160665475D01*
X87513475Y-160458632D01*
X87675990Y-160215411D01*
X87773907Y-159979017D01*
X106591090Y-159979017D01*
X106632078Y-160251133D01*
X106725364Y-160510023D01*
X106787344Y-160625980D01*
X107027435Y-160692960D01*
X107813395Y-159907000D01*
X108172605Y-159907000D01*
X108958565Y-160692960D01*
X109198656Y-160625980D01*
X109315756Y-160376952D01*
X109382023Y-160109865D01*
X109394910Y-159834983D01*
X109353922Y-159562867D01*
X109260636Y-159303977D01*
X109198656Y-159188020D01*
X108958565Y-159121040D01*
X108172605Y-159907000D01*
X107813395Y-159907000D01*
X107027435Y-159121040D01*
X106787344Y-159188020D01*
X106670244Y-159437048D01*
X106603977Y-159704135D01*
X106591090Y-159979017D01*
X87773907Y-159979017D01*
X87787932Y-159945158D01*
X87845000Y-159658260D01*
X87845000Y-159365740D01*
X87787932Y-159078842D01*
X87675990Y-158808589D01*
X87513475Y-158565368D01*
X87381620Y-158433513D01*
X87454180Y-158411502D01*
X87564494Y-158352537D01*
X87661185Y-158273185D01*
X87740537Y-158176494D01*
X87799502Y-158066180D01*
X87835812Y-157946482D01*
X87848072Y-157822000D01*
X87845000Y-157257750D01*
X87686250Y-157099000D01*
X86487000Y-157099000D01*
X86487000Y-157119000D01*
X86233000Y-157119000D01*
X86233000Y-157099000D01*
X85033750Y-157099000D01*
X84875000Y-157257750D01*
X84871928Y-157822000D01*
X80660000Y-157822000D01*
X80660000Y-156122000D01*
X84871928Y-156122000D01*
X84875000Y-156686250D01*
X85033750Y-156845000D01*
X86233000Y-156845000D01*
X86233000Y-155645750D01*
X86487000Y-155645750D01*
X86487000Y-156845000D01*
X87686250Y-156845000D01*
X87686585Y-156844665D01*
X91445000Y-156844665D01*
X91445000Y-157127335D01*
X91500147Y-157404574D01*
X91608320Y-157665727D01*
X91765363Y-157900759D01*
X91965241Y-158100637D01*
X92200273Y-158257680D01*
X92461426Y-158365853D01*
X92738665Y-158421000D01*
X93021335Y-158421000D01*
X93298574Y-158365853D01*
X93559727Y-158257680D01*
X93794759Y-158100637D01*
X93994637Y-157900759D01*
X94151680Y-157665727D01*
X94259853Y-157404574D01*
X94315000Y-157127335D01*
X94315000Y-156844665D01*
X99065000Y-156844665D01*
X99065000Y-157127335D01*
X99120147Y-157404574D01*
X99228320Y-157665727D01*
X99385363Y-157900759D01*
X99585241Y-158100637D01*
X99820273Y-158257680D01*
X100081426Y-158365853D01*
X100358665Y-158421000D01*
X100641335Y-158421000D01*
X100918574Y-158365853D01*
X101179727Y-158257680D01*
X101414759Y-158100637D01*
X101614637Y-157900759D01*
X101771680Y-157665727D01*
X101879853Y-157404574D01*
X101935000Y-157127335D01*
X101935000Y-156844665D01*
X101879853Y-156567426D01*
X101771680Y-156306273D01*
X101614637Y-156071241D01*
X101414759Y-155871363D01*
X101179727Y-155714320D01*
X100918574Y-155606147D01*
X100641335Y-155551000D01*
X100358665Y-155551000D01*
X100081426Y-155606147D01*
X99820273Y-155714320D01*
X99585241Y-155871363D01*
X99385363Y-156071241D01*
X99228320Y-156306273D01*
X99120147Y-156567426D01*
X99065000Y-156844665D01*
X94315000Y-156844665D01*
X94259853Y-156567426D01*
X94151680Y-156306273D01*
X93994637Y-156071241D01*
X93794759Y-155871363D01*
X93559727Y-155714320D01*
X93298574Y-155606147D01*
X93021335Y-155551000D01*
X92738665Y-155551000D01*
X92461426Y-155606147D01*
X92200273Y-155714320D01*
X91965241Y-155871363D01*
X91765363Y-156071241D01*
X91608320Y-156306273D01*
X91500147Y-156567426D01*
X91445000Y-156844665D01*
X87686585Y-156844665D01*
X87845000Y-156686250D01*
X87848072Y-156122000D01*
X87835812Y-155997518D01*
X87799502Y-155877820D01*
X87740537Y-155767506D01*
X87661185Y-155670815D01*
X87564494Y-155591463D01*
X87454180Y-155532498D01*
X87334482Y-155496188D01*
X87210000Y-155483928D01*
X86645750Y-155487000D01*
X86487000Y-155645750D01*
X86233000Y-155645750D01*
X86074250Y-155487000D01*
X85510000Y-155483928D01*
X85385518Y-155496188D01*
X85265820Y-155532498D01*
X85155506Y-155591463D01*
X85058815Y-155670815D01*
X84979463Y-155767506D01*
X84920498Y-155877820D01*
X84884188Y-155997518D01*
X84871928Y-156122000D01*
X80660000Y-156122000D01*
X80660000Y-139548890D01*
X84410524Y-139548890D01*
X84455175Y-139696099D01*
X84580359Y-139958920D01*
X84754412Y-140192269D01*
X84970645Y-140387178D01*
X85220748Y-140536157D01*
X85495109Y-140633481D01*
X85725000Y-140512814D01*
X85725000Y-139319000D01*
X85979000Y-139319000D01*
X85979000Y-140512814D01*
X86208891Y-140633481D01*
X86483252Y-140536157D01*
X86733355Y-140387178D01*
X86949588Y-140192269D01*
X87123641Y-139958920D01*
X87248825Y-139696099D01*
X87293476Y-139548890D01*
X87172155Y-139319000D01*
X85979000Y-139319000D01*
X85725000Y-139319000D01*
X84531845Y-139319000D01*
X84410524Y-139548890D01*
X80660000Y-139548890D01*
X80660000Y-102870000D01*
X81509994Y-102870000D01*
X81515000Y-102920828D01*
X81515001Y-109169153D01*
X81515000Y-109169163D01*
X81515001Y-123139153D01*
X81515000Y-123139163D01*
X81515001Y-135839162D01*
X81509994Y-135890000D01*
X81529977Y-136092895D01*
X81589160Y-136287993D01*
X81685266Y-136467797D01*
X81775425Y-136577655D01*
X81814605Y-136625396D01*
X81854092Y-136657802D01*
X82544197Y-137347908D01*
X82576604Y-137387396D01*
X82616092Y-137419803D01*
X82734202Y-137516734D01*
X82830309Y-137568104D01*
X82914007Y-137612841D01*
X83109105Y-137672024D01*
X83261162Y-137687000D01*
X83261165Y-137687000D01*
X83312000Y-137692007D01*
X83362835Y-137687000D01*
X84786893Y-137687000D01*
X84905368Y-137805475D01*
X85087534Y-137927195D01*
X84970645Y-137996822D01*
X84754412Y-138191731D01*
X84580359Y-138425080D01*
X84455175Y-138687901D01*
X84410524Y-138835110D01*
X84531845Y-139065000D01*
X85725000Y-139065000D01*
X85725000Y-139045000D01*
X85979000Y-139045000D01*
X85979000Y-139065000D01*
X87172155Y-139065000D01*
X87293476Y-138835110D01*
X87248825Y-138687901D01*
X87123641Y-138425080D01*
X86949588Y-138191731D01*
X86733355Y-137996822D01*
X86616466Y-137927195D01*
X86798632Y-137805475D01*
X87005475Y-137598632D01*
X87167990Y-137355411D01*
X87279932Y-137085158D01*
X87337000Y-136798260D01*
X87337000Y-136505740D01*
X87279932Y-136218842D01*
X87167990Y-135948589D01*
X87005475Y-135705368D01*
X86798632Y-135498525D01*
X86624240Y-135382000D01*
X86798632Y-135265475D01*
X87005475Y-135058632D01*
X87113474Y-134897000D01*
X88592728Y-134897000D01*
X88409744Y-134972795D01*
X88240226Y-135086063D01*
X88096063Y-135230226D01*
X87982795Y-135399744D01*
X87904774Y-135588102D01*
X87865000Y-135788061D01*
X87865000Y-135991939D01*
X87904774Y-136191898D01*
X87982795Y-136380256D01*
X88096063Y-136549774D01*
X88240226Y-136693937D01*
X88409744Y-136807205D01*
X88598102Y-136885226D01*
X88798061Y-136925000D01*
X89001939Y-136925000D01*
X89201898Y-136885226D01*
X89390256Y-136807205D01*
X89559774Y-136693937D01*
X89578711Y-136675000D01*
X91640775Y-136675000D01*
X91628815Y-136684815D01*
X91549463Y-136781506D01*
X91490498Y-136891820D01*
X91454188Y-137011518D01*
X91441928Y-137136000D01*
X91441928Y-138736000D01*
X91454188Y-138860482D01*
X91490498Y-138980180D01*
X91549463Y-139090494D01*
X91628815Y-139187185D01*
X91725506Y-139266537D01*
X91835820Y-139325502D01*
X91955518Y-139361812D01*
X91963961Y-139362643D01*
X91765363Y-139561241D01*
X91608320Y-139796273D01*
X91500147Y-140057426D01*
X91445000Y-140334665D01*
X91445000Y-140617335D01*
X91500147Y-140894574D01*
X91608320Y-141155727D01*
X91765363Y-141390759D01*
X91965241Y-141590637D01*
X92197759Y-141746000D01*
X91965241Y-141901363D01*
X91765363Y-142101241D01*
X91608320Y-142336273D01*
X91500147Y-142597426D01*
X91445000Y-142874665D01*
X91445000Y-143157335D01*
X91500147Y-143434574D01*
X91608320Y-143695727D01*
X91765363Y-143930759D01*
X91965241Y-144130637D01*
X92200273Y-144287680D01*
X92210865Y-144292067D01*
X92024869Y-144403615D01*
X91816481Y-144592586D01*
X91648963Y-144818580D01*
X91528754Y-145072913D01*
X91488096Y-145206961D01*
X91610085Y-145429000D01*
X92753000Y-145429000D01*
X92753000Y-145409000D01*
X93007000Y-145409000D01*
X93007000Y-145429000D01*
X94149915Y-145429000D01*
X94271904Y-145206961D01*
X94231246Y-145072913D01*
X94111037Y-144818580D01*
X93943519Y-144592586D01*
X93735131Y-144403615D01*
X93549135Y-144292067D01*
X93559727Y-144287680D01*
X93794759Y-144130637D01*
X93994637Y-143930759D01*
X94151680Y-143695727D01*
X94259853Y-143434574D01*
X94315000Y-143157335D01*
X94315000Y-142874665D01*
X94259853Y-142597426D01*
X94151680Y-142336273D01*
X93994637Y-142101241D01*
X93794759Y-141901363D01*
X93562241Y-141746000D01*
X93794759Y-141590637D01*
X93994637Y-141390759D01*
X94151680Y-141155727D01*
X94259853Y-140894574D01*
X94315000Y-140617335D01*
X94315000Y-140334665D01*
X94259853Y-140057426D01*
X94151680Y-139796273D01*
X93994637Y-139561241D01*
X93796039Y-139362643D01*
X93804482Y-139361812D01*
X93924180Y-139325502D01*
X94034494Y-139266537D01*
X94131185Y-139187185D01*
X94210537Y-139090494D01*
X94269502Y-138980180D01*
X94305812Y-138860482D01*
X94318072Y-138736000D01*
X94318072Y-137136000D01*
X94305812Y-137011518D01*
X94269502Y-136891820D01*
X94210537Y-136781506D01*
X94131185Y-136684815D01*
X94119225Y-136675000D01*
X99804289Y-136675000D01*
X99585241Y-136821363D01*
X99385363Y-137021241D01*
X99228320Y-137256273D01*
X99120147Y-137517426D01*
X99065000Y-137794665D01*
X99065000Y-138077335D01*
X99120147Y-138354574D01*
X99228320Y-138615727D01*
X99385363Y-138850759D01*
X99585241Y-139050637D01*
X99817759Y-139206000D01*
X99585241Y-139361363D01*
X99385363Y-139561241D01*
X99228320Y-139796273D01*
X99120147Y-140057426D01*
X99065000Y-140334665D01*
X99065000Y-140617335D01*
X99120147Y-140894574D01*
X99228320Y-141155727D01*
X99385363Y-141390759D01*
X99585241Y-141590637D01*
X99817759Y-141746000D01*
X99585241Y-141901363D01*
X99385363Y-142101241D01*
X99228320Y-142336273D01*
X99120147Y-142597426D01*
X99065000Y-142874665D01*
X99065000Y-143157335D01*
X99120147Y-143434574D01*
X99228320Y-143695727D01*
X99385363Y-143930759D01*
X99585241Y-144130637D01*
X99817759Y-144286000D01*
X99585241Y-144441363D01*
X99385363Y-144641241D01*
X99228320Y-144876273D01*
X99120147Y-145137426D01*
X99065000Y-145414665D01*
X99065000Y-145697335D01*
X99120147Y-145974574D01*
X99228320Y-146235727D01*
X99385363Y-146470759D01*
X99585241Y-146670637D01*
X99820273Y-146827680D01*
X100081426Y-146935853D01*
X100358665Y-146991000D01*
X100641335Y-146991000D01*
X100918574Y-146935853D01*
X101179727Y-146827680D01*
X101414759Y-146670637D01*
X101614637Y-146470759D01*
X101771680Y-146235727D01*
X101879853Y-145974574D01*
X101935000Y-145697335D01*
X101935000Y-145414665D01*
X101879853Y-145137426D01*
X101771680Y-144876273D01*
X101614637Y-144641241D01*
X101414759Y-144441363D01*
X101182241Y-144286000D01*
X101414759Y-144130637D01*
X101614637Y-143930759D01*
X101771680Y-143695727D01*
X101879853Y-143434574D01*
X101935000Y-143157335D01*
X101935000Y-142874665D01*
X101879853Y-142597426D01*
X101771680Y-142336273D01*
X101614637Y-142101241D01*
X101414759Y-141901363D01*
X101182241Y-141746000D01*
X101414759Y-141590637D01*
X101614637Y-141390759D01*
X101771680Y-141155727D01*
X101879853Y-140894574D01*
X101935000Y-140617335D01*
X101935000Y-140334665D01*
X101879853Y-140057426D01*
X101771680Y-139796273D01*
X101614637Y-139561241D01*
X101414759Y-139361363D01*
X101182241Y-139206000D01*
X101414759Y-139050637D01*
X101614637Y-138850759D01*
X101771680Y-138615727D01*
X101879853Y-138354574D01*
X101935000Y-138077335D01*
X101935000Y-137794665D01*
X101879853Y-137517426D01*
X101771680Y-137256273D01*
X101614637Y-137021241D01*
X101414759Y-136821363D01*
X101195711Y-136675000D01*
X106571447Y-136675000D01*
X106610000Y-136678797D01*
X106642508Y-136675595D01*
X106596000Y-136909408D01*
X106596000Y-137184592D01*
X106649686Y-137454490D01*
X106754995Y-137708727D01*
X106907880Y-137937535D01*
X107102465Y-138132120D01*
X107331273Y-138285005D01*
X107408515Y-138317000D01*
X107331273Y-138348995D01*
X107102465Y-138501880D01*
X106907880Y-138696465D01*
X106754995Y-138925273D01*
X106649686Y-139179510D01*
X106596000Y-139449408D01*
X106596000Y-139724592D01*
X106649686Y-139994490D01*
X106754995Y-140248727D01*
X106907880Y-140477535D01*
X107102465Y-140672120D01*
X107331273Y-140825005D01*
X107408515Y-140857000D01*
X107331273Y-140888995D01*
X107102465Y-141041880D01*
X106907880Y-141236465D01*
X106754995Y-141465273D01*
X106649686Y-141719510D01*
X106596000Y-141989408D01*
X106596000Y-142264592D01*
X106649686Y-142534490D01*
X106754995Y-142788727D01*
X106907880Y-143017535D01*
X107102465Y-143212120D01*
X107331273Y-143365005D01*
X107408515Y-143397000D01*
X107331273Y-143428995D01*
X107102465Y-143581880D01*
X106907880Y-143776465D01*
X106754995Y-144005273D01*
X106649686Y-144259510D01*
X106596000Y-144529408D01*
X106596000Y-144804592D01*
X106649686Y-145074490D01*
X106754995Y-145328727D01*
X106907880Y-145557535D01*
X107102465Y-145752120D01*
X107331273Y-145905005D01*
X107408515Y-145937000D01*
X107331273Y-145968995D01*
X107102465Y-146121880D01*
X106907880Y-146316465D01*
X106754995Y-146545273D01*
X106649686Y-146799510D01*
X106596000Y-147069408D01*
X106596000Y-147344592D01*
X106649686Y-147614490D01*
X106754995Y-147868727D01*
X106907880Y-148097535D01*
X107102465Y-148292120D01*
X107331273Y-148445005D01*
X107408515Y-148477000D01*
X107331273Y-148508995D01*
X107102465Y-148661880D01*
X106907880Y-148856465D01*
X106754995Y-149085273D01*
X106649686Y-149339510D01*
X106596000Y-149609408D01*
X106596000Y-149884592D01*
X106649686Y-150154490D01*
X106754995Y-150408727D01*
X106907880Y-150637535D01*
X107102465Y-150832120D01*
X107331273Y-150985005D01*
X107408515Y-151017000D01*
X107331273Y-151048995D01*
X107102465Y-151201880D01*
X106907880Y-151396465D01*
X106754995Y-151625273D01*
X106649686Y-151879510D01*
X106596000Y-152149408D01*
X106596000Y-152424592D01*
X106649686Y-152694490D01*
X106754995Y-152948727D01*
X106907880Y-153177535D01*
X107102465Y-153372120D01*
X107331273Y-153525005D01*
X107408515Y-153557000D01*
X107331273Y-153588995D01*
X107102465Y-153741880D01*
X106907880Y-153936465D01*
X106754995Y-154165273D01*
X106649686Y-154419510D01*
X106596000Y-154689408D01*
X106596000Y-154964592D01*
X106649686Y-155234490D01*
X106754995Y-155488727D01*
X106907880Y-155717535D01*
X107102465Y-155912120D01*
X107331273Y-156065005D01*
X107408515Y-156097000D01*
X107331273Y-156128995D01*
X107102465Y-156281880D01*
X107052345Y-156332000D01*
X105725711Y-156332000D01*
X102367807Y-152974097D01*
X102335396Y-152934604D01*
X102177797Y-152805266D01*
X101997993Y-152709159D01*
X101802895Y-152649976D01*
X101650838Y-152635000D01*
X101650828Y-152635000D01*
X101600000Y-152629994D01*
X101549172Y-152635000D01*
X91868711Y-152635000D01*
X91205000Y-151971290D01*
X91205000Y-149786000D01*
X91391928Y-149786000D01*
X91391928Y-151486000D01*
X91404188Y-151610482D01*
X91440498Y-151730180D01*
X91499463Y-151840494D01*
X91578815Y-151937185D01*
X91675506Y-152016537D01*
X91785820Y-152075502D01*
X91905518Y-152111812D01*
X92030000Y-152124072D01*
X93730000Y-152124072D01*
X93854482Y-152111812D01*
X93974180Y-152075502D01*
X94084494Y-152016537D01*
X94181185Y-151937185D01*
X94260537Y-151840494D01*
X94319502Y-151730180D01*
X94343966Y-151649534D01*
X94419731Y-151733588D01*
X94653080Y-151907641D01*
X94915901Y-152032825D01*
X95063110Y-152077476D01*
X95293000Y-151956155D01*
X95293000Y-150763000D01*
X95273000Y-150763000D01*
X95273000Y-150509000D01*
X95293000Y-150509000D01*
X95293000Y-149315845D01*
X95547000Y-149315845D01*
X95547000Y-150509000D01*
X95567000Y-150509000D01*
X95567000Y-150763000D01*
X95547000Y-150763000D01*
X95547000Y-151956155D01*
X95776890Y-152077476D01*
X95924099Y-152032825D01*
X96186920Y-151907641D01*
X96420269Y-151733588D01*
X96615178Y-151517355D01*
X96684805Y-151400466D01*
X96806525Y-151582632D01*
X97013368Y-151789475D01*
X97256589Y-151951990D01*
X97526842Y-152063932D01*
X97813740Y-152121000D01*
X98106260Y-152121000D01*
X98393158Y-152063932D01*
X98663411Y-151951990D01*
X98906632Y-151789475D01*
X99113475Y-151582632D01*
X99230000Y-151408240D01*
X99346525Y-151582632D01*
X99553368Y-151789475D01*
X99796589Y-151951990D01*
X100066842Y-152063932D01*
X100353740Y-152121000D01*
X100646260Y-152121000D01*
X100933158Y-152063932D01*
X101203411Y-151951990D01*
X101446632Y-151789475D01*
X101653475Y-151582632D01*
X101815990Y-151339411D01*
X101927932Y-151069158D01*
X101985000Y-150782260D01*
X101985000Y-150489740D01*
X101927932Y-150202842D01*
X101815990Y-149932589D01*
X101653475Y-149689368D01*
X101446632Y-149482525D01*
X101203411Y-149320010D01*
X100933158Y-149208068D01*
X100646260Y-149151000D01*
X100353740Y-149151000D01*
X100066842Y-149208068D01*
X99796589Y-149320010D01*
X99553368Y-149482525D01*
X99346525Y-149689368D01*
X99230000Y-149863760D01*
X99113475Y-149689368D01*
X98906632Y-149482525D01*
X98663411Y-149320010D01*
X98393158Y-149208068D01*
X98106260Y-149151000D01*
X97813740Y-149151000D01*
X97526842Y-149208068D01*
X97256589Y-149320010D01*
X97013368Y-149482525D01*
X96806525Y-149689368D01*
X96684805Y-149871534D01*
X96615178Y-149754645D01*
X96420269Y-149538412D01*
X96186920Y-149364359D01*
X95924099Y-149239175D01*
X95776890Y-149194524D01*
X95547000Y-149315845D01*
X95293000Y-149315845D01*
X95063110Y-149194524D01*
X94915901Y-149239175D01*
X94653080Y-149364359D01*
X94419731Y-149538412D01*
X94343966Y-149622466D01*
X94319502Y-149541820D01*
X94260537Y-149431506D01*
X94181185Y-149334815D01*
X94084494Y-149255463D01*
X93974180Y-149196498D01*
X93854482Y-149160188D01*
X93730000Y-149147928D01*
X92030000Y-149147928D01*
X91905518Y-149160188D01*
X91785820Y-149196498D01*
X91675506Y-149255463D01*
X91578815Y-149334815D01*
X91499463Y-149431506D01*
X91440498Y-149541820D01*
X91404188Y-149661518D01*
X91391928Y-149786000D01*
X91205000Y-149786000D01*
X91205000Y-149148827D01*
X91210006Y-149097999D01*
X91205000Y-149047171D01*
X91205000Y-149047162D01*
X91190024Y-148895105D01*
X91130841Y-148700007D01*
X91039521Y-148529158D01*
X91034734Y-148520202D01*
X90937803Y-148402092D01*
X90905396Y-148362604D01*
X90865908Y-148330197D01*
X88494634Y-145958924D01*
X88499941Y-145905039D01*
X91488096Y-145905039D01*
X91528754Y-146039087D01*
X91648963Y-146293420D01*
X91816481Y-146519414D01*
X92024869Y-146708385D01*
X92266119Y-146853070D01*
X92530960Y-146947909D01*
X92753000Y-146826624D01*
X92753000Y-145683000D01*
X93007000Y-145683000D01*
X93007000Y-146826624D01*
X93229040Y-146947909D01*
X93493881Y-146853070D01*
X93735131Y-146708385D01*
X93943519Y-146519414D01*
X94111037Y-146293420D01*
X94231246Y-146039087D01*
X94271904Y-145905039D01*
X94149915Y-145683000D01*
X93007000Y-145683000D01*
X92753000Y-145683000D01*
X91610085Y-145683000D01*
X91488096Y-145905039D01*
X88499941Y-145905039D01*
X88510681Y-145796000D01*
X88480030Y-145484796D01*
X88389255Y-145185551D01*
X88241845Y-144909765D01*
X88043463Y-144668037D01*
X87801735Y-144469655D01*
X87525949Y-144322245D01*
X87226704Y-144231470D01*
X86993486Y-144208500D01*
X86742514Y-144208500D01*
X86509296Y-144231470D01*
X86210051Y-144322245D01*
X85934265Y-144469655D01*
X85692537Y-144668037D01*
X85494155Y-144909765D01*
X85346745Y-145185551D01*
X85255970Y-145484796D01*
X85225319Y-145796000D01*
X85255970Y-146107204D01*
X85346745Y-146406449D01*
X85494155Y-146682235D01*
X85692537Y-146923963D01*
X85871899Y-147071163D01*
X85686685Y-147226563D01*
X85492031Y-147469077D01*
X85348429Y-147744906D01*
X85277437Y-147963020D01*
X85397406Y-148209000D01*
X86741000Y-148209000D01*
X86741000Y-148189000D01*
X86995000Y-148189000D01*
X86995000Y-148209000D01*
X87015000Y-148209000D01*
X87015000Y-148463000D01*
X86995000Y-148463000D01*
X86995000Y-148483000D01*
X86741000Y-148483000D01*
X86741000Y-148463000D01*
X85397406Y-148463000D01*
X85277437Y-148708980D01*
X85348429Y-148927094D01*
X85492031Y-149202923D01*
X85605219Y-149343941D01*
X85513506Y-149392963D01*
X85416815Y-149472315D01*
X85337463Y-149569006D01*
X85278498Y-149679320D01*
X85242188Y-149799018D01*
X85229928Y-149923500D01*
X85229928Y-151828500D01*
X85242188Y-151952982D01*
X85278498Y-152072680D01*
X85337463Y-152182994D01*
X85416815Y-152279685D01*
X85513506Y-152359037D01*
X85623820Y-152418002D01*
X85743518Y-152454312D01*
X85868000Y-152466572D01*
X87868000Y-152466572D01*
X87992482Y-152454312D01*
X88112180Y-152418002D01*
X88222494Y-152359037D01*
X88319185Y-152279685D01*
X88398537Y-152182994D01*
X88457502Y-152072680D01*
X88493812Y-151952982D01*
X88506072Y-151828500D01*
X88506072Y-149923500D01*
X88493812Y-149799018D01*
X88457502Y-149679320D01*
X88398537Y-149569006D01*
X88319185Y-149472315D01*
X88222494Y-149392963D01*
X88130781Y-149343941D01*
X88243969Y-149202923D01*
X88387571Y-148927094D01*
X88423867Y-148815578D01*
X89135000Y-149526711D01*
X89135001Y-152349162D01*
X89129994Y-152400000D01*
X89149977Y-152602895D01*
X89209160Y-152797993D01*
X89305266Y-152977797D01*
X89399157Y-153092203D01*
X89434605Y-153135396D01*
X89474092Y-153167802D01*
X90672196Y-154365907D01*
X90704604Y-154405396D01*
X90744092Y-154437803D01*
X90862202Y-154534734D01*
X90914196Y-154562525D01*
X91042007Y-154630841D01*
X91237105Y-154690024D01*
X91389162Y-154705000D01*
X91389171Y-154705000D01*
X91439999Y-154710006D01*
X91490827Y-154705000D01*
X101171290Y-154705000D01*
X104529197Y-158062908D01*
X104561604Y-158102396D01*
X104601092Y-158134803D01*
X104719202Y-158231734D01*
X104899006Y-158327841D01*
X104944415Y-158341615D01*
X105094105Y-158387024D01*
X105246162Y-158402000D01*
X105246165Y-158402000D01*
X105297000Y-158407007D01*
X105347835Y-158402000D01*
X107052345Y-158402000D01*
X107102465Y-158452120D01*
X107331273Y-158605005D01*
X107402943Y-158634692D01*
X107389977Y-158639364D01*
X107274020Y-158701344D01*
X107207040Y-158941435D01*
X107993000Y-159727395D01*
X108778960Y-158941435D01*
X108711980Y-158701344D01*
X108576240Y-158637515D01*
X108654727Y-158605005D01*
X108883535Y-158452120D01*
X109078120Y-158257535D01*
X109231005Y-158028727D01*
X109336314Y-157774490D01*
X109390000Y-157504592D01*
X109390000Y-157229408D01*
X109336314Y-156959510D01*
X109231005Y-156705273D01*
X109078120Y-156476465D01*
X108883535Y-156281880D01*
X108654727Y-156128995D01*
X108577485Y-156097000D01*
X108654727Y-156065005D01*
X108883535Y-155912120D01*
X109078120Y-155717535D01*
X109231005Y-155488727D01*
X109336314Y-155234490D01*
X109390000Y-154964592D01*
X109390000Y-154689408D01*
X109336314Y-154419510D01*
X109231005Y-154165273D01*
X109078120Y-153936465D01*
X108883535Y-153741880D01*
X108654727Y-153588995D01*
X108577485Y-153557000D01*
X108654727Y-153525005D01*
X108883535Y-153372120D01*
X109078120Y-153177535D01*
X109231005Y-152948727D01*
X109336314Y-152694490D01*
X109390000Y-152424592D01*
X109390000Y-152149408D01*
X109336314Y-151879510D01*
X109231005Y-151625273D01*
X109078120Y-151396465D01*
X108883535Y-151201880D01*
X108654727Y-151048995D01*
X108577485Y-151017000D01*
X108654727Y-150985005D01*
X108883535Y-150832120D01*
X109078120Y-150637535D01*
X109231005Y-150408727D01*
X109336314Y-150154490D01*
X109390000Y-149884592D01*
X109390000Y-149609408D01*
X109336314Y-149339510D01*
X109231005Y-149085273D01*
X109078120Y-148856465D01*
X108883535Y-148661880D01*
X108654727Y-148508995D01*
X108577485Y-148477000D01*
X108654727Y-148445005D01*
X108883535Y-148292120D01*
X109078120Y-148097535D01*
X109231005Y-147868727D01*
X109336314Y-147614490D01*
X109390000Y-147344592D01*
X109390000Y-147069408D01*
X109336314Y-146799510D01*
X109231005Y-146545273D01*
X109078120Y-146316465D01*
X108883535Y-146121880D01*
X108654727Y-145968995D01*
X108577485Y-145937000D01*
X108654727Y-145905005D01*
X108883535Y-145752120D01*
X109078120Y-145557535D01*
X109231005Y-145328727D01*
X109336314Y-145074490D01*
X109390000Y-144804592D01*
X109390000Y-144529408D01*
X109336314Y-144259510D01*
X109231005Y-144005273D01*
X109078120Y-143776465D01*
X108883535Y-143581880D01*
X108654727Y-143428995D01*
X108577485Y-143397000D01*
X108654727Y-143365005D01*
X108883535Y-143212120D01*
X109078120Y-143017535D01*
X109231005Y-142788727D01*
X109336314Y-142534490D01*
X109390000Y-142264592D01*
X109390000Y-141989408D01*
X109336314Y-141719510D01*
X109231005Y-141465273D01*
X109078120Y-141236465D01*
X108883535Y-141041880D01*
X108654727Y-140888995D01*
X108577485Y-140857000D01*
X108654727Y-140825005D01*
X108883535Y-140672120D01*
X109078120Y-140477535D01*
X109231005Y-140248727D01*
X109336314Y-139994490D01*
X109390000Y-139724592D01*
X109390000Y-139449408D01*
X109336314Y-139179510D01*
X109231005Y-138925273D01*
X109078120Y-138696465D01*
X108883535Y-138501880D01*
X108654727Y-138348995D01*
X108577485Y-138317000D01*
X108654727Y-138285005D01*
X108883535Y-138132120D01*
X109078120Y-137937535D01*
X109231005Y-137708727D01*
X109336314Y-137454490D01*
X109390000Y-137184592D01*
X109390000Y-136909408D01*
X109336314Y-136639510D01*
X109231005Y-136385273D01*
X109078120Y-136156465D01*
X108883535Y-135961880D01*
X108654727Y-135808995D01*
X108577485Y-135777000D01*
X108654727Y-135745005D01*
X108883535Y-135592120D01*
X109078120Y-135397535D01*
X109231005Y-135168727D01*
X109336314Y-134914490D01*
X109390000Y-134644592D01*
X109390000Y-134369408D01*
X109336314Y-134099510D01*
X109231005Y-133845273D01*
X109078120Y-133616465D01*
X108883535Y-133421880D01*
X108654727Y-133268995D01*
X108577485Y-133237000D01*
X108654727Y-133205005D01*
X108883535Y-133052120D01*
X109078120Y-132857535D01*
X109231005Y-132628727D01*
X109336314Y-132374490D01*
X109390000Y-132104592D01*
X109390000Y-131829408D01*
X109336314Y-131559510D01*
X109231005Y-131305273D01*
X109078120Y-131076465D01*
X108883535Y-130881880D01*
X108654727Y-130728995D01*
X108577485Y-130697000D01*
X108654727Y-130665005D01*
X108883535Y-130512120D01*
X109078120Y-130317535D01*
X109231005Y-130088727D01*
X109336314Y-129834490D01*
X109390000Y-129564592D01*
X109390000Y-129289408D01*
X109336314Y-129019510D01*
X109231005Y-128765273D01*
X109078120Y-128536465D01*
X108883535Y-128341880D01*
X108654727Y-128188995D01*
X108577485Y-128157000D01*
X108654727Y-128125005D01*
X108883535Y-127972120D01*
X109078120Y-127777535D01*
X109231005Y-127548727D01*
X109336314Y-127294490D01*
X109390000Y-127024592D01*
X109390000Y-126749408D01*
X109336314Y-126479510D01*
X109231005Y-126225273D01*
X109078120Y-125996465D01*
X108883535Y-125801880D01*
X108654727Y-125648995D01*
X108604189Y-125628061D01*
X113265000Y-125628061D01*
X113265000Y-125831939D01*
X113304774Y-126031898D01*
X113382795Y-126220256D01*
X113496063Y-126389774D01*
X113515000Y-126408711D01*
X113515001Y-137121437D01*
X113511203Y-137160000D01*
X113526359Y-137313886D01*
X113571246Y-137461859D01*
X113571247Y-137461860D01*
X113644139Y-137598233D01*
X113656127Y-137612840D01*
X113717655Y-137687812D01*
X113717659Y-137687816D01*
X113742237Y-137717764D01*
X113772185Y-137742342D01*
X114535000Y-138505158D01*
X114535000Y-138531939D01*
X114574774Y-138731898D01*
X114652795Y-138920256D01*
X114766063Y-139089774D01*
X114910226Y-139233937D01*
X115079744Y-139347205D01*
X115268102Y-139425226D01*
X115468061Y-139465000D01*
X115671939Y-139465000D01*
X115871898Y-139425226D01*
X116060256Y-139347205D01*
X116229774Y-139233937D01*
X116373937Y-139089774D01*
X116487205Y-138920256D01*
X116565226Y-138731898D01*
X116605000Y-138531939D01*
X116605000Y-138328061D01*
X116565226Y-138128102D01*
X116487205Y-137939744D01*
X116373937Y-137770226D01*
X116229774Y-137626063D01*
X116060256Y-137512795D01*
X115871898Y-137434774D01*
X115671939Y-137395000D01*
X115645158Y-137395000D01*
X115085000Y-136834843D01*
X115085000Y-126408711D01*
X115103937Y-126389774D01*
X115217205Y-126220256D01*
X115295226Y-126031898D01*
X115335000Y-125831939D01*
X115335000Y-125628061D01*
X115295226Y-125428102D01*
X115217205Y-125239744D01*
X115103937Y-125070226D01*
X114959774Y-124926063D01*
X114790256Y-124812795D01*
X114601898Y-124734774D01*
X114401939Y-124695000D01*
X114198061Y-124695000D01*
X113998102Y-124734774D01*
X113809744Y-124812795D01*
X113640226Y-124926063D01*
X113496063Y-125070226D01*
X113382795Y-125239744D01*
X113304774Y-125428102D01*
X113265000Y-125628061D01*
X108604189Y-125628061D01*
X108577485Y-125617000D01*
X108654727Y-125585005D01*
X108883535Y-125432120D01*
X109078120Y-125237535D01*
X109231005Y-125008727D01*
X109336314Y-124754490D01*
X109390000Y-124484592D01*
X109390000Y-124209408D01*
X109336314Y-123939510D01*
X109231005Y-123685273D01*
X109078120Y-123456465D01*
X108883535Y-123261880D01*
X108654727Y-123108995D01*
X108577485Y-123077000D01*
X108654727Y-123045005D01*
X108883535Y-122892120D01*
X109078120Y-122697535D01*
X109231005Y-122468727D01*
X109336314Y-122214490D01*
X109390000Y-121944592D01*
X109390000Y-121669408D01*
X109336314Y-121399510D01*
X109231005Y-121145273D01*
X109078120Y-120916465D01*
X108883535Y-120721880D01*
X108662408Y-120574127D01*
X108721754Y-120463098D01*
X108722849Y-120459487D01*
X108883535Y-120352120D01*
X109078120Y-120157535D01*
X109231005Y-119928727D01*
X109336314Y-119674490D01*
X109390000Y-119404592D01*
X109390000Y-119129408D01*
X109336314Y-118859510D01*
X109231005Y-118605273D01*
X109078120Y-118376465D01*
X108883535Y-118181880D01*
X108654727Y-118028995D01*
X108577485Y-117997000D01*
X108654727Y-117965005D01*
X108883535Y-117812120D01*
X109078120Y-117617535D01*
X109231005Y-117388727D01*
X109336314Y-117134490D01*
X109390000Y-116864592D01*
X109390000Y-116589408D01*
X109336314Y-116319510D01*
X109231005Y-116065273D01*
X109078120Y-115836465D01*
X108883535Y-115641880D01*
X108654727Y-115488995D01*
X108577485Y-115457000D01*
X108654727Y-115425005D01*
X108883535Y-115272120D01*
X109078120Y-115077535D01*
X109214714Y-114873109D01*
X121756415Y-127414810D01*
X121780998Y-127444764D01*
X121900529Y-127542862D01*
X122015039Y-127604068D01*
X122036902Y-127615754D01*
X122040513Y-127616849D01*
X122147880Y-127777535D01*
X122342465Y-127972120D01*
X122571273Y-128125005D01*
X122648515Y-128157000D01*
X122571273Y-128188995D01*
X122342465Y-128341880D01*
X122147880Y-128536465D01*
X121994995Y-128765273D01*
X121889686Y-129019510D01*
X121836000Y-129289408D01*
X121836000Y-129564592D01*
X121889686Y-129834490D01*
X121994995Y-130088727D01*
X122147880Y-130317535D01*
X122342465Y-130512120D01*
X122571273Y-130665005D01*
X122648515Y-130697000D01*
X122571273Y-130728995D01*
X122342465Y-130881880D01*
X122147880Y-131076465D01*
X121994995Y-131305273D01*
X121889686Y-131559510D01*
X121836000Y-131829408D01*
X121836000Y-132104592D01*
X121889686Y-132374490D01*
X121994995Y-132628727D01*
X122147880Y-132857535D01*
X122342465Y-133052120D01*
X122571273Y-133205005D01*
X122648515Y-133237000D01*
X122571273Y-133268995D01*
X122342465Y-133421880D01*
X122147880Y-133616465D01*
X121994995Y-133845273D01*
X121889686Y-134099510D01*
X121836000Y-134369408D01*
X121836000Y-134644592D01*
X121889686Y-134914490D01*
X121994995Y-135168727D01*
X122147880Y-135397535D01*
X122342465Y-135592120D01*
X122571273Y-135745005D01*
X122648515Y-135777000D01*
X122571273Y-135808995D01*
X122342465Y-135961880D01*
X122147880Y-136156465D01*
X122077364Y-136262000D01*
X119531552Y-136262000D01*
X119492999Y-136258203D01*
X119454446Y-136262000D01*
X119454439Y-136262000D01*
X119353490Y-136271943D01*
X119339112Y-136273359D01*
X119304672Y-136283806D01*
X119191140Y-136318246D01*
X119054767Y-136391138D01*
X119005896Y-136431246D01*
X118965187Y-136464655D01*
X118965184Y-136464658D01*
X118935236Y-136489236D01*
X118910658Y-136519184D01*
X117582190Y-137847653D01*
X117552236Y-137872236D01*
X117454138Y-137991768D01*
X117381246Y-138128141D01*
X117336359Y-138276114D01*
X117325000Y-138391440D01*
X117325000Y-138391447D01*
X117321203Y-138430000D01*
X117325000Y-138468553D01*
X117325001Y-149821437D01*
X117321203Y-149860000D01*
X117336359Y-150013886D01*
X117381246Y-150161859D01*
X117381247Y-150161860D01*
X117454139Y-150298233D01*
X117483608Y-150334140D01*
X117527655Y-150387812D01*
X117527659Y-150387816D01*
X117552237Y-150417764D01*
X117582185Y-150442342D01*
X118797658Y-151657815D01*
X118822236Y-151687764D01*
X118852184Y-151712342D01*
X118852187Y-151712345D01*
X118873919Y-151730180D01*
X118941767Y-151785862D01*
X119078140Y-151858754D01*
X119191672Y-151893194D01*
X119226112Y-151903641D01*
X119240490Y-151905057D01*
X119341439Y-151915000D01*
X119341446Y-151915000D01*
X119379999Y-151918797D01*
X119418552Y-151915000D01*
X121882627Y-151915000D01*
X121836000Y-152149408D01*
X121836000Y-152424592D01*
X121889686Y-152694490D01*
X121994995Y-152948727D01*
X122147880Y-153177535D01*
X122342465Y-153372120D01*
X122571273Y-153525005D01*
X122648515Y-153557000D01*
X122571273Y-153588995D01*
X122342465Y-153741880D01*
X122147880Y-153936465D01*
X121994995Y-154165273D01*
X121889686Y-154419510D01*
X121836000Y-154689408D01*
X121836000Y-154964592D01*
X121889686Y-155234490D01*
X121994995Y-155488727D01*
X122147880Y-155717535D01*
X122342465Y-155912120D01*
X122571273Y-156065005D01*
X122648515Y-156097000D01*
X122571273Y-156128995D01*
X122342465Y-156281880D01*
X122147880Y-156476465D01*
X121994995Y-156705273D01*
X121889686Y-156959510D01*
X121836000Y-157229408D01*
X121836000Y-157504592D01*
X121889686Y-157774490D01*
X121994995Y-158028727D01*
X122147880Y-158257535D01*
X122342465Y-158452120D01*
X122571273Y-158605005D01*
X122648515Y-158637000D01*
X122571273Y-158668995D01*
X122342465Y-158821880D01*
X122147880Y-159016465D01*
X121994995Y-159245273D01*
X121889686Y-159499510D01*
X121836000Y-159769408D01*
X121836000Y-160044592D01*
X121889686Y-160314490D01*
X121994995Y-160568727D01*
X122147880Y-160797535D01*
X122342465Y-160992120D01*
X122571273Y-161145005D01*
X122648515Y-161177000D01*
X122571273Y-161208995D01*
X122342465Y-161361880D01*
X122147880Y-161556465D01*
X121994995Y-161785273D01*
X121889686Y-162039510D01*
X121836000Y-162309408D01*
X121836000Y-162584592D01*
X121889686Y-162854490D01*
X121994995Y-163108727D01*
X122147880Y-163337535D01*
X122342465Y-163532120D01*
X122571273Y-163685005D01*
X122825510Y-163790314D01*
X123095408Y-163844000D01*
X123370592Y-163844000D01*
X123640490Y-163790314D01*
X123894727Y-163685005D01*
X124123535Y-163532120D01*
X124318120Y-163337535D01*
X124471005Y-163108727D01*
X124576314Y-162854490D01*
X124630000Y-162584592D01*
X124630000Y-162309408D01*
X124576314Y-162039510D01*
X124471005Y-161785273D01*
X124318120Y-161556465D01*
X124123535Y-161361880D01*
X123894727Y-161208995D01*
X123817485Y-161177000D01*
X123894727Y-161145005D01*
X124123535Y-160992120D01*
X124318120Y-160797535D01*
X124471005Y-160568727D01*
X124576314Y-160314490D01*
X124630000Y-160044592D01*
X124630000Y-159769408D01*
X124576314Y-159499510D01*
X124471005Y-159245273D01*
X124318120Y-159016465D01*
X124123535Y-158821880D01*
X123894727Y-158668995D01*
X123817485Y-158637000D01*
X123894727Y-158605005D01*
X124123535Y-158452120D01*
X124318120Y-158257535D01*
X124471005Y-158028727D01*
X124576314Y-157774490D01*
X124630000Y-157504592D01*
X124630000Y-157229408D01*
X124576314Y-156959510D01*
X124471005Y-156705273D01*
X124318120Y-156476465D01*
X124123535Y-156281880D01*
X123894727Y-156128995D01*
X123817485Y-156097000D01*
X123894727Y-156065005D01*
X124123535Y-155912120D01*
X124318120Y-155717535D01*
X124471005Y-155488727D01*
X124576314Y-155234490D01*
X124630000Y-154964592D01*
X124630000Y-154689408D01*
X124576314Y-154419510D01*
X124471005Y-154165273D01*
X124318120Y-153936465D01*
X124123535Y-153741880D01*
X123894727Y-153588995D01*
X123817485Y-153557000D01*
X123894727Y-153525005D01*
X124123535Y-153372120D01*
X124318120Y-153177535D01*
X124471005Y-152948727D01*
X124576314Y-152694490D01*
X124630000Y-152424592D01*
X124630000Y-152149408D01*
X124583373Y-151915000D01*
X128184843Y-151915000D01*
X129108925Y-152839082D01*
X129071000Y-153029740D01*
X129071000Y-153322260D01*
X129128068Y-153609158D01*
X129240010Y-153879411D01*
X129402525Y-154122632D01*
X129609368Y-154329475D01*
X129783760Y-154446000D01*
X129609368Y-154562525D01*
X129402525Y-154769368D01*
X129240010Y-155012589D01*
X129128068Y-155282842D01*
X129071000Y-155569740D01*
X129071000Y-155862260D01*
X129128068Y-156149158D01*
X129240010Y-156419411D01*
X129402525Y-156662632D01*
X129609368Y-156869475D01*
X129783760Y-156986000D01*
X129609368Y-157102525D01*
X129402525Y-157309368D01*
X129240010Y-157552589D01*
X129128068Y-157822842D01*
X129071000Y-158109740D01*
X129071000Y-158402260D01*
X129128068Y-158689158D01*
X129240010Y-158959411D01*
X129402525Y-159202632D01*
X129609368Y-159409475D01*
X129783760Y-159526000D01*
X129609368Y-159642525D01*
X129402525Y-159849368D01*
X129240010Y-160092589D01*
X129128068Y-160362842D01*
X129071000Y-160649740D01*
X129071000Y-160942260D01*
X129128068Y-161229158D01*
X129240010Y-161499411D01*
X129402525Y-161742632D01*
X129609368Y-161949475D01*
X129783760Y-162066000D01*
X129609368Y-162182525D01*
X129402525Y-162389368D01*
X129240010Y-162632589D01*
X129128068Y-162902842D01*
X129071000Y-163189740D01*
X129071000Y-163482260D01*
X129128068Y-163769158D01*
X129240010Y-164039411D01*
X129402525Y-164282632D01*
X129609368Y-164489475D01*
X129852589Y-164651990D01*
X130122842Y-164763932D01*
X130409740Y-164821000D01*
X130702260Y-164821000D01*
X130989158Y-164763932D01*
X131259411Y-164651990D01*
X131502632Y-164489475D01*
X131709475Y-164282632D01*
X131871990Y-164039411D01*
X131983932Y-163769158D01*
X132041000Y-163482260D01*
X132041000Y-163189740D01*
X131983932Y-162902842D01*
X131871990Y-162632589D01*
X131709475Y-162389368D01*
X131502632Y-162182525D01*
X131328240Y-162066000D01*
X131502632Y-161949475D01*
X131709475Y-161742632D01*
X131871990Y-161499411D01*
X131983932Y-161229158D01*
X132041000Y-160942260D01*
X132041000Y-160649740D01*
X131983932Y-160362842D01*
X131871990Y-160092589D01*
X131709475Y-159849368D01*
X131502632Y-159642525D01*
X131328240Y-159526000D01*
X131502632Y-159409475D01*
X131709475Y-159202632D01*
X131871990Y-158959411D01*
X131983932Y-158689158D01*
X132041000Y-158402260D01*
X132041000Y-158109740D01*
X131983932Y-157822842D01*
X131871990Y-157552589D01*
X131709475Y-157309368D01*
X131502632Y-157102525D01*
X131328240Y-156986000D01*
X131502632Y-156869475D01*
X131709475Y-156662632D01*
X131817474Y-156501000D01*
X132535447Y-156501000D01*
X132574000Y-156504797D01*
X132612553Y-156501000D01*
X132612561Y-156501000D01*
X132727887Y-156489641D01*
X132875860Y-156444754D01*
X133012233Y-156371862D01*
X133131764Y-156273764D01*
X133156347Y-156243810D01*
X133877810Y-155522347D01*
X133907764Y-155497764D01*
X134005862Y-155378233D01*
X134078754Y-155241860D01*
X134080990Y-155234490D01*
X134123642Y-155093887D01*
X134131648Y-155012589D01*
X134135000Y-154978561D01*
X134135000Y-154978556D01*
X134138797Y-154940000D01*
X134135000Y-154901444D01*
X134135000Y-130848552D01*
X134138797Y-130809999D01*
X134135000Y-130771446D01*
X134135000Y-130771439D01*
X134123641Y-130656113D01*
X134078754Y-130508140D01*
X134005862Y-130371767D01*
X133956450Y-130311559D01*
X133932345Y-130282187D01*
X133932342Y-130282184D01*
X133907764Y-130252236D01*
X133877817Y-130227659D01*
X132549347Y-128899190D01*
X132524764Y-128869236D01*
X132405233Y-128771138D01*
X132268860Y-128698246D01*
X132120887Y-128653359D01*
X132005561Y-128642000D01*
X132005553Y-128642000D01*
X131967000Y-128638203D01*
X131928447Y-128642000D01*
X124388636Y-128642000D01*
X124318120Y-128536465D01*
X124123535Y-128341880D01*
X123894727Y-128188995D01*
X123817485Y-128157000D01*
X123894727Y-128125005D01*
X124123535Y-127972120D01*
X124318120Y-127777535D01*
X124471005Y-127548727D01*
X124576314Y-127294490D01*
X124630000Y-127024592D01*
X124630000Y-126749408D01*
X124576314Y-126479510D01*
X124471005Y-126225273D01*
X124318120Y-125996465D01*
X124123535Y-125801880D01*
X123894727Y-125648995D01*
X123817485Y-125617000D01*
X123894727Y-125585005D01*
X124123535Y-125432120D01*
X124318120Y-125237535D01*
X124471005Y-125008727D01*
X124576314Y-124754490D01*
X124630000Y-124484592D01*
X124630000Y-124209408D01*
X124576314Y-123939510D01*
X124471005Y-123685273D01*
X124318120Y-123456465D01*
X124123535Y-123261880D01*
X123894727Y-123108995D01*
X123817485Y-123077000D01*
X123894727Y-123045005D01*
X124123535Y-122892120D01*
X124318120Y-122697535D01*
X124471005Y-122468727D01*
X124576314Y-122214490D01*
X124630000Y-121944592D01*
X124630000Y-121669408D01*
X124576314Y-121399510D01*
X124471005Y-121145273D01*
X124318120Y-120916465D01*
X124123535Y-120721880D01*
X123894727Y-120568995D01*
X123817485Y-120537000D01*
X123894727Y-120505005D01*
X124123535Y-120352120D01*
X124318120Y-120157535D01*
X124471005Y-119928727D01*
X124576314Y-119674490D01*
X124630000Y-119404592D01*
X124630000Y-119129408D01*
X124576314Y-118859510D01*
X124471005Y-118605273D01*
X124391136Y-118485740D01*
X129071000Y-118485740D01*
X129071000Y-118778260D01*
X129128068Y-119065158D01*
X129240010Y-119335411D01*
X129402525Y-119578632D01*
X129609368Y-119785475D01*
X129783760Y-119902000D01*
X129609368Y-120018525D01*
X129402525Y-120225368D01*
X129240010Y-120468589D01*
X129128068Y-120738842D01*
X129071000Y-121025740D01*
X129071000Y-121318260D01*
X129128068Y-121605158D01*
X129240010Y-121875411D01*
X129402525Y-122118632D01*
X129609368Y-122325475D01*
X129852589Y-122487990D01*
X130122842Y-122599932D01*
X130409740Y-122657000D01*
X130702260Y-122657000D01*
X130989158Y-122599932D01*
X131259411Y-122487990D01*
X131502632Y-122325475D01*
X131709475Y-122118632D01*
X131871990Y-121875411D01*
X131983932Y-121605158D01*
X132041000Y-121318260D01*
X132041000Y-121025740D01*
X131983932Y-120738842D01*
X131871990Y-120468589D01*
X131709475Y-120225368D01*
X131502632Y-120018525D01*
X131328240Y-119902000D01*
X131502632Y-119785475D01*
X131709475Y-119578632D01*
X131871990Y-119335411D01*
X131983932Y-119065158D01*
X132041000Y-118778260D01*
X132041000Y-118485740D01*
X131983932Y-118198842D01*
X131871990Y-117928589D01*
X131709475Y-117685368D01*
X131502632Y-117478525D01*
X131320466Y-117356805D01*
X131437355Y-117287178D01*
X131653588Y-117092269D01*
X131827641Y-116858920D01*
X131952825Y-116596099D01*
X131997476Y-116448890D01*
X131876155Y-116219000D01*
X130683000Y-116219000D01*
X130683000Y-116239000D01*
X130429000Y-116239000D01*
X130429000Y-116219000D01*
X129235845Y-116219000D01*
X129114524Y-116448890D01*
X129159175Y-116596099D01*
X129284359Y-116858920D01*
X129458412Y-117092269D01*
X129674645Y-117287178D01*
X129791534Y-117356805D01*
X129609368Y-117478525D01*
X129402525Y-117685368D01*
X129240010Y-117928589D01*
X129128068Y-118198842D01*
X129071000Y-118485740D01*
X124391136Y-118485740D01*
X124318120Y-118376465D01*
X124123535Y-118181880D01*
X123894727Y-118028995D01*
X123823057Y-117999308D01*
X123836023Y-117994636D01*
X123951980Y-117932656D01*
X124018960Y-117692565D01*
X123233000Y-116906605D01*
X122447040Y-117692565D01*
X122514020Y-117932656D01*
X122649760Y-117996485D01*
X122571273Y-118028995D01*
X122342465Y-118181880D01*
X122147880Y-118376465D01*
X121994995Y-118605273D01*
X121889686Y-118859510D01*
X121836000Y-119129408D01*
X121836000Y-119404592D01*
X121889686Y-119674490D01*
X121994995Y-119928727D01*
X122147880Y-120157535D01*
X122342465Y-120352120D01*
X122571273Y-120505005D01*
X122648515Y-120537000D01*
X122571273Y-120568995D01*
X122342465Y-120721880D01*
X122147880Y-120916465D01*
X121994995Y-121145273D01*
X121889686Y-121399510D01*
X121836000Y-121669408D01*
X121836000Y-121839843D01*
X116795174Y-116799017D01*
X121831090Y-116799017D01*
X121872078Y-117071133D01*
X121965364Y-117330023D01*
X122027344Y-117445980D01*
X122267435Y-117512960D01*
X123053395Y-116727000D01*
X123412605Y-116727000D01*
X124198565Y-117512960D01*
X124438656Y-117445980D01*
X124555756Y-117196952D01*
X124622023Y-116929865D01*
X124634910Y-116654983D01*
X124593922Y-116382867D01*
X124500636Y-116123977D01*
X124438656Y-116008020D01*
X124198565Y-115941040D01*
X123412605Y-116727000D01*
X123053395Y-116727000D01*
X122267435Y-115941040D01*
X122027344Y-116008020D01*
X121910244Y-116257048D01*
X121843977Y-116524135D01*
X121831090Y-116799017D01*
X116795174Y-116799017D01*
X115148722Y-115152565D01*
X122447040Y-115152565D01*
X122514020Y-115392656D01*
X122644644Y-115454079D01*
X122629977Y-115459364D01*
X122514020Y-115521344D01*
X122447040Y-115761435D01*
X123233000Y-116547395D01*
X124018960Y-115761435D01*
X123951980Y-115521344D01*
X123821356Y-115459921D01*
X123836023Y-115454636D01*
X123951980Y-115392656D01*
X124018960Y-115152565D01*
X123233000Y-114366605D01*
X122447040Y-115152565D01*
X115148722Y-115152565D01*
X114255174Y-114259017D01*
X121831090Y-114259017D01*
X121872078Y-114531133D01*
X121965364Y-114790023D01*
X122027344Y-114905980D01*
X122267435Y-114972960D01*
X123053395Y-114187000D01*
X123412605Y-114187000D01*
X124198565Y-114972960D01*
X124438656Y-114905980D01*
X124555756Y-114656952D01*
X124622023Y-114389865D01*
X124634910Y-114114983D01*
X124593922Y-113842867D01*
X124500636Y-113583977D01*
X124438656Y-113468020D01*
X124198565Y-113401040D01*
X123412605Y-114187000D01*
X123053395Y-114187000D01*
X122267435Y-113401040D01*
X122027344Y-113468020D01*
X121910244Y-113717048D01*
X121843977Y-113984135D01*
X121831090Y-114259017D01*
X114255174Y-114259017D01*
X113217592Y-113221435D01*
X122447040Y-113221435D01*
X123233000Y-114007395D01*
X124018960Y-113221435D01*
X123951980Y-112981344D01*
X123702952Y-112864244D01*
X123435865Y-112797977D01*
X123160983Y-112785090D01*
X122888867Y-112826078D01*
X122629977Y-112919364D01*
X122514020Y-112981344D01*
X122447040Y-113221435D01*
X113217592Y-113221435D01*
X112698157Y-112702000D01*
X129067928Y-112702000D01*
X129067928Y-114402000D01*
X129080188Y-114526482D01*
X129116498Y-114646180D01*
X129175463Y-114756494D01*
X129254815Y-114853185D01*
X129351506Y-114932537D01*
X129461820Y-114991502D01*
X129542466Y-115015966D01*
X129458412Y-115091731D01*
X129284359Y-115325080D01*
X129159175Y-115587901D01*
X129114524Y-115735110D01*
X129235845Y-115965000D01*
X130429000Y-115965000D01*
X130429000Y-115945000D01*
X130683000Y-115945000D01*
X130683000Y-115965000D01*
X131876155Y-115965000D01*
X131997476Y-115735110D01*
X131952825Y-115587901D01*
X131827641Y-115325080D01*
X131653588Y-115091731D01*
X131569534Y-115015966D01*
X131650180Y-114991502D01*
X131760494Y-114932537D01*
X131857185Y-114853185D01*
X131936537Y-114756494D01*
X131995502Y-114646180D01*
X132031812Y-114526482D01*
X132044072Y-114402000D01*
X132044072Y-112702000D01*
X132031812Y-112577518D01*
X131995502Y-112457820D01*
X131936537Y-112347506D01*
X131857185Y-112250815D01*
X131760494Y-112171463D01*
X131650180Y-112112498D01*
X131530482Y-112076188D01*
X131406000Y-112063928D01*
X129706000Y-112063928D01*
X129581518Y-112076188D01*
X129461820Y-112112498D01*
X129351506Y-112171463D01*
X129254815Y-112250815D01*
X129175463Y-112347506D01*
X129116498Y-112457820D01*
X129080188Y-112577518D01*
X129067928Y-112702000D01*
X112698157Y-112702000D01*
X108688347Y-108692190D01*
X108663764Y-108662236D01*
X108544233Y-108564138D01*
X108407860Y-108491246D01*
X108259887Y-108446359D01*
X108144561Y-108435000D01*
X108144553Y-108435000D01*
X108106000Y-108431203D01*
X108067447Y-108435000D01*
X100865462Y-108435000D01*
X100868072Y-108408500D01*
X100865000Y-107741750D01*
X100706250Y-107583000D01*
X99357000Y-107583000D01*
X99357000Y-108884750D01*
X99456046Y-108983796D01*
X97432190Y-111007653D01*
X97402236Y-111032236D01*
X97304138Y-111151768D01*
X97231246Y-111288141D01*
X97186359Y-111436114D01*
X97175000Y-111551440D01*
X97175000Y-111551447D01*
X97171203Y-111590000D01*
X97175000Y-111628553D01*
X97175000Y-112544526D01*
X97013368Y-112652525D01*
X96806525Y-112859368D01*
X96684805Y-113041534D01*
X96615178Y-112924645D01*
X96420269Y-112708412D01*
X96186920Y-112534359D01*
X95924099Y-112409175D01*
X95776890Y-112364524D01*
X95547000Y-112485845D01*
X95547000Y-113679000D01*
X95567000Y-113679000D01*
X95567000Y-113933000D01*
X95547000Y-113933000D01*
X95547000Y-115126155D01*
X95776890Y-115247476D01*
X95924099Y-115202825D01*
X96186920Y-115077641D01*
X96420269Y-114903588D01*
X96615178Y-114687355D01*
X96684805Y-114570466D01*
X96806525Y-114752632D01*
X97013368Y-114959475D01*
X97256589Y-115121990D01*
X97526842Y-115233932D01*
X97813740Y-115291000D01*
X98106260Y-115291000D01*
X98393158Y-115233932D01*
X98663411Y-115121990D01*
X98906632Y-114959475D01*
X99113475Y-114752632D01*
X99230000Y-114578240D01*
X99346525Y-114752632D01*
X99553368Y-114959475D01*
X99796589Y-115121990D01*
X100066842Y-115233932D01*
X100353740Y-115291000D01*
X100646260Y-115291000D01*
X100933158Y-115233932D01*
X101203411Y-115121990D01*
X101446632Y-114959475D01*
X101653475Y-114752632D01*
X101815990Y-114509411D01*
X101927932Y-114239158D01*
X101985000Y-113952260D01*
X101985000Y-113659740D01*
X101927932Y-113372842D01*
X101815990Y-113102589D01*
X101653475Y-112859368D01*
X101446632Y-112652525D01*
X101285000Y-112544526D01*
X101285000Y-111915157D01*
X101925158Y-111275000D01*
X105616605Y-111275000D01*
X107306891Y-112965286D01*
X107102465Y-113101880D01*
X106907880Y-113296465D01*
X106754995Y-113525273D01*
X106649686Y-113779510D01*
X106596000Y-114049408D01*
X106596000Y-114324592D01*
X106620762Y-114449080D01*
X102474843Y-118595000D01*
X97439382Y-118595000D01*
X97456762Y-118553042D01*
X97480841Y-118507993D01*
X97495669Y-118459113D01*
X97515226Y-118411898D01*
X97525196Y-118361777D01*
X97540024Y-118312895D01*
X97545031Y-118262057D01*
X97555000Y-118211939D01*
X97555000Y-118160838D01*
X97560007Y-118110000D01*
X97555000Y-118059162D01*
X97555000Y-118008061D01*
X97545031Y-117957943D01*
X97540024Y-117907105D01*
X97525196Y-117858223D01*
X97515226Y-117808102D01*
X97495669Y-117760887D01*
X97480841Y-117712007D01*
X97456762Y-117666958D01*
X97437205Y-117619744D01*
X97408814Y-117577254D01*
X97384734Y-117532203D01*
X97352328Y-117492716D01*
X97323937Y-117450226D01*
X97287803Y-117414092D01*
X97255396Y-117374604D01*
X97215908Y-117342197D01*
X97179774Y-117306063D01*
X97137284Y-117277672D01*
X97097797Y-117245266D01*
X97052746Y-117221186D01*
X97010256Y-117192795D01*
X96963042Y-117173238D01*
X96917993Y-117149159D01*
X96869113Y-117134331D01*
X96821898Y-117114774D01*
X96771777Y-117104804D01*
X96722895Y-117089976D01*
X96672057Y-117084969D01*
X96621939Y-117075000D01*
X95678711Y-117075000D01*
X93915000Y-115311290D01*
X93915000Y-115263454D01*
X93974180Y-115245502D01*
X94084494Y-115186537D01*
X94181185Y-115107185D01*
X94260537Y-115010494D01*
X94319502Y-114900180D01*
X94343966Y-114819534D01*
X94419731Y-114903588D01*
X94653080Y-115077641D01*
X94915901Y-115202825D01*
X95063110Y-115247476D01*
X95293000Y-115126155D01*
X95293000Y-113933000D01*
X95273000Y-113933000D01*
X95273000Y-113679000D01*
X95293000Y-113679000D01*
X95293000Y-112485845D01*
X95063110Y-112364524D01*
X94915901Y-112409175D01*
X94653080Y-112534359D01*
X94419731Y-112708412D01*
X94343966Y-112792466D01*
X94319502Y-112711820D01*
X94260537Y-112601506D01*
X94181185Y-112504815D01*
X94084494Y-112425463D01*
X93974180Y-112366498D01*
X93854482Y-112330188D01*
X93730000Y-112317928D01*
X92030000Y-112317928D01*
X91905518Y-112330188D01*
X91785820Y-112366498D01*
X91675506Y-112425463D01*
X91578815Y-112504815D01*
X91499463Y-112601506D01*
X91440498Y-112711820D01*
X91422546Y-112771000D01*
X91374711Y-112771000D01*
X91205000Y-112601290D01*
X91205000Y-108584665D01*
X91445000Y-108584665D01*
X91445000Y-108867335D01*
X91500147Y-109144574D01*
X91608320Y-109405727D01*
X91765363Y-109640759D01*
X91965241Y-109840637D01*
X92200273Y-109997680D01*
X92461426Y-110105853D01*
X92738665Y-110161000D01*
X93021335Y-110161000D01*
X93298574Y-110105853D01*
X93559727Y-109997680D01*
X93794759Y-109840637D01*
X93994637Y-109640759D01*
X94151680Y-109405727D01*
X94259853Y-109144574D01*
X94315000Y-108867335D01*
X94315000Y-108584665D01*
X94279959Y-108408500D01*
X97591928Y-108408500D01*
X97604188Y-108532982D01*
X97640498Y-108652680D01*
X97699463Y-108762994D01*
X97778815Y-108859685D01*
X97875506Y-108939037D01*
X97985820Y-108998002D01*
X98105518Y-109034312D01*
X98230000Y-109046572D01*
X98944250Y-109043500D01*
X99103000Y-108884750D01*
X99103000Y-107583000D01*
X97753750Y-107583000D01*
X97595000Y-107741750D01*
X97591928Y-108408500D01*
X94279959Y-108408500D01*
X94259853Y-108307426D01*
X94151680Y-108046273D01*
X93994637Y-107811241D01*
X93794759Y-107611363D01*
X93559727Y-107454320D01*
X93298574Y-107346147D01*
X93021335Y-107291000D01*
X92738665Y-107291000D01*
X92461426Y-107346147D01*
X92200273Y-107454320D01*
X91965241Y-107611363D01*
X91765363Y-107811241D01*
X91608320Y-108046273D01*
X91500147Y-108307426D01*
X91445000Y-108584665D01*
X91205000Y-108584665D01*
X91205000Y-102920835D01*
X91210007Y-102870000D01*
X91205000Y-102819162D01*
X91190024Y-102667105D01*
X91130841Y-102472007D01*
X91037028Y-102296494D01*
X91034734Y-102292202D01*
X90937803Y-102174092D01*
X90905396Y-102134604D01*
X90865908Y-102102197D01*
X90218751Y-101455040D01*
X91488091Y-101455040D01*
X91582930Y-101719881D01*
X91727615Y-101961131D01*
X91916586Y-102169519D01*
X92142580Y-102337037D01*
X92396913Y-102457246D01*
X92530961Y-102497904D01*
X92753000Y-102375915D01*
X92753000Y-101233000D01*
X93007000Y-101233000D01*
X93007000Y-102375915D01*
X93229039Y-102497904D01*
X93363087Y-102457246D01*
X93534983Y-102376000D01*
X97587319Y-102376000D01*
X97617970Y-102687204D01*
X97708745Y-102986449D01*
X97856155Y-103262235D01*
X98054537Y-103503963D01*
X98227609Y-103646000D01*
X98054537Y-103788037D01*
X97856155Y-104029765D01*
X97708745Y-104305551D01*
X97617970Y-104604796D01*
X97587319Y-104916000D01*
X97617970Y-105227204D01*
X97708745Y-105526449D01*
X97856155Y-105802235D01*
X97959446Y-105928095D01*
X97875506Y-105972963D01*
X97778815Y-106052315D01*
X97699463Y-106149006D01*
X97640498Y-106259320D01*
X97604188Y-106379018D01*
X97591928Y-106503500D01*
X97595000Y-107170250D01*
X97753750Y-107329000D01*
X99103000Y-107329000D01*
X99103000Y-107309000D01*
X99357000Y-107309000D01*
X99357000Y-107329000D01*
X100706250Y-107329000D01*
X100713837Y-107321413D01*
X104704192Y-107321413D01*
X104799956Y-107585814D01*
X105089571Y-107726704D01*
X105401108Y-107808384D01*
X105722595Y-107827718D01*
X106041675Y-107783961D01*
X106346088Y-107678795D01*
X106520044Y-107585814D01*
X106615808Y-107321413D01*
X105660000Y-106365605D01*
X104704192Y-107321413D01*
X100713837Y-107321413D01*
X100865000Y-107170250D01*
X100868072Y-106503500D01*
X100855812Y-106379018D01*
X100819502Y-106259320D01*
X100813770Y-106248595D01*
X104018282Y-106248595D01*
X104062039Y-106567675D01*
X104167205Y-106872088D01*
X104260186Y-107046044D01*
X104524587Y-107141808D01*
X105480395Y-106186000D01*
X105839605Y-106186000D01*
X106795413Y-107141808D01*
X107059814Y-107046044D01*
X107200704Y-106756429D01*
X107282384Y-106444892D01*
X107301718Y-106123405D01*
X107257961Y-105804325D01*
X107152795Y-105499912D01*
X107059814Y-105325956D01*
X106795413Y-105230192D01*
X105839605Y-106186000D01*
X105480395Y-106186000D01*
X104524587Y-105230192D01*
X104260186Y-105325956D01*
X104119296Y-105615571D01*
X104037616Y-105927108D01*
X104018282Y-106248595D01*
X100813770Y-106248595D01*
X100760537Y-106149006D01*
X100681185Y-106052315D01*
X100584494Y-105972963D01*
X100500554Y-105928095D01*
X100603845Y-105802235D01*
X100751255Y-105526449D01*
X100842030Y-105227204D01*
X100859425Y-105050587D01*
X104704192Y-105050587D01*
X105660000Y-106006395D01*
X106480395Y-105186000D01*
X109021928Y-105186000D01*
X109021928Y-107186000D01*
X109034188Y-107310482D01*
X109070498Y-107430180D01*
X109129463Y-107540494D01*
X109208815Y-107637185D01*
X109305506Y-107716537D01*
X109415820Y-107775502D01*
X109535518Y-107811812D01*
X109625001Y-107820625D01*
X109625001Y-108069163D01*
X109619994Y-108120000D01*
X109639977Y-108322895D01*
X109699160Y-108517993D01*
X109795266Y-108697797D01*
X109864179Y-108781767D01*
X109924605Y-108855396D01*
X109964092Y-108887802D01*
X112262197Y-111185908D01*
X112294604Y-111225396D01*
X112334092Y-111257803D01*
X112452202Y-111354734D01*
X112548309Y-111406104D01*
X112632007Y-111450841D01*
X112827105Y-111510024D01*
X112979162Y-111525000D01*
X112979171Y-111525000D01*
X113029999Y-111530006D01*
X113080827Y-111525000D01*
X118059172Y-111525000D01*
X118110000Y-111530006D01*
X118160828Y-111525000D01*
X118160838Y-111525000D01*
X118312895Y-111510024D01*
X118507993Y-111450841D01*
X118687797Y-111354734D01*
X118845396Y-111225396D01*
X118877807Y-111185903D01*
X120245908Y-109817803D01*
X120285396Y-109785396D01*
X120342054Y-109716358D01*
X120414734Y-109627798D01*
X120510841Y-109447994D01*
X120533321Y-109373886D01*
X120570024Y-109252895D01*
X120585000Y-109100838D01*
X120585000Y-109100835D01*
X120590007Y-109050000D01*
X120585000Y-108999165D01*
X120585000Y-108521107D01*
X120703475Y-108402632D01*
X120820000Y-108228240D01*
X120936525Y-108402632D01*
X121143368Y-108609475D01*
X121386589Y-108771990D01*
X121656842Y-108883932D01*
X121943740Y-108941000D01*
X122236260Y-108941000D01*
X122523158Y-108883932D01*
X122793411Y-108771990D01*
X123036632Y-108609475D01*
X123168487Y-108477620D01*
X123190498Y-108550180D01*
X123249463Y-108660494D01*
X123328815Y-108757185D01*
X123425506Y-108836537D01*
X123535820Y-108895502D01*
X123655518Y-108931812D01*
X123780000Y-108944072D01*
X125480000Y-108944072D01*
X125604482Y-108931812D01*
X125724180Y-108895502D01*
X125834494Y-108836537D01*
X125931185Y-108757185D01*
X126010537Y-108660494D01*
X126069502Y-108550180D01*
X126105812Y-108430482D01*
X126118072Y-108306000D01*
X126118072Y-106606000D01*
X126105812Y-106481518D01*
X126069502Y-106361820D01*
X126010537Y-106251506D01*
X125931185Y-106154815D01*
X125834494Y-106075463D01*
X125724180Y-106016498D01*
X125651620Y-105994487D01*
X125783475Y-105862632D01*
X125945990Y-105619411D01*
X126057932Y-105349158D01*
X126115000Y-105062260D01*
X126115000Y-104769740D01*
X126057932Y-104482842D01*
X125945990Y-104212589D01*
X125783475Y-103969368D01*
X125576632Y-103762525D01*
X125333411Y-103600010D01*
X125063158Y-103488068D01*
X124776260Y-103431000D01*
X124483740Y-103431000D01*
X124196842Y-103488068D01*
X123926589Y-103600010D01*
X123683368Y-103762525D01*
X123476525Y-103969368D01*
X123360000Y-104143760D01*
X123243475Y-103969368D01*
X123036632Y-103762525D01*
X122793411Y-103600010D01*
X122523158Y-103488068D01*
X122236260Y-103431000D01*
X121943740Y-103431000D01*
X121656842Y-103488068D01*
X121386589Y-103600010D01*
X121143368Y-103762525D01*
X120936525Y-103969368D01*
X120820000Y-104143760D01*
X120703475Y-103969368D01*
X120496632Y-103762525D01*
X120253411Y-103600010D01*
X119983158Y-103488068D01*
X119696260Y-103431000D01*
X119403740Y-103431000D01*
X119116842Y-103488068D01*
X118846589Y-103600010D01*
X118603368Y-103762525D01*
X118396525Y-103969368D01*
X118274805Y-104151534D01*
X118205178Y-104034645D01*
X118010269Y-103818412D01*
X117776920Y-103644359D01*
X117514099Y-103519175D01*
X117366890Y-103474524D01*
X117137000Y-103595845D01*
X117137000Y-104789000D01*
X117157000Y-104789000D01*
X117157000Y-105043000D01*
X117137000Y-105043000D01*
X117137000Y-105063000D01*
X116883000Y-105063000D01*
X116883000Y-105043000D01*
X115689186Y-105043000D01*
X115568519Y-105272891D01*
X115665843Y-105547252D01*
X115814822Y-105797355D01*
X116009731Y-106013588D01*
X116239406Y-106184900D01*
X116063368Y-106302525D01*
X115856525Y-106509368D01*
X115748526Y-106671000D01*
X114832552Y-106671000D01*
X114793999Y-106667203D01*
X114755446Y-106671000D01*
X114755439Y-106671000D01*
X114654490Y-106680943D01*
X114640112Y-106682359D01*
X114605672Y-106692806D01*
X114492140Y-106727246D01*
X114355767Y-106800138D01*
X114236236Y-106898236D01*
X114222478Y-106915000D01*
X114198061Y-106915000D01*
X113998102Y-106954774D01*
X113809744Y-107032795D01*
X113640226Y-107146063D01*
X113496063Y-107290226D01*
X113382795Y-107459744D01*
X113304774Y-107648102D01*
X113265000Y-107848061D01*
X113265000Y-108051939D01*
X113304774Y-108251898D01*
X113382795Y-108440256D01*
X113496063Y-108609774D01*
X113640226Y-108753937D01*
X113809744Y-108867205D01*
X113998102Y-108945226D01*
X114198061Y-108985000D01*
X114401939Y-108985000D01*
X114601898Y-108945226D01*
X114790256Y-108867205D01*
X114959774Y-108753937D01*
X115103937Y-108609774D01*
X115217205Y-108440256D01*
X115295226Y-108251898D01*
X115297394Y-108241000D01*
X115748526Y-108241000D01*
X115856525Y-108402632D01*
X116063368Y-108609475D01*
X116306589Y-108771990D01*
X116576842Y-108883932D01*
X116863740Y-108941000D01*
X117156260Y-108941000D01*
X117443158Y-108883932D01*
X117713411Y-108771990D01*
X117956632Y-108609475D01*
X118163475Y-108402632D01*
X118280000Y-108228240D01*
X118396525Y-108402632D01*
X118515000Y-108521107D01*
X118515000Y-108621289D01*
X117681290Y-109455000D01*
X113458711Y-109455000D01*
X111808298Y-107804588D01*
X111904180Y-107775502D01*
X112014494Y-107716537D01*
X112111185Y-107637185D01*
X112190537Y-107540494D01*
X112249502Y-107430180D01*
X112285812Y-107310482D01*
X112298072Y-107186000D01*
X112298072Y-105186000D01*
X112285812Y-105061518D01*
X112249502Y-104941820D01*
X112190537Y-104831506D01*
X112111185Y-104734815D01*
X112014494Y-104655463D01*
X111904180Y-104596498D01*
X111784482Y-104560188D01*
X111773527Y-104559109D01*
X115568519Y-104559109D01*
X115689186Y-104789000D01*
X116883000Y-104789000D01*
X116883000Y-103595845D01*
X116653110Y-103474524D01*
X116505901Y-103519175D01*
X116243080Y-103644359D01*
X116009731Y-103818412D01*
X115814822Y-104034645D01*
X115665843Y-104284748D01*
X115568519Y-104559109D01*
X111773527Y-104559109D01*
X111660000Y-104547928D01*
X109660000Y-104547928D01*
X109535518Y-104560188D01*
X109415820Y-104596498D01*
X109305506Y-104655463D01*
X109208815Y-104734815D01*
X109129463Y-104831506D01*
X109070498Y-104941820D01*
X109034188Y-105061518D01*
X109021928Y-105186000D01*
X106480395Y-105186000D01*
X106615808Y-105050587D01*
X106520044Y-104786186D01*
X106230429Y-104645296D01*
X105918892Y-104563616D01*
X105597405Y-104544282D01*
X105278325Y-104588039D01*
X104973912Y-104693205D01*
X104799956Y-104786186D01*
X104704192Y-105050587D01*
X100859425Y-105050587D01*
X100872681Y-104916000D01*
X100842030Y-104604796D01*
X100751255Y-104305551D01*
X100603845Y-104029765D01*
X100405463Y-103788037D01*
X100232391Y-103646000D01*
X100405463Y-103503963D01*
X100603845Y-103262235D01*
X100751255Y-102986449D01*
X100842030Y-102687204D01*
X100872681Y-102376000D01*
X100842030Y-102064796D01*
X100751255Y-101765551D01*
X100603845Y-101489765D01*
X100405463Y-101248037D01*
X100163735Y-101049655D01*
X99887949Y-100902245D01*
X99588704Y-100811470D01*
X99355486Y-100788500D01*
X99104514Y-100788500D01*
X98871296Y-100811470D01*
X98572051Y-100902245D01*
X98296265Y-101049655D01*
X98054537Y-101248037D01*
X97856155Y-101489765D01*
X97708745Y-101765551D01*
X97617970Y-102064796D01*
X97587319Y-102376000D01*
X93534983Y-102376000D01*
X93617420Y-102337037D01*
X93843414Y-102169519D01*
X94032385Y-101961131D01*
X94177070Y-101719881D01*
X94271909Y-101455040D01*
X94150624Y-101233000D01*
X93007000Y-101233000D01*
X92753000Y-101233000D01*
X91609376Y-101233000D01*
X91488091Y-101455040D01*
X90218751Y-101455040D01*
X89520671Y-100756960D01*
X91488091Y-100756960D01*
X91609376Y-100979000D01*
X92753000Y-100979000D01*
X92753000Y-99836085D01*
X93007000Y-99836085D01*
X93007000Y-100979000D01*
X94150624Y-100979000D01*
X94271909Y-100756960D01*
X94177070Y-100492119D01*
X94032385Y-100250869D01*
X93935786Y-100144344D01*
X128925000Y-100144344D01*
X128925000Y-100515656D01*
X128997439Y-100879834D01*
X129139534Y-101222882D01*
X129345825Y-101531618D01*
X129608382Y-101794175D01*
X129917118Y-102000466D01*
X130260166Y-102142561D01*
X130624344Y-102215000D01*
X130995656Y-102215000D01*
X131359834Y-102142561D01*
X131702882Y-102000466D01*
X132011618Y-101794175D01*
X132274175Y-101531618D01*
X132480466Y-101222882D01*
X132622561Y-100879834D01*
X132695000Y-100515656D01*
X132695000Y-100144344D01*
X132622561Y-99780166D01*
X132480466Y-99437118D01*
X132274175Y-99128382D01*
X132011618Y-98865825D01*
X131702882Y-98659534D01*
X131359834Y-98517439D01*
X130995656Y-98445000D01*
X130624344Y-98445000D01*
X130260166Y-98517439D01*
X129917118Y-98659534D01*
X129608382Y-98865825D01*
X129345825Y-99128382D01*
X129139534Y-99437118D01*
X128997439Y-99780166D01*
X128925000Y-100144344D01*
X93935786Y-100144344D01*
X93843414Y-100042481D01*
X93617420Y-99874963D01*
X93363087Y-99754754D01*
X93229039Y-99714096D01*
X93007000Y-99836085D01*
X92753000Y-99836085D01*
X92530961Y-99714096D01*
X92396913Y-99754754D01*
X92142580Y-99874963D01*
X91916586Y-100042481D01*
X91727615Y-100250869D01*
X91582930Y-100492119D01*
X91488091Y-100756960D01*
X89520671Y-100756960D01*
X89159807Y-100396097D01*
X89127396Y-100356604D01*
X88969797Y-100227266D01*
X88789993Y-100131159D01*
X88594895Y-100071976D01*
X88442838Y-100057000D01*
X88442828Y-100057000D01*
X88392000Y-100051994D01*
X88341172Y-100057000D01*
X87309454Y-100057000D01*
X87291502Y-99997820D01*
X87232537Y-99887506D01*
X87153185Y-99790815D01*
X87056494Y-99711463D01*
X86946180Y-99652498D01*
X86826482Y-99616188D01*
X86702000Y-99603928D01*
X85002000Y-99603928D01*
X84877518Y-99616188D01*
X84757820Y-99652498D01*
X84647506Y-99711463D01*
X84550815Y-99790815D01*
X84471463Y-99887506D01*
X84412498Y-99997820D01*
X84394546Y-100057000D01*
X84378835Y-100057000D01*
X84328000Y-100051993D01*
X84277165Y-100057000D01*
X84277162Y-100057000D01*
X84125105Y-100071976D01*
X83930007Y-100131159D01*
X83905340Y-100144344D01*
X83750202Y-100227266D01*
X83632092Y-100324197D01*
X83592604Y-100356604D01*
X83560197Y-100396092D01*
X81854097Y-102102193D01*
X81814604Y-102134604D01*
X81685266Y-102292203D01*
X81589159Y-102472008D01*
X81529976Y-102667106D01*
X81515000Y-102819163D01*
X81515000Y-102819172D01*
X81509994Y-102870000D01*
X80660000Y-102870000D01*
X80660000Y-98428408D01*
X111549000Y-98428408D01*
X111549000Y-98703592D01*
X111602686Y-98973490D01*
X111707995Y-99227727D01*
X111860880Y-99456535D01*
X112055465Y-99651120D01*
X112284273Y-99804005D01*
X112538510Y-99909314D01*
X112808408Y-99963000D01*
X113083592Y-99963000D01*
X113353490Y-99909314D01*
X113607727Y-99804005D01*
X113836535Y-99651120D01*
X113956090Y-99531565D01*
X114827040Y-99531565D01*
X114894020Y-99771656D01*
X115143048Y-99888756D01*
X115410135Y-99955023D01*
X115685017Y-99967910D01*
X115957133Y-99926922D01*
X116216023Y-99833636D01*
X116331980Y-99771656D01*
X116398960Y-99531565D01*
X115613000Y-98745605D01*
X114827040Y-99531565D01*
X113956090Y-99531565D01*
X114031120Y-99456535D01*
X114184005Y-99227727D01*
X114281610Y-98992090D01*
X114345364Y-99169023D01*
X114407344Y-99284980D01*
X114647435Y-99351960D01*
X115433395Y-98566000D01*
X115792605Y-98566000D01*
X116578565Y-99351960D01*
X116818656Y-99284980D01*
X116935756Y-99035952D01*
X117002023Y-98768865D01*
X117014910Y-98493983D01*
X116973922Y-98221867D01*
X116880636Y-97962977D01*
X116818656Y-97847020D01*
X116578565Y-97780040D01*
X115792605Y-98566000D01*
X115433395Y-98566000D01*
X114647435Y-97780040D01*
X114407344Y-97847020D01*
X114290244Y-98096048D01*
X114280204Y-98136516D01*
X114184005Y-97904273D01*
X114031120Y-97675465D01*
X113956090Y-97600435D01*
X114827040Y-97600435D01*
X115613000Y-98386395D01*
X116398960Y-97600435D01*
X116331980Y-97360344D01*
X116082952Y-97243244D01*
X115815865Y-97176977D01*
X115540983Y-97164090D01*
X115268867Y-97205078D01*
X115009977Y-97298364D01*
X114894020Y-97360344D01*
X114827040Y-97600435D01*
X113956090Y-97600435D01*
X113836535Y-97480880D01*
X113607727Y-97327995D01*
X113353490Y-97222686D01*
X113083592Y-97169000D01*
X112808408Y-97169000D01*
X112538510Y-97222686D01*
X112284273Y-97327995D01*
X112055465Y-97480880D01*
X111860880Y-97675465D01*
X111707995Y-97904273D01*
X111602686Y-98158510D01*
X111549000Y-98428408D01*
X80660000Y-98428408D01*
X80660000Y-95660000D01*
X134340000Y-95660000D01*
X134340001Y-171323000D01*
G37*
X134340001Y-171323000D02*
X80660000Y-171323000D01*
X80660000Y-168724344D01*
X107335000Y-168724344D01*
X107335000Y-169095656D01*
X107407439Y-169459834D01*
X107549534Y-169802882D01*
X107755825Y-170111618D01*
X108018382Y-170374175D01*
X108327118Y-170580466D01*
X108670166Y-170722561D01*
X109034344Y-170795000D01*
X109405656Y-170795000D01*
X109769834Y-170722561D01*
X110112882Y-170580466D01*
X110421618Y-170374175D01*
X110684175Y-170111618D01*
X110890466Y-169802882D01*
X111032561Y-169459834D01*
X111105000Y-169095656D01*
X111105000Y-168724344D01*
X111032561Y-168360166D01*
X110890466Y-168017118D01*
X110684175Y-167708382D01*
X110421618Y-167445825D01*
X110112882Y-167239534D01*
X109769834Y-167097439D01*
X109405656Y-167025000D01*
X109034344Y-167025000D01*
X108670166Y-167097439D01*
X108327118Y-167239534D01*
X108018382Y-167445825D01*
X107755825Y-167708382D01*
X107549534Y-168017118D01*
X107407439Y-168360166D01*
X107335000Y-168724344D01*
X80660000Y-168724344D01*
X80660000Y-157822000D01*
X84871928Y-157822000D01*
X84884188Y-157946482D01*
X84920498Y-158066180D01*
X84979463Y-158176494D01*
X85058815Y-158273185D01*
X85155506Y-158352537D01*
X85265820Y-158411502D01*
X85338380Y-158433513D01*
X85206525Y-158565368D01*
X85044010Y-158808589D01*
X84932068Y-159078842D01*
X84875000Y-159365740D01*
X84875000Y-159658260D01*
X84932068Y-159945158D01*
X85044010Y-160215411D01*
X85206525Y-160458632D01*
X85413368Y-160665475D01*
X85587760Y-160782000D01*
X85413368Y-160898525D01*
X85206525Y-161105368D01*
X85044010Y-161348589D01*
X84932068Y-161618842D01*
X84875000Y-161905740D01*
X84875000Y-162198260D01*
X84932068Y-162485158D01*
X85044010Y-162755411D01*
X85206525Y-162998632D01*
X85413368Y-163205475D01*
X85587760Y-163322000D01*
X85413368Y-163438525D01*
X85206525Y-163645368D01*
X85044010Y-163888589D01*
X84932068Y-164158842D01*
X84875000Y-164445740D01*
X84875000Y-164738260D01*
X84932068Y-165025158D01*
X85044010Y-165295411D01*
X85206525Y-165538632D01*
X85413368Y-165745475D01*
X85587760Y-165862000D01*
X85413368Y-165978525D01*
X85206525Y-166185368D01*
X85044010Y-166428589D01*
X84932068Y-166698842D01*
X84875000Y-166985740D01*
X84875000Y-167278260D01*
X84932068Y-167565158D01*
X85044010Y-167835411D01*
X85206525Y-168078632D01*
X85413368Y-168285475D01*
X85656589Y-168447990D01*
X85926842Y-168559932D01*
X86213740Y-168617000D01*
X86506260Y-168617000D01*
X86793158Y-168559932D01*
X87063411Y-168447990D01*
X87306632Y-168285475D01*
X87513475Y-168078632D01*
X87675990Y-167835411D01*
X87787932Y-167565158D01*
X87845000Y-167278260D01*
X87845000Y-166985740D01*
X87787932Y-166698842D01*
X87675990Y-166428589D01*
X87513475Y-166185368D01*
X87306632Y-165978525D01*
X87132240Y-165862000D01*
X87306632Y-165745475D01*
X87513475Y-165538632D01*
X87675990Y-165295411D01*
X87787932Y-165025158D01*
X87845000Y-164738260D01*
X87845000Y-164445740D01*
X87787932Y-164158842D01*
X87699940Y-163946408D01*
X94615000Y-163946408D01*
X94615000Y-164221592D01*
X94668686Y-164491490D01*
X94773995Y-164745727D01*
X94926880Y-164974535D01*
X95121465Y-165169120D01*
X95350273Y-165322005D01*
X95604510Y-165427314D01*
X95874408Y-165481000D01*
X96149592Y-165481000D01*
X96419490Y-165427314D01*
X96673727Y-165322005D01*
X96902535Y-165169120D01*
X97022090Y-165049565D01*
X97893040Y-165049565D01*
X97960020Y-165289656D01*
X98209048Y-165406756D01*
X98476135Y-165473023D01*
X98751017Y-165485910D01*
X99023133Y-165444922D01*
X99282023Y-165351636D01*
X99397980Y-165289656D01*
X99464960Y-165049565D01*
X98679000Y-164263605D01*
X97893040Y-165049565D01*
X97022090Y-165049565D01*
X97097120Y-164974535D01*
X97250005Y-164745727D01*
X97347610Y-164510090D01*
X97411364Y-164687023D01*
X97473344Y-164802980D01*
X97713435Y-164869960D01*
X98499395Y-164084000D01*
X98858605Y-164084000D01*
X99644565Y-164869960D01*
X99884656Y-164802980D01*
X100001756Y-164553952D01*
X100068023Y-164286865D01*
X100080910Y-164011983D01*
X100039922Y-163739867D01*
X99946636Y-163480977D01*
X99884656Y-163365020D01*
X99644565Y-163298040D01*
X98858605Y-164084000D01*
X98499395Y-164084000D01*
X97713435Y-163298040D01*
X97473344Y-163365020D01*
X97356244Y-163614048D01*
X97346204Y-163654516D01*
X97250005Y-163422273D01*
X97097120Y-163193465D01*
X97022090Y-163118435D01*
X97893040Y-163118435D01*
X98679000Y-163904395D01*
X99464960Y-163118435D01*
X99397980Y-162878344D01*
X99148952Y-162761244D01*
X98881865Y-162694977D01*
X98606983Y-162682090D01*
X98334867Y-162723078D01*
X98075977Y-162816364D01*
X97960020Y-162878344D01*
X97893040Y-163118435D01*
X97022090Y-163118435D01*
X96902535Y-162998880D01*
X96673727Y-162845995D01*
X96419490Y-162740686D01*
X96149592Y-162687000D01*
X95874408Y-162687000D01*
X95604510Y-162740686D01*
X95350273Y-162845995D01*
X95121465Y-162998880D01*
X94926880Y-163193465D01*
X94773995Y-163422273D01*
X94668686Y-163676510D01*
X94615000Y-163946408D01*
X87699940Y-163946408D01*
X87675990Y-163888589D01*
X87513475Y-163645368D01*
X87306632Y-163438525D01*
X87132240Y-163322000D01*
X87306632Y-163205475D01*
X87513475Y-162998632D01*
X87675990Y-162755411D01*
X87787932Y-162485158D01*
X87822891Y-162309408D01*
X106596000Y-162309408D01*
X106596000Y-162584592D01*
X106649686Y-162854490D01*
X106754995Y-163108727D01*
X106907880Y-163337535D01*
X107102465Y-163532120D01*
X107331273Y-163685005D01*
X107585510Y-163790314D01*
X107855408Y-163844000D01*
X108130592Y-163844000D01*
X108400490Y-163790314D01*
X108654727Y-163685005D01*
X108883535Y-163532120D01*
X109078120Y-163337535D01*
X109231005Y-163108727D01*
X109336314Y-162854490D01*
X109390000Y-162584592D01*
X109390000Y-162309408D01*
X109336314Y-162039510D01*
X109231005Y-161785273D01*
X109078120Y-161556465D01*
X108883535Y-161361880D01*
X108654727Y-161208995D01*
X108583057Y-161179308D01*
X108596023Y-161174636D01*
X108711980Y-161112656D01*
X108778960Y-160872565D01*
X107993000Y-160086605D01*
X107207040Y-160872565D01*
X107274020Y-161112656D01*
X107409760Y-161176485D01*
X107331273Y-161208995D01*
X107102465Y-161361880D01*
X106907880Y-161556465D01*
X106754995Y-161785273D01*
X106649686Y-162039510D01*
X106596000Y-162309408D01*
X87822891Y-162309408D01*
X87845000Y-162198260D01*
X87845000Y-161905740D01*
X87787932Y-161618842D01*
X87675990Y-161348589D01*
X87513475Y-161105368D01*
X87306632Y-160898525D01*
X87132240Y-160782000D01*
X87306632Y-160665475D01*
X87513475Y-160458632D01*
X87675990Y-160215411D01*
X87773907Y-159979017D01*
X106591090Y-159979017D01*
X106632078Y-160251133D01*
X106725364Y-160510023D01*
X106787344Y-160625980D01*
X107027435Y-160692960D01*
X107813395Y-159907000D01*
X108172605Y-159907000D01*
X108958565Y-160692960D01*
X109198656Y-160625980D01*
X109315756Y-160376952D01*
X109382023Y-160109865D01*
X109394910Y-159834983D01*
X109353922Y-159562867D01*
X109260636Y-159303977D01*
X109198656Y-159188020D01*
X108958565Y-159121040D01*
X108172605Y-159907000D01*
X107813395Y-159907000D01*
X107027435Y-159121040D01*
X106787344Y-159188020D01*
X106670244Y-159437048D01*
X106603977Y-159704135D01*
X106591090Y-159979017D01*
X87773907Y-159979017D01*
X87787932Y-159945158D01*
X87845000Y-159658260D01*
X87845000Y-159365740D01*
X87787932Y-159078842D01*
X87675990Y-158808589D01*
X87513475Y-158565368D01*
X87381620Y-158433513D01*
X87454180Y-158411502D01*
X87564494Y-158352537D01*
X87661185Y-158273185D01*
X87740537Y-158176494D01*
X87799502Y-158066180D01*
X87835812Y-157946482D01*
X87848072Y-157822000D01*
X87845000Y-157257750D01*
X87686250Y-157099000D01*
X86487000Y-157099000D01*
X86487000Y-157119000D01*
X86233000Y-157119000D01*
X86233000Y-157099000D01*
X85033750Y-157099000D01*
X84875000Y-157257750D01*
X84871928Y-157822000D01*
X80660000Y-157822000D01*
X80660000Y-156122000D01*
X84871928Y-156122000D01*
X84875000Y-156686250D01*
X85033750Y-156845000D01*
X86233000Y-156845000D01*
X86233000Y-155645750D01*
X86487000Y-155645750D01*
X86487000Y-156845000D01*
X87686250Y-156845000D01*
X87686585Y-156844665D01*
X91445000Y-156844665D01*
X91445000Y-157127335D01*
X91500147Y-157404574D01*
X91608320Y-157665727D01*
X91765363Y-157900759D01*
X91965241Y-158100637D01*
X92200273Y-158257680D01*
X92461426Y-158365853D01*
X92738665Y-158421000D01*
X93021335Y-158421000D01*
X93298574Y-158365853D01*
X93559727Y-158257680D01*
X93794759Y-158100637D01*
X93994637Y-157900759D01*
X94151680Y-157665727D01*
X94259853Y-157404574D01*
X94315000Y-157127335D01*
X94315000Y-156844665D01*
X99065000Y-156844665D01*
X99065000Y-157127335D01*
X99120147Y-157404574D01*
X99228320Y-157665727D01*
X99385363Y-157900759D01*
X99585241Y-158100637D01*
X99820273Y-158257680D01*
X100081426Y-158365853D01*
X100358665Y-158421000D01*
X100641335Y-158421000D01*
X100918574Y-158365853D01*
X101179727Y-158257680D01*
X101414759Y-158100637D01*
X101614637Y-157900759D01*
X101771680Y-157665727D01*
X101879853Y-157404574D01*
X101935000Y-157127335D01*
X101935000Y-156844665D01*
X101879853Y-156567426D01*
X101771680Y-156306273D01*
X101614637Y-156071241D01*
X101414759Y-155871363D01*
X101179727Y-155714320D01*
X100918574Y-155606147D01*
X100641335Y-155551000D01*
X100358665Y-155551000D01*
X100081426Y-155606147D01*
X99820273Y-155714320D01*
X99585241Y-155871363D01*
X99385363Y-156071241D01*
X99228320Y-156306273D01*
X99120147Y-156567426D01*
X99065000Y-156844665D01*
X94315000Y-156844665D01*
X94259853Y-156567426D01*
X94151680Y-156306273D01*
X93994637Y-156071241D01*
X93794759Y-155871363D01*
X93559727Y-155714320D01*
X93298574Y-155606147D01*
X93021335Y-155551000D01*
X92738665Y-155551000D01*
X92461426Y-155606147D01*
X92200273Y-155714320D01*
X91965241Y-155871363D01*
X91765363Y-156071241D01*
X91608320Y-156306273D01*
X91500147Y-156567426D01*
X91445000Y-156844665D01*
X87686585Y-156844665D01*
X87845000Y-156686250D01*
X87848072Y-156122000D01*
X87835812Y-155997518D01*
X87799502Y-155877820D01*
X87740537Y-155767506D01*
X87661185Y-155670815D01*
X87564494Y-155591463D01*
X87454180Y-155532498D01*
X87334482Y-155496188D01*
X87210000Y-155483928D01*
X86645750Y-155487000D01*
X86487000Y-155645750D01*
X86233000Y-155645750D01*
X86074250Y-155487000D01*
X85510000Y-155483928D01*
X85385518Y-155496188D01*
X85265820Y-155532498D01*
X85155506Y-155591463D01*
X85058815Y-155670815D01*
X84979463Y-155767506D01*
X84920498Y-155877820D01*
X84884188Y-155997518D01*
X84871928Y-156122000D01*
X80660000Y-156122000D01*
X80660000Y-139548890D01*
X84410524Y-139548890D01*
X84455175Y-139696099D01*
X84580359Y-139958920D01*
X84754412Y-140192269D01*
X84970645Y-140387178D01*
X85220748Y-140536157D01*
X85495109Y-140633481D01*
X85725000Y-140512814D01*
X85725000Y-139319000D01*
X85979000Y-139319000D01*
X85979000Y-140512814D01*
X86208891Y-140633481D01*
X86483252Y-140536157D01*
X86733355Y-140387178D01*
X86949588Y-140192269D01*
X87123641Y-139958920D01*
X87248825Y-139696099D01*
X87293476Y-139548890D01*
X87172155Y-139319000D01*
X85979000Y-139319000D01*
X85725000Y-139319000D01*
X84531845Y-139319000D01*
X84410524Y-139548890D01*
X80660000Y-139548890D01*
X80660000Y-102870000D01*
X81509994Y-102870000D01*
X81515000Y-102920828D01*
X81515001Y-109169153D01*
X81515000Y-109169163D01*
X81515001Y-123139153D01*
X81515000Y-123139163D01*
X81515001Y-135839162D01*
X81509994Y-135890000D01*
X81529977Y-136092895D01*
X81589160Y-136287993D01*
X81685266Y-136467797D01*
X81775425Y-136577655D01*
X81814605Y-136625396D01*
X81854092Y-136657802D01*
X82544197Y-137347908D01*
X82576604Y-137387396D01*
X82616092Y-137419803D01*
X82734202Y-137516734D01*
X82830309Y-137568104D01*
X82914007Y-137612841D01*
X83109105Y-137672024D01*
X83261162Y-137687000D01*
X83261165Y-137687000D01*
X83312000Y-137692007D01*
X83362835Y-137687000D01*
X84786893Y-137687000D01*
X84905368Y-137805475D01*
X85087534Y-137927195D01*
X84970645Y-137996822D01*
X84754412Y-138191731D01*
X84580359Y-138425080D01*
X84455175Y-138687901D01*
X84410524Y-138835110D01*
X84531845Y-139065000D01*
X85725000Y-139065000D01*
X85725000Y-139045000D01*
X85979000Y-139045000D01*
X85979000Y-139065000D01*
X87172155Y-139065000D01*
X87293476Y-138835110D01*
X87248825Y-138687901D01*
X87123641Y-138425080D01*
X86949588Y-138191731D01*
X86733355Y-137996822D01*
X86616466Y-137927195D01*
X86798632Y-137805475D01*
X87005475Y-137598632D01*
X87167990Y-137355411D01*
X87279932Y-137085158D01*
X87337000Y-136798260D01*
X87337000Y-136505740D01*
X87279932Y-136218842D01*
X87167990Y-135948589D01*
X87005475Y-135705368D01*
X86798632Y-135498525D01*
X86624240Y-135382000D01*
X86798632Y-135265475D01*
X87005475Y-135058632D01*
X87113474Y-134897000D01*
X88592728Y-134897000D01*
X88409744Y-134972795D01*
X88240226Y-135086063D01*
X88096063Y-135230226D01*
X87982795Y-135399744D01*
X87904774Y-135588102D01*
X87865000Y-135788061D01*
X87865000Y-135991939D01*
X87904774Y-136191898D01*
X87982795Y-136380256D01*
X88096063Y-136549774D01*
X88240226Y-136693937D01*
X88409744Y-136807205D01*
X88598102Y-136885226D01*
X88798061Y-136925000D01*
X89001939Y-136925000D01*
X89201898Y-136885226D01*
X89390256Y-136807205D01*
X89559774Y-136693937D01*
X89578711Y-136675000D01*
X91640775Y-136675000D01*
X91628815Y-136684815D01*
X91549463Y-136781506D01*
X91490498Y-136891820D01*
X91454188Y-137011518D01*
X91441928Y-137136000D01*
X91441928Y-138736000D01*
X91454188Y-138860482D01*
X91490498Y-138980180D01*
X91549463Y-139090494D01*
X91628815Y-139187185D01*
X91725506Y-139266537D01*
X91835820Y-139325502D01*
X91955518Y-139361812D01*
X91963961Y-139362643D01*
X91765363Y-139561241D01*
X91608320Y-139796273D01*
X91500147Y-140057426D01*
X91445000Y-140334665D01*
X91445000Y-140617335D01*
X91500147Y-140894574D01*
X91608320Y-141155727D01*
X91765363Y-141390759D01*
X91965241Y-141590637D01*
X92197759Y-141746000D01*
X91965241Y-141901363D01*
X91765363Y-142101241D01*
X91608320Y-142336273D01*
X91500147Y-142597426D01*
X91445000Y-142874665D01*
X91445000Y-143157335D01*
X91500147Y-143434574D01*
X91608320Y-143695727D01*
X91765363Y-143930759D01*
X91965241Y-144130637D01*
X92200273Y-144287680D01*
X92210865Y-144292067D01*
X92024869Y-144403615D01*
X91816481Y-144592586D01*
X91648963Y-144818580D01*
X91528754Y-145072913D01*
X91488096Y-145206961D01*
X91610085Y-145429000D01*
X92753000Y-145429000D01*
X92753000Y-145409000D01*
X93007000Y-145409000D01*
X93007000Y-145429000D01*
X94149915Y-145429000D01*
X94271904Y-145206961D01*
X94231246Y-145072913D01*
X94111037Y-144818580D01*
X93943519Y-144592586D01*
X93735131Y-144403615D01*
X93549135Y-144292067D01*
X93559727Y-144287680D01*
X93794759Y-144130637D01*
X93994637Y-143930759D01*
X94151680Y-143695727D01*
X94259853Y-143434574D01*
X94315000Y-143157335D01*
X94315000Y-142874665D01*
X94259853Y-142597426D01*
X94151680Y-142336273D01*
X93994637Y-142101241D01*
X93794759Y-141901363D01*
X93562241Y-141746000D01*
X93794759Y-141590637D01*
X93994637Y-141390759D01*
X94151680Y-141155727D01*
X94259853Y-140894574D01*
X94315000Y-140617335D01*
X94315000Y-140334665D01*
X94259853Y-140057426D01*
X94151680Y-139796273D01*
X93994637Y-139561241D01*
X93796039Y-139362643D01*
X93804482Y-139361812D01*
X93924180Y-139325502D01*
X94034494Y-139266537D01*
X94131185Y-139187185D01*
X94210537Y-139090494D01*
X94269502Y-138980180D01*
X94305812Y-138860482D01*
X94318072Y-138736000D01*
X94318072Y-137136000D01*
X94305812Y-137011518D01*
X94269502Y-136891820D01*
X94210537Y-136781506D01*
X94131185Y-136684815D01*
X94119225Y-136675000D01*
X99804289Y-136675000D01*
X99585241Y-136821363D01*
X99385363Y-137021241D01*
X99228320Y-137256273D01*
X99120147Y-137517426D01*
X99065000Y-137794665D01*
X99065000Y-138077335D01*
X99120147Y-138354574D01*
X99228320Y-138615727D01*
X99385363Y-138850759D01*
X99585241Y-139050637D01*
X99817759Y-139206000D01*
X99585241Y-139361363D01*
X99385363Y-139561241D01*
X99228320Y-139796273D01*
X99120147Y-140057426D01*
X99065000Y-140334665D01*
X99065000Y-140617335D01*
X99120147Y-140894574D01*
X99228320Y-141155727D01*
X99385363Y-141390759D01*
X99585241Y-141590637D01*
X99817759Y-141746000D01*
X99585241Y-141901363D01*
X99385363Y-142101241D01*
X99228320Y-142336273D01*
X99120147Y-142597426D01*
X99065000Y-142874665D01*
X99065000Y-143157335D01*
X99120147Y-143434574D01*
X99228320Y-143695727D01*
X99385363Y-143930759D01*
X99585241Y-144130637D01*
X99817759Y-144286000D01*
X99585241Y-144441363D01*
X99385363Y-144641241D01*
X99228320Y-144876273D01*
X99120147Y-145137426D01*
X99065000Y-145414665D01*
X99065000Y-145697335D01*
X99120147Y-145974574D01*
X99228320Y-146235727D01*
X99385363Y-146470759D01*
X99585241Y-146670637D01*
X99820273Y-146827680D01*
X100081426Y-146935853D01*
X100358665Y-146991000D01*
X100641335Y-146991000D01*
X100918574Y-146935853D01*
X101179727Y-146827680D01*
X101414759Y-146670637D01*
X101614637Y-146470759D01*
X101771680Y-146235727D01*
X101879853Y-145974574D01*
X101935000Y-145697335D01*
X101935000Y-145414665D01*
X101879853Y-145137426D01*
X101771680Y-144876273D01*
X101614637Y-144641241D01*
X101414759Y-144441363D01*
X101182241Y-144286000D01*
X101414759Y-144130637D01*
X101614637Y-143930759D01*
X101771680Y-143695727D01*
X101879853Y-143434574D01*
X101935000Y-143157335D01*
X101935000Y-142874665D01*
X101879853Y-142597426D01*
X101771680Y-142336273D01*
X101614637Y-142101241D01*
X101414759Y-141901363D01*
X101182241Y-141746000D01*
X101414759Y-141590637D01*
X101614637Y-141390759D01*
X101771680Y-141155727D01*
X101879853Y-140894574D01*
X101935000Y-140617335D01*
X101935000Y-140334665D01*
X101879853Y-140057426D01*
X101771680Y-139796273D01*
X101614637Y-139561241D01*
X101414759Y-139361363D01*
X101182241Y-139206000D01*
X101414759Y-139050637D01*
X101614637Y-138850759D01*
X101771680Y-138615727D01*
X101879853Y-138354574D01*
X101935000Y-138077335D01*
X101935000Y-137794665D01*
X101879853Y-137517426D01*
X101771680Y-137256273D01*
X101614637Y-137021241D01*
X101414759Y-136821363D01*
X101195711Y-136675000D01*
X106571447Y-136675000D01*
X106610000Y-136678797D01*
X106642508Y-136675595D01*
X106596000Y-136909408D01*
X106596000Y-137184592D01*
X106649686Y-137454490D01*
X106754995Y-137708727D01*
X106907880Y-137937535D01*
X107102465Y-138132120D01*
X107331273Y-138285005D01*
X107408515Y-138317000D01*
X107331273Y-138348995D01*
X107102465Y-138501880D01*
X106907880Y-138696465D01*
X106754995Y-138925273D01*
X106649686Y-139179510D01*
X106596000Y-139449408D01*
X106596000Y-139724592D01*
X106649686Y-139994490D01*
X106754995Y-140248727D01*
X106907880Y-140477535D01*
X107102465Y-140672120D01*
X107331273Y-140825005D01*
X107408515Y-140857000D01*
X107331273Y-140888995D01*
X107102465Y-141041880D01*
X106907880Y-141236465D01*
X106754995Y-141465273D01*
X106649686Y-141719510D01*
X106596000Y-141989408D01*
X106596000Y-142264592D01*
X106649686Y-142534490D01*
X106754995Y-142788727D01*
X106907880Y-143017535D01*
X107102465Y-143212120D01*
X107331273Y-143365005D01*
X107408515Y-143397000D01*
X107331273Y-143428995D01*
X107102465Y-143581880D01*
X106907880Y-143776465D01*
X106754995Y-144005273D01*
X106649686Y-144259510D01*
X106596000Y-144529408D01*
X106596000Y-144804592D01*
X106649686Y-145074490D01*
X106754995Y-145328727D01*
X106907880Y-145557535D01*
X107102465Y-145752120D01*
X107331273Y-145905005D01*
X107408515Y-145937000D01*
X107331273Y-145968995D01*
X107102465Y-146121880D01*
X106907880Y-146316465D01*
X106754995Y-146545273D01*
X106649686Y-146799510D01*
X106596000Y-147069408D01*
X106596000Y-147344592D01*
X106649686Y-147614490D01*
X106754995Y-147868727D01*
X106907880Y-148097535D01*
X107102465Y-148292120D01*
X107331273Y-148445005D01*
X107408515Y-148477000D01*
X107331273Y-148508995D01*
X107102465Y-148661880D01*
X106907880Y-148856465D01*
X106754995Y-149085273D01*
X106649686Y-149339510D01*
X106596000Y-149609408D01*
X106596000Y-149884592D01*
X106649686Y-150154490D01*
X106754995Y-150408727D01*
X106907880Y-150637535D01*
X107102465Y-150832120D01*
X107331273Y-150985005D01*
X107408515Y-151017000D01*
X107331273Y-151048995D01*
X107102465Y-151201880D01*
X106907880Y-151396465D01*
X106754995Y-151625273D01*
X106649686Y-151879510D01*
X106596000Y-152149408D01*
X106596000Y-152424592D01*
X106649686Y-152694490D01*
X106754995Y-152948727D01*
X106907880Y-153177535D01*
X107102465Y-153372120D01*
X107331273Y-153525005D01*
X107408515Y-153557000D01*
X107331273Y-153588995D01*
X107102465Y-153741880D01*
X106907880Y-153936465D01*
X106754995Y-154165273D01*
X106649686Y-154419510D01*
X106596000Y-154689408D01*
X106596000Y-154964592D01*
X106649686Y-155234490D01*
X106754995Y-155488727D01*
X106907880Y-155717535D01*
X107102465Y-155912120D01*
X107331273Y-156065005D01*
X107408515Y-156097000D01*
X107331273Y-156128995D01*
X107102465Y-156281880D01*
X107052345Y-156332000D01*
X105725711Y-156332000D01*
X102367807Y-152974097D01*
X102335396Y-152934604D01*
X102177797Y-152805266D01*
X101997993Y-152709159D01*
X101802895Y-152649976D01*
X101650838Y-152635000D01*
X101650828Y-152635000D01*
X101600000Y-152629994D01*
X101549172Y-152635000D01*
X91868711Y-152635000D01*
X91205000Y-151971290D01*
X91205000Y-149786000D01*
X91391928Y-149786000D01*
X91391928Y-151486000D01*
X91404188Y-151610482D01*
X91440498Y-151730180D01*
X91499463Y-151840494D01*
X91578815Y-151937185D01*
X91675506Y-152016537D01*
X91785820Y-152075502D01*
X91905518Y-152111812D01*
X92030000Y-152124072D01*
X93730000Y-152124072D01*
X93854482Y-152111812D01*
X93974180Y-152075502D01*
X94084494Y-152016537D01*
X94181185Y-151937185D01*
X94260537Y-151840494D01*
X94319502Y-151730180D01*
X94343966Y-151649534D01*
X94419731Y-151733588D01*
X94653080Y-151907641D01*
X94915901Y-152032825D01*
X95063110Y-152077476D01*
X95293000Y-151956155D01*
X95293000Y-150763000D01*
X95273000Y-150763000D01*
X95273000Y-150509000D01*
X95293000Y-150509000D01*
X95293000Y-149315845D01*
X95547000Y-149315845D01*
X95547000Y-150509000D01*
X95567000Y-150509000D01*
X95567000Y-150763000D01*
X95547000Y-150763000D01*
X95547000Y-151956155D01*
X95776890Y-152077476D01*
X95924099Y-152032825D01*
X96186920Y-151907641D01*
X96420269Y-151733588D01*
X96615178Y-151517355D01*
X96684805Y-151400466D01*
X96806525Y-151582632D01*
X97013368Y-151789475D01*
X97256589Y-151951990D01*
X97526842Y-152063932D01*
X97813740Y-152121000D01*
X98106260Y-152121000D01*
X98393158Y-152063932D01*
X98663411Y-151951990D01*
X98906632Y-151789475D01*
X99113475Y-151582632D01*
X99230000Y-151408240D01*
X99346525Y-151582632D01*
X99553368Y-151789475D01*
X99796589Y-151951990D01*
X100066842Y-152063932D01*
X100353740Y-152121000D01*
X100646260Y-152121000D01*
X100933158Y-152063932D01*
X101203411Y-151951990D01*
X101446632Y-151789475D01*
X101653475Y-151582632D01*
X101815990Y-151339411D01*
X101927932Y-151069158D01*
X101985000Y-150782260D01*
X101985000Y-150489740D01*
X101927932Y-150202842D01*
X101815990Y-149932589D01*
X101653475Y-149689368D01*
X101446632Y-149482525D01*
X101203411Y-149320010D01*
X100933158Y-149208068D01*
X100646260Y-149151000D01*
X100353740Y-149151000D01*
X100066842Y-149208068D01*
X99796589Y-149320010D01*
X99553368Y-149482525D01*
X99346525Y-149689368D01*
X99230000Y-149863760D01*
X99113475Y-149689368D01*
X98906632Y-149482525D01*
X98663411Y-149320010D01*
X98393158Y-149208068D01*
X98106260Y-149151000D01*
X97813740Y-149151000D01*
X97526842Y-149208068D01*
X97256589Y-149320010D01*
X97013368Y-149482525D01*
X96806525Y-149689368D01*
X96684805Y-149871534D01*
X96615178Y-149754645D01*
X96420269Y-149538412D01*
X96186920Y-149364359D01*
X95924099Y-149239175D01*
X95776890Y-149194524D01*
X95547000Y-149315845D01*
X95293000Y-149315845D01*
X95063110Y-149194524D01*
X94915901Y-149239175D01*
X94653080Y-149364359D01*
X94419731Y-149538412D01*
X94343966Y-149622466D01*
X94319502Y-149541820D01*
X94260537Y-149431506D01*
X94181185Y-149334815D01*
X94084494Y-149255463D01*
X93974180Y-149196498D01*
X93854482Y-149160188D01*
X93730000Y-149147928D01*
X92030000Y-149147928D01*
X91905518Y-149160188D01*
X91785820Y-149196498D01*
X91675506Y-149255463D01*
X91578815Y-149334815D01*
X91499463Y-149431506D01*
X91440498Y-149541820D01*
X91404188Y-149661518D01*
X91391928Y-149786000D01*
X91205000Y-149786000D01*
X91205000Y-149148827D01*
X91210006Y-149097999D01*
X91205000Y-149047171D01*
X91205000Y-149047162D01*
X91190024Y-148895105D01*
X91130841Y-148700007D01*
X91039521Y-148529158D01*
X91034734Y-148520202D01*
X90937803Y-148402092D01*
X90905396Y-148362604D01*
X90865908Y-148330197D01*
X88494634Y-145958924D01*
X88499941Y-145905039D01*
X91488096Y-145905039D01*
X91528754Y-146039087D01*
X91648963Y-146293420D01*
X91816481Y-146519414D01*
X92024869Y-146708385D01*
X92266119Y-146853070D01*
X92530960Y-146947909D01*
X92753000Y-146826624D01*
X92753000Y-145683000D01*
X93007000Y-145683000D01*
X93007000Y-146826624D01*
X93229040Y-146947909D01*
X93493881Y-146853070D01*
X93735131Y-146708385D01*
X93943519Y-146519414D01*
X94111037Y-146293420D01*
X94231246Y-146039087D01*
X94271904Y-145905039D01*
X94149915Y-145683000D01*
X93007000Y-145683000D01*
X92753000Y-145683000D01*
X91610085Y-145683000D01*
X91488096Y-145905039D01*
X88499941Y-145905039D01*
X88510681Y-145796000D01*
X88480030Y-145484796D01*
X88389255Y-145185551D01*
X88241845Y-144909765D01*
X88043463Y-144668037D01*
X87801735Y-144469655D01*
X87525949Y-144322245D01*
X87226704Y-144231470D01*
X86993486Y-144208500D01*
X86742514Y-144208500D01*
X86509296Y-144231470D01*
X86210051Y-144322245D01*
X85934265Y-144469655D01*
X85692537Y-144668037D01*
X85494155Y-144909765D01*
X85346745Y-145185551D01*
X85255970Y-145484796D01*
X85225319Y-145796000D01*
X85255970Y-146107204D01*
X85346745Y-146406449D01*
X85494155Y-146682235D01*
X85692537Y-146923963D01*
X85871899Y-147071163D01*
X85686685Y-147226563D01*
X85492031Y-147469077D01*
X85348429Y-147744906D01*
X85277437Y-147963020D01*
X85397406Y-148209000D01*
X86741000Y-148209000D01*
X86741000Y-148189000D01*
X86995000Y-148189000D01*
X86995000Y-148209000D01*
X87015000Y-148209000D01*
X87015000Y-148463000D01*
X86995000Y-148463000D01*
X86995000Y-148483000D01*
X86741000Y-148483000D01*
X86741000Y-148463000D01*
X85397406Y-148463000D01*
X85277437Y-148708980D01*
X85348429Y-148927094D01*
X85492031Y-149202923D01*
X85605219Y-149343941D01*
X85513506Y-149392963D01*
X85416815Y-149472315D01*
X85337463Y-149569006D01*
X85278498Y-149679320D01*
X85242188Y-149799018D01*
X85229928Y-149923500D01*
X85229928Y-151828500D01*
X85242188Y-151952982D01*
X85278498Y-152072680D01*
X85337463Y-152182994D01*
X85416815Y-152279685D01*
X85513506Y-152359037D01*
X85623820Y-152418002D01*
X85743518Y-152454312D01*
X85868000Y-152466572D01*
X87868000Y-152466572D01*
X87992482Y-152454312D01*
X88112180Y-152418002D01*
X88222494Y-152359037D01*
X88319185Y-152279685D01*
X88398537Y-152182994D01*
X88457502Y-152072680D01*
X88493812Y-151952982D01*
X88506072Y-151828500D01*
X88506072Y-149923500D01*
X88493812Y-149799018D01*
X88457502Y-149679320D01*
X88398537Y-149569006D01*
X88319185Y-149472315D01*
X88222494Y-149392963D01*
X88130781Y-149343941D01*
X88243969Y-149202923D01*
X88387571Y-148927094D01*
X88423867Y-148815578D01*
X89135000Y-149526711D01*
X89135001Y-152349162D01*
X89129994Y-152400000D01*
X89149977Y-152602895D01*
X89209160Y-152797993D01*
X89305266Y-152977797D01*
X89399157Y-153092203D01*
X89434605Y-153135396D01*
X89474092Y-153167802D01*
X90672196Y-154365907D01*
X90704604Y-154405396D01*
X90744092Y-154437803D01*
X90862202Y-154534734D01*
X90914196Y-154562525D01*
X91042007Y-154630841D01*
X91237105Y-154690024D01*
X91389162Y-154705000D01*
X91389171Y-154705000D01*
X91439999Y-154710006D01*
X91490827Y-154705000D01*
X101171290Y-154705000D01*
X104529197Y-158062908D01*
X104561604Y-158102396D01*
X104601092Y-158134803D01*
X104719202Y-158231734D01*
X104899006Y-158327841D01*
X104944415Y-158341615D01*
X105094105Y-158387024D01*
X105246162Y-158402000D01*
X105246165Y-158402000D01*
X105297000Y-158407007D01*
X105347835Y-158402000D01*
X107052345Y-158402000D01*
X107102465Y-158452120D01*
X107331273Y-158605005D01*
X107402943Y-158634692D01*
X107389977Y-158639364D01*
X107274020Y-158701344D01*
X107207040Y-158941435D01*
X107993000Y-159727395D01*
X108778960Y-158941435D01*
X108711980Y-158701344D01*
X108576240Y-158637515D01*
X108654727Y-158605005D01*
X108883535Y-158452120D01*
X109078120Y-158257535D01*
X109231005Y-158028727D01*
X109336314Y-157774490D01*
X109390000Y-157504592D01*
X109390000Y-157229408D01*
X109336314Y-156959510D01*
X109231005Y-156705273D01*
X109078120Y-156476465D01*
X108883535Y-156281880D01*
X108654727Y-156128995D01*
X108577485Y-156097000D01*
X108654727Y-156065005D01*
X108883535Y-155912120D01*
X109078120Y-155717535D01*
X109231005Y-155488727D01*
X109336314Y-155234490D01*
X109390000Y-154964592D01*
X109390000Y-154689408D01*
X109336314Y-154419510D01*
X109231005Y-154165273D01*
X109078120Y-153936465D01*
X108883535Y-153741880D01*
X108654727Y-153588995D01*
X108577485Y-153557000D01*
X108654727Y-153525005D01*
X108883535Y-153372120D01*
X109078120Y-153177535D01*
X109231005Y-152948727D01*
X109336314Y-152694490D01*
X109390000Y-152424592D01*
X109390000Y-152149408D01*
X109336314Y-151879510D01*
X109231005Y-151625273D01*
X109078120Y-151396465D01*
X108883535Y-151201880D01*
X108654727Y-151048995D01*
X108577485Y-151017000D01*
X108654727Y-150985005D01*
X108883535Y-150832120D01*
X109078120Y-150637535D01*
X109231005Y-150408727D01*
X109336314Y-150154490D01*
X109390000Y-149884592D01*
X109390000Y-149609408D01*
X109336314Y-149339510D01*
X109231005Y-149085273D01*
X109078120Y-148856465D01*
X108883535Y-148661880D01*
X108654727Y-148508995D01*
X108577485Y-148477000D01*
X108654727Y-148445005D01*
X108883535Y-148292120D01*
X109078120Y-148097535D01*
X109231005Y-147868727D01*
X109336314Y-147614490D01*
X109390000Y-147344592D01*
X109390000Y-147069408D01*
X109336314Y-146799510D01*
X109231005Y-146545273D01*
X109078120Y-146316465D01*
X108883535Y-146121880D01*
X108654727Y-145968995D01*
X108577485Y-145937000D01*
X108654727Y-145905005D01*
X108883535Y-145752120D01*
X109078120Y-145557535D01*
X109231005Y-145328727D01*
X109336314Y-145074490D01*
X109390000Y-144804592D01*
X109390000Y-144529408D01*
X109336314Y-144259510D01*
X109231005Y-144005273D01*
X109078120Y-143776465D01*
X108883535Y-143581880D01*
X108654727Y-143428995D01*
X108577485Y-143397000D01*
X108654727Y-143365005D01*
X108883535Y-143212120D01*
X109078120Y-143017535D01*
X109231005Y-142788727D01*
X109336314Y-142534490D01*
X109390000Y-142264592D01*
X109390000Y-141989408D01*
X109336314Y-141719510D01*
X109231005Y-141465273D01*
X109078120Y-141236465D01*
X108883535Y-141041880D01*
X108654727Y-140888995D01*
X108577485Y-140857000D01*
X108654727Y-140825005D01*
X108883535Y-140672120D01*
X109078120Y-140477535D01*
X109231005Y-140248727D01*
X109336314Y-139994490D01*
X109390000Y-139724592D01*
X109390000Y-139449408D01*
X109336314Y-139179510D01*
X109231005Y-138925273D01*
X109078120Y-138696465D01*
X108883535Y-138501880D01*
X108654727Y-138348995D01*
X108577485Y-138317000D01*
X108654727Y-138285005D01*
X108883535Y-138132120D01*
X109078120Y-137937535D01*
X109231005Y-137708727D01*
X109336314Y-137454490D01*
X109390000Y-137184592D01*
X109390000Y-136909408D01*
X109336314Y-136639510D01*
X109231005Y-136385273D01*
X109078120Y-136156465D01*
X108883535Y-135961880D01*
X108654727Y-135808995D01*
X108577485Y-135777000D01*
X108654727Y-135745005D01*
X108883535Y-135592120D01*
X109078120Y-135397535D01*
X109231005Y-135168727D01*
X109336314Y-134914490D01*
X109390000Y-134644592D01*
X109390000Y-134369408D01*
X109336314Y-134099510D01*
X109231005Y-133845273D01*
X109078120Y-133616465D01*
X108883535Y-133421880D01*
X108654727Y-133268995D01*
X108577485Y-133237000D01*
X108654727Y-133205005D01*
X108883535Y-133052120D01*
X109078120Y-132857535D01*
X109231005Y-132628727D01*
X109336314Y-132374490D01*
X109390000Y-132104592D01*
X109390000Y-131829408D01*
X109336314Y-131559510D01*
X109231005Y-131305273D01*
X109078120Y-131076465D01*
X108883535Y-130881880D01*
X108654727Y-130728995D01*
X108577485Y-130697000D01*
X108654727Y-130665005D01*
X108883535Y-130512120D01*
X109078120Y-130317535D01*
X109231005Y-130088727D01*
X109336314Y-129834490D01*
X109390000Y-129564592D01*
X109390000Y-129289408D01*
X109336314Y-129019510D01*
X109231005Y-128765273D01*
X109078120Y-128536465D01*
X108883535Y-128341880D01*
X108654727Y-128188995D01*
X108577485Y-128157000D01*
X108654727Y-128125005D01*
X108883535Y-127972120D01*
X109078120Y-127777535D01*
X109231005Y-127548727D01*
X109336314Y-127294490D01*
X109390000Y-127024592D01*
X109390000Y-126749408D01*
X109336314Y-126479510D01*
X109231005Y-126225273D01*
X109078120Y-125996465D01*
X108883535Y-125801880D01*
X108654727Y-125648995D01*
X108604189Y-125628061D01*
X113265000Y-125628061D01*
X113265000Y-125831939D01*
X113304774Y-126031898D01*
X113382795Y-126220256D01*
X113496063Y-126389774D01*
X113515000Y-126408711D01*
X113515001Y-137121437D01*
X113511203Y-137160000D01*
X113526359Y-137313886D01*
X113571246Y-137461859D01*
X113571247Y-137461860D01*
X113644139Y-137598233D01*
X113656127Y-137612840D01*
X113717655Y-137687812D01*
X113717659Y-137687816D01*
X113742237Y-137717764D01*
X113772185Y-137742342D01*
X114535000Y-138505158D01*
X114535000Y-138531939D01*
X114574774Y-138731898D01*
X114652795Y-138920256D01*
X114766063Y-139089774D01*
X114910226Y-139233937D01*
X115079744Y-139347205D01*
X115268102Y-139425226D01*
X115468061Y-139465000D01*
X115671939Y-139465000D01*
X115871898Y-139425226D01*
X116060256Y-139347205D01*
X116229774Y-139233937D01*
X116373937Y-139089774D01*
X116487205Y-138920256D01*
X116565226Y-138731898D01*
X116605000Y-138531939D01*
X116605000Y-138328061D01*
X116565226Y-138128102D01*
X116487205Y-137939744D01*
X116373937Y-137770226D01*
X116229774Y-137626063D01*
X116060256Y-137512795D01*
X115871898Y-137434774D01*
X115671939Y-137395000D01*
X115645158Y-137395000D01*
X115085000Y-136834843D01*
X115085000Y-126408711D01*
X115103937Y-126389774D01*
X115217205Y-126220256D01*
X115295226Y-126031898D01*
X115335000Y-125831939D01*
X115335000Y-125628061D01*
X115295226Y-125428102D01*
X115217205Y-125239744D01*
X115103937Y-125070226D01*
X114959774Y-124926063D01*
X114790256Y-124812795D01*
X114601898Y-124734774D01*
X114401939Y-124695000D01*
X114198061Y-124695000D01*
X113998102Y-124734774D01*
X113809744Y-124812795D01*
X113640226Y-124926063D01*
X113496063Y-125070226D01*
X113382795Y-125239744D01*
X113304774Y-125428102D01*
X113265000Y-125628061D01*
X108604189Y-125628061D01*
X108577485Y-125617000D01*
X108654727Y-125585005D01*
X108883535Y-125432120D01*
X109078120Y-125237535D01*
X109231005Y-125008727D01*
X109336314Y-124754490D01*
X109390000Y-124484592D01*
X109390000Y-124209408D01*
X109336314Y-123939510D01*
X109231005Y-123685273D01*
X109078120Y-123456465D01*
X108883535Y-123261880D01*
X108654727Y-123108995D01*
X108577485Y-123077000D01*
X108654727Y-123045005D01*
X108883535Y-122892120D01*
X109078120Y-122697535D01*
X109231005Y-122468727D01*
X109336314Y-122214490D01*
X109390000Y-121944592D01*
X109390000Y-121669408D01*
X109336314Y-121399510D01*
X109231005Y-121145273D01*
X109078120Y-120916465D01*
X108883535Y-120721880D01*
X108662408Y-120574127D01*
X108721754Y-120463098D01*
X108722849Y-120459487D01*
X108883535Y-120352120D01*
X109078120Y-120157535D01*
X109231005Y-119928727D01*
X109336314Y-119674490D01*
X109390000Y-119404592D01*
X109390000Y-119129408D01*
X109336314Y-118859510D01*
X109231005Y-118605273D01*
X109078120Y-118376465D01*
X108883535Y-118181880D01*
X108654727Y-118028995D01*
X108577485Y-117997000D01*
X108654727Y-117965005D01*
X108883535Y-117812120D01*
X109078120Y-117617535D01*
X109231005Y-117388727D01*
X109336314Y-117134490D01*
X109390000Y-116864592D01*
X109390000Y-116589408D01*
X109336314Y-116319510D01*
X109231005Y-116065273D01*
X109078120Y-115836465D01*
X108883535Y-115641880D01*
X108654727Y-115488995D01*
X108577485Y-115457000D01*
X108654727Y-115425005D01*
X108883535Y-115272120D01*
X109078120Y-115077535D01*
X109214714Y-114873109D01*
X121756415Y-127414810D01*
X121780998Y-127444764D01*
X121900529Y-127542862D01*
X122015039Y-127604068D01*
X122036902Y-127615754D01*
X122040513Y-127616849D01*
X122147880Y-127777535D01*
X122342465Y-127972120D01*
X122571273Y-128125005D01*
X122648515Y-128157000D01*
X122571273Y-128188995D01*
X122342465Y-128341880D01*
X122147880Y-128536465D01*
X121994995Y-128765273D01*
X121889686Y-129019510D01*
X121836000Y-129289408D01*
X121836000Y-129564592D01*
X121889686Y-129834490D01*
X121994995Y-130088727D01*
X122147880Y-130317535D01*
X122342465Y-130512120D01*
X122571273Y-130665005D01*
X122648515Y-130697000D01*
X122571273Y-130728995D01*
X122342465Y-130881880D01*
X122147880Y-131076465D01*
X121994995Y-131305273D01*
X121889686Y-131559510D01*
X121836000Y-131829408D01*
X121836000Y-132104592D01*
X121889686Y-132374490D01*
X121994995Y-132628727D01*
X122147880Y-132857535D01*
X122342465Y-133052120D01*
X122571273Y-133205005D01*
X122648515Y-133237000D01*
X122571273Y-133268995D01*
X122342465Y-133421880D01*
X122147880Y-133616465D01*
X121994995Y-133845273D01*
X121889686Y-134099510D01*
X121836000Y-134369408D01*
X121836000Y-134644592D01*
X121889686Y-134914490D01*
X121994995Y-135168727D01*
X122147880Y-135397535D01*
X122342465Y-135592120D01*
X122571273Y-135745005D01*
X122648515Y-135777000D01*
X122571273Y-135808995D01*
X122342465Y-135961880D01*
X122147880Y-136156465D01*
X122077364Y-136262000D01*
X119531552Y-136262000D01*
X119492999Y-136258203D01*
X119454446Y-136262000D01*
X119454439Y-136262000D01*
X119353490Y-136271943D01*
X119339112Y-136273359D01*
X119304672Y-136283806D01*
X119191140Y-136318246D01*
X119054767Y-136391138D01*
X119005896Y-136431246D01*
X118965187Y-136464655D01*
X118965184Y-136464658D01*
X118935236Y-136489236D01*
X118910658Y-136519184D01*
X117582190Y-137847653D01*
X117552236Y-137872236D01*
X117454138Y-137991768D01*
X117381246Y-138128141D01*
X117336359Y-138276114D01*
X117325000Y-138391440D01*
X117325000Y-138391447D01*
X117321203Y-138430000D01*
X117325000Y-138468553D01*
X117325001Y-149821437D01*
X117321203Y-149860000D01*
X117336359Y-150013886D01*
X117381246Y-150161859D01*
X117381247Y-150161860D01*
X117454139Y-150298233D01*
X117483608Y-150334140D01*
X117527655Y-150387812D01*
X117527659Y-150387816D01*
X117552237Y-150417764D01*
X117582185Y-150442342D01*
X118797658Y-151657815D01*
X118822236Y-151687764D01*
X118852184Y-151712342D01*
X118852187Y-151712345D01*
X118873919Y-151730180D01*
X118941767Y-151785862D01*
X119078140Y-151858754D01*
X119191672Y-151893194D01*
X119226112Y-151903641D01*
X119240490Y-151905057D01*
X119341439Y-151915000D01*
X119341446Y-151915000D01*
X119379999Y-151918797D01*
X119418552Y-151915000D01*
X121882627Y-151915000D01*
X121836000Y-152149408D01*
X121836000Y-152424592D01*
X121889686Y-152694490D01*
X121994995Y-152948727D01*
X122147880Y-153177535D01*
X122342465Y-153372120D01*
X122571273Y-153525005D01*
X122648515Y-153557000D01*
X122571273Y-153588995D01*
X122342465Y-153741880D01*
X122147880Y-153936465D01*
X121994995Y-154165273D01*
X121889686Y-154419510D01*
X121836000Y-154689408D01*
X121836000Y-154964592D01*
X121889686Y-155234490D01*
X121994995Y-155488727D01*
X122147880Y-155717535D01*
X122342465Y-155912120D01*
X122571273Y-156065005D01*
X122648515Y-156097000D01*
X122571273Y-156128995D01*
X122342465Y-156281880D01*
X122147880Y-156476465D01*
X121994995Y-156705273D01*
X121889686Y-156959510D01*
X121836000Y-157229408D01*
X121836000Y-157504592D01*
X121889686Y-157774490D01*
X121994995Y-158028727D01*
X122147880Y-158257535D01*
X122342465Y-158452120D01*
X122571273Y-158605005D01*
X122648515Y-158637000D01*
X122571273Y-158668995D01*
X122342465Y-158821880D01*
X122147880Y-159016465D01*
X121994995Y-159245273D01*
X121889686Y-159499510D01*
X121836000Y-159769408D01*
X121836000Y-160044592D01*
X121889686Y-160314490D01*
X121994995Y-160568727D01*
X122147880Y-160797535D01*
X122342465Y-160992120D01*
X122571273Y-161145005D01*
X122648515Y-161177000D01*
X122571273Y-161208995D01*
X122342465Y-161361880D01*
X122147880Y-161556465D01*
X121994995Y-161785273D01*
X121889686Y-162039510D01*
X121836000Y-162309408D01*
X121836000Y-162584592D01*
X121889686Y-162854490D01*
X121994995Y-163108727D01*
X122147880Y-163337535D01*
X122342465Y-163532120D01*
X122571273Y-163685005D01*
X122825510Y-163790314D01*
X123095408Y-163844000D01*
X123370592Y-163844000D01*
X123640490Y-163790314D01*
X123894727Y-163685005D01*
X124123535Y-163532120D01*
X124318120Y-163337535D01*
X124471005Y-163108727D01*
X124576314Y-162854490D01*
X124630000Y-162584592D01*
X124630000Y-162309408D01*
X124576314Y-162039510D01*
X124471005Y-161785273D01*
X124318120Y-161556465D01*
X124123535Y-161361880D01*
X123894727Y-161208995D01*
X123817485Y-161177000D01*
X123894727Y-161145005D01*
X124123535Y-160992120D01*
X124318120Y-160797535D01*
X124471005Y-160568727D01*
X124576314Y-160314490D01*
X124630000Y-160044592D01*
X124630000Y-159769408D01*
X124576314Y-159499510D01*
X124471005Y-159245273D01*
X124318120Y-159016465D01*
X124123535Y-158821880D01*
X123894727Y-158668995D01*
X123817485Y-158637000D01*
X123894727Y-158605005D01*
X124123535Y-158452120D01*
X124318120Y-158257535D01*
X124471005Y-158028727D01*
X124576314Y-157774490D01*
X124630000Y-157504592D01*
X124630000Y-157229408D01*
X124576314Y-156959510D01*
X124471005Y-156705273D01*
X124318120Y-156476465D01*
X124123535Y-156281880D01*
X123894727Y-156128995D01*
X123817485Y-156097000D01*
X123894727Y-156065005D01*
X124123535Y-155912120D01*
X124318120Y-155717535D01*
X124471005Y-155488727D01*
X124576314Y-155234490D01*
X124630000Y-154964592D01*
X124630000Y-154689408D01*
X124576314Y-154419510D01*
X124471005Y-154165273D01*
X124318120Y-153936465D01*
X124123535Y-153741880D01*
X123894727Y-153588995D01*
X123817485Y-153557000D01*
X123894727Y-153525005D01*
X124123535Y-153372120D01*
X124318120Y-153177535D01*
X124471005Y-152948727D01*
X124576314Y-152694490D01*
X124630000Y-152424592D01*
X124630000Y-152149408D01*
X124583373Y-151915000D01*
X128184843Y-151915000D01*
X129108925Y-152839082D01*
X129071000Y-153029740D01*
X129071000Y-153322260D01*
X129128068Y-153609158D01*
X129240010Y-153879411D01*
X129402525Y-154122632D01*
X129609368Y-154329475D01*
X129783760Y-154446000D01*
X129609368Y-154562525D01*
X129402525Y-154769368D01*
X129240010Y-155012589D01*
X129128068Y-155282842D01*
X129071000Y-155569740D01*
X129071000Y-155862260D01*
X129128068Y-156149158D01*
X129240010Y-156419411D01*
X129402525Y-156662632D01*
X129609368Y-156869475D01*
X129783760Y-156986000D01*
X129609368Y-157102525D01*
X129402525Y-157309368D01*
X129240010Y-157552589D01*
X129128068Y-157822842D01*
X129071000Y-158109740D01*
X129071000Y-158402260D01*
X129128068Y-158689158D01*
X129240010Y-158959411D01*
X129402525Y-159202632D01*
X129609368Y-159409475D01*
X129783760Y-159526000D01*
X129609368Y-159642525D01*
X129402525Y-159849368D01*
X129240010Y-160092589D01*
X129128068Y-160362842D01*
X129071000Y-160649740D01*
X129071000Y-160942260D01*
X129128068Y-161229158D01*
X129240010Y-161499411D01*
X129402525Y-161742632D01*
X129609368Y-161949475D01*
X129783760Y-162066000D01*
X129609368Y-162182525D01*
X129402525Y-162389368D01*
X129240010Y-162632589D01*
X129128068Y-162902842D01*
X129071000Y-163189740D01*
X129071000Y-163482260D01*
X129128068Y-163769158D01*
X129240010Y-164039411D01*
X129402525Y-164282632D01*
X129609368Y-164489475D01*
X129852589Y-164651990D01*
X130122842Y-164763932D01*
X130409740Y-164821000D01*
X130702260Y-164821000D01*
X130989158Y-164763932D01*
X131259411Y-164651990D01*
X131502632Y-164489475D01*
X131709475Y-164282632D01*
X131871990Y-164039411D01*
X131983932Y-163769158D01*
X132041000Y-163482260D01*
X132041000Y-163189740D01*
X131983932Y-162902842D01*
X131871990Y-162632589D01*
X131709475Y-162389368D01*
X131502632Y-162182525D01*
X131328240Y-162066000D01*
X131502632Y-161949475D01*
X131709475Y-161742632D01*
X131871990Y-161499411D01*
X131983932Y-161229158D01*
X132041000Y-160942260D01*
X132041000Y-160649740D01*
X131983932Y-160362842D01*
X131871990Y-160092589D01*
X131709475Y-159849368D01*
X131502632Y-159642525D01*
X131328240Y-159526000D01*
X131502632Y-159409475D01*
X131709475Y-159202632D01*
X131871990Y-158959411D01*
X131983932Y-158689158D01*
X132041000Y-158402260D01*
X132041000Y-158109740D01*
X131983932Y-157822842D01*
X131871990Y-157552589D01*
X131709475Y-157309368D01*
X131502632Y-157102525D01*
X131328240Y-156986000D01*
X131502632Y-156869475D01*
X131709475Y-156662632D01*
X131817474Y-156501000D01*
X132535447Y-156501000D01*
X132574000Y-156504797D01*
X132612553Y-156501000D01*
X132612561Y-156501000D01*
X132727887Y-156489641D01*
X132875860Y-156444754D01*
X133012233Y-156371862D01*
X133131764Y-156273764D01*
X133156347Y-156243810D01*
X133877810Y-155522347D01*
X133907764Y-155497764D01*
X134005862Y-155378233D01*
X134078754Y-155241860D01*
X134080990Y-155234490D01*
X134123642Y-155093887D01*
X134131648Y-155012589D01*
X134135000Y-154978561D01*
X134135000Y-154978556D01*
X134138797Y-154940000D01*
X134135000Y-154901444D01*
X134135000Y-130848552D01*
X134138797Y-130809999D01*
X134135000Y-130771446D01*
X134135000Y-130771439D01*
X134123641Y-130656113D01*
X134078754Y-130508140D01*
X134005862Y-130371767D01*
X133956450Y-130311559D01*
X133932345Y-130282187D01*
X133932342Y-130282184D01*
X133907764Y-130252236D01*
X133877817Y-130227659D01*
X132549347Y-128899190D01*
X132524764Y-128869236D01*
X132405233Y-128771138D01*
X132268860Y-128698246D01*
X132120887Y-128653359D01*
X132005561Y-128642000D01*
X132005553Y-128642000D01*
X131967000Y-128638203D01*
X131928447Y-128642000D01*
X124388636Y-128642000D01*
X124318120Y-128536465D01*
X124123535Y-128341880D01*
X123894727Y-128188995D01*
X123817485Y-128157000D01*
X123894727Y-128125005D01*
X124123535Y-127972120D01*
X124318120Y-127777535D01*
X124471005Y-127548727D01*
X124576314Y-127294490D01*
X124630000Y-127024592D01*
X124630000Y-126749408D01*
X124576314Y-126479510D01*
X124471005Y-126225273D01*
X124318120Y-125996465D01*
X124123535Y-125801880D01*
X123894727Y-125648995D01*
X123817485Y-125617000D01*
X123894727Y-125585005D01*
X124123535Y-125432120D01*
X124318120Y-125237535D01*
X124471005Y-125008727D01*
X124576314Y-124754490D01*
X124630000Y-124484592D01*
X124630000Y-124209408D01*
X124576314Y-123939510D01*
X124471005Y-123685273D01*
X124318120Y-123456465D01*
X124123535Y-123261880D01*
X123894727Y-123108995D01*
X123817485Y-123077000D01*
X123894727Y-123045005D01*
X124123535Y-122892120D01*
X124318120Y-122697535D01*
X124471005Y-122468727D01*
X124576314Y-122214490D01*
X124630000Y-121944592D01*
X124630000Y-121669408D01*
X124576314Y-121399510D01*
X124471005Y-121145273D01*
X124318120Y-120916465D01*
X124123535Y-120721880D01*
X123894727Y-120568995D01*
X123817485Y-120537000D01*
X123894727Y-120505005D01*
X124123535Y-120352120D01*
X124318120Y-120157535D01*
X124471005Y-119928727D01*
X124576314Y-119674490D01*
X124630000Y-119404592D01*
X124630000Y-119129408D01*
X124576314Y-118859510D01*
X124471005Y-118605273D01*
X124391136Y-118485740D01*
X129071000Y-118485740D01*
X129071000Y-118778260D01*
X129128068Y-119065158D01*
X129240010Y-119335411D01*
X129402525Y-119578632D01*
X129609368Y-119785475D01*
X129783760Y-119902000D01*
X129609368Y-120018525D01*
X129402525Y-120225368D01*
X129240010Y-120468589D01*
X129128068Y-120738842D01*
X129071000Y-121025740D01*
X129071000Y-121318260D01*
X129128068Y-121605158D01*
X129240010Y-121875411D01*
X129402525Y-122118632D01*
X129609368Y-122325475D01*
X129852589Y-122487990D01*
X130122842Y-122599932D01*
X130409740Y-122657000D01*
X130702260Y-122657000D01*
X130989158Y-122599932D01*
X131259411Y-122487990D01*
X131502632Y-122325475D01*
X131709475Y-122118632D01*
X131871990Y-121875411D01*
X131983932Y-121605158D01*
X132041000Y-121318260D01*
X132041000Y-121025740D01*
X131983932Y-120738842D01*
X131871990Y-120468589D01*
X131709475Y-120225368D01*
X131502632Y-120018525D01*
X131328240Y-119902000D01*
X131502632Y-119785475D01*
X131709475Y-119578632D01*
X131871990Y-119335411D01*
X131983932Y-119065158D01*
X132041000Y-118778260D01*
X132041000Y-118485740D01*
X131983932Y-118198842D01*
X131871990Y-117928589D01*
X131709475Y-117685368D01*
X131502632Y-117478525D01*
X131320466Y-117356805D01*
X131437355Y-117287178D01*
X131653588Y-117092269D01*
X131827641Y-116858920D01*
X131952825Y-116596099D01*
X131997476Y-116448890D01*
X131876155Y-116219000D01*
X130683000Y-116219000D01*
X130683000Y-116239000D01*
X130429000Y-116239000D01*
X130429000Y-116219000D01*
X129235845Y-116219000D01*
X129114524Y-116448890D01*
X129159175Y-116596099D01*
X129284359Y-116858920D01*
X129458412Y-117092269D01*
X129674645Y-117287178D01*
X129791534Y-117356805D01*
X129609368Y-117478525D01*
X129402525Y-117685368D01*
X129240010Y-117928589D01*
X129128068Y-118198842D01*
X129071000Y-118485740D01*
X124391136Y-118485740D01*
X124318120Y-118376465D01*
X124123535Y-118181880D01*
X123894727Y-118028995D01*
X123823057Y-117999308D01*
X123836023Y-117994636D01*
X123951980Y-117932656D01*
X124018960Y-117692565D01*
X123233000Y-116906605D01*
X122447040Y-117692565D01*
X122514020Y-117932656D01*
X122649760Y-117996485D01*
X122571273Y-118028995D01*
X122342465Y-118181880D01*
X122147880Y-118376465D01*
X121994995Y-118605273D01*
X121889686Y-118859510D01*
X121836000Y-119129408D01*
X121836000Y-119404592D01*
X121889686Y-119674490D01*
X121994995Y-119928727D01*
X122147880Y-120157535D01*
X122342465Y-120352120D01*
X122571273Y-120505005D01*
X122648515Y-120537000D01*
X122571273Y-120568995D01*
X122342465Y-120721880D01*
X122147880Y-120916465D01*
X121994995Y-121145273D01*
X121889686Y-121399510D01*
X121836000Y-121669408D01*
X121836000Y-121839843D01*
X116795174Y-116799017D01*
X121831090Y-116799017D01*
X121872078Y-117071133D01*
X121965364Y-117330023D01*
X122027344Y-117445980D01*
X122267435Y-117512960D01*
X123053395Y-116727000D01*
X123412605Y-116727000D01*
X124198565Y-117512960D01*
X124438656Y-117445980D01*
X124555756Y-117196952D01*
X124622023Y-116929865D01*
X124634910Y-116654983D01*
X124593922Y-116382867D01*
X124500636Y-116123977D01*
X124438656Y-116008020D01*
X124198565Y-115941040D01*
X123412605Y-116727000D01*
X123053395Y-116727000D01*
X122267435Y-115941040D01*
X122027344Y-116008020D01*
X121910244Y-116257048D01*
X121843977Y-116524135D01*
X121831090Y-116799017D01*
X116795174Y-116799017D01*
X115148722Y-115152565D01*
X122447040Y-115152565D01*
X122514020Y-115392656D01*
X122644644Y-115454079D01*
X122629977Y-115459364D01*
X122514020Y-115521344D01*
X122447040Y-115761435D01*
X123233000Y-116547395D01*
X124018960Y-115761435D01*
X123951980Y-115521344D01*
X123821356Y-115459921D01*
X123836023Y-115454636D01*
X123951980Y-115392656D01*
X124018960Y-115152565D01*
X123233000Y-114366605D01*
X122447040Y-115152565D01*
X115148722Y-115152565D01*
X114255174Y-114259017D01*
X121831090Y-114259017D01*
X121872078Y-114531133D01*
X121965364Y-114790023D01*
X122027344Y-114905980D01*
X122267435Y-114972960D01*
X123053395Y-114187000D01*
X123412605Y-114187000D01*
X124198565Y-114972960D01*
X124438656Y-114905980D01*
X124555756Y-114656952D01*
X124622023Y-114389865D01*
X124634910Y-114114983D01*
X124593922Y-113842867D01*
X124500636Y-113583977D01*
X124438656Y-113468020D01*
X124198565Y-113401040D01*
X123412605Y-114187000D01*
X123053395Y-114187000D01*
X122267435Y-113401040D01*
X122027344Y-113468020D01*
X121910244Y-113717048D01*
X121843977Y-113984135D01*
X121831090Y-114259017D01*
X114255174Y-114259017D01*
X113217592Y-113221435D01*
X122447040Y-113221435D01*
X123233000Y-114007395D01*
X124018960Y-113221435D01*
X123951980Y-112981344D01*
X123702952Y-112864244D01*
X123435865Y-112797977D01*
X123160983Y-112785090D01*
X122888867Y-112826078D01*
X122629977Y-112919364D01*
X122514020Y-112981344D01*
X122447040Y-113221435D01*
X113217592Y-113221435D01*
X112698157Y-112702000D01*
X129067928Y-112702000D01*
X129067928Y-114402000D01*
X129080188Y-114526482D01*
X129116498Y-114646180D01*
X129175463Y-114756494D01*
X129254815Y-114853185D01*
X129351506Y-114932537D01*
X129461820Y-114991502D01*
X129542466Y-115015966D01*
X129458412Y-115091731D01*
X129284359Y-115325080D01*
X129159175Y-115587901D01*
X129114524Y-115735110D01*
X129235845Y-115965000D01*
X130429000Y-115965000D01*
X130429000Y-115945000D01*
X130683000Y-115945000D01*
X130683000Y-115965000D01*
X131876155Y-115965000D01*
X131997476Y-115735110D01*
X131952825Y-115587901D01*
X131827641Y-115325080D01*
X131653588Y-115091731D01*
X131569534Y-115015966D01*
X131650180Y-114991502D01*
X131760494Y-114932537D01*
X131857185Y-114853185D01*
X131936537Y-114756494D01*
X131995502Y-114646180D01*
X132031812Y-114526482D01*
X132044072Y-114402000D01*
X132044072Y-112702000D01*
X132031812Y-112577518D01*
X131995502Y-112457820D01*
X131936537Y-112347506D01*
X131857185Y-112250815D01*
X131760494Y-112171463D01*
X131650180Y-112112498D01*
X131530482Y-112076188D01*
X131406000Y-112063928D01*
X129706000Y-112063928D01*
X129581518Y-112076188D01*
X129461820Y-112112498D01*
X129351506Y-112171463D01*
X129254815Y-112250815D01*
X129175463Y-112347506D01*
X129116498Y-112457820D01*
X129080188Y-112577518D01*
X129067928Y-112702000D01*
X112698157Y-112702000D01*
X108688347Y-108692190D01*
X108663764Y-108662236D01*
X108544233Y-108564138D01*
X108407860Y-108491246D01*
X108259887Y-108446359D01*
X108144561Y-108435000D01*
X108144553Y-108435000D01*
X108106000Y-108431203D01*
X108067447Y-108435000D01*
X100865462Y-108435000D01*
X100868072Y-108408500D01*
X100865000Y-107741750D01*
X100706250Y-107583000D01*
X99357000Y-107583000D01*
X99357000Y-108884750D01*
X99456046Y-108983796D01*
X97432190Y-111007653D01*
X97402236Y-111032236D01*
X97304138Y-111151768D01*
X97231246Y-111288141D01*
X97186359Y-111436114D01*
X97175000Y-111551440D01*
X97175000Y-111551447D01*
X97171203Y-111590000D01*
X97175000Y-111628553D01*
X97175000Y-112544526D01*
X97013368Y-112652525D01*
X96806525Y-112859368D01*
X96684805Y-113041534D01*
X96615178Y-112924645D01*
X96420269Y-112708412D01*
X96186920Y-112534359D01*
X95924099Y-112409175D01*
X95776890Y-112364524D01*
X95547000Y-112485845D01*
X95547000Y-113679000D01*
X95567000Y-113679000D01*
X95567000Y-113933000D01*
X95547000Y-113933000D01*
X95547000Y-115126155D01*
X95776890Y-115247476D01*
X95924099Y-115202825D01*
X96186920Y-115077641D01*
X96420269Y-114903588D01*
X96615178Y-114687355D01*
X96684805Y-114570466D01*
X96806525Y-114752632D01*
X97013368Y-114959475D01*
X97256589Y-115121990D01*
X97526842Y-115233932D01*
X97813740Y-115291000D01*
X98106260Y-115291000D01*
X98393158Y-115233932D01*
X98663411Y-115121990D01*
X98906632Y-114959475D01*
X99113475Y-114752632D01*
X99230000Y-114578240D01*
X99346525Y-114752632D01*
X99553368Y-114959475D01*
X99796589Y-115121990D01*
X100066842Y-115233932D01*
X100353740Y-115291000D01*
X100646260Y-115291000D01*
X100933158Y-115233932D01*
X101203411Y-115121990D01*
X101446632Y-114959475D01*
X101653475Y-114752632D01*
X101815990Y-114509411D01*
X101927932Y-114239158D01*
X101985000Y-113952260D01*
X101985000Y-113659740D01*
X101927932Y-113372842D01*
X101815990Y-113102589D01*
X101653475Y-112859368D01*
X101446632Y-112652525D01*
X101285000Y-112544526D01*
X101285000Y-111915157D01*
X101925158Y-111275000D01*
X105616605Y-111275000D01*
X107306891Y-112965286D01*
X107102465Y-113101880D01*
X106907880Y-113296465D01*
X106754995Y-113525273D01*
X106649686Y-113779510D01*
X106596000Y-114049408D01*
X106596000Y-114324592D01*
X106620762Y-114449080D01*
X102474843Y-118595000D01*
X97439382Y-118595000D01*
X97456762Y-118553042D01*
X97480841Y-118507993D01*
X97495669Y-118459113D01*
X97515226Y-118411898D01*
X97525196Y-118361777D01*
X97540024Y-118312895D01*
X97545031Y-118262057D01*
X97555000Y-118211939D01*
X97555000Y-118160838D01*
X97560007Y-118110000D01*
X97555000Y-118059162D01*
X97555000Y-118008061D01*
X97545031Y-117957943D01*
X97540024Y-117907105D01*
X97525196Y-117858223D01*
X97515226Y-117808102D01*
X97495669Y-117760887D01*
X97480841Y-117712007D01*
X97456762Y-117666958D01*
X97437205Y-117619744D01*
X97408814Y-117577254D01*
X97384734Y-117532203D01*
X97352328Y-117492716D01*
X97323937Y-117450226D01*
X97287803Y-117414092D01*
X97255396Y-117374604D01*
X97215908Y-117342197D01*
X97179774Y-117306063D01*
X97137284Y-117277672D01*
X97097797Y-117245266D01*
X97052746Y-117221186D01*
X97010256Y-117192795D01*
X96963042Y-117173238D01*
X96917993Y-117149159D01*
X96869113Y-117134331D01*
X96821898Y-117114774D01*
X96771777Y-117104804D01*
X96722895Y-117089976D01*
X96672057Y-117084969D01*
X96621939Y-117075000D01*
X95678711Y-117075000D01*
X93915000Y-115311290D01*
X93915000Y-115263454D01*
X93974180Y-115245502D01*
X94084494Y-115186537D01*
X94181185Y-115107185D01*
X94260537Y-115010494D01*
X94319502Y-114900180D01*
X94343966Y-114819534D01*
X94419731Y-114903588D01*
X94653080Y-115077641D01*
X94915901Y-115202825D01*
X95063110Y-115247476D01*
X95293000Y-115126155D01*
X95293000Y-113933000D01*
X95273000Y-113933000D01*
X95273000Y-113679000D01*
X95293000Y-113679000D01*
X95293000Y-112485845D01*
X95063110Y-112364524D01*
X94915901Y-112409175D01*
X94653080Y-112534359D01*
X94419731Y-112708412D01*
X94343966Y-112792466D01*
X94319502Y-112711820D01*
X94260537Y-112601506D01*
X94181185Y-112504815D01*
X94084494Y-112425463D01*
X93974180Y-112366498D01*
X93854482Y-112330188D01*
X93730000Y-112317928D01*
X92030000Y-112317928D01*
X91905518Y-112330188D01*
X91785820Y-112366498D01*
X91675506Y-112425463D01*
X91578815Y-112504815D01*
X91499463Y-112601506D01*
X91440498Y-112711820D01*
X91422546Y-112771000D01*
X91374711Y-112771000D01*
X91205000Y-112601290D01*
X91205000Y-108584665D01*
X91445000Y-108584665D01*
X91445000Y-108867335D01*
X91500147Y-109144574D01*
X91608320Y-109405727D01*
X91765363Y-109640759D01*
X91965241Y-109840637D01*
X92200273Y-109997680D01*
X92461426Y-110105853D01*
X92738665Y-110161000D01*
X93021335Y-110161000D01*
X93298574Y-110105853D01*
X93559727Y-109997680D01*
X93794759Y-109840637D01*
X93994637Y-109640759D01*
X94151680Y-109405727D01*
X94259853Y-109144574D01*
X94315000Y-108867335D01*
X94315000Y-108584665D01*
X94279959Y-108408500D01*
X97591928Y-108408500D01*
X97604188Y-108532982D01*
X97640498Y-108652680D01*
X97699463Y-108762994D01*
X97778815Y-108859685D01*
X97875506Y-108939037D01*
X97985820Y-108998002D01*
X98105518Y-109034312D01*
X98230000Y-109046572D01*
X98944250Y-109043500D01*
X99103000Y-108884750D01*
X99103000Y-107583000D01*
X97753750Y-107583000D01*
X97595000Y-107741750D01*
X97591928Y-108408500D01*
X94279959Y-108408500D01*
X94259853Y-108307426D01*
X94151680Y-108046273D01*
X93994637Y-107811241D01*
X93794759Y-107611363D01*
X93559727Y-107454320D01*
X93298574Y-107346147D01*
X93021335Y-107291000D01*
X92738665Y-107291000D01*
X92461426Y-107346147D01*
X92200273Y-107454320D01*
X91965241Y-107611363D01*
X91765363Y-107811241D01*
X91608320Y-108046273D01*
X91500147Y-108307426D01*
X91445000Y-108584665D01*
X91205000Y-108584665D01*
X91205000Y-102920835D01*
X91210007Y-102870000D01*
X91205000Y-102819162D01*
X91190024Y-102667105D01*
X91130841Y-102472007D01*
X91037028Y-102296494D01*
X91034734Y-102292202D01*
X90937803Y-102174092D01*
X90905396Y-102134604D01*
X90865908Y-102102197D01*
X90218751Y-101455040D01*
X91488091Y-101455040D01*
X91582930Y-101719881D01*
X91727615Y-101961131D01*
X91916586Y-102169519D01*
X92142580Y-102337037D01*
X92396913Y-102457246D01*
X92530961Y-102497904D01*
X92753000Y-102375915D01*
X92753000Y-101233000D01*
X93007000Y-101233000D01*
X93007000Y-102375915D01*
X93229039Y-102497904D01*
X93363087Y-102457246D01*
X93534983Y-102376000D01*
X97587319Y-102376000D01*
X97617970Y-102687204D01*
X97708745Y-102986449D01*
X97856155Y-103262235D01*
X98054537Y-103503963D01*
X98227609Y-103646000D01*
X98054537Y-103788037D01*
X97856155Y-104029765D01*
X97708745Y-104305551D01*
X97617970Y-104604796D01*
X97587319Y-104916000D01*
X97617970Y-105227204D01*
X97708745Y-105526449D01*
X97856155Y-105802235D01*
X97959446Y-105928095D01*
X97875506Y-105972963D01*
X97778815Y-106052315D01*
X97699463Y-106149006D01*
X97640498Y-106259320D01*
X97604188Y-106379018D01*
X97591928Y-106503500D01*
X97595000Y-107170250D01*
X97753750Y-107329000D01*
X99103000Y-107329000D01*
X99103000Y-107309000D01*
X99357000Y-107309000D01*
X99357000Y-107329000D01*
X100706250Y-107329000D01*
X100713837Y-107321413D01*
X104704192Y-107321413D01*
X104799956Y-107585814D01*
X105089571Y-107726704D01*
X105401108Y-107808384D01*
X105722595Y-107827718D01*
X106041675Y-107783961D01*
X106346088Y-107678795D01*
X106520044Y-107585814D01*
X106615808Y-107321413D01*
X105660000Y-106365605D01*
X104704192Y-107321413D01*
X100713837Y-107321413D01*
X100865000Y-107170250D01*
X100868072Y-106503500D01*
X100855812Y-106379018D01*
X100819502Y-106259320D01*
X100813770Y-106248595D01*
X104018282Y-106248595D01*
X104062039Y-106567675D01*
X104167205Y-106872088D01*
X104260186Y-107046044D01*
X104524587Y-107141808D01*
X105480395Y-106186000D01*
X105839605Y-106186000D01*
X106795413Y-107141808D01*
X107059814Y-107046044D01*
X107200704Y-106756429D01*
X107282384Y-106444892D01*
X107301718Y-106123405D01*
X107257961Y-105804325D01*
X107152795Y-105499912D01*
X107059814Y-105325956D01*
X106795413Y-105230192D01*
X105839605Y-106186000D01*
X105480395Y-106186000D01*
X104524587Y-105230192D01*
X104260186Y-105325956D01*
X104119296Y-105615571D01*
X104037616Y-105927108D01*
X104018282Y-106248595D01*
X100813770Y-106248595D01*
X100760537Y-106149006D01*
X100681185Y-106052315D01*
X100584494Y-105972963D01*
X100500554Y-105928095D01*
X100603845Y-105802235D01*
X100751255Y-105526449D01*
X100842030Y-105227204D01*
X100859425Y-105050587D01*
X104704192Y-105050587D01*
X105660000Y-106006395D01*
X106480395Y-105186000D01*
X109021928Y-105186000D01*
X109021928Y-107186000D01*
X109034188Y-107310482D01*
X109070498Y-107430180D01*
X109129463Y-107540494D01*
X109208815Y-107637185D01*
X109305506Y-107716537D01*
X109415820Y-107775502D01*
X109535518Y-107811812D01*
X109625001Y-107820625D01*
X109625001Y-108069163D01*
X109619994Y-108120000D01*
X109639977Y-108322895D01*
X109699160Y-108517993D01*
X109795266Y-108697797D01*
X109864179Y-108781767D01*
X109924605Y-108855396D01*
X109964092Y-108887802D01*
X112262197Y-111185908D01*
X112294604Y-111225396D01*
X112334092Y-111257803D01*
X112452202Y-111354734D01*
X112548309Y-111406104D01*
X112632007Y-111450841D01*
X112827105Y-111510024D01*
X112979162Y-111525000D01*
X112979171Y-111525000D01*
X113029999Y-111530006D01*
X113080827Y-111525000D01*
X118059172Y-111525000D01*
X118110000Y-111530006D01*
X118160828Y-111525000D01*
X118160838Y-111525000D01*
X118312895Y-111510024D01*
X118507993Y-111450841D01*
X118687797Y-111354734D01*
X118845396Y-111225396D01*
X118877807Y-111185903D01*
X120245908Y-109817803D01*
X120285396Y-109785396D01*
X120342054Y-109716358D01*
X120414734Y-109627798D01*
X120510841Y-109447994D01*
X120533321Y-109373886D01*
X120570024Y-109252895D01*
X120585000Y-109100838D01*
X120585000Y-109100835D01*
X120590007Y-109050000D01*
X120585000Y-108999165D01*
X120585000Y-108521107D01*
X120703475Y-108402632D01*
X120820000Y-108228240D01*
X120936525Y-108402632D01*
X121143368Y-108609475D01*
X121386589Y-108771990D01*
X121656842Y-108883932D01*
X121943740Y-108941000D01*
X122236260Y-108941000D01*
X122523158Y-108883932D01*
X122793411Y-108771990D01*
X123036632Y-108609475D01*
X123168487Y-108477620D01*
X123190498Y-108550180D01*
X123249463Y-108660494D01*
X123328815Y-108757185D01*
X123425506Y-108836537D01*
X123535820Y-108895502D01*
X123655518Y-108931812D01*
X123780000Y-108944072D01*
X125480000Y-108944072D01*
X125604482Y-108931812D01*
X125724180Y-108895502D01*
X125834494Y-108836537D01*
X125931185Y-108757185D01*
X126010537Y-108660494D01*
X126069502Y-108550180D01*
X126105812Y-108430482D01*
X126118072Y-108306000D01*
X126118072Y-106606000D01*
X126105812Y-106481518D01*
X126069502Y-106361820D01*
X126010537Y-106251506D01*
X125931185Y-106154815D01*
X125834494Y-106075463D01*
X125724180Y-106016498D01*
X125651620Y-105994487D01*
X125783475Y-105862632D01*
X125945990Y-105619411D01*
X126057932Y-105349158D01*
X126115000Y-105062260D01*
X126115000Y-104769740D01*
X126057932Y-104482842D01*
X125945990Y-104212589D01*
X125783475Y-103969368D01*
X125576632Y-103762525D01*
X125333411Y-103600010D01*
X125063158Y-103488068D01*
X124776260Y-103431000D01*
X124483740Y-103431000D01*
X124196842Y-103488068D01*
X123926589Y-103600010D01*
X123683368Y-103762525D01*
X123476525Y-103969368D01*
X123360000Y-104143760D01*
X123243475Y-103969368D01*
X123036632Y-103762525D01*
X122793411Y-103600010D01*
X122523158Y-103488068D01*
X122236260Y-103431000D01*
X121943740Y-103431000D01*
X121656842Y-103488068D01*
X121386589Y-103600010D01*
X121143368Y-103762525D01*
X120936525Y-103969368D01*
X120820000Y-104143760D01*
X120703475Y-103969368D01*
X120496632Y-103762525D01*
X120253411Y-103600010D01*
X119983158Y-103488068D01*
X119696260Y-103431000D01*
X119403740Y-103431000D01*
X119116842Y-103488068D01*
X118846589Y-103600010D01*
X118603368Y-103762525D01*
X118396525Y-103969368D01*
X118274805Y-104151534D01*
X118205178Y-104034645D01*
X118010269Y-103818412D01*
X117776920Y-103644359D01*
X117514099Y-103519175D01*
X117366890Y-103474524D01*
X117137000Y-103595845D01*
X117137000Y-104789000D01*
X117157000Y-104789000D01*
X117157000Y-105043000D01*
X117137000Y-105043000D01*
X117137000Y-105063000D01*
X116883000Y-105063000D01*
X116883000Y-105043000D01*
X115689186Y-105043000D01*
X115568519Y-105272891D01*
X115665843Y-105547252D01*
X115814822Y-105797355D01*
X116009731Y-106013588D01*
X116239406Y-106184900D01*
X116063368Y-106302525D01*
X115856525Y-106509368D01*
X115748526Y-106671000D01*
X114832552Y-106671000D01*
X114793999Y-106667203D01*
X114755446Y-106671000D01*
X114755439Y-106671000D01*
X114654490Y-106680943D01*
X114640112Y-106682359D01*
X114605672Y-106692806D01*
X114492140Y-106727246D01*
X114355767Y-106800138D01*
X114236236Y-106898236D01*
X114222478Y-106915000D01*
X114198061Y-106915000D01*
X113998102Y-106954774D01*
X113809744Y-107032795D01*
X113640226Y-107146063D01*
X113496063Y-107290226D01*
X113382795Y-107459744D01*
X113304774Y-107648102D01*
X113265000Y-107848061D01*
X113265000Y-108051939D01*
X113304774Y-108251898D01*
X113382795Y-108440256D01*
X113496063Y-108609774D01*
X113640226Y-108753937D01*
X113809744Y-108867205D01*
X113998102Y-108945226D01*
X114198061Y-108985000D01*
X114401939Y-108985000D01*
X114601898Y-108945226D01*
X114790256Y-108867205D01*
X114959774Y-108753937D01*
X115103937Y-108609774D01*
X115217205Y-108440256D01*
X115295226Y-108251898D01*
X115297394Y-108241000D01*
X115748526Y-108241000D01*
X115856525Y-108402632D01*
X116063368Y-108609475D01*
X116306589Y-108771990D01*
X116576842Y-108883932D01*
X116863740Y-108941000D01*
X117156260Y-108941000D01*
X117443158Y-108883932D01*
X117713411Y-108771990D01*
X117956632Y-108609475D01*
X118163475Y-108402632D01*
X118280000Y-108228240D01*
X118396525Y-108402632D01*
X118515000Y-108521107D01*
X118515000Y-108621289D01*
X117681290Y-109455000D01*
X113458711Y-109455000D01*
X111808298Y-107804588D01*
X111904180Y-107775502D01*
X112014494Y-107716537D01*
X112111185Y-107637185D01*
X112190537Y-107540494D01*
X112249502Y-107430180D01*
X112285812Y-107310482D01*
X112298072Y-107186000D01*
X112298072Y-105186000D01*
X112285812Y-105061518D01*
X112249502Y-104941820D01*
X112190537Y-104831506D01*
X112111185Y-104734815D01*
X112014494Y-104655463D01*
X111904180Y-104596498D01*
X111784482Y-104560188D01*
X111773527Y-104559109D01*
X115568519Y-104559109D01*
X115689186Y-104789000D01*
X116883000Y-104789000D01*
X116883000Y-103595845D01*
X116653110Y-103474524D01*
X116505901Y-103519175D01*
X116243080Y-103644359D01*
X116009731Y-103818412D01*
X115814822Y-104034645D01*
X115665843Y-104284748D01*
X115568519Y-104559109D01*
X111773527Y-104559109D01*
X111660000Y-104547928D01*
X109660000Y-104547928D01*
X109535518Y-104560188D01*
X109415820Y-104596498D01*
X109305506Y-104655463D01*
X109208815Y-104734815D01*
X109129463Y-104831506D01*
X109070498Y-104941820D01*
X109034188Y-105061518D01*
X109021928Y-105186000D01*
X106480395Y-105186000D01*
X106615808Y-105050587D01*
X106520044Y-104786186D01*
X106230429Y-104645296D01*
X105918892Y-104563616D01*
X105597405Y-104544282D01*
X105278325Y-104588039D01*
X104973912Y-104693205D01*
X104799956Y-104786186D01*
X104704192Y-105050587D01*
X100859425Y-105050587D01*
X100872681Y-104916000D01*
X100842030Y-104604796D01*
X100751255Y-104305551D01*
X100603845Y-104029765D01*
X100405463Y-103788037D01*
X100232391Y-103646000D01*
X100405463Y-103503963D01*
X100603845Y-103262235D01*
X100751255Y-102986449D01*
X100842030Y-102687204D01*
X100872681Y-102376000D01*
X100842030Y-102064796D01*
X100751255Y-101765551D01*
X100603845Y-101489765D01*
X100405463Y-101248037D01*
X100163735Y-101049655D01*
X99887949Y-100902245D01*
X99588704Y-100811470D01*
X99355486Y-100788500D01*
X99104514Y-100788500D01*
X98871296Y-100811470D01*
X98572051Y-100902245D01*
X98296265Y-101049655D01*
X98054537Y-101248037D01*
X97856155Y-101489765D01*
X97708745Y-101765551D01*
X97617970Y-102064796D01*
X97587319Y-102376000D01*
X93534983Y-102376000D01*
X93617420Y-102337037D01*
X93843414Y-102169519D01*
X94032385Y-101961131D01*
X94177070Y-101719881D01*
X94271909Y-101455040D01*
X94150624Y-101233000D01*
X93007000Y-101233000D01*
X92753000Y-101233000D01*
X91609376Y-101233000D01*
X91488091Y-101455040D01*
X90218751Y-101455040D01*
X89520671Y-100756960D01*
X91488091Y-100756960D01*
X91609376Y-100979000D01*
X92753000Y-100979000D01*
X92753000Y-99836085D01*
X93007000Y-99836085D01*
X93007000Y-100979000D01*
X94150624Y-100979000D01*
X94271909Y-100756960D01*
X94177070Y-100492119D01*
X94032385Y-100250869D01*
X93935786Y-100144344D01*
X128925000Y-100144344D01*
X128925000Y-100515656D01*
X128997439Y-100879834D01*
X129139534Y-101222882D01*
X129345825Y-101531618D01*
X129608382Y-101794175D01*
X129917118Y-102000466D01*
X130260166Y-102142561D01*
X130624344Y-102215000D01*
X130995656Y-102215000D01*
X131359834Y-102142561D01*
X131702882Y-102000466D01*
X132011618Y-101794175D01*
X132274175Y-101531618D01*
X132480466Y-101222882D01*
X132622561Y-100879834D01*
X132695000Y-100515656D01*
X132695000Y-100144344D01*
X132622561Y-99780166D01*
X132480466Y-99437118D01*
X132274175Y-99128382D01*
X132011618Y-98865825D01*
X131702882Y-98659534D01*
X131359834Y-98517439D01*
X130995656Y-98445000D01*
X130624344Y-98445000D01*
X130260166Y-98517439D01*
X129917118Y-98659534D01*
X129608382Y-98865825D01*
X129345825Y-99128382D01*
X129139534Y-99437118D01*
X128997439Y-99780166D01*
X128925000Y-100144344D01*
X93935786Y-100144344D01*
X93843414Y-100042481D01*
X93617420Y-99874963D01*
X93363087Y-99754754D01*
X93229039Y-99714096D01*
X93007000Y-99836085D01*
X92753000Y-99836085D01*
X92530961Y-99714096D01*
X92396913Y-99754754D01*
X92142580Y-99874963D01*
X91916586Y-100042481D01*
X91727615Y-100250869D01*
X91582930Y-100492119D01*
X91488091Y-100756960D01*
X89520671Y-100756960D01*
X89159807Y-100396097D01*
X89127396Y-100356604D01*
X88969797Y-100227266D01*
X88789993Y-100131159D01*
X88594895Y-100071976D01*
X88442838Y-100057000D01*
X88442828Y-100057000D01*
X88392000Y-100051994D01*
X88341172Y-100057000D01*
X87309454Y-100057000D01*
X87291502Y-99997820D01*
X87232537Y-99887506D01*
X87153185Y-99790815D01*
X87056494Y-99711463D01*
X86946180Y-99652498D01*
X86826482Y-99616188D01*
X86702000Y-99603928D01*
X85002000Y-99603928D01*
X84877518Y-99616188D01*
X84757820Y-99652498D01*
X84647506Y-99711463D01*
X84550815Y-99790815D01*
X84471463Y-99887506D01*
X84412498Y-99997820D01*
X84394546Y-100057000D01*
X84378835Y-100057000D01*
X84328000Y-100051993D01*
X84277165Y-100057000D01*
X84277162Y-100057000D01*
X84125105Y-100071976D01*
X83930007Y-100131159D01*
X83905340Y-100144344D01*
X83750202Y-100227266D01*
X83632092Y-100324197D01*
X83592604Y-100356604D01*
X83560197Y-100396092D01*
X81854097Y-102102193D01*
X81814604Y-102134604D01*
X81685266Y-102292203D01*
X81589159Y-102472008D01*
X81529976Y-102667106D01*
X81515000Y-102819163D01*
X81515000Y-102819172D01*
X81509994Y-102870000D01*
X80660000Y-102870000D01*
X80660000Y-98428408D01*
X111549000Y-98428408D01*
X111549000Y-98703592D01*
X111602686Y-98973490D01*
X111707995Y-99227727D01*
X111860880Y-99456535D01*
X112055465Y-99651120D01*
X112284273Y-99804005D01*
X112538510Y-99909314D01*
X112808408Y-99963000D01*
X113083592Y-99963000D01*
X113353490Y-99909314D01*
X113607727Y-99804005D01*
X113836535Y-99651120D01*
X113956090Y-99531565D01*
X114827040Y-99531565D01*
X114894020Y-99771656D01*
X115143048Y-99888756D01*
X115410135Y-99955023D01*
X115685017Y-99967910D01*
X115957133Y-99926922D01*
X116216023Y-99833636D01*
X116331980Y-99771656D01*
X116398960Y-99531565D01*
X115613000Y-98745605D01*
X114827040Y-99531565D01*
X113956090Y-99531565D01*
X114031120Y-99456535D01*
X114184005Y-99227727D01*
X114281610Y-98992090D01*
X114345364Y-99169023D01*
X114407344Y-99284980D01*
X114647435Y-99351960D01*
X115433395Y-98566000D01*
X115792605Y-98566000D01*
X116578565Y-99351960D01*
X116818656Y-99284980D01*
X116935756Y-99035952D01*
X117002023Y-98768865D01*
X117014910Y-98493983D01*
X116973922Y-98221867D01*
X116880636Y-97962977D01*
X116818656Y-97847020D01*
X116578565Y-97780040D01*
X115792605Y-98566000D01*
X115433395Y-98566000D01*
X114647435Y-97780040D01*
X114407344Y-97847020D01*
X114290244Y-98096048D01*
X114280204Y-98136516D01*
X114184005Y-97904273D01*
X114031120Y-97675465D01*
X113956090Y-97600435D01*
X114827040Y-97600435D01*
X115613000Y-98386395D01*
X116398960Y-97600435D01*
X116331980Y-97360344D01*
X116082952Y-97243244D01*
X115815865Y-97176977D01*
X115540983Y-97164090D01*
X115268867Y-97205078D01*
X115009977Y-97298364D01*
X114894020Y-97360344D01*
X114827040Y-97600435D01*
X113956090Y-97600435D01*
X113836535Y-97480880D01*
X113607727Y-97327995D01*
X113353490Y-97222686D01*
X113083592Y-97169000D01*
X112808408Y-97169000D01*
X112538510Y-97222686D01*
X112284273Y-97327995D01*
X112055465Y-97480880D01*
X111860880Y-97675465D01*
X111707995Y-97904273D01*
X111602686Y-98158510D01*
X111549000Y-98428408D01*
X80660000Y-98428408D01*
X80660000Y-95660000D01*
X134340000Y-95660000D01*
X134340001Y-171323000D01*
G36*
X89135000Y-103298711D02*
G01*
X89135001Y-112979162D01*
X89129994Y-113030000D01*
X89149977Y-113232895D01*
X89209160Y-113427993D01*
X89305266Y-113607797D01*
X89394927Y-113717048D01*
X89434605Y-113765396D01*
X89474092Y-113797802D01*
X90178197Y-114501908D01*
X90210604Y-114541396D01*
X90250092Y-114573803D01*
X90368202Y-114670734D01*
X90450669Y-114714813D01*
X90548007Y-114766841D01*
X90743105Y-114826024D01*
X90895162Y-114841000D01*
X90895165Y-114841000D01*
X90946000Y-114846007D01*
X90996835Y-114841000D01*
X91422546Y-114841000D01*
X91440498Y-114900180D01*
X91499463Y-115010494D01*
X91578815Y-115107185D01*
X91675506Y-115186537D01*
X91785820Y-115245502D01*
X91845001Y-115263454D01*
X91845001Y-115689163D01*
X91839994Y-115740000D01*
X91859977Y-115942895D01*
X91919160Y-116137993D01*
X92015266Y-116317797D01*
X92103362Y-116425141D01*
X92144605Y-116475396D01*
X92184092Y-116507802D01*
X94482197Y-118805908D01*
X94514604Y-118845396D01*
X94554092Y-118877803D01*
X94672202Y-118974734D01*
X94768309Y-119026104D01*
X94852007Y-119070841D01*
X95047105Y-119130024D01*
X95199162Y-119145000D01*
X95199171Y-119145000D01*
X95249999Y-119150006D01*
X95300827Y-119145000D01*
X95644843Y-119145000D01*
X89082843Y-125707000D01*
X87113474Y-125707000D01*
X87005475Y-125545368D01*
X86798632Y-125338525D01*
X86624240Y-125222000D01*
X86798632Y-125105475D01*
X87005475Y-124898632D01*
X87167990Y-124655411D01*
X87279932Y-124385158D01*
X87337000Y-124098260D01*
X87337000Y-123805740D01*
X87279932Y-123518842D01*
X87167990Y-123248589D01*
X87005475Y-123005368D01*
X86798632Y-122798525D01*
X86624240Y-122682000D01*
X86798632Y-122565475D01*
X87005475Y-122358632D01*
X87167990Y-122115411D01*
X87279932Y-121845158D01*
X87337000Y-121558260D01*
X87337000Y-121265740D01*
X87279932Y-120978842D01*
X87167990Y-120708589D01*
X87005475Y-120465368D01*
X86798632Y-120258525D01*
X86624240Y-120142000D01*
X86798632Y-120025475D01*
X87005475Y-119818632D01*
X87167990Y-119575411D01*
X87279932Y-119305158D01*
X87337000Y-119018260D01*
X87337000Y-118725740D01*
X87279932Y-118438842D01*
X87167990Y-118168589D01*
X87005475Y-117925368D01*
X86798632Y-117718525D01*
X86624240Y-117602000D01*
X86798632Y-117485475D01*
X87005475Y-117278632D01*
X87167990Y-117035411D01*
X87279932Y-116765158D01*
X87337000Y-116478260D01*
X87337000Y-116185740D01*
X87279932Y-115898842D01*
X87167990Y-115628589D01*
X87005475Y-115385368D01*
X86798632Y-115178525D01*
X86624240Y-115062000D01*
X86798632Y-114945475D01*
X87005475Y-114738632D01*
X87167990Y-114495411D01*
X87279932Y-114225158D01*
X87337000Y-113938260D01*
X87337000Y-113645740D01*
X87279932Y-113358842D01*
X87167990Y-113088589D01*
X87005475Y-112845368D01*
X86798632Y-112638525D01*
X86616466Y-112516805D01*
X86733355Y-112447178D01*
X86949588Y-112252269D01*
X87123641Y-112018920D01*
X87248825Y-111756099D01*
X87293476Y-111608890D01*
X87172155Y-111379000D01*
X85979000Y-111379000D01*
X85979000Y-111399000D01*
X85725000Y-111399000D01*
X85725000Y-111379000D01*
X84531845Y-111379000D01*
X84410524Y-111608890D01*
X84455175Y-111756099D01*
X84580359Y-112018920D01*
X84754412Y-112252269D01*
X84970645Y-112447178D01*
X85087534Y-112516805D01*
X84905368Y-112638525D01*
X84698525Y-112845368D01*
X84536010Y-113088589D01*
X84424068Y-113358842D01*
X84367000Y-113645740D01*
X84367000Y-113938260D01*
X84424068Y-114225158D01*
X84536010Y-114495411D01*
X84698525Y-114738632D01*
X84905368Y-114945475D01*
X85079760Y-115062000D01*
X84905368Y-115178525D01*
X84698525Y-115385368D01*
X84536010Y-115628589D01*
X84424068Y-115898842D01*
X84367000Y-116185740D01*
X84367000Y-116478260D01*
X84424068Y-116765158D01*
X84536010Y-117035411D01*
X84698525Y-117278632D01*
X84905368Y-117485475D01*
X85079760Y-117602000D01*
X84905368Y-117718525D01*
X84698525Y-117925368D01*
X84536010Y-118168589D01*
X84424068Y-118438842D01*
X84367000Y-118725740D01*
X84367000Y-119018260D01*
X84424068Y-119305158D01*
X84536010Y-119575411D01*
X84698525Y-119818632D01*
X84905368Y-120025475D01*
X85079760Y-120142000D01*
X84905368Y-120258525D01*
X84698525Y-120465368D01*
X84536010Y-120708589D01*
X84424068Y-120978842D01*
X84367000Y-121265740D01*
X84367000Y-121558260D01*
X84424068Y-121845158D01*
X84536010Y-122115411D01*
X84698525Y-122358632D01*
X84905368Y-122565475D01*
X85079760Y-122682000D01*
X84905368Y-122798525D01*
X84698525Y-123005368D01*
X84536010Y-123248589D01*
X84424068Y-123518842D01*
X84367000Y-123805740D01*
X84367000Y-124098260D01*
X84424068Y-124385158D01*
X84536010Y-124655411D01*
X84698525Y-124898632D01*
X84905368Y-125105475D01*
X85079760Y-125222000D01*
X84905368Y-125338525D01*
X84698525Y-125545368D01*
X84536010Y-125788589D01*
X84424068Y-126058842D01*
X84367000Y-126345740D01*
X84367000Y-126638260D01*
X84424068Y-126925158D01*
X84536010Y-127195411D01*
X84698525Y-127438632D01*
X84905368Y-127645475D01*
X85079760Y-127762000D01*
X84905368Y-127878525D01*
X84698525Y-128085368D01*
X84536010Y-128328589D01*
X84424068Y-128598842D01*
X84367000Y-128885740D01*
X84367000Y-129178260D01*
X84424068Y-129465158D01*
X84536010Y-129735411D01*
X84698525Y-129978632D01*
X84905368Y-130185475D01*
X85079760Y-130302000D01*
X84905368Y-130418525D01*
X84698525Y-130625368D01*
X84536010Y-130868589D01*
X84424068Y-131138842D01*
X84367000Y-131425740D01*
X84367000Y-131718260D01*
X84424068Y-132005158D01*
X84536010Y-132275411D01*
X84698525Y-132518632D01*
X84905368Y-132725475D01*
X85079760Y-132842000D01*
X84905368Y-132958525D01*
X84698525Y-133165368D01*
X84536010Y-133408589D01*
X84424068Y-133678842D01*
X84367000Y-133965740D01*
X84367000Y-134258260D01*
X84424068Y-134545158D01*
X84536010Y-134815411D01*
X84698525Y-135058632D01*
X84905368Y-135265475D01*
X85079760Y-135382000D01*
X84905368Y-135498525D01*
X84786893Y-135617000D01*
X83740711Y-135617000D01*
X83585000Y-135461290D01*
X83585000Y-106025740D01*
X84367000Y-106025740D01*
X84367000Y-106318260D01*
X84424068Y-106605158D01*
X84536010Y-106875411D01*
X84698525Y-107118632D01*
X84905368Y-107325475D01*
X85079760Y-107442000D01*
X84905368Y-107558525D01*
X84698525Y-107765368D01*
X84536010Y-108008589D01*
X84424068Y-108278842D01*
X84367000Y-108565740D01*
X84367000Y-108858260D01*
X84424068Y-109145158D01*
X84536010Y-109415411D01*
X84698525Y-109658632D01*
X84905368Y-109865475D01*
X85087534Y-109987195D01*
X84970645Y-110056822D01*
X84754412Y-110251731D01*
X84580359Y-110485080D01*
X84455175Y-110747901D01*
X84410524Y-110895110D01*
X84531845Y-111125000D01*
X85725000Y-111125000D01*
X85725000Y-111105000D01*
X85979000Y-111105000D01*
X85979000Y-111125000D01*
X87172155Y-111125000D01*
X87293476Y-110895110D01*
X87248825Y-110747901D01*
X87123641Y-110485080D01*
X86949588Y-110251731D01*
X86733355Y-110056822D01*
X86616466Y-109987195D01*
X86798632Y-109865475D01*
X87005475Y-109658632D01*
X87167990Y-109415411D01*
X87279932Y-109145158D01*
X87337000Y-108858260D01*
X87337000Y-108565740D01*
X87279932Y-108278842D01*
X87167990Y-108008589D01*
X87005475Y-107765368D01*
X86798632Y-107558525D01*
X86624240Y-107442000D01*
X86798632Y-107325475D01*
X87005475Y-107118632D01*
X87167990Y-106875411D01*
X87279932Y-106605158D01*
X87337000Y-106318260D01*
X87337000Y-106025740D01*
X87279932Y-105738842D01*
X87167990Y-105468589D01*
X87005475Y-105225368D01*
X86798632Y-105018525D01*
X86616466Y-104896805D01*
X86733355Y-104827178D01*
X86949588Y-104632269D01*
X87123641Y-104398920D01*
X87248825Y-104136099D01*
X87293476Y-103988890D01*
X87172155Y-103759000D01*
X85979000Y-103759000D01*
X85979000Y-103779000D01*
X85725000Y-103779000D01*
X85725000Y-103759000D01*
X84531845Y-103759000D01*
X84410524Y-103988890D01*
X84455175Y-104136099D01*
X84580359Y-104398920D01*
X84754412Y-104632269D01*
X84970645Y-104827178D01*
X85087534Y-104896805D01*
X84905368Y-105018525D01*
X84698525Y-105225368D01*
X84536010Y-105468589D01*
X84424068Y-105738842D01*
X84367000Y-106025740D01*
X83585000Y-106025740D01*
X83585000Y-103298710D01*
X84523639Y-102360071D01*
X84550815Y-102393185D01*
X84647506Y-102472537D01*
X84757820Y-102531502D01*
X84838466Y-102555966D01*
X84754412Y-102631731D01*
X84580359Y-102865080D01*
X84455175Y-103127901D01*
X84410524Y-103275110D01*
X84531845Y-103505000D01*
X85725000Y-103505000D01*
X85725000Y-103485000D01*
X85979000Y-103485000D01*
X85979000Y-103505000D01*
X87172155Y-103505000D01*
X87293476Y-103275110D01*
X87248825Y-103127901D01*
X87123641Y-102865080D01*
X86949588Y-102631731D01*
X86865534Y-102555966D01*
X86946180Y-102531502D01*
X87056494Y-102472537D01*
X87153185Y-102393185D01*
X87232537Y-102296494D01*
X87291502Y-102186180D01*
X87309454Y-102127000D01*
X87963290Y-102127000D01*
X89135000Y-103298711D01*
G37*
X89135000Y-103298711D02*
X89135001Y-112979162D01*
X89129994Y-113030000D01*
X89149977Y-113232895D01*
X89209160Y-113427993D01*
X89305266Y-113607797D01*
X89394927Y-113717048D01*
X89434605Y-113765396D01*
X89474092Y-113797802D01*
X90178197Y-114501908D01*
X90210604Y-114541396D01*
X90250092Y-114573803D01*
X90368202Y-114670734D01*
X90450669Y-114714813D01*
X90548007Y-114766841D01*
X90743105Y-114826024D01*
X90895162Y-114841000D01*
X90895165Y-114841000D01*
X90946000Y-114846007D01*
X90996835Y-114841000D01*
X91422546Y-114841000D01*
X91440498Y-114900180D01*
X91499463Y-115010494D01*
X91578815Y-115107185D01*
X91675506Y-115186537D01*
X91785820Y-115245502D01*
X91845001Y-115263454D01*
X91845001Y-115689163D01*
X91839994Y-115740000D01*
X91859977Y-115942895D01*
X91919160Y-116137993D01*
X92015266Y-116317797D01*
X92103362Y-116425141D01*
X92144605Y-116475396D01*
X92184092Y-116507802D01*
X94482197Y-118805908D01*
X94514604Y-118845396D01*
X94554092Y-118877803D01*
X94672202Y-118974734D01*
X94768309Y-119026104D01*
X94852007Y-119070841D01*
X95047105Y-119130024D01*
X95199162Y-119145000D01*
X95199171Y-119145000D01*
X95249999Y-119150006D01*
X95300827Y-119145000D01*
X95644843Y-119145000D01*
X89082843Y-125707000D01*
X87113474Y-125707000D01*
X87005475Y-125545368D01*
X86798632Y-125338525D01*
X86624240Y-125222000D01*
X86798632Y-125105475D01*
X87005475Y-124898632D01*
X87167990Y-124655411D01*
X87279932Y-124385158D01*
X87337000Y-124098260D01*
X87337000Y-123805740D01*
X87279932Y-123518842D01*
X87167990Y-123248589D01*
X87005475Y-123005368D01*
X86798632Y-122798525D01*
X86624240Y-122682000D01*
X86798632Y-122565475D01*
X87005475Y-122358632D01*
X87167990Y-122115411D01*
X87279932Y-121845158D01*
X87337000Y-121558260D01*
X87337000Y-121265740D01*
X87279932Y-120978842D01*
X87167990Y-120708589D01*
X87005475Y-120465368D01*
X86798632Y-120258525D01*
X86624240Y-120142000D01*
X86798632Y-120025475D01*
X87005475Y-119818632D01*
X87167990Y-119575411D01*
X87279932Y-119305158D01*
X87337000Y-119018260D01*
X87337000Y-118725740D01*
X87279932Y-118438842D01*
X87167990Y-118168589D01*
X87005475Y-117925368D01*
X86798632Y-117718525D01*
X86624240Y-117602000D01*
X86798632Y-117485475D01*
X87005475Y-117278632D01*
X87167990Y-117035411D01*
X87279932Y-116765158D01*
X87337000Y-116478260D01*
X87337000Y-116185740D01*
X87279932Y-115898842D01*
X87167990Y-115628589D01*
X87005475Y-115385368D01*
X86798632Y-115178525D01*
X86624240Y-115062000D01*
X86798632Y-114945475D01*
X87005475Y-114738632D01*
X87167990Y-114495411D01*
X87279932Y-114225158D01*
X87337000Y-113938260D01*
X87337000Y-113645740D01*
X87279932Y-113358842D01*
X87167990Y-113088589D01*
X87005475Y-112845368D01*
X86798632Y-112638525D01*
X86616466Y-112516805D01*
X86733355Y-112447178D01*
X86949588Y-112252269D01*
X87123641Y-112018920D01*
X87248825Y-111756099D01*
X87293476Y-111608890D01*
X87172155Y-111379000D01*
X85979000Y-111379000D01*
X85979000Y-111399000D01*
X85725000Y-111399000D01*
X85725000Y-111379000D01*
X84531845Y-111379000D01*
X84410524Y-111608890D01*
X84455175Y-111756099D01*
X84580359Y-112018920D01*
X84754412Y-112252269D01*
X84970645Y-112447178D01*
X85087534Y-112516805D01*
X84905368Y-112638525D01*
X84698525Y-112845368D01*
X84536010Y-113088589D01*
X84424068Y-113358842D01*
X84367000Y-113645740D01*
X84367000Y-113938260D01*
X84424068Y-114225158D01*
X84536010Y-114495411D01*
X84698525Y-114738632D01*
X84905368Y-114945475D01*
X85079760Y-115062000D01*
X84905368Y-115178525D01*
X84698525Y-115385368D01*
X84536010Y-115628589D01*
X84424068Y-115898842D01*
X84367000Y-116185740D01*
X84367000Y-116478260D01*
X84424068Y-116765158D01*
X84536010Y-117035411D01*
X84698525Y-117278632D01*
X84905368Y-117485475D01*
X85079760Y-117602000D01*
X84905368Y-117718525D01*
X84698525Y-117925368D01*
X84536010Y-118168589D01*
X84424068Y-118438842D01*
X84367000Y-118725740D01*
X84367000Y-119018260D01*
X84424068Y-119305158D01*
X84536010Y-119575411D01*
X84698525Y-119818632D01*
X84905368Y-120025475D01*
X85079760Y-120142000D01*
X84905368Y-120258525D01*
X84698525Y-120465368D01*
X84536010Y-120708589D01*
X84424068Y-120978842D01*
X84367000Y-121265740D01*
X84367000Y-121558260D01*
X84424068Y-121845158D01*
X84536010Y-122115411D01*
X84698525Y-122358632D01*
X84905368Y-122565475D01*
X85079760Y-122682000D01*
X84905368Y-122798525D01*
X84698525Y-123005368D01*
X84536010Y-123248589D01*
X84424068Y-123518842D01*
X84367000Y-123805740D01*
X84367000Y-124098260D01*
X84424068Y-124385158D01*
X84536010Y-124655411D01*
X84698525Y-124898632D01*
X84905368Y-125105475D01*
X85079760Y-125222000D01*
X84905368Y-125338525D01*
X84698525Y-125545368D01*
X84536010Y-125788589D01*
X84424068Y-126058842D01*
X84367000Y-126345740D01*
X84367000Y-126638260D01*
X84424068Y-126925158D01*
X84536010Y-127195411D01*
X84698525Y-127438632D01*
X84905368Y-127645475D01*
X85079760Y-127762000D01*
X84905368Y-127878525D01*
X84698525Y-128085368D01*
X84536010Y-128328589D01*
X84424068Y-128598842D01*
X84367000Y-128885740D01*
X84367000Y-129178260D01*
X84424068Y-129465158D01*
X84536010Y-129735411D01*
X84698525Y-129978632D01*
X84905368Y-130185475D01*
X85079760Y-130302000D01*
X84905368Y-130418525D01*
X84698525Y-130625368D01*
X84536010Y-130868589D01*
X84424068Y-131138842D01*
X84367000Y-131425740D01*
X84367000Y-131718260D01*
X84424068Y-132005158D01*
X84536010Y-132275411D01*
X84698525Y-132518632D01*
X84905368Y-132725475D01*
X85079760Y-132842000D01*
X84905368Y-132958525D01*
X84698525Y-133165368D01*
X84536010Y-133408589D01*
X84424068Y-133678842D01*
X84367000Y-133965740D01*
X84367000Y-134258260D01*
X84424068Y-134545158D01*
X84536010Y-134815411D01*
X84698525Y-135058632D01*
X84905368Y-135265475D01*
X85079760Y-135382000D01*
X84905368Y-135498525D01*
X84786893Y-135617000D01*
X83740711Y-135617000D01*
X83585000Y-135461290D01*
X83585000Y-106025740D01*
X84367000Y-106025740D01*
X84367000Y-106318260D01*
X84424068Y-106605158D01*
X84536010Y-106875411D01*
X84698525Y-107118632D01*
X84905368Y-107325475D01*
X85079760Y-107442000D01*
X84905368Y-107558525D01*
X84698525Y-107765368D01*
X84536010Y-108008589D01*
X84424068Y-108278842D01*
X84367000Y-108565740D01*
X84367000Y-108858260D01*
X84424068Y-109145158D01*
X84536010Y-109415411D01*
X84698525Y-109658632D01*
X84905368Y-109865475D01*
X85087534Y-109987195D01*
X84970645Y-110056822D01*
X84754412Y-110251731D01*
X84580359Y-110485080D01*
X84455175Y-110747901D01*
X84410524Y-110895110D01*
X84531845Y-111125000D01*
X85725000Y-111125000D01*
X85725000Y-111105000D01*
X85979000Y-111105000D01*
X85979000Y-111125000D01*
X87172155Y-111125000D01*
X87293476Y-110895110D01*
X87248825Y-110747901D01*
X87123641Y-110485080D01*
X86949588Y-110251731D01*
X86733355Y-110056822D01*
X86616466Y-109987195D01*
X86798632Y-109865475D01*
X87005475Y-109658632D01*
X87167990Y-109415411D01*
X87279932Y-109145158D01*
X87337000Y-108858260D01*
X87337000Y-108565740D01*
X87279932Y-108278842D01*
X87167990Y-108008589D01*
X87005475Y-107765368D01*
X86798632Y-107558525D01*
X86624240Y-107442000D01*
X86798632Y-107325475D01*
X87005475Y-107118632D01*
X87167990Y-106875411D01*
X87279932Y-106605158D01*
X87337000Y-106318260D01*
X87337000Y-106025740D01*
X87279932Y-105738842D01*
X87167990Y-105468589D01*
X87005475Y-105225368D01*
X86798632Y-105018525D01*
X86616466Y-104896805D01*
X86733355Y-104827178D01*
X86949588Y-104632269D01*
X87123641Y-104398920D01*
X87248825Y-104136099D01*
X87293476Y-103988890D01*
X87172155Y-103759000D01*
X85979000Y-103759000D01*
X85979000Y-103779000D01*
X85725000Y-103779000D01*
X85725000Y-103759000D01*
X84531845Y-103759000D01*
X84410524Y-103988890D01*
X84455175Y-104136099D01*
X84580359Y-104398920D01*
X84754412Y-104632269D01*
X84970645Y-104827178D01*
X85087534Y-104896805D01*
X84905368Y-105018525D01*
X84698525Y-105225368D01*
X84536010Y-105468589D01*
X84424068Y-105738842D01*
X84367000Y-106025740D01*
X83585000Y-106025740D01*
X83585000Y-103298710D01*
X84523639Y-102360071D01*
X84550815Y-102393185D01*
X84647506Y-102472537D01*
X84757820Y-102531502D01*
X84838466Y-102555966D01*
X84754412Y-102631731D01*
X84580359Y-102865080D01*
X84455175Y-103127901D01*
X84410524Y-103275110D01*
X84531845Y-103505000D01*
X85725000Y-103505000D01*
X85725000Y-103485000D01*
X85979000Y-103485000D01*
X85979000Y-103505000D01*
X87172155Y-103505000D01*
X87293476Y-103275110D01*
X87248825Y-103127901D01*
X87123641Y-102865080D01*
X86949588Y-102631731D01*
X86865534Y-102555966D01*
X86946180Y-102531502D01*
X87056494Y-102472537D01*
X87153185Y-102393185D01*
X87232537Y-102296494D01*
X87291502Y-102186180D01*
X87309454Y-102127000D01*
X87963290Y-102127000D01*
X89135000Y-103298711D01*
G36*
X97280273Y-132854320D02*
G01*
X97045241Y-133011363D01*
X96845363Y-133211241D01*
X96711308Y-133411869D01*
X96696671Y-133384486D01*
X96452702Y-133312903D01*
X95639605Y-134126000D01*
X95653748Y-134140143D01*
X95474143Y-134319748D01*
X95460000Y-134305605D01*
X95445858Y-134319748D01*
X95266253Y-134140143D01*
X95280395Y-134126000D01*
X95266253Y-134111858D01*
X95445858Y-133932253D01*
X95460000Y-133946395D01*
X96273097Y-133133298D01*
X96201514Y-132889329D01*
X95946004Y-132768429D01*
X95880462Y-132752000D01*
X97527296Y-132752000D01*
X97280273Y-132854320D01*
G37*
X97280273Y-132854320D02*
X97045241Y-133011363D01*
X96845363Y-133211241D01*
X96711308Y-133411869D01*
X96696671Y-133384486D01*
X96452702Y-133312903D01*
X95639605Y-134126000D01*
X95653748Y-134140143D01*
X95474143Y-134319748D01*
X95460000Y-134305605D01*
X95445858Y-134319748D01*
X95266253Y-134140143D01*
X95280395Y-134126000D01*
X95266253Y-134111858D01*
X95445858Y-133932253D01*
X95460000Y-133946395D01*
X96273097Y-133133298D01*
X96201514Y-132889329D01*
X95946004Y-132768429D01*
X95880462Y-132752000D01*
X97527296Y-132752000D01*
X97280273Y-132854320D01*
G36*
X95743628Y-124610216D02*
G01*
X95722795Y-124549912D01*
X95629814Y-124375956D01*
X95365413Y-124280192D01*
X94409605Y-125236000D01*
X94423748Y-125250143D01*
X94244143Y-125429748D01*
X94230000Y-125415605D01*
X93274192Y-126371413D01*
X93369956Y-126635814D01*
X93604117Y-126749727D01*
X89566845Y-130787000D01*
X87113474Y-130787000D01*
X87005475Y-130625368D01*
X86798632Y-130418525D01*
X86624240Y-130302000D01*
X86798632Y-130185475D01*
X87005475Y-129978632D01*
X87113474Y-129817000D01*
X88397445Y-129817000D01*
X88435998Y-129820797D01*
X88474551Y-129817000D01*
X88474559Y-129817000D01*
X88589885Y-129805641D01*
X88737858Y-129760754D01*
X88874231Y-129687862D01*
X88993762Y-129589764D01*
X89018345Y-129559810D01*
X92716372Y-125861784D01*
X92737205Y-125922088D01*
X92830186Y-126096044D01*
X93094587Y-126191808D01*
X94050395Y-125236000D01*
X94036253Y-125221858D01*
X94215858Y-125042253D01*
X94230000Y-125056395D01*
X95185808Y-124100587D01*
X95090044Y-123836186D01*
X94855883Y-123722273D01*
X96845158Y-121732998D01*
X98620846Y-121732998D01*
X95743628Y-124610216D01*
G37*
X95743628Y-124610216D02*
X95722795Y-124549912D01*
X95629814Y-124375956D01*
X95365413Y-124280192D01*
X94409605Y-125236000D01*
X94423748Y-125250143D01*
X94244143Y-125429748D01*
X94230000Y-125415605D01*
X93274192Y-126371413D01*
X93369956Y-126635814D01*
X93604117Y-126749727D01*
X89566845Y-130787000D01*
X87113474Y-130787000D01*
X87005475Y-130625368D01*
X86798632Y-130418525D01*
X86624240Y-130302000D01*
X86798632Y-130185475D01*
X87005475Y-129978632D01*
X87113474Y-129817000D01*
X88397445Y-129817000D01*
X88435998Y-129820797D01*
X88474551Y-129817000D01*
X88474559Y-129817000D01*
X88589885Y-129805641D01*
X88737858Y-129760754D01*
X88874231Y-129687862D01*
X88993762Y-129589764D01*
X89018345Y-129559810D01*
X92716372Y-125861784D01*
X92737205Y-125922088D01*
X92830186Y-126096044D01*
X93094587Y-126191808D01*
X94050395Y-125236000D01*
X94036253Y-125221858D01*
X94215858Y-125042253D01*
X94230000Y-125056395D01*
X95185808Y-124100587D01*
X95090044Y-123836186D01*
X94855883Y-123722273D01*
X96845158Y-121732998D01*
X98620846Y-121732998D01*
X95743628Y-124610216D01*
M02*
